<?xml version="1.0" encoding="utf-8"?>
<!-- Generator: Adobe Illustrator 25.4.1, SVG Export Plug-In . SVG Version: 6.00 Build 0)  -->
<svg version="1.1" id="Layer_1" xmlns="http://www.w3.org/2000/svg" xmlns:xlink="http://www.w3.org/1999/xlink" x="0px" y="0px"
	 viewBox="0 0 1366 768" style="enable-background:new 0 0 1366 768;" xml:space="preserve">
<style type="text/css">
	.st0{fill:#9B5E15;}
	.st1{fill:#AC601B;}
	.st2{fill:#B65F10;}
	.st3{fill:#BC600A;}
	.st4{fill:#BD7117;}
	.st5{fill:#AF6610;}
	.st6{fill:#AA5F07;}
	.st7{fill:#AF6917;}
	.st8{fill:#C67D28;}
	.st9{fill:#DE9343;}
	.st10{fill:#E89740;}
	.st11{fill:#D87F1F;}
	.st12{fill:#824106;}
	.st13{fill:#7BB4EA;}
</style>
<rect x="886.63" y="28.55" class="st0" width="33.31" height="219.86"/>
<rect x="506.86" y="61.86" class="st1" width="33.31" height="268.72"/>
<rect x="506.86" y="61.86" class="st1" width="33.31" height="268.72"/>
<rect x="480.21" y="104.06" class="st1" width="26.65" height="322.02"/>
<rect x="480.21" y="104.06" class="st2" width="26.65" height="322.02"/>
<rect x="355.85" y="272.84" class="st1" width="59.96" height="406.42"/>
<rect x="355.85" y="272.84" class="st2" width="59.96" height="406.42"/>
<rect x="453.56" y="164.02" class="st1" width="26.65" height="359.78"/>
<rect x="453.56" y="164.02" class="st3" width="26.65" height="359.78"/>
<rect x="218.15" y="439.4" class="st1" width="104.38" height="275.39"/>
<rect x="218.15" y="439.4" class="st3" width="104.38" height="275.39"/>
<rect x="415.81" y="203.99" class="st1" width="37.75" height="444.17"/>
<rect x="415.81" y="203.99" class="st1" width="37.75" height="444.17"/>
<rect x="191.5" y="523.8" class="st1" width="37.75" height="295.37"/>
<rect x="191.5" y="523.8" class="st1" width="37.75" height="295.37"/>
<rect x="313.65" y="375" class="st1" width="42.2" height="366.44"/>
<rect x="313.65" y="375" class="st1" width="42.2" height="366.44"/>
<rect x="1175.34" y="521.58" class="st0" width="102.16" height="186.55"/>
<rect x="966.58" y="179.56" class="st4" width="71.07" height="413.08"/>
<rect x="1002.12" y="330.58" class="st4" width="115.48" height="413.08"/>
<rect x="1015.44" y="248.41" class="st5" width="22.21" height="430.85"/>
<rect x="1015.44" y="248.41" class="st5" width="22.21" height="430.85"/>
<rect x="1037.65" y="295.05" class="st5" width="22.21" height="413.08"/>
<rect x="1037.65" y="295.05" class="st6" width="22.21" height="413.08"/>
<rect x="919.94" y="84.07" class="st7" width="53.3" height="364.22"/>
<rect x="1102.05" y="403.87" class="st7" width="73.29" height="317.58"/>
<rect x="555.72" y="61.86" class="st8" width="330.91" height="617.4"/>
<path class="st8" d="M595.53,145.3l271.25-77.78c2.36-0.68,4.82,0.69,5.49,3.05l190.58,664.64c0.68,2.36-0.69,4.82-3.05,5.49
	l-271.25,77.78c-2.36,0.68-4.82-0.69-5.49-3.05L592.48,150.8C591.81,148.44,593.17,145.98,595.53,145.3z"/>
<rect x="262.71" y="302.39" transform="matrix(0.2419 -0.9703 0.9703 0.2419 29.9765 934.2153)" class="st8" width="700.31" height="291.07"/>
<rect x="540.18" y="41.87" class="st9" width="59.96" height="68.85"/>
<rect x="637.9" y="21.88" class="st10" width="248.74" height="88.83"/>
<path class="st9" d="M615.69,28.55l75.01,81.62H540.68L615.69,28.55z"/>
<rect x="540.18" y="110.72" class="st8" width="6.66" height="28.87"/>
<path class="st11" d="M885.66,27.57l290.64,165.38l-125.26,125.26L885.66,27.57z"/>
<path class="st11" d="M536.74,63.11L371.36,353.75L246.1,228.49L536.74,63.11z"/>
<path class="st11" d="M412.72,275.04L252.43,568.52L125.01,445.47L412.72,275.04z"/>
<path class="st11" d="M328.32,428.28L168.04,721.76L40.61,598.71L328.32,428.28z"/>
<path class="st11" d="M1027.8,278.53l290.64,165.39l-125.26,125.26L1027.8,278.53z"/>
<path class="st11" d="M1107.75,420.67l290.64,165.39l-125.26,125.26L1107.75,420.67z"/>
<rect x="882.19" y="26.33" class="st10" width="4.44" height="4.44"/>
<rect x="897.74" y="28.55" class="st11" width="22.21" height="19.99"/>
<rect x="506.86" y="64.08" class="st11" width="19.99" height="15.55"/>
<rect x="491.46" y="59.15" transform="matrix(0.9945 -0.1045 0.1045 0.9945 -3.6311 53.4488)" class="st9" width="33.31" height="4.44"/>
<path class="st11" d="M893.29,28.55c0,0.59-0.35,1.15-0.97,1.57c-0.63,0.42-1.47,0.65-2.36,0.65c-0.88,0-1.73-0.23-2.36-0.65
	c-0.62-0.42-0.97-0.98-0.97-1.57h3.33H893.29z"/>
<rect x="891.07" y="28.55" class="st11" width="6.66" height="6.66"/>
<path class="st11" d="M537.49,62.07c-0.12-0.09-0.26-0.15-0.41-0.18c-0.15-0.03-0.3-0.04-0.45-0.01c-0.15,0.03-0.29,0.09-0.41,0.17
	c-0.12,0.08-0.23,0.19-0.31,0.32c-0.08,0.13-0.14,0.27-0.16,0.42c-0.02,0.15-0.02,0.3,0.02,0.45c0.04,0.15,0.1,0.28,0.19,0.4
	c0.09,0.12,0.2,0.22,0.33,0.3l0.56-0.96L537.49,62.07z"/>
<circle class="st11" cx="533.52" cy="64.08" r="2.22"/>
<rect x="413.04" y="66.73" transform="matrix(0.9962 -0.0872 0.0872 0.9962 -4.128 41.1305)" class="st11" width="111.83" height="2.22"/>
<rect x="524.63" y="61.86" class="st11" width="8.88" height="6.66"/>
<rect x="533.52" y="61.86" class="st11" width="2.22" height="2.22"/>
<polygon class="st12" points="714.3,96.23 805.66,107.64 763.38,277.4 672.02,266 "/>
<polygon class="st12" points="714.84,105.82 807.39,110.4 790.69,279.5 698.14,274.92 "/>
<polygon class="st12" points="702.22,259.52 792.94,273.83 743.98,439.45 653.25,425.13 "/>
<polygon class="st12" points="624.72,424.95 717.25,420.15 731.7,589.37 639.17,594.17 "/>
<polygon class="st12" points="715.99,572.66 812.09,582.76 771.75,750.69 675.65,740.59 "/>
<polygon class="st12" points="635.43,526.4 762.03,546.37 699.09,759.25 572.49,739.28 "/>
<polygon class="st12" points="665.87,293.77 788.04,287.43 813.81,589.32 691.64,595.66 "/>
<polygon class="st12" points="672.29,259.52 763.02,273.83 714.05,439.45 623.33,425.13 "/>
<ellipse class="st8" cx="807.38" cy="438.29" rx="31.42" ry="76.62"/>
<ellipse class="st8" cx="607.13" cy="549.34" rx="31.42" ry="58.85"/>
<ellipse class="st8" cx="639.81" cy="289.5" rx="31.42" ry="76.62"/>
<ellipse class="st12" cx="654.78" cy="440.52" rx="31.42" ry="76.62"/>
<polygon class="st8" points="795.76,303.93 828.96,306.96 809.16,426.67 775.96,423.64 "/>
<ellipse class="st12" cx="769.98" cy="300.6" rx="26.93" ry="76.62"/>
<polygon class="st8" points="778.95,470.26 811.26,463.83 853.32,580.33 821.01,586.76 "/>
<polygon class="st8" points="646.33,221.76 679.59,224.36 662.61,344.3 629.34,341.71 "/>
<polygon class="st8" points="612.24,363.74 642.8,373.83 610.71,427.33 580.15,417.23 "/>
<ellipse transform="matrix(0.2354 -0.9719 0.9719 0.2354 361.8293 815.9614)" class="st12" cx="699.52" cy="178.01" rx="58.46" ry="11.82"/>
<polygon class="st8" points="612.72,568.36 643.45,577.12 586.45,687.33 555.72,678.57 "/>
<polygon class="st13" points="715.5,96.23 797.31,107.64 759.45,277.4 677.64,266 "/>
<polygon class="st13" points="715.99,105.82 798.86,110.4 783.91,279.5 701.03,274.92 "/>
<polygon class="st13" points="704.68,259.52 785.93,273.83 742.08,439.45 660.83,425.14 "/>
<polygon class="st13" points="635.28,424.95 718.14,420.15 731.08,589.37 648.22,594.17 "/>
<polygon class="st13" points="723.44,570.44 804.69,584.75 760.84,750.37 679.59,736.06 "/>
<polygon class="st13" points="644.87,526.4 758.24,546.37 701.88,759.25 588.51,739.28 "/>
<polygon class="st13" points="672.13,293.77 781.53,287.43 804.62,589.32 695.21,595.66 "/>
<polygon class="st13" points="677.88,259.52 759.13,273.83 715.28,439.45 634.03,425.14 "/>
<ellipse class="st13" cx="662.19" cy="440.52" rx="28.14" ry="76.62"/>
<ellipse class="st12" cx="625.68" cy="565.99" rx="27.76" ry="53.3"/>
<ellipse class="st12" cx="625.68" cy="565.99" rx="27.76" ry="53.3"/>
<ellipse class="st12" cx="625.68" cy="565.99" rx="27.76" ry="53.3"/>
<ellipse class="st12" cx="616.8" cy="563.77" rx="27.76" ry="53.3"/>
<ellipse class="st12" cx="616.8" cy="563.77" rx="27.76" ry="53.3"/>
<ellipse class="st8" cx="616.8" cy="563.77" rx="27.76" ry="53.3"/>
<polygon class="st8" points="797.76,303.93 827.49,306.96 809.76,426.67 780.03,423.64 "/>
<ellipse class="st13" cx="765.36" cy="300.6" rx="24.12" ry="76.62"/>
<polygon class="st12" points="773.37,470.26 802.3,463.83 839.96,580.33 811.03,586.76 "/>
<polygon class="st12" points="651.93,248.41 681.07,255.14 649.27,371.79 620.13,365.06 "/>
<polygon class="st12" points="651.93,248.41 681.07,255.14 649.27,371.79 620.13,365.06 "/>
<polygon class="st12" points="651.93,248.41 681.07,255.14 649.27,371.79 620.13,365.06 "/>
<ellipse class="st12" cx="792.62" cy="413.86" rx="28.14" ry="76.62"/>
<polygon class="st8" points="782.25,470.26 811.18,463.83 848.85,580.33 819.91,586.76 "/>
<polygon class="st8" points="793.39,330.58 822.38,336.74 820.13,356.18 791.14,350.02 "/>
<polygon class="st8" points="813.37,570.44 842.36,576.6 840.11,596.04 811.12,589.87 "/>
<ellipse class="st8" cx="799.28" cy="413.86" rx="28.14" ry="76.62"/>
<polygon class="st12" points="647.49,241.75 676.62,248.48 644.82,365.13 615.69,358.4 "/>
<polygon class="st12" points="647.49,241.75 676.62,248.48 644.82,365.13 615.69,358.4 "/>
<polygon class="st8" points="647.49,241.75 676.62,248.48 644.82,365.13 615.69,358.4 "/>
<polygon class="st8" points="620.25,346.13 649.13,350.19 642.35,373.85 613.46,369.79 "/>
<ellipse transform="matrix(0.2103 -0.9776 0.9776 0.2103 380.562 827.1405)" class="st13" cx="702.26" cy="178.01" rx="58.14" ry="10.64"/>
<polygon class="st12" points="616.4,594.98 643.92,603.73 605.45,686.79 577.93,678.03 "/>
<polygon class="st8" points="608.67,590.42 635.81,600.3 591.48,686.54 564.35,676.66 "/>
<polygon class="st8" points="602.36,497.47 630.38,490.49 635.64,534.64 607.62,541.63 "/>
</svg>
