<?xml version="1.0" encoding="utf-8"?>
<!-- Generator: Adobe Illustrator 26.1.0, SVG Export Plug-In . SVG Version: 6.00 Build 0)  -->
<svg version="1.1" id="Layer_1" xmlns="http://www.w3.org/2000/svg" xmlns:xlink="http://www.w3.org/1999/xlink" x="0px" y="0px"
	 viewBox="0 0 768 472" style="enable-background:new 0 0 768 472;" xml:space="preserve">
<style type="text/css">
	.st0{fill:#824106;}
	.st1{fill:#D87F1F;}
	.st2{fill:#7CAE18;}
	.st3{fill:#91B549;}
</style>
<path class="st0" d="M294.89,217.08h10.53l-5.5,49.92l16.03,47.16h-21.07l-12.83-47.16L294.89,217.08z"/>
<path class="st0" d="M247.71,169.38l28.86,34.19l23.32,14.85l-4.74,5.54l-24.54-14.91l-27.48-35.88L247.71,169.38z"/>
<path class="st0" d="M278.86,161.36h5.04v22.37l-9.16,22.37l-4.58-5.07l8.7-19.42V161.36z"/>
<path class="st0" d="M299.01,158.83h6.41v29.55l-1.37,30.39h-7.33l2.29-30.39V158.83z"/>
<path class="st0" d="M328.32,168.54l5.95,0l-9.62,22.79l-21.35,8.86v-5.15l18.14-7.52L328.32,168.54z"/>
<path class="st0" d="M301.33,217.08l53.55-7.18l25.19-39.68h5.5l-26.57,44.56l-57.67,8.27V217.08z"/>
<path class="st0" d="M351.22,174.03l3.66-1.27l1.84,13.93l-8.25,24.91h-4.12l9.17-24.91L351.22,174.03z"/>
<path class="st0" d="M286.69,163.9l16.57,7.75l-1.98,3.36L286.69,163.9z"/>
<path class="st0" d="M257.01,171.34l1.97,18.41l-3.86,0.01L257.01,171.34z"/>
<path class="st0" d="M285.23,153.65l-2.53,12.71l-4.45-1.85L285.23,153.65z"/>
<path class="st0" d="M381.74,163.86l-0.38,8.6l-2.72-0.59L381.74,163.86z"/>
<path class="st0" d="M231.32,167.02l16.57,7.75l-1.98,3.36L231.32,167.02z"/>
<path class="st0" d="M262.08,176.4l16.57,7.75l-1.98,3.36L262.08,176.4z"/>
<path class="st0" d="M391.92,161.99l-11.48,14.39l-2.72-2.77L391.92,161.99z"/>
<path class="st0" d="M321.4,153.56l9.57,15.77l-3.48,1.69L321.4,153.56z"/>
<path class="st0" d="M309.72,147.4l-6.88,17.15l-3.4-1.85L309.72,147.4z"/>
<path class="st0" d="M335.24,154.24l-6.35,11.47l-3.46-2.88L335.24,154.24z"/>
<path class="st0" d="M288.78,166.06l-6.1,17.46l-3.48-1.69L288.78,166.06z"/>
<path class="st0" d="M334.69,162.76l-1.79,7.82l-2.96-1.4L334.69,162.76z"/>
<path class="st0" d="M362.44,180.58l-8.75,3.06l-0.49-2.49L362.44,180.58z"/>
<path class="st0" d="M533.24,241.81h10.53l-5.49,49.92l16.02,47.16h-21.07l-12.83-47.16L533.24,241.81z"/>
<path class="st0" d="M486.07,194.11l28.85,34.19l23.32,14.85l-4.74,5.54l-24.54-14.91l-27.48-35.88L486.07,194.11z"/>
<path class="st0" d="M517.22,186.09h5.03v22.37l-9.17,22.37l-4.58-5.07l8.71-19.42V186.09z"/>
<path class="st0" d="M537.36,183.56h6.42v29.55l-1.37,30.39h-7.33l2.28-30.39V183.56z"/>
<path class="st0" d="M566.69,193.26l5.94,0l-9.61,22.79l-21.35,8.86v-5.15l18.14-7.52L566.69,193.26z"/>
<path class="st0" d="M539.69,241.81l53.56-7.18l25.19-39.68h5.5l-26.57,44.56l-57.68,8.27V241.81z"/>
<path class="st0" d="M589.58,198.75l3.66-1.27l1.84,13.93l-8.25,24.91h-4.12l9.17-24.91L589.58,198.75z"/>
<path class="st0" d="M525.05,188.62l16.57,7.75l-1.97,3.36L525.05,188.62z"/>
<path class="st0" d="M495.37,196.06l1.97,18.41l-3.85,0.01L495.37,196.06z"/>
<path class="st0" d="M523.58,178.38l-2.53,12.71l-4.44-1.85L523.58,178.38z"/>
<path class="st0" d="M620.1,188.58l-0.38,8.6l-2.72-0.59L620.1,188.58z"/>
<path class="st0" d="M469.68,191.75l16.55,7.75l-1.97,3.36L469.68,191.75z"/>
<path class="st0" d="M500.43,201.12l16.57,7.75l-1.97,3.36L500.43,201.12z"/>
<path class="st0" d="M630.28,186.72l-11.48,14.39l-2.72-2.77L630.28,186.72z"/>
<path class="st0" d="M559.76,178.28l9.56,15.77l-3.47,1.69L559.76,178.28z"/>
<path class="st0" d="M548.07,172.13l-6.87,17.15l-3.4-1.85L548.07,172.13z"/>
<path class="st0" d="M573.6,178.97l-6.36,11.47l-3.46-2.88L573.6,178.97z"/>
<path class="st0" d="M527.14,190.78l-6.11,17.46l-3.47-1.69L527.14,190.78z"/>
<path class="st0" d="M573.04,187.49l-1.79,7.82l-2.96-1.4L573.04,187.49z"/>
<path class="st0" d="M600.79,205.31l-8.75,3.06l-0.49-2.49L600.79,205.31z"/>
<polygon class="st0" points="405.24,281.95 410.62,281.69 413.09,326.2 407.71,326.46 "/>
<polygon class="st0" points="413.42,272.92 417.84,275.09 410.65,281.82 406.23,279.65 "/>
<polygon class="st0" points="420.36,269.12 423.63,271.41 415.52,276.75 412.25,274.46 "/>
<polygon class="st0" points="429.47,265.39 431.94,267.86 422.63,272.13 420.16,269.65 "/>
<polygon class="st0" points="437.94,263.1 439.61,265.61 429.39,268.68 427.72,266.17 "/>
<polygon class="st0" points="447.57,261.59 448.59,264.27 437.76,266.05 436.73,263.37 "/>
<polygon class="st1" points="409.67,275.42 413.92,272.43 414.53,272.86 410.27,275.84 "/>
<polygon class="st1" points="420.51,268.71 429.91,264.91 430.34,265.43 420.94,269.23 "/>
<polygon class="st1" points="415.9,271.28 420.64,268.69 421.17,269.16 416.43,271.76 "/>
<polygon class="st0" points="401.93,271.41 399.28,273.58 403.58,280.32 406.23,278.15 "/>
<polygon class="st0" points="397.78,267.62 395.82,269.91 400.68,275.24 402.63,272.95 "/>
<polygon class="st0" points="392.32,263.88 390.84,266.35 396.41,270.62 397.89,268.15 "/>
<polygon class="st0" points="387.26,261.59 386.26,264.1 392.38,267.17 393.38,264.66 "/>
<polygon class="st0" points="381.49,260.09 380.88,262.76 387.36,264.54 387.97,261.87 "/>
<polygon class="st1" points="404.18,273.91 401.63,270.93 401.27,271.36 403.81,274.34 "/>
<polygon class="st1" points="397.67,267.21 392.05,263.4 391.79,263.92 397.42,267.73 "/>
<polygon class="st1" points="400.44,269.78 397.6,267.18 397.29,267.66 400.12,270.25 "/>
<polygon class="st0" points="401.46,260.14 403.17,260.28 399.38,272.13 397.66,271.99 "/>
<polygon class="st0" points="426.51,262.05 428.23,262.19 425.57,270.49 423.85,270.35 "/>
<polygon class="st0" points="419.39,262.97 420.37,262.81 423.3,270.94 422.32,271.09 "/>
<polygon class="st0" points="407.34,264.34 408.26,264.6 401.77,271.95 400.85,271.69 "/>
<polygon class="st0" points="385.52,264.1 386.29,263.71 402.07,276.15 401.29,276.54 "/>
<rect x="406.19" y="325.85" class="st1" width="8.63" height="2.29"/>
<path class="st0" d="M408.03,286.42l-5.96-8.4l10.95-0.54L408.03,286.42z"/>
<path class="st0" d="M366.16,257.73l15.89,2.44l-1.06,2.67L366.16,257.73z"/>
<path class="st0" d="M405,253.83l-1.75,7.26l-1.62-0.36L405,253.83z"/>
<path class="st0" d="M463.6,259.68l-15.14,4.51l-0.88-2.71L463.6,259.68z"/>
<path class="st0" d="M443.79,252.35l1.02,11.42l-2.27-0.02L443.79,252.35z"/>
<path class="st0" d="M430.37,255.45l8.71,9.16l-1.91,0.95L430.37,255.45z"/>
<path class="st0" d="M436.94,257.11l-1.6,3.66l-1.19-0.47L436.94,257.11z"/>
<path class="st0" d="M428.16,258.9l-0.43,3.85l-1.29-0.23L428.16,258.9z"/>
<path class="st0" d="M445.92,254.54l-1.6,3.66l-1.18-0.47L445.92,254.54z"/>
<path class="st0" d="M428.53,258.72l4.91-0.04l-0.16,1.04L428.53,258.72z"/>
<path class="st0" d="M438.33,258.72l4.91-0.04l-0.16,1.04L438.33,258.72z"/>
<path class="st0" d="M396.67,260.01l4.91-0.04l-0.16,1.04L396.67,260.01z"/>
<path class="st0" d="M381.15,256.15l4.91-0.04l-0.16,1.04L381.15,256.15z"/>
<path class="st0" d="M408,257.43l-4.65,1.26l-0.26-1.03L408,257.43z"/>
<path class="st0" d="M390.85,257.43l-4.65,1.26l-0.26-1.03L390.85,257.43z"/>
<path class="st0" d="M388.04,251.32l-2.65,10.81l-2.12-0.46L388.04,251.32z"/>
<path class="st2" d="M487.94,246.32c0.4,4.43-24.07,10.8-72.98,10.56c-40.7,1.4-67.48-1.72-67.87-6.15
	c-0.4-4.43,25.75-8.5,66.45-9.9C454.23,239.43,487.54,241.89,487.94,246.32z"/>
<path class="st2" d="M481.01,238.01c0.51,5.75-45.55,21.23-80.94,22.45c-35.4,1.22-46.72-12.29-47.23-18.04
	c-0.51-5.75,27.76-11.4,63.16-12.62C451.39,228.58,480.5,232.26,481.01,238.01z"/>
<path class="st2" d="M454.69,233.01c0.5,5.75-24.25,9.19-36.9,9.63c-12.65,0.44-42.45,0.2-42.96-5.55
	c-0.51-5.75,28.46-14.85,41.11-15.28C428.59,221.37,454.17,227.26,454.69,233.01z"/>
<path class="st2" d="M355.21,259.04c-0.46-4.43,22.79-29.62,59.55-31.08c36.75-1.45,73.11,21.39,73.55,25.81
	c0.46,4.43-28.97,9.2-65.72,10.65S355.67,263.46,355.21,259.04z"/>
<path class="st3" d="M476.95,246.4c0.34,3.99-20.53,9.74-62.19,9.51c-34.68,1.26-57.5-1.55-57.84-5.54
	c-0.34-3.99,21.94-7.66,56.62-8.92C448.23,240.2,476.61,242.41,476.95,246.4z"/>
<path class="st3" d="M471.03,238.91c0.44,5.18-38.81,19.13-68.96,20.23c-30.16,1.1-39.81-11.07-40.26-16.26
	c-0.43-5.18,23.66-10.28,53.82-11.37C445.8,230.42,470.61,233.73,471.03,238.91z"/>
<path class="st3" d="M448.61,234.41c0.43,5.18-20.66,8.28-31.44,8.68c-10.78,0.39-36.18,0.18-36.62-5
	c-0.44-5.18,24.26-13.38,35.03-13.77C426.36,223.92,448.17,229.22,448.61,234.41z"/>
<path class="st3" d="M363.85,257.86c-0.4-3.99,19.41-26.69,50.73-28c31.32-1.31,62.3,19.27,62.68,23.26
	c0.4,3.99-24.69,8.29-56.01,9.6C389.93,264.02,364.23,261.85,363.85,257.86z"/>
<polygon class="st0" points="221.31,319.77 226.7,319.5 229.17,364.01 223.78,364.28 "/>
<polygon class="st0" points="229.5,310.74 233.92,312.91 226.73,319.64 222.31,317.47 "/>
<polygon class="st0" points="236.44,306.94 239.71,309.23 231.59,314.56 228.33,312.27 "/>
<polygon class="st0" points="245.55,303.2 248.02,305.68 238.71,309.94 236.24,307.47 "/>
<polygon class="st0" points="254.02,300.92 255.69,303.43 245.46,306.5 243.79,303.99 "/>
<polygon class="st0" points="263.65,299.41 264.68,302.09 253.84,303.86 252.82,301.19 "/>
<polygon class="st1" points="225.75,313.23 230,310.25 230.61,310.68 226.36,313.66 "/>
<polygon class="st1" points="236.59,306.53 246,302.72 246.43,303.24 237.02,307.05 "/>
<polygon class="st1" points="231.99,309.1 236.73,306.5 237.26,306.98 232.52,309.57 "/>
<polygon class="st0" points="218.01,309.23 215.36,311.4 219.66,318.13 222.31,315.96 "/>
<polygon class="st0" points="213.85,305.43 211.9,307.72 216.76,313.06 218.71,310.77 "/>
<polygon class="st0" points="208.4,301.7 206.92,304.17 212.5,308.44 213.97,305.96 "/>
<polygon class="st0" points="203.33,299.41 202.33,301.92 208.45,304.99 209.45,302.48 "/>
<polygon class="st0" points="197.57,297.9 196.96,300.58 203.44,302.36 204.05,299.68 "/>
<polygon class="st1" points="220.25,311.73 217.71,308.75 217.34,309.17 219.89,312.15 "/>
<polygon class="st1" points="213.76,305.02 208.13,301.22 207.88,301.74 213.5,305.54 "/>
<polygon class="st1" points="216.52,307.59 213.68,305 213.36,305.47 216.2,308.07 "/>
<polygon class="st0" points="217.54,297.96 219.25,298.1 215.46,309.95 213.74,309.8 "/>
<polygon class="st0" points="242.6,299.87 244.31,300.01 241.66,308.31 239.94,308.17 "/>
<polygon class="st0" points="235.47,300.78 236.45,300.63 239.38,308.75 238.4,308.91 "/>
<polygon class="st0" points="223.43,302.16 224.35,302.41 217.86,309.76 216.94,309.51 "/>
<polygon class="st0" points="201.6,301.92 202.37,301.53 218.15,313.97 217.37,314.36 "/>
<rect x="222.28" y="363.67" class="st1" width="8.63" height="2.29"/>
<path class="st0" d="M224.11,324.23l-5.95-8.4l10.94-0.54L224.11,324.23z"/>
<path class="st0" d="M182.23,295.55l15.9,2.44l-1.06,2.67L182.23,295.55z"/>
<path class="st0" d="M221.08,291.65l-1.75,7.26l-1.62-0.36L221.08,291.65z"/>
<path class="st0" d="M279.69,297.5l-15.15,4.51l-0.89-2.71L279.69,297.5z"/>
<path class="st0" d="M259.87,290.17l1.01,11.42l-2.27-0.02L259.87,290.17z"/>
<path class="st0" d="M246.45,293.27l8.72,9.16l-1.92,0.95L246.45,293.27z"/>
<path class="st0" d="M253.02,294.92l-1.6,3.66l-1.19-0.47L253.02,294.92z"/>
<path class="st0" d="M244.25,296.71l-0.43,3.85l-1.3-0.23L244.25,296.71z"/>
<path class="st0" d="M262.01,292.35l-1.6,3.66l-1.19-0.47L262.01,292.35z"/>
<path class="st0" d="M244.6,296.54l4.92-0.04l-0.17,1.04L244.6,296.54z"/>
<path class="st0" d="M254.41,296.54l4.92-0.04l-0.17,1.04L254.41,296.54z"/>
<path class="st0" d="M212.75,297.82l4.92-0.04l-0.17,1.04L212.75,297.82z"/>
<path class="st0" d="M197.24,293.96l4.92-0.04l-0.17,1.04L197.24,293.96z"/>
<path class="st0" d="M224.08,295.24l-4.65,1.26l-0.26-1.03L224.08,295.24z"/>
<path class="st0" d="M206.93,295.24l-4.65,1.26l-0.26-1.03L206.93,295.24z"/>
<path class="st0" d="M204.11,289.13l-2.65,10.81l-2.11-0.46L204.11,289.13z"/>
<path class="st2" d="M289.46,282.35c0.35,5.12-21.1,12.49-63.95,12.21c-35.67,1.62-59.13-1.99-59.48-7.11
	c-0.35-5.12,22.56-9.82,58.23-11.44C259.92,274.39,289.11,277.23,289.46,282.35z"/>
<path class="st2" d="M283.38,272.74c0.45,6.65-39.91,24.55-70.93,25.96c-31.01,1.41-40.93-14.21-41.38-20.86
	c-0.45-6.65,24.33-13.19,55.34-14.59C257.43,261.84,282.94,266.09,283.38,272.74z"/>
<path class="st2" d="M260.31,266.96c0.45,6.65-21.24,10.63-32.33,11.13c-11.09,0.5-37.2,0.23-37.65-6.42
	c-0.45-6.65,24.94-17.17,36.03-17.67C237.45,253.5,259.86,260.31,260.31,266.96z"/>
<path class="st2" d="M173.15,297.05c-0.4-5.12,19.96-34.25,52.17-35.93c32.21-1.68,64.07,24.73,64.46,29.85
	c0.4,5.12-25.39,10.63-57.6,12.31C199.98,304.96,173.55,302.17,173.15,297.05z"/>
<path class="st3" d="M278.86,282.76c0.29,4.62-17.98,11.26-54.5,11c-30.39,1.46-50.39-1.79-50.68-6.41
	c-0.29-4.62,19.22-8.85,49.62-10.31C253.69,275.59,278.57,278.15,278.86,282.76z"/>
<path class="st3" d="M273.69,274.1c0.38,5.99-34.01,22.12-60.44,23.39c-26.43,1.27-34.88-12.8-35.27-18.8
	c-0.38-5.99,20.73-11.88,47.16-13.15C251.57,264.28,273.3,268.11,273.69,274.1z"/>
<path class="st3" d="M254.02,268.9c0.38,5.99-18.1,9.58-27.55,10.03c-9.45,0.45-31.7,0.21-32.09-5.78
	c-0.38-5.99,21.25-15.47,30.7-15.92C234.54,256.77,253.64,262.9,254.02,268.9z"/>
<path class="st3" d="M179.75,296.01c-0.34-4.61,17.01-30.86,44.46-32.38s54.59,22.28,54.93,26.89c0.34,4.61-21.64,9.58-49.08,11.1
	S180.08,300.62,179.75,296.01z"/>
<path class="st2" d="M532.15,179.41c0.29,6.18-18.08,15.06-54.81,14.72c-30.57,1.95-50.67-2.39-50.98-8.57
	c-0.29-6.18,19.33-11.85,49.91-13.8C506.83,169.81,531.86,173.23,532.15,179.41z"/>
<path class="st2" d="M526.95,167.83c0.38,8.02-34.21,29.61-60.78,31.3c-26.59,1.7-35.09-17.14-35.47-25.16
	c-0.38-8.02,20.85-15.9,47.44-17.6C504.7,154.68,526.56,159.8,526.95,167.83z"/>
<path class="st2" d="M507.17,160.85c0.38,8.02-18.2,12.82-27.71,13.43c-9.5,0.61-31.88,0.28-32.27-7.74
	c-0.38-8.02,21.38-20.7,30.87-21.31C487.57,144.62,506.79,152.83,507.17,160.85z"/>
<path class="st2" d="M432.47,197.14c-0.34-6.17,17.11-41.3,44.71-43.33c27.6-2.03,54.91,29.82,55.25,35.99
	c0.34,6.17-21.76,12.82-49.36,14.85C455.47,206.68,432.81,203.31,432.47,197.14z"/>
<path class="st3" d="M523.9,179.52c0.25,5.57-15.42,13.57-46.72,13.26c-26.04,1.76-43.18-2.16-43.43-7.72
	c-0.25-5.57,16.48-10.67,42.52-12.43C502.32,170.87,523.64,173.95,523.9,179.52z"/>
<path class="st3" d="M519.46,169.08c0.32,7.23-29.15,26.68-51.79,28.2c-22.66,1.53-29.9-15.44-30.22-22.67
	c-0.34-7.23,17.76-14.33,40.42-15.86C500.51,157.23,519.13,161.85,519.46,169.08z"/>
<path class="st3" d="M502.61,162.8c0.32,7.23-15.51,11.55-23.62,12.1c-8.09,0.55-27.16,0.25-27.5-6.97
	c-0.32-7.23,18.22-18.65,26.32-19.2C485.91,148.18,502.29,155.57,502.61,162.8z"/>
<path class="st3" d="M438.96,195.49c-0.29-5.56,14.57-37.21,38.09-39.04c23.53-1.83,46.79,26.87,47.08,32.43
	c0.28,5.56-18.55,11.55-42.07,13.38C458.54,204.09,439.24,201.06,438.96,195.49z"/>
<path class="st2" d="M626.63,168.5c0.41,7.8-25.65,19.02-77.73,18.59c-43.35,2.46-71.87-3.02-72.29-10.82
	c-0.43-7.8,27.41-14.96,70.76-17.42C590.73,156.37,626.2,160.7,626.63,168.5z"/>
<path class="st2" d="M619.24,153.87c0.54,10.13-48.51,37.38-86.21,39.53c-37.7,2.14-49.75-21.64-50.29-31.76
	c-0.54-10.13,29.56-20.08,67.25-22.22C587.7,137.27,618.7,143.74,619.24,153.87z"/>
<path class="st2" d="M591.2,145.07c0.54,10.13-25.82,16.19-39.3,16.95c-13.46,0.77-45.21,0.36-45.76-9.77
	c-0.54-10.13,30.31-26.14,43.79-26.91C563.41,124.58,590.65,134.94,591.2,145.07z"/>
<path class="st2" d="M485.26,190.88c-0.49-7.8,24.26-52.15,63.41-54.71c39.14-2.56,77.86,37.65,78.33,45.44
	c0.49,7.8-30.85,16.19-69.99,18.75C517.87,202.93,485.75,198.68,485.26,190.88z"/>
<path class="st3" d="M614.92,168.64c0.35,7.03-21.85,17.14-66.24,16.75c-36.95,2.22-61.24-2.72-61.6-9.75
	c-0.35-7.03,23.36-13.48,60.31-15.7C584.33,157.71,614.55,161.61,614.92,168.64z"/>
<path class="st3" d="M608.62,155.46c0.47,9.13-41.33,33.68-73.46,35.61c-32.12,1.93-42.39-19.49-42.86-28.62
	c-0.46-9.13,25.2-18.09,57.32-20.02C581.74,140.5,608.16,146.33,608.62,155.46z"/>
<path class="st3" d="M584.73,147.52c0.47,9.13-22,14.58-33.49,15.27c-11.48,0.69-38.52,0.32-38.99-8.8
	c-0.47-9.13,25.84-23.55,37.31-24.24C561.05,129.06,584.27,138.4,584.73,147.52z"/>
<path class="st3" d="M494.46,188.81c-0.41-7.02,20.67-46.99,54.03-49.29c33.36-2.31,66.36,33.92,66.77,40.95
	c0.41,7.02-26.31,14.59-59.66,16.89C522.24,199.66,494.86,195.83,494.46,188.81z"/>
<path class="st2" d="M672.43,191.05c0.29,6.18-17.92,15.06-54.31,14.72c-30.3,1.95-50.22-2.39-50.51-8.57
	c-0.29-6.18,19.16-11.85,49.45-13.8C647.35,181.44,672.14,184.87,672.43,191.05z"/>
<path class="st2" d="M667.27,179.46c0.38,8.02-33.88,29.61-60.22,31.3c-26.34,1.7-34.77-17.14-35.15-25.16
	c-0.38-8.02,20.67-15.9,47.01-17.6C645.24,166.31,666.9,171.44,667.27,179.46z"/>
<path class="st2" d="M647.68,172.49c0.38,8.02-18.04,12.82-27.46,13.43c-9.42,0.61-31.59,0.28-31.97-7.74s21.17-20.7,30.59-21.31
	C628.26,156.26,647.3,164.47,647.68,172.49z"/>
<path class="st2" d="M573.66,208.77c-0.34-6.17,16.95-41.3,44.3-43.33c27.35-2.03,54.41,29.82,54.75,35.99
	c0.34,6.17-21.57,12.82-48.92,14.85C596.45,218.31,574,214.95,573.66,208.77z"/>
<path class="st3" d="M664.25,191.15c0.25,5.57-15.27,13.57-46.27,13.26c-25.82,1.76-42.8-2.16-43.05-7.72
	c-0.25-5.57,16.33-10.67,42.14-12.43C642.87,182.5,664,185.59,664.25,191.15z"/>
<path class="st3" d="M659.85,180.72c0.32,7.23-28.88,26.68-51.32,28.2c-22.45,1.53-29.63-15.44-29.96-22.67
	c-0.32-7.23,17.61-14.33,40.05-15.86C641.08,168.87,659.53,173.49,659.85,180.72z"/>
<path class="st3" d="M643.15,174.43c0.34,7.23-15.36,11.55-23.39,12.1c-8.02,0.55-26.91,0.25-27.23-6.97
	c-0.34-7.23,18.04-18.65,26.07-19.2C626.61,159.81,642.83,167.21,643.15,174.43z"/>
<path class="st3" d="M580.08,207.13c-0.28-5.56,14.45-37.21,37.75-39.04c23.32-1.83,46.36,26.87,46.66,32.43
	c0.29,5.56-18.38,11.55-41.68,13.38C599.5,215.72,580.37,212.69,580.08,207.13z"/>
<path class="st2" d="M423.47,171.64c0.26,4.84-16.11,11.81-48.83,11.54c-27.23,1.53-45.16-1.88-45.42-6.72s17.23-9.29,44.47-10.82
	C400.91,164.11,423.22,166.79,423.47,171.64z"/>
<path class="st2" d="M418.83,162.55c0.34,6.29-30.49,23.21-54.16,24.54c-23.69,1.33-31.27-13.43-31.61-19.72
	c-0.34-6.29,18.57-12.46,42.26-13.8C399.01,152.25,418.49,156.27,418.83,162.55z"/>
<path class="st2" d="M401.22,157.09c0.34,6.29-16.23,10.05-24.7,10.52c-8.46,0.48-28.41,0.22-28.75-6.07
	c-0.34-6.29,19.05-16.23,27.51-16.71C383.76,144.36,400.87,150.8,401.22,157.09z"/>
<path class="st2" d="M334.65,185.53c-0.3-4.84,15.25-32.38,39.84-33.97c24.6-1.59,48.94,23.37,49.23,28.22
	c0.31,4.84-19.39,10.05-43.98,11.64C355.14,193.01,334.95,190.37,334.65,185.53z"/>
<path class="st3" d="M416.11,171.72c0.24,4.36-13.73,10.64-41.61,10.4c-23.22,1.38-38.49-1.69-38.72-6.06
	c-0.22-4.36,14.69-8.37,37.89-9.75C396.89,164.94,415.89,167.36,416.11,171.72z"/>
<path class="st3" d="M412.17,163.54c0.29,5.67-25.98,20.91-46.17,22.11c-20.17,1.2-26.63-12.1-26.93-17.77
	c-0.29-5.67,15.83-11.23,36.02-12.43S411.87,157.87,412.17,163.54z"/>
<path class="st3" d="M397.14,158.61c0.29,5.67-13.82,9.05-21.04,9.48c-7.21,0.43-24.2,0.2-24.5-5.47
	c-0.29-5.67,16.23-14.62,23.44-15.05C382.27,147.15,396.85,152.95,397.14,158.61z"/>
<path class="st3" d="M340.42,184.24c-0.26-4.36,13-29.17,33.95-30.61c20.97-1.43,41.7,21.06,41.96,25.42
	c0.25,4.36-16.52,9.06-37.49,10.49C357.87,190.98,340.68,188.6,340.42,184.24z"/>
<path class="st2" d="M378.97,148.5c0.38,6.11-23.06,14.91-69.9,14.57c-38.98,1.93-64.63-2.37-65.01-8.49
	c-0.38-6.11,24.66-11.73,63.64-13.66C346.69,139,378.61,142.39,378.97,148.5z"/>
<path class="st2" d="M372.34,137.03c0.49,7.94-43.63,29.31-77.52,30.99c-33.9,1.68-44.74-16.96-45.23-24.9
	c-0.49-7.94,26.59-15.74,60.49-17.42C343.97,124.02,371.85,129.09,372.34,137.03z"/>
<path class="st2" d="M347.12,130.13c0.49,7.94-23.22,12.69-35.34,13.29c-12.12,0.6-40.66,0.28-41.15-7.66
	c-0.49-7.94,27.26-20.49,39.38-21.09C322.13,114.07,346.63,122.19,347.12,130.13z"/>
<path class="st2" d="M251.85,166.05c-0.43-6.11,21.82-40.88,57.02-42.89c35.2-2.01,70.03,29.51,70.45,35.63
	c0.44,6.11-27.75,12.69-62.95,14.7C281.17,175.49,252.28,172.16,251.85,166.05z"/>
<path class="st3" d="M368.45,148.61c0.31,5.51-19.66,13.44-59.58,13.13c-33.22,1.74-55.08-2.14-55.4-7.65
	c-0.32-5.51,21.01-10.57,54.24-12.31C340.93,140.04,368.13,143.1,368.45,148.61z"/>
<path class="st3" d="M362.79,138.28c0.41,7.15-37.18,26.41-66.06,27.92c-28.89,1.51-38.13-15.28-38.54-22.44
	c-0.42-7.15,22.66-14.18,51.55-15.69C338.62,126.55,362.38,131.12,362.79,138.28z"/>
<path class="st3" d="M341.3,132.06c0.42,7.15-19.79,11.43-30.11,11.97c-10.33,0.54-34.65,0.25-35.07-6.9
	c-0.42-7.15,23.23-18.46,33.56-19.01C320,117.58,340.88,124.9,341.3,132.06z"/>
<path class="st3" d="M260.11,164.42c-0.37-5.51,18.6-36.84,48.6-38.64c30-1.81,59.67,26.59,60.04,32.1
	c0.37,5.51-23.64,11.44-53.65,13.24C285.1,172.93,260.48,169.93,260.11,164.42z"/>
<path class="st2" d="M294.86,165.82c0.27,4.84-16.26,11.81-49.29,11.54c-27.49,1.53-45.57-1.88-45.84-6.72
	c-0.27-4.84,17.39-9.29,44.88-10.82C272.1,158.29,294.6,160.97,294.86,165.82z"/>
<path class="st2" d="M290.18,156.74c0.35,6.29-30.76,23.21-54.66,24.54c-23.9,1.33-31.55-13.43-31.89-19.72
	c-0.35-6.29,18.75-12.46,42.65-13.8C270.18,146.43,289.84,150.45,290.18,156.74z"/>
<path class="st2" d="M272.4,151.27c0.35,6.29-16.37,10.05-24.92,10.52c-8.55,0.48-28.67,0.22-29.02-6.07
	c-0.35-6.29,19.22-16.23,27.77-16.71S272.06,144.98,272.4,151.27z"/>
<path class="st2" d="M205.22,179.72c-0.31-4.84,15.39-32.38,40.21-33.97c24.82-1.59,49.38,23.37,49.68,28.22
	c0.31,4.84-19.57,10.05-44.39,11.64C225.9,187.19,205.53,184.56,205.22,179.72z"/>
<path class="st3" d="M287.44,165.9c0.23,4.36-13.86,10.64-42,10.4c-23.43,1.38-38.84-1.69-39.06-6.06
	c-0.23-4.36,14.82-8.37,38.24-9.75C268.04,159.12,287.21,161.54,287.44,165.9z"/>
<path class="st3" d="M283.45,157.72c0.29,5.67-26.21,20.91-46.58,22.11c-20.37,1.2-26.88-12.1-27.18-17.77
	c-0.29-5.67,15.98-11.23,36.35-12.43C266.4,148.43,283.16,152.05,283.45,157.72z"/>
<path class="st3" d="M268.3,152.8c0.29,5.67-13.95,9.05-21.23,9.48c-7.28,0.43-24.43,0.2-24.73-5.47
	c-0.29-5.67,16.38-14.62,23.66-15.05C253.28,141.33,268,147.13,268.3,152.8z"/>
<path class="st3" d="M211.05,178.42c-0.26-4.36,13.11-29.17,34.27-30.61c21.15-1.43,42.08,21.06,42.34,25.42
	c0.26,4.36-16.68,9.06-37.83,10.49C228.67,185.16,211.31,182.79,211.05,178.42z"/>
</svg>
