<?xml version="1.0" encoding="utf-8"?>
<!-- Generator: Adobe Illustrator 25.4.1, SVG Export Plug-In . SVG Version: 6.00 Build 0)  -->
<svg version="1.1" id="Layer_1" xmlns="http://www.w3.org/2000/svg" xmlns:xlink="http://www.w3.org/1999/xlink" x="0px" y="0px"
	 viewBox="0 0 1366 768" style="enable-background:new 0 0 1366 768;" xml:space="preserve">
<style type="text/css">
	.st0{fill:#9B5E15;}
	.st1{fill:#AC601B;}
	.st2{fill:#B65F10;}
	.st3{fill:#BC600A;}
	.st4{fill:#BD7117;}
	.st5{fill:#AF6610;}
	.st6{fill:#AA5F07;}
	.st7{fill:#AF6917;}
	.st8{fill:#C67D28;}
	.st9{fill:#DE9343;}
	.st10{fill:#E89740;}
	.st11{fill:hsl(31,74%,48%)}
	.st12{fill:#824106;}
	.st13{fill:#7BB4EA;}
</style>
<rect x="886.6" y="28.5" class="st0" width="33.3" height="219.9"/>
<rect x="506.9" y="61.9" class="st1" width="33.3" height="268.7"/>
<rect x="506.9" y="67.9" class="st1" width="33.3" height="262.7"/>
<rect x="480.2" y="104.1" class="st1" width="26.6" height="322"/>
<rect x="480.2" y="104.1" class="st2" width="26.6" height="322"/>
<rect x="355.9" y="272.8" class="st1" width="60" height="406.4"/>
<rect x="355.9" y="272.8" class="st2" width="60" height="406.4"/>
<rect x="453.6" y="164" class="st1" width="26.6" height="359.8"/>
<rect x="453.6" y="161.5" class="st3" width="26.6" height="362.3"/>
<rect x="218.1" y="439.4" class="st1" width="104.4" height="275.4"/>
<rect x="218.1" y="439.4" class="st3" width="104.4" height="275.4"/>
<rect x="415.8" y="204" class="st1" width="37.8" height="444.2"/>
<rect x="415.8" y="204" class="st1" width="37.8" height="444.2"/>
<rect x="191.5" y="523.8" class="st1" width="37.8" height="295.4"/>
<rect x="191.5" y="523.8" class="st1" width="37.8" height="295.4"/>
<rect x="313.6" y="375" class="st1" width="42.2" height="366.4"/>
<rect x="313.6" y="375" class="st1" width="42.2" height="366.4"/>
<rect x="1175.3" y="521.6" class="st0" width="102.2" height="186.5"/>
<rect x="966.6" y="179.6" class="st4" width="71.1" height="413.1"/>
<rect x="1002.1" y="330.6" class="st4" width="115.5" height="413.1"/>
<rect x="1015.4" y="248.4" class="st5" width="22.2" height="430.9"/>
<rect x="1015.4" y="248.4" class="st5" width="22.2" height="430.9"/>
<rect x="1037.7" y="295" class="st5" width="22.2" height="413.1"/>
<rect x="1037.7" y="295" class="st6" width="22.2" height="413.1"/>
<rect x="919.9" y="84.1" class="st7" width="53.3" height="364.2"/>
<rect x="1102.1" y="403.9" class="st7" width="73.3" height="317.6"/>
<rect x="555.7" y="61.9" class="st8" width="330.9" height="617.4"/>
<path class="st8" d="M595.5,145.3l271.2-77.8c2.4-0.7,4.8,0.7,5.5,3.1l190.6,664.6c0.7,2.4-0.7,4.8-3.1,5.5l-271.2,77.8
	c-2.4,0.7-4.8-0.7-5.5-3L592.5,150.8C591.8,148.4,593.2,146,595.5,145.3z"/>
<rect x="262.7" y="302.4" transform="matrix(0.2419 -0.9703 0.9703 0.2419 29.9985 934.2062)" class="st8" width="700.3" height="291.1"/>
<rect x="540.2" y="41.9" class="st9" width="60" height="68.9"/>
<rect x="637.9" y="21.9" class="st10" width="248.7" height="88.8"/>
<path class="st9" d="M615.7,28.5l75,81.6h-150L615.7,28.5z"/>
<rect x="540.2" y="110.7" class="st8" width="6.7" height="28.9"/>
<path class="st11" d="M885.7,27.6L1176.3,193L1051,318.2L885.7,27.6z"/>
<path class="st11" d="M536.7,63.1L371.4,353.8L246.1,228.5L536.7,63.1z"/>
<path class="st11" d="M412.7,275L252.4,568.5L125,445.5L412.7,275z"/>
<path class="st11" d="M328.3,428.3L168,721.8l-127.4-123L328.3,428.3z"/>
<path class="st11" d="M1027.8,278.5l290.6,165.4l-125.3,125.3L1027.8,278.5z"/>
<path class="st11" d="M1107.8,420.7l290.6,165.4l-125.3,125.3L1107.8,420.7z"/>
<rect x="882.2" y="26.3" class="st10" width="4.4" height="4.4"/>
<rect x="897.7" y="28.5" class="st11" width="22.2" height="20"/>
<rect x="506.9" y="61.5" class="st11" width="20" height="18.1"/>
<path class="st11" d="M893.3,28.5c0,0.6-0.3,1.1-1,1.6c-0.6,0.4-1.5,0.6-2.4,0.6c-0.9,0-1.7-0.2-2.4-0.6c-0.6-0.4-1-1-1-1.6h3.3
	H893.3z"/>
<rect x="891.1" y="28.5" class="st11" width="6.7" height="6.7"/>
<path class="st11" d="M537.5,62.1c-0.1-0.1-0.3-0.2-0.4-0.2c-0.2,0-0.3,0-0.5,0c-0.2,0-0.3,0.1-0.4,0.2c-0.1,0.1-0.2,0.2-0.3,0.3
	s-0.1,0.3-0.2,0.4c0,0.2,0,0.3,0,0.5c0,0.2,0.1,0.3,0.2,0.4c0.1,0.1,0.2,0.2,0.3,0.3l0.6-1L537.5,62.1z"/>
<ellipse class="st11" cx="533.7" cy="63.8" rx="2.4" ry="2.5"/>
<rect x="524.6" y="61.9" class="st11" width="8.9" height="6.7"/>
<rect x="533.5" y="61.9" class="st11" width="2.2" height="2.2"/>
<polygon class="st12" points="714.3,96.2 805.7,107.6 763.4,277.4 672,266 "/>
<polygon class="st12" points="714.8,105.8 807.4,110.4 790.7,279.5 698.1,274.9 "/>
<polygon class="st12" points="702.2,259.5 792.9,273.8 744,439.5 653.2,425.1 "/>
<polygon class="st12" points="624.7,425 717.2,420.1 731.7,589.4 639.2,594.2 "/>
<polygon class="st12" points="716,572.7 812.1,582.8 771.8,750.7 675.7,740.6 "/>
<polygon class="st12" points="635.4,526.4 762,546.4 699.1,759.2 572.5,739.3 "/>
<polygon class="st12" points="665.9,293.8 788,287.4 813.8,589.3 691.6,595.7 "/>
<polygon class="st12" points="672.3,259.5 763,273.8 714,439.5 623.3,425.1 "/>
<ellipse class="st8" cx="807.4" cy="438.3" rx="31.4" ry="76.6"/>
<ellipse class="st8" cx="607.1" cy="549.3" rx="31.4" ry="58.8"/>
<ellipse class="st8" cx="639.8" cy="289.5" rx="31.4" ry="76.6"/>
<ellipse class="st12" cx="654.8" cy="440.5" rx="31.4" ry="76.6"/>
<polygon class="st8" points="795.8,303.9 829,307 809.2,426.7 776,423.6 "/>
<ellipse class="st12" cx="770" cy="300.6" rx="26.9" ry="76.6"/>
<polygon class="st8" points="779,470.3 811.3,463.8 853.3,580.3 821,586.8 "/>
<polygon class="st8" points="646.3,221.8 679.6,224.4 662.6,344.3 629.3,341.7 "/>
<polygon class="st8" points="612.2,363.7 642.8,373.8 610.7,427.3 580.2,417.2 "/>
<ellipse transform="matrix(0.2354 -0.9719 0.9719 0.2354 361.8418 815.9472)" class="st12" cx="699.5" cy="178" rx="58.5" ry="11.8"/>
<polygon class="st8" points="612.7,568.4 643.5,577.1 586.5,687.3 555.7,678.6 "/>
<polygon class="st13" points="715.5,96.2 797.3,107.6 759.5,277.4 677.6,266 "/>
<polygon class="st13" points="716,93.9 798.9,98.8 783.9,279.5 701,274.6 "/>
<polygon class="st13" points="704.7,259.5 785.9,273.8 742.1,439.5 660.8,425.1 "/>
<polygon class="st13" points="635.3,425 718.1,420.1 731.1,589.4 648.2,594.2 "/>
<polygon class="st13" points="723.4,570.4 804.7,584.8 760.8,750.4 679.6,736.1 "/>
<polygon class="st13" points="644.9,526.4 758.2,546.4 701.9,759.2 588.5,739.3 "/>
<polygon class="st13" points="672.1,293.8 781.5,287.4 804.6,589.3 695.2,595.7 "/>
<polygon class="st13" points="677.9,259.5 759.1,273.8 715.3,439.5 634,425.1 "/>
<ellipse class="st13" cx="662.2" cy="440.5" rx="28.1" ry="76.6"/>
<ellipse class="st12" cx="625.7" cy="566" rx="27.8" ry="53.3"/>
<ellipse class="st12" cx="625.7" cy="566" rx="27.8" ry="53.3"/>
<ellipse class="st12" cx="625.7" cy="566" rx="27.8" ry="53.3"/>
<ellipse class="st12" cx="616.8" cy="563.8" rx="27.8" ry="53.3"/>
<ellipse class="st12" cx="616.8" cy="563.8" rx="27.8" ry="53.3"/>
<ellipse class="st8" cx="616.8" cy="563.8" rx="27.8" ry="53.3"/>
<polygon class="st8" points="797.8,303.9 827.5,307 809.8,426.7 780,423.6 "/>
<ellipse class="st13" cx="765.4" cy="300.6" rx="24.1" ry="76.6"/>
<polygon class="st12" points="773.4,470.3 802.3,463.8 840,580.3 811,586.8 "/>
<polygon class="st12" points="651.9,248.4 681.1,255.1 649.3,371.8 620.1,365.1 "/>
<polygon class="st12" points="651.9,248.4 681.1,255.1 649.3,371.8 620.1,365.1 "/>
<polygon class="st12" points="651.9,248.4 681.1,255.1 649.3,371.8 620.1,365.1 "/>
<ellipse class="st12" cx="792.6" cy="413.9" rx="28.1" ry="76.6"/>
<polygon class="st8" points="782.2,470.3 811.2,463.8 848.8,580.3 819.9,586.8 "/>
<polygon class="st8" points="793.4,330.6 822.4,336.7 820.1,356.2 791.1,350 "/>
<polygon class="st8" points="813.4,570.4 842.4,576.6 840.1,596 811.1,589.9 "/>
<ellipse class="st8" cx="799.3" cy="413.9" rx="28.1" ry="76.6"/>
<polygon class="st12" points="647.5,241.8 676.6,248.5 644.8,365.1 615.7,358.4 "/>
<polygon class="st12" points="647.5,241.8 676.6,248.5 644.8,365.1 615.7,358.4 "/>
<polygon class="st8" points="647.2,241.2 676.6,247.9 644.5,365.1 615.1,358.4 "/>
<polygon class="st8" points="620.2,346.1 649.1,350.2 642.3,373.9 613.5,369.8 "/>
<ellipse transform="matrix(0.2103 -0.9776 0.9776 0.2103 380.5125 827.1658)" class="st13" cx="702.3" cy="178" rx="58.1" ry="10.6"/>
<polygon class="st12" points="616.4,595 643.9,603.7 605.5,686.8 577.9,678 "/>
<polygon class="st8" points="608.7,590.4 635.8,600.3 591.5,686.5 564.3,676.7 "/>
<polygon class="st8" points="602.4,497.5 630.4,490.5 635.6,534.6 607.6,541.6 "/>
</svg>
