<?xml version="1.0" encoding="utf-8"?>
<!-- Generator: Adobe Illustrator 26.1.0, SVG Export Plug-In . SVG Version: 6.00 Build 0)  -->
<svg version="1.1" id="Layer_1" xmlns="http://www.w3.org/2000/svg" xmlns:xlink="http://www.w3.org/1999/xlink" x="0px" y="0px"
	 viewBox="0 0 768 472" style="enable-background:new 0 0 768 472;" xml:space="preserve">
<polygon class="st0" points="123.49,161.15 124.8,161.05 125.4,178.43 124.09,178.54 "/>
<polygon class="st0" points="125.48,157.62 126.56,158.47 124.81,161.1 123.73,160.25 "/>
<polygon class="st0" points="127.17,156.14 127.97,157.03 125.99,159.12 125.2,158.22 "/>
<polygon class="st0" points="129.39,154.68 129.99,155.64 127.73,157.31 127.12,156.34 "/>
<polygon class="st0" points="131.45,153.78 131.86,154.76 129.37,155.96 128.96,154.98 "/>
<polygon class="st0" points="133.8,153.2 134.05,154.24 131.41,154.94 131.16,153.89 "/>
<polygon class="st1" points="124.57,158.6 125.61,157.43 125.75,157.6 124.72,158.76 "/>
<polygon class="st1" points="127.21,155.98 129.5,154.49 129.61,154.69 127.32,156.18 "/>
<polygon class="st1" points="126.09,156.98 127.24,155.97 127.37,156.15 126.22,157.17 "/>
<polygon class="st0" points="122.69,157.03 122.04,157.88 123.09,160.51 123.73,159.66 "/>
<polygon class="st0" points="121.68,155.55 121.2,156.44 122.38,158.53 122.86,157.63 "/>
<polygon class="st0" points="120.35,154.09 119.99,155.06 121.34,156.72 121.7,155.76 "/>
<polygon class="st0" points="119.11,153.2 118.87,154.18 120.36,155.38 120.6,154.39 "/>
<polygon class="st0" points="117.71,152.61 117.56,153.65 119.14,154.35 119.29,153.3 "/>
<polygon class="st1" points="123.23,158.01 122.61,156.84 122.52,157.01 123.14,158.17 "/>
<polygon class="st1" points="121.65,155.39 120.28,153.9 120.22,154.11 121.59,155.59 "/>
<polygon class="st1" points="122.32,156.39 121.63,155.38 121.56,155.56 122.25,156.58 "/>
<polygon class="st0" points="122.57,152.63 122.99,152.68 122.07,157.31 121.65,157.25 "/>
<polygon class="st0" points="128.67,153.37 129.09,153.43 128.44,156.67 128.03,156.62 "/>
<polygon class="st0" points="126.94,153.73 127.18,153.67 127.89,156.85 127.65,156.91 "/>
<polygon class="st0" points="124.01,154.27 124.23,154.37 122.65,157.24 122.43,157.14 "/>
<polygon class="st0" points="118.69,154.18 118.88,154.02 122.72,158.88 122.53,159.03 "/>
<rect x="123.73" y="178.3" class="st1" width="2.1" height="0.9"/>
<path class="st0" d="M124.17,162.89l-1.45-3.28l2.66-0.21L124.17,162.89z"/>
<path class="st0" d="M113.98,151.69l3.87,0.95l-0.26,1.04L113.98,151.69z"/>
<path class="st0" d="M123.44,150.16l-0.43,2.84l-0.39-0.14L123.44,150.16z"/>
<path class="st0" d="M137.7,152.45l-3.69,1.76l-0.22-1.06L137.7,152.45z"/>
<path class="st0" d="M132.88,149.58l0.24,4.46l-0.55-0.01L132.88,149.58z"/>
<path class="st0" d="M129.61,150.8l2.12,3.58l-0.47,0.37L129.61,150.8z"/>
<path class="st0" d="M131.21,151.44l-0.39,1.43l-0.29-0.18L131.21,151.44z"/>
<path class="st0" d="M129.08,152.14l-0.11,1.51l-0.32-0.09L129.08,152.14z"/>
<path class="st0" d="M133.4,150.44l-0.39,1.43l-0.29-0.18L133.4,150.44z"/>
<path class="st0" d="M129.16,152.07l1.2-0.01l-0.04,0.41L129.16,152.07z"/>
<path class="st0" d="M131.55,152.07l1.2-0.01l-0.04,0.41L131.55,152.07z"/>
<path class="st0" d="M121.41,152.57l1.2-0.01l-0.04,0.41L121.41,152.57z"/>
<path class="st0" d="M117.63,151.07l1.2-0.01l-0.04,0.41L117.63,151.07z"/>
<path class="st0" d="M124.17,151.57l-1.13,0.49l-0.06-0.4L124.17,151.57z"/>
<path class="st0" d="M119.99,151.57l-1.13,0.49l-0.06-0.4L119.99,151.57z"/>
<path class="st0" d="M119.3,149.18l-0.65,4.22l-0.51-0.18L119.3,149.18z"/>
<polygon class="st0" points="74.49,164.69 75.8,164.49 76.4,196.89 75.09,197.09 "/>
<polygon class="st0" points="76.48,158.11 77.56,159.69 75.81,164.59 74.73,163.01 "/>
<polygon class="st0" points="78.17,155.35 78.97,157.01 76.99,160.9 76.2,159.23 "/>
<polygon class="st0" points="80.39,152.63 80.99,154.43 78.73,157.53 78.12,155.73 "/>
<polygon class="st0" points="82.45,150.96 82.86,152.79 80.37,155.03 79.96,153.2 "/>
<polygon class="st0" points="84.8,149.87 85.05,151.81 82.41,153.11 82.16,151.16 "/>
<polygon class="st1" points="75.57,159.93 76.61,157.76 76.75,158.07 75.72,160.24 "/>
<polygon class="st1" points="78.21,155.05 80.5,152.28 80.61,152.66 78.32,155.43 "/>
<polygon class="st1" points="77.09,156.92 78.24,155.03 78.37,155.38 77.22,157.27 "/>
<polygon class="st0" points="73.69,157.02 73.04,158.59 74.09,163.5 74.73,161.92 "/>
<polygon class="st0" points="72.68,154.25 72.2,155.92 73.38,159.8 73.86,158.14 "/>
<polygon class="st0" points="71.35,151.53 70.99,153.33 72.34,156.44 72.7,154.64 "/>
<polygon class="st0" points="70.11,149.87 69.87,151.69 71.36,153.93 71.6,152.1 "/>
<polygon class="st0" points="68.71,148.77 68.56,150.72 70.14,152.01 70.29,150.07 "/>
<polygon class="st1" points="74.23,158.83 73.61,156.66 73.52,156.97 74.14,159.14 "/>
<polygon class="st1" points="72.65,153.95 71.28,151.18 71.22,151.56 72.59,154.33 "/>
<polygon class="st1" points="73.32,155.82 72.63,153.93 72.56,154.28 73.25,156.17 "/>
<polygon class="st0" points="73.57,148.81 73.99,148.91 73.07,157.54 72.65,157.43 "/>
<polygon class="st0" points="79.67,150.2 80.09,150.3 79.44,156.35 79.03,156.24 "/>
<polygon class="st0" points="77.94,150.87 78.18,150.75 78.89,156.67 78.65,156.78 "/>
<polygon class="st0" points="75.01,151.87 75.23,152.05 73.65,157.4 73.43,157.22 "/>
<polygon class="st0" points="69.69,151.69 69.88,151.41 73.72,160.46 73.53,160.75 "/>
<rect x="74.73" y="196.64" class="st1" width="2.1" height="1.67"/>
<path class="st0" d="M75.17,167.94l-1.45-6.12l2.66-0.39L75.17,167.94z"/>
<path class="st0" d="M64.98,147.06l3.87,1.78l-0.26,1.94L64.98,147.06z"/>
<path class="st0" d="M74.44,144.22l-0.43,5.28l-0.39-0.26L74.44,144.22z"/>
<path class="st0" d="M88.7,148.48l-3.69,3.29l-0.22-1.97L88.7,148.48z"/>
<path class="st0" d="M83.88,143.14l0.24,8.31l-0.55-0.01L83.88,143.14z"/>
<path class="st0" d="M80.61,145.4l2.12,6.67l-0.47,0.69L80.61,145.4z"/>
<path class="st0" d="M82.21,146.6l-0.39,2.66l-0.29-0.34L82.21,146.6z"/>
<path class="st0" d="M80.08,147.9l-0.11,2.81l-0.32-0.17L80.08,147.9z"/>
<path class="st0" d="M84.4,144.73l-0.39,2.66l-0.29-0.34L84.4,144.73z"/>
<path class="st0" d="M80.16,147.77l1.2-0.03l-0.04,0.75L80.16,147.77z"/>
<path class="st0" d="M82.55,147.77l1.2-0.03l-0.04,0.75L82.55,147.77z"/>
<path class="st0" d="M72.41,148.71l1.2-0.03l-0.04,0.75L72.41,148.71z"/>
<path class="st0" d="M68.63,145.9l1.2-0.03l-0.04,0.75L68.63,145.9z"/>
<path class="st0" d="M75.17,146.83l-1.13,0.92L73.97,147L75.17,146.83z"/>
<path class="st0" d="M70.99,146.83l-1.13,0.92L69.79,147L70.99,146.83z"/>
<path class="st0" d="M70.3,142.39l-0.65,7.87l-0.51-0.33L70.3,142.39z"/>
<polygon class="st0" points="562.43,322.29 569.02,321.88 572.05,391.16 565.45,391.58 "/>
<polygon class="st0" points="572.45,308.23 577.87,311.61 569.06,322.09 563.65,318.71 "/>
<polygon class="st0" points="580.95,302.32 584.95,305.88 575.01,314.19 571.01,310.63 "/>
<polygon class="st0" points="592.1,296.5 595.13,300.35 583.73,307 580.7,303.15 "/>
<polygon class="st0" points="602.48,292.94 604.52,296.85 592,301.63 589.95,297.72 "/>
<polygon class="st0" points="614.27,290.6 615.52,294.77 602.26,297.53 601,293.37 "/>
<polygon class="st1" points="567.86,312.12 573.06,307.48 573.81,308.14 568.6,312.78 "/>
<polygon class="st1" points="581.14,301.68 592.65,295.76 593.18,296.57 581.66,302.49 "/>
<polygon class="st1" points="575.5,305.68 581.3,301.64 581.95,302.38 576.15,306.42 "/>
<polygon class="st0" points="558.38,305.89 555.14,309.27 560.41,319.74 563.65,316.37 "/>
<polygon class="st0" points="553.29,299.98 550.9,303.54 556.85,311.85 559.24,308.28 "/>
<polygon class="st0" points="546.62,294.16 544.81,298.01 551.63,304.65 553.44,300.8 "/>
<polygon class="st0" points="540.41,290.6 539.19,294.51 546.68,299.29 547.9,295.38 "/>
<polygon class="st0" points="533.36,288.26 532.61,292.42 540.54,295.19 541.29,291.03 "/>
<polygon class="st1" points="561.13,309.77 558.01,305.13 557.57,305.8 560.68,310.44 "/>
<polygon class="st1" points="553.18,299.33 546.29,293.41 545.98,294.22 552.87,300.15 "/>
<polygon class="st1" points="556.56,303.34 553.08,299.3 552.69,300.04 556.17,304.08 "/>
<polygon class="st0" points="557.8,288.34 559.9,288.56 555.26,307 553.16,306.78 "/>
<polygon class="st0" points="588.49,291.31 590.59,291.53 587.34,304.46 585.24,304.23 "/>
<polygon class="st0" points="579.76,292.74 580.96,292.5 584.54,305.15 583.35,305.39 "/>
<polygon class="st0" points="565.02,294.88 566.14,295.27 558.19,306.72 557.07,306.32 "/>
<polygon class="st0" points="538.29,294.5 539.24,293.9 558.55,313.26 557.6,313.87 "/>
<rect x="563.61" y="390.63" class="st1" width="10.56" height="3.57"/>
<path class="st0" d="M565.85,329.24l-7.29-13.08l13.4-0.84L565.85,329.24z"/>
<path class="st0" d="M514.58,284.59l19.46,3.8l-1.29,4.15L514.58,284.59z"/>
<path class="st0" d="M562.15,278.52l-2.14,11.3l-1.98-0.56L562.15,278.52z"/>
<path class="st0" d="M633.91,287.63l-18.55,7.02l-1.08-4.21L633.91,287.63z"/>
<path class="st0" d="M609.64,276.21l1.23,17.78l-2.77-0.02L609.64,276.21z"/>
<path class="st0" d="M593.2,281.04l10.67,14.27l-2.35,1.49L593.2,281.04z"/>
<path class="st0" d="M601.25,283.62l-1.96,5.69l-1.45-0.73L601.25,283.62z"/>
<path class="st0" d="M590.51,286.4l-0.53,6l-1.59-0.36L590.51,286.4z"/>
<path class="st0" d="M612.25,279.62l-1.96,5.69l-1.45-0.73L612.25,279.62z"/>
<path class="st0" d="M590.95,286.13l6.02-0.06l-0.21,1.61L590.95,286.13z"/>
<path class="st0" d="M602.95,286.13l6.02-0.06l-0.21,1.61L602.95,286.13z"/>
<path class="st0" d="M551.95,288.13l6.02-0.06l-0.21,1.61L551.95,288.13z"/>
<path class="st0" d="M532.95,282.13l6.02-0.06l-0.21,1.61L532.95,282.13z"/>
<path class="st0" d="M565.82,284.12l-5.7,1.96l-0.31-1.6L565.82,284.12z"/>
<path class="st0" d="M544.82,284.12l-5.7,1.96l-0.31-1.6L544.82,284.12z"/>
<path class="st0" d="M541.37,274.61l-3.24,16.82l-2.58-0.71L541.37,274.61z"/>
<polygon class="st0" points="326.43,319.29 333.02,318.88 336.05,388.16 329.45,388.58 "/>
<polygon class="st0" points="336.45,305.23 341.87,308.61 333.06,319.09 327.65,315.71 "/>
<polygon class="st0" points="344.95,299.32 348.95,302.88 339.01,311.19 335.01,307.63 "/>
<polygon class="st0" points="356.1,293.5 359.13,297.35 347.73,304 344.7,300.15 "/>
<polygon class="st0" points="366.48,289.94 368.52,293.85 356,298.63 353.95,294.72 "/>
<polygon class="st0" points="378.27,287.6 379.52,291.77 366.25,294.53 365,290.37 "/>
<polygon class="st1" points="331.86,309.12 337.06,304.48 337.81,305.14 332.6,309.78 "/>
<polygon class="st1" points="345.14,298.68 356.65,292.76 357.18,293.57 345.66,299.49 "/>
<polygon class="st1" points="339.5,302.68 345.3,298.64 345.95,299.38 340.15,303.42 "/>
<polygon class="st0" points="322.38,302.89 319.14,306.27 324.41,316.74 327.65,313.37 "/>
<polygon class="st0" points="317.29,296.98 314.9,300.54 320.85,308.85 323.24,305.28 "/>
<polygon class="st0" points="310.62,291.16 308.81,295.01 315.63,301.65 317.44,297.8 "/>
<polygon class="st0" points="304.41,287.6 303.19,291.51 310.68,296.29 311.9,292.38 "/>
<polygon class="st0" points="297.36,285.26 296.61,289.42 304.54,292.19 305.29,288.03 "/>
<polygon class="st1" points="325.13,306.77 322.01,302.13 321.57,302.8 324.68,307.44 "/>
<polygon class="st1" points="317.18,296.33 310.29,290.41 309.98,291.22 316.87,297.15 "/>
<polygon class="st1" points="320.56,300.34 317.08,296.3 316.69,297.04 320.17,301.08 "/>
<polygon class="st0" points="321.8,285.34 323.9,285.56 319.26,304 317.16,303.78 "/>
<polygon class="st0" points="352.49,288.31 354.59,288.53 351.34,301.46 349.24,301.23 "/>
<polygon class="st0" points="343.76,289.74 344.96,289.5 348.54,302.15 347.35,302.39 "/>
<polygon class="st0" points="329.02,291.88 330.14,292.27 322.19,303.72 321.07,303.32 "/>
<polygon class="st0" points="302.29,291.5 303.24,290.9 322.55,310.26 321.6,310.87 "/>
<rect x="327.61" y="387.63" class="st1" width="10.56" height="3.57"/>
<path class="st0" d="M329.85,326.24l-7.29-13.08l13.4-0.84L329.85,326.24z"/>
<path class="st0" d="M278.58,281.59l19.46,3.8l-1.3,4.15L278.58,281.59z"/>
<path class="st0" d="M326.15,275.52l-2.14,11.3l-1.98-0.56L326.15,275.52z"/>
<path class="st0" d="M397.91,284.63l-18.54,7.02l-1.09-4.21L397.91,284.63z"/>
<path class="st0" d="M373.64,273.21l1.23,17.78l-2.77-0.02L373.64,273.21z"/>
<path class="st0" d="M357.2,278.04l10.67,14.27l-2.35,1.49L357.2,278.04z"/>
<path class="st0" d="M365.25,280.62l-1.96,5.69l-1.45-0.73L365.25,280.62z"/>
<path class="st0" d="M354.51,283.4l-0.53,6l-1.59-0.36L354.51,283.4z"/>
<path class="st0" d="M376.25,276.62l-1.96,5.69l-1.45-0.73L376.25,276.62z"/>
<path class="st0" d="M354.95,283.13l6.02-0.06l-0.21,1.61L354.95,283.13z"/>
<path class="st0" d="M366.95,283.13l6.02-0.06l-0.21,1.61L366.95,283.13z"/>
<path class="st0" d="M315.95,285.13l6.02-0.06l-0.21,1.61L315.95,285.13z"/>
<path class="st0" d="M296.95,279.13l6.02-0.06l-0.2,1.61L296.95,279.13z"/>
<path class="st0" d="M329.82,281.12l-5.7,1.96l-0.31-1.6L329.82,281.12z"/>
<path class="st0" d="M308.82,281.12l-5.7,1.96l-0.32-1.6L308.82,281.12z"/>
<path class="st0" d="M305.37,271.61l-3.24,16.82l-2.58-0.71L305.37,271.61z"/>
<polygon class="st0" points="245.77,193.68 248.61,193.33 249.91,251.64 247.07,251.99 "/>
<polygon class="st0" points="250.08,181.84 252.42,184.69 248.62,193.51 246.29,190.66 "/>
<polygon class="st0" points="253.74,176.87 255.47,179.87 251.19,186.86 249.46,183.86 "/>
<polygon class="st0" points="258.55,171.97 259.85,175.21 254.94,180.8 253.64,177.56 "/>
<polygon class="st0" points="263.02,168.98 263.9,172.27 258.51,176.29 257.62,173 "/>
<polygon class="st0" points="268.1,167 268.64,170.51 262.92,172.84 262.38,169.33 "/>
<polygon class="st1" points="248.1,185.11 250.35,181.21 250.67,181.76 248.42,185.67 "/>
<polygon class="st1" points="253.83,176.33 258.78,171.34 259.01,172.03 254.05,177.01 "/>
<polygon class="st1" points="251.4,179.7 253.9,176.3 254.18,176.92 251.68,180.32 "/>
<polygon class="st0" points="244.02,179.87 242.63,182.71 244.9,191.53 246.29,188.69 "/>
<polygon class="st0" points="241.83,174.89 240.8,177.89 243.36,184.88 244.39,181.89 "/>
<polygon class="st0" points="238.95,170 238.17,173.24 241.11,178.83 241.89,175.59 "/>
<polygon class="st0" points="236.28,167 235.75,170.29 238.98,174.31 239.51,171.03 "/>
<polygon class="st0" points="233.24,165.03 232.92,168.54 236.34,170.87 236.66,167.36 "/>
<polygon class="st1" points="245.21,183.14 243.86,179.23 243.67,179.79 245.01,183.7 "/>
<polygon class="st1" points="241.78,174.35 238.81,169.37 238.68,170.05 241.65,175.04 "/>
<polygon class="st1" points="243.24,177.73 241.74,174.33 241.57,174.95 243.07,178.35 "/>
<polygon class="st0" points="243.77,165.1 244.68,165.29 242.68,180.81 241.77,180.62 "/>
<polygon class="st0" points="256.99,167.6 257.9,167.79 256.5,178.66 255.59,178.48 "/>
<polygon class="st0" points="253.23,168.81 253.75,168.6 255.29,179.24 254.78,179.45 "/>
<polygon class="st0" points="246.88,170.6 247.36,170.94 243.94,180.57 243.46,180.23 "/>
<polygon class="st0" points="235.37,170.29 235.77,169.78 244.09,186.08 243.69,186.59 "/>
<rect x="246.27" y="251.19" class="st1" width="4.55" height="3"/>
<path class="st0" d="M247.24,199.53l-3.14-11.01l5.77-0.71L247.24,199.53z"/>
<path class="st0" d="M225.15,161.94l8.39,3.2l-0.56,3.49L225.15,161.94z"/>
<path class="st0" d="M245.64,156.83l-0.92,9.51l-0.85-0.47L245.64,156.83z"/>
<path class="st0" d="M276.56,164.5l-7.99,5.91l-0.47-3.54L276.56,164.5z"/>
<path class="st0" d="M266.1,154.89l0.53,14.96l-1.2-0.02L266.1,154.89z"/>
<path class="st0" d="M259.02,158.96l4.6,12.01l-1.01,1.25L259.02,158.96z"/>
<path class="st0" d="M262.49,161.13l-0.85,4.79l-0.62-0.62L262.49,161.13z"/>
<path class="st0" d="M257.86,163.47l-0.23,5.05l-0.68-0.3L257.86,163.47z"/>
<path class="st0" d="M267.23,157.76l-0.85,4.79l-0.63-0.62L267.23,157.76z"/>
<path class="st0" d="M258.05,163.24l2.59-0.05l-0.09,1.36L258.05,163.24z"/>
<path class="st0" d="M263.22,163.24l2.59-0.05l-0.09,1.36L263.22,163.24z"/>
<path class="st0" d="M241.25,164.92l2.6-0.05l-0.09,1.36L241.25,164.92z"/>
<path class="st0" d="M233.06,159.87l2.59-0.05l-0.09,1.36L233.06,159.87z"/>
<path class="st0" d="M247.22,161.55l-2.45,1.65l-0.14-1.34L247.22,161.55z"/>
<path class="st0" d="M238.18,161.55l-2.45,1.65l-0.14-1.34L238.18,161.55z"/>
<path class="st0" d="M236.69,153.54l-1.4,14.16l-1.11-0.6L236.69,153.54z"/>
<polygon class="st0" points="176.49,254.68 173.59,254.33 172.27,312.64 175.16,312.99 "/>
<polygon class="st0" points="172.09,242.84 169.71,245.69 173.58,254.51 175.95,251.66 "/>
<polygon class="st0" points="168.36,237.87 166.6,240.87 170.96,247.86 172.72,244.86 "/>
<polygon class="st0" points="163.46,232.97 162.13,236.21 167.14,241.8 168.46,238.56 "/>
<polygon class="st0" points="158.9,229.98 158,233.27 163.5,237.29 164.4,234 "/>
<polygon class="st0" points="153.73,228 153.18,231.51 159,233.84 159.55,230.33 "/>
<polygon class="st1" points="174.11,246.11 171.82,242.21 171.49,242.76 173.78,246.67 "/>
<polygon class="st1" points="168.27,237.33 163.22,232.34 162.99,233.03 168.04,238.01 "/>
<polygon class="st1" points="170.75,240.7 168.2,237.3 167.92,237.92 170.46,241.32 "/>
<polygon class="st0" points="178.27,240.87 179.69,243.71 177.38,252.53 175.95,249.69 "/>
<polygon class="st0" points="180.5,235.89 181.55,238.89 178.94,245.88 177.89,242.89 "/>
<polygon class="st0" points="183.43,231 184.23,234.24 181.23,239.83 180.43,236.59 "/>
<polygon class="st0" points="186.16,228 186.69,231.29 183.4,235.31 182.87,232.03 "/>
<polygon class="st0" points="189.25,226.03 189.58,229.54 186.1,231.87 185.77,228.36 "/>
<polygon class="st1" points="177.06,244.14 178.43,240.23 178.62,240.79 177.25,244.7 "/>
<polygon class="st1" points="180.55,235.35 183.57,230.37 183.71,231.05 180.69,236.04 "/>
<polygon class="st1" points="179.07,238.73 180.59,235.32 180.76,235.95 179.24,239.35 "/>
<polygon class="st0" points="178.52,226.1 177.6,226.29 179.64,241.81 180.56,241.62 "/>
<polygon class="st0" points="165.04,228.6 164.12,228.79 165.55,239.66 166.47,239.48 "/>
<polygon class="st0" points="168.88,229.81 168.35,229.6 166.78,240.24 167.3,240.45 "/>
<polygon class="st0" points="175.35,231.6 174.86,231.94 178.35,241.57 178.84,241.23 "/>
<polygon class="st0" points="187.09,231.29 186.67,230.78 178.19,247.08 178.61,247.59 "/>
<rect x="171.33" y="312.19" class="st1" width="4.64" height="3"/>
<path class="st0" d="M174.98,260.53l3.2-11.01l-5.88-0.71L174.98,260.53z"/>
<path class="st0" d="M197.5,222.94l-8.55,3.19l0.57,3.49L197.5,222.94z"/>
<path class="st0" d="M176.61,217.83l0.94,9.51l0.87-0.47L176.61,217.83z"/>
<path class="st0" d="M145.1,225.5l8.14,5.91l0.48-3.54L145.1,225.5z"/>
<path class="st0" d="M155.76,215.89l-0.54,14.96l1.22-0.02L155.76,215.89z"/>
<path class="st0" d="M162.98,219.96l-4.69,12.01l1.03,1.25L162.98,219.96z"/>
<path class="st0" d="M159.44,222.13l0.86,4.79l0.64-0.62L159.44,222.13z"/>
<path class="st0" d="M164.16,224.47l0.23,5.05l0.7-0.3L164.16,224.47z"/>
<path class="st0" d="M154.61,218.76l0.86,4.79l0.64-0.62L154.61,218.76z"/>
<path class="st0" d="M163.97,224.24l-2.64-0.05l0.09,1.36L163.97,224.24z"/>
<path class="st0" d="M158.7,224.24l-2.64-0.05l0.09,1.36L158.7,224.24z"/>
<path class="st0" d="M181.09,225.92l-2.64-0.05l0.09,1.36L181.09,225.92z"/>
<path class="st0" d="M189.43,220.87l-2.64-0.05l0.09,1.36L189.43,220.87z"/>
<path class="st0" d="M175,222.55l2.5,1.65l0.14-1.34L175,222.55z"/>
<path class="st0" d="M184.22,222.55l2.5,1.65l0.14-1.34L184.22,222.55z"/>
<path class="st0" d="M185.74,214.54l1.43,14.16l1.13-0.6L185.74,214.54z"/>
<ellipse class="st2" cx="184.18" cy="220.8" rx="12.34" ry="9.03"/>
<ellipse class="st2" cx="199.21" cy="214.93" rx="7.09" ry="5.87"/>
<ellipse class="st2" cx="178.93" cy="209.06" rx="7.09" ry="5.87"/>
<ellipse class="st2" cx="151.56" cy="230.73" rx="7.09" ry="5.87"/>
<ellipse class="st2" cx="190.17" cy="209.51" rx="7.09" ry="5.87"/>
<ellipse class="st2" cx="174.53" cy="230.73" rx="7.09" ry="5.87"/>
<ellipse class="st2" cx="146.91" cy="222.15" rx="7.09" ry="5.87"/>
<ellipse class="st2" cx="185.28" cy="232.53" rx="7.09" ry="5.87"/>
<ellipse class="st2" cx="169.15" cy="213.58" rx="7.09" ry="5.87"/>
<ellipse class="st2" cx="163.29" cy="230.73" rx="7.09" ry="5.87"/>
<ellipse class="st2" cx="161.09" cy="209.06" rx="7.09" ry="5.87"/>
<ellipse class="st2" cx="200.19" cy="223.96" rx="7.09" ry="5.87"/>
<ellipse class="st2" cx="196.03" cy="232.08" rx="7.09" ry="5.87"/>
<ellipse class="st2" cx="152.29" cy="213.58" rx="7.09" ry="5.87"/>
<ellipse class="st2" cx="162.92" cy="221.7" rx="11.12" ry="7.67"/>
<ellipse class="st2" cx="548.55" cy="279.48" rx="26.57" ry="9.37"/>
<ellipse class="st2" cx="516.19" cy="273.38" rx="15.26" ry="6.09"/>
<ellipse class="st2" cx="559.86" cy="267.29" rx="15.26" ry="6.09"/>
<ellipse class="st2" cx="618.79" cy="289.79" rx="15.26" ry="6.09"/>
<ellipse class="st2" cx="535.66" cy="267.76" rx="15.26" ry="6.09"/>
<ellipse class="st2" cx="569.33" cy="289.79" rx="15.26" ry="6.09"/>
<ellipse class="st2" cx="628.78" cy="280.88" rx="15.26" ry="6.09"/>
<ellipse class="st2" cx="546.18" cy="291.66" rx="15.26" ry="6.09"/>
<ellipse class="st2" cx="580.91" cy="271.98" rx="15.26" ry="6.09"/>
<ellipse class="st2" cx="593.53" cy="289.79" rx="15.26" ry="6.09"/>
<ellipse class="st2" cx="598.27" cy="267.29" rx="15.26" ry="6.09"/>
<ellipse class="st2" cx="514.09" cy="282.76" rx="15.26" ry="6.09"/>
<ellipse class="st2" cx="523.03" cy="291.19" rx="15.26" ry="6.09"/>
<ellipse class="st2" cx="617.21" cy="271.98" rx="15.26" ry="6.09"/>
<ellipse class="st2" cx="594.32" cy="280.41" rx="23.94" ry="7.97"/>
<ellipse class="st2" cx="315.55" cy="277.48" rx="26.57" ry="9.37"/>
<ellipse class="st2" cx="283.19" cy="271.38" rx="15.26" ry="6.09"/>
<ellipse class="st2" cx="326.86" cy="265.29" rx="15.26" ry="6.09"/>
<ellipse class="st2" cx="385.79" cy="287.79" rx="15.26" ry="6.09"/>
<ellipse class="st2" cx="302.66" cy="265.76" rx="15.26" ry="6.09"/>
<ellipse class="st2" cx="336.33" cy="287.79" rx="15.26" ry="6.09"/>
<ellipse class="st2" cx="395.78" cy="278.88" rx="15.26" ry="6.09"/>
<ellipse class="st2" cx="313.18" cy="289.66" rx="15.26" ry="6.09"/>
<ellipse class="st2" cx="347.91" cy="269.98" rx="15.26" ry="6.09"/>
<ellipse class="st2" cx="360.53" cy="287.79" rx="15.26" ry="6.09"/>
<ellipse class="st2" cx="365.27" cy="265.29" rx="15.26" ry="6.09"/>
<ellipse class="st2" cx="281.09" cy="280.76" rx="15.26" ry="6.09"/>
<ellipse class="st2" cx="290.03" cy="289.19" rx="15.26" ry="6.09"/>
<ellipse class="st2" cx="384.21" cy="269.98" rx="15.26" ry="6.09"/>
<ellipse class="st2" cx="361.32" cy="278.41" rx="23.94" ry="7.97"/>
<ellipse class="st2" cx="239.57" cy="165.69" rx="11.09" ry="5.9"/>
<ellipse class="st2" cx="226.07" cy="161.86" rx="6.37" ry="3.83"/>
<ellipse class="st2" cx="244.29" cy="158.03" rx="6.37" ry="3.83"/>
<ellipse class="st2" cx="268.88" cy="172.18" rx="6.37" ry="3.83"/>
<ellipse class="st2" cx="234.19" cy="158.32" rx="6.37" ry="3.83"/>
<ellipse class="st2" cx="248.24" cy="172.18" rx="6.37" ry="3.83"/>
<ellipse class="st2" cx="273.05" cy="166.58" rx="6.37" ry="3.83"/>
<ellipse class="st2" cx="238.58" cy="173.36" rx="6.37" ry="3.83"/>
<ellipse class="st2" cx="253.07" cy="160.98" rx="6.37" ry="3.83"/>
<ellipse class="st2" cx="258.34" cy="172.18" rx="6.37" ry="3.83"/>
<ellipse class="st2" cx="260.32" cy="158.03" rx="6.37" ry="3.83"/>
<ellipse class="st2" cx="225.19" cy="167.76" rx="6.37" ry="3.83"/>
<ellipse class="st2" cx="228.93" cy="173.07" rx="6.37" ry="3.83"/>
<ellipse class="st2" cx="268.22" cy="160.98" rx="6.37" ry="3.83"/>
<ellipse class="st2" cx="258.67" cy="166.28" rx="9.99" ry="5.01"/>
<ellipse class="st2" cx="120.68" cy="151.88" rx="6.33" ry="2.92"/>
<ellipse class="st2" cx="112.97" cy="149.99" rx="3.64" ry="1.9"/>
<ellipse class="st2" cx="123.38" cy="148.09" rx="3.64" ry="1.9"/>
<ellipse class="st2" cx="137.43" cy="155.09" rx="3.64" ry="1.9"/>
<ellipse class="st2" cx="117.61" cy="148.24" rx="3.64" ry="1.9"/>
<ellipse class="st2" cx="125.64" cy="155.09" rx="3.64" ry="1.9"/>
<ellipse class="st2" cx="139.81" cy="152.32" rx="3.64" ry="1.9"/>
<ellipse class="st2" cx="120.12" cy="155.67" rx="3.64" ry="1.9"/>
<ellipse class="st2" cx="128.4" cy="149.55" rx="3.64" ry="1.9"/>
<ellipse class="st2" cx="131.41" cy="155.09" rx="3.64" ry="1.9"/>
<ellipse class="st2" cx="132.54" cy="148.09" rx="3.64" ry="1.9"/>
<ellipse class="st2" cx="112.47" cy="152.9" rx="3.64" ry="1.9"/>
<ellipse class="st2" cx="114.6" cy="155.53" rx="3.64" ry="1.9"/>
<ellipse class="st2" cx="137.05" cy="149.55" rx="3.64" ry="1.9"/>
<ellipse class="st2" cx="131.59" cy="152.17" rx="5.71" ry="2.48"/>
<ellipse class="st2" cx="71.04" cy="146.86" rx="5.45" ry="4.44"/>
<ellipse class="st2" cx="64.39" cy="143.97" rx="3.13" ry="2.89"/>
<ellipse class="st2" cx="73.36" cy="141.08" rx="3.13" ry="2.89"/>
<ellipse class="st2" cx="85.46" cy="151.75" rx="3.13" ry="2.89"/>
<ellipse class="st2" cx="68.39" cy="141.31" rx="3.13" ry="2.89"/>
<ellipse class="st2" cx="75.3" cy="151.75" rx="3.13" ry="2.89"/>
<ellipse class="st2" cx="87.51" cy="147.53" rx="3.13" ry="2.89"/>
<ellipse class="st2" cx="70.55" cy="152.64" rx="3.13" ry="2.89"/>
<ellipse class="st2" cx="77.68" cy="143.31" rx="3.13" ry="2.89"/>
<ellipse class="st2" cx="80.27" cy="151.75" rx="3.13" ry="2.89"/>
<ellipse class="st2" cx="81.24" cy="141.08" rx="3.13" ry="2.89"/>
<ellipse class="st2" cx="63.96" cy="148.42" rx="3.13" ry="2.89"/>
<ellipse class="st2" cx="65.8" cy="152.42" rx="3.13" ry="2.89"/>
<ellipse class="st2" cx="85.13" cy="143.31" rx="3.13" ry="2.89"/>
<ellipse class="st2" cx="80.43" cy="147.31" rx="4.91" ry="3.78"/>
</svg>
