<?xml version="1.0" encoding="utf-8"?>
<!-- Generator: Adobe Illustrator 25.4.1, SVG Export Plug-In . SVG Version: 6.00 Build 0)  -->
<svg version="1.1" id="Layer_1" xmlns="http://www.w3.org/2000/svg" xmlns:xlink="http://www.w3.org/1999/xlink" x="0px" y="0px"
	 viewBox="0 0 1366 768" style="enable-background:new 0 0 1366 768;" xml:space="preserve">
<style type="text/css">
	.st0{fill:#B67F4D;fill-opacity:0.38;}
	.st1{fill:#A05C11;fill-opacity:0.85;}
	.st2{fill:#824106;fill-opacity:0.67;}
	.st3{fill:#C06B0E;}
</style>
<ellipse transform="matrix(0.2687 -0.9632 0.9632 0.2687 33.6399 866.3759)" class="st0" cx="587.4" cy="411.03" rx="18.97" ry="23"/>
<ellipse class="st0" cx="675.65" cy="394.58" rx="93.5" ry="33"/>
<ellipse transform="matrix(0.8763 -0.4817 0.4817 0.8763 -98.9185 421.8283)" class="st0" cx="772.1" cy="403.57" rx="22.79" ry="19.57"/>
<ellipse transform="matrix(0.8952 -0.4457 0.4457 0.8952 -106.0668 393.6673)" class="st0" cx="783.96" cy="422.35" rx="20" ry="11"/>
<ellipse transform="matrix(0.0118 -0.9999 0.9999 0.0118 256.4716 1100.5203)" class="st0" cx="685.05" cy="420.5" rx="32.5" ry="108.62"/>
<ellipse class="st1" cx="674.67" cy="388.52" rx="87.15" ry="23.93"/>
<ellipse transform="matrix(0.9795 -0.2014 0.2014 0.9795 -65.9353 161.7652)" class="st1" cx="761.91" cy="404.88" rx="30.35" ry="16.51"/>
<ellipse transform="matrix(0.9617 -0.274 0.274 0.9617 -87.6087 225.5607)" class="st1" cx="763.65" cy="426.4" rx="35.82" ry="12.05"/>
<ellipse class="st1" cx="698.05" cy="419.55" rx="81.47" ry="30.87"/>
<ellipse transform="matrix(0.1444 -0.9895 0.9895 0.1444 146.166 1009.3585)" class="st1" cx="656.75" cy="420.16" rx="27.41" ry="89.49"/>
<path class="st2" d="M576.46,397.75l1.28-0.53v6.32l-1.28,0.6V397.75z"/>
<path class="st2" d="M573.26,399.87l1.28-0.89v6.21l-1.28,1.77V399.87z"/>
<ellipse transform="matrix(0.527 -0.8499 0.8499 0.527 24.1218 862.0293)" class="st3" cx="786.48" cy="409.34" rx="2.64" ry="1.22"/>
<path class="st2" d="M685.77,364.87l1.28,0.03l0.53,5.33l-2.07-0.33L685.77,364.87z"/>
<polygon class="st2" points="683.29,364.81 684.62,364.86 684.42,370.03 683.09,369.97 "/>
<path class="st2" d="M644.14,366.13l1.28-0.11l0.43,5.44l-1.71,0V366.13z"/>
<path class="st2" d="M657.28,365.14l1.16-0.06l0.8,5l-1.95,0.35V365.14z"/>
<polygon class="st2" points="664.08,365 665.36,364.94 665.57,370.02 664.29,370.08 "/>
<path class="st2" d="M647.77,365.72l1.28-0.02l0.68,5.45h-1.87L647.77,365.72z"/>
<polygon class="st2" points="654.23,365.24 655.52,365.16 655.86,370.54 654.58,370.62 "/>
<rect x="671.38" y="364.59" transform="matrix(0.9999 -0.0167 0.0167 0.9999 -6.028 11.2527)" class="st2" width="1.28" height="5.29"/>
<path class="st2" d="M636.42,367.24l1.21-0.35l0.35,5.5l-1.21,0.35L636.42,367.24z"/>
<path class="st2" d="M786.83,392.07l1.38,1.14l-2.25,6.31l-1.9-2.13L786.83,392.07z"/>
<path class="st2" d="M780.08,389.2l1.73,0.39l-1.04,5.68l-1.29-0.49L780.08,389.2z"/>
<path class="st2" d="M790.8,396.68l0.67,2.18l-3.09,5.8l-0.52-1.18L790.8,396.68z"/>
<path class="st2" d="M786.13,411.3l1.56,0.1l-0.86,4.61h-0.69V411.3z"/>
<path class="st2" d="M790.28,411.76l1.38,0.47l-1.21,4.71l-0.86-0.39L790.28,411.76z"/>
<path class="st2" d="M796.68,414.42l1.04,1.42l-2.25,5.32l-0.36-0.71L796.68,414.42z"/>
<path class="st2" d="M793.57,412.64l1.21,0.53l-0.97,5.85l-1.2-0.89L793.57,412.64z"/>
<rect x="677.26" y="364.59" transform="matrix(0.9999 -0.0169 0.0169 0.9999 -6.1221 11.5331)" class="st2" width="1.28" height="5.29"/>
<path class="st2" d="M569.46,403.95l1.28-1.77v5.85l-1.28,0.71V403.95z"/>
<path class="st2" d="M584.14,394.87l1.63-0.67v5.15l-1.22,0.7L584.14,394.87z"/>
<path class="st2" d="M580.06,396.25l1.21-0.64l0.48,5.81l-1.17,0.93L580.06,396.25z"/>
<path class="st2" d="M709.89,366.71l1.38,0.18l1.04,5.85l-2.59-0.53L709.89,366.71z"/>
<path class="st2" d="M700.38,365.67l1.56,0.16l0.34,5.43l-1.9-0.28V365.67z"/>
<path class="st2" d="M690.36,365.07l1.9,0.05l0.17,5.32l-1.73-0.18L690.36,365.07z"/>
<path class="st2" d="M668.45,364.78l-1.26,0.01l-0.35,5.03l1.9,0L668.45,364.78z"/>
<ellipse class="st3" cx="677.61" cy="400.48" rx="78.83" ry="19.23"/>
<ellipse transform="matrix(0.9862 -0.1653 0.1653 0.9862 -57.9652 130.7434)" class="st3" cx="756.52" cy="413.62" rx="27.34" ry="13.32"/>
<ellipse transform="matrix(0.971 -0.2392 0.2392 0.971 -81.0597 193.8151)" class="st3" cx="758.1" cy="430.92" rx="32.15" ry="9.75"/>
<ellipse class="st3" cx="698.75" cy="425.41" rx="73.7" ry="24.8"/>
<ellipse transform="matrix(0.1258 -0.9921 0.9921 0.1258 155.6611 1028.4564)" class="st3" cx="661.4" cy="425.9" rx="22.07" ry="80.77"/>
<ellipse transform="matrix(0.3834 -0.9236 0.9236 0.3834 -18.6427 810.4634)" class="st3" cx="597.68" cy="419.19" rx="14.74" ry="27.47"/>
<ellipse class="st3" cx="595.96" cy="412.11" rx="20.75" ry="14.54"/>
<ellipse transform="matrix(0.1758 -0.9844 0.9844 0.1758 106.2655 974.8211)" class="st3" cx="635.3" cy="423.95" rx="21.26" ry="57.43"/>
<rect x="589.39" y="392.6" class="st3" width="19.02" height="9.58"/>
<ellipse transform="matrix(0.9889 -0.1486 0.1486 0.9889 -50.441 98.6759)" class="st3" cx="634.92" cy="386.79" rx="45.82" ry="13.79"/>
<ellipse class="st3" cx="674.8" cy="380.19" rx="54.98" ry="10.29"/>
<ellipse transform="matrix(0.2185 -0.9758 0.9758 0.2185 192.8276 1009.6208)" class="st3" cx="726.75" cy="384.42" rx="8.68" ry="35.8"/>
<ellipse transform="matrix(0.4316 -0.9021 0.9021 0.4316 80.2258 902.1639)" class="st3" cx="756.02" cy="387.42" rx="2.29" ry="6.19"/>
<rect x="749.48" y="388.35" class="st3" width="12.45" height="16.67"/>
<ellipse transform="matrix(0.1222 -0.9925 0.9925 0.1222 279.7292 1114.1542)" class="st3" cx="769.74" cy="398.93" rx="5.67" ry="14.53"/>
<ellipse transform="matrix(0.3706 -0.9288 0.9288 0.3706 117.4161 973.6844)" class="st3" cx="777.1" cy="400.21" rx="6.01" ry="8.5"/>
<ellipse transform="matrix(0.8835 -0.4685 0.4685 0.8835 -97.7339 413.6689)" class="st3" cx="782.69" cy="403.3" rx="4.87" ry="7.41"/>
<rect x="777.84" y="409.27" class="st3" width="8.3" height="12.41"/>
<ellipse transform="matrix(0.376 -0.9266 0.9266 0.376 102.792 993.3865)" class="st3" cx="788.95" cy="420.37" rx="3.71" ry="7.1"/>
<ellipse transform="matrix(0.9009 -0.434 0.434 0.9009 -107.7525 383.3751)" class="st3" cx="785.66" cy="427.65" rx="10.25" ry="3.24"/>
<path class="st2" d="M597.86,377.18l1.21-0.53l0.98,6.19l-1.32,0.54L597.86,377.18z"/>
<polygon class="st2" points="588.01,393.74 589.29,393.67 589.55,398.23 588.27,398.31 "/>
<path class="st2" d="M714.91,367.45l1.56,0.32l0.35,5.85l-1.76-0.49L714.91,367.45z"/>
<path class="st2" d="M720.78,368.13l1.63,0.35v6.21l-1.63-0.35V368.13z"/>
<path class="st2" d="M739.95,372.78l1.15,0.53l0.45,6.21l-1.59-0.49V372.78z"/>
<path class="st2" d="M748.62,375.93l0.69,0.35v6.03l-1.4-0.53L748.62,375.93z"/>
<path class="st2" d="M758.62,382.14l1.06,1.24l0.35,3.9l-1.4-1.06V382.14z"/>
<path class="st2" d="M753.78,378.59l1.4,0.89l0.35,5.14l-1.75-0.53V378.59z"/>
<path class="st2" d="M744.99,374.38l0.86,0.49l-0.17,6.03l-1.38-0.53L744.99,374.38z"/>
<path class="st2" d="M733.72,370.97l1.15,0.35l0.27,6.21l-1.42-0.49V370.97z"/>
<path class="st2" d="M726.32,369.37l1.9,0.35v6.21l-1.9-0.34V369.37z"/>
<path class="st2" d="M761.93,388.17l1.5-0.18v5.14l-1.33,0.18L761.93,388.17z"/>
<path class="st2" d="M765.29,387.82l1.5-0.18v5.32h-1.33L765.29,387.82z"/>
<path class="st2" d="M769.36,387.64l1.04,0l0.86,5.67l-1.9-0.35V387.64z"/>
<path class="st2" d="M774.49,387.99l1.79,0.35l-0.35,5.5h-1.44V387.99z"/>
<path class="st2" d="M628.44,368.27l1.28-0.11l0.47,5.29l-1.3,0.39L628.44,368.27z"/>
<path class="st2" d="M608.04,373.24l1.23-0.49l0.5,5.95l-1.19,0.43L608.04,373.24z"/>
<path class="st2" d="M612.21,372.03l1.21-0.53l0.52,5.74l-1.22,0.46L612.21,372.03z"/>
<path class="st2" d="M617.23,370.61l1.35-0.34l0.61,5.55l-1.27,0.28L617.23,370.61z"/>
<path class="st2" d="M624.71,368.96l1.33-0.29l0.35,5.5l-1.38,0.37L624.71,368.96z"/>
<path class="st2" d="M601.11,375.73l1.25-0.5l0.72,5.87l-1.24,0.69L601.11,375.73z"/>
<path class="st2" d="M590.26,382.67l0.86-0.89l1.04,6.21l-1.04,1.06L590.26,382.67z"/>
<path class="st2" d="M588.18,385.33l0.69-0.89l1.09,7.09l-0.57,1.25L588.18,385.33z"/>
<path class="st2" d="M594.23,379.33l1.21-0.74l0.91,6.05l-1.42,1.04L594.23,379.33z"/>
<ellipse class="st3" cx="572.97" cy="411.22" rx="4.32" ry="3.01"/>
<ellipse transform="matrix(0.7066 -0.7076 0.7076 0.7066 -125.2532 529.8578)" class="st3" cx="576.37" cy="415.98" rx="4.61" ry="9.82"/>
</svg>
