<?xml version="1.0" encoding="utf-8"?>
<!-- Generator: Adobe Illustrator 25.4.1, SVG Export Plug-In . SVG Version: 6.00 Build 0)  -->
<svg version="1.1" id="Layer_1" xmlns="http://www.w3.org/2000/svg" xmlns:xlink="http://www.w3.org/1999/xlink" x="0px" y="0px"
	 viewBox="0 0 1366 768" style="enable-background:new 0 0 1366 768;" xml:space="preserve">
<style type="text/css">
	.st0{fill:#824106;}
	.st1{fill:#7CAE18;}
	.st2{fill:#91B549;}
</style>
<path class="st0" d="M576.92,366.94h6.85l-3.57,31.96l10.42,30.19h-13.7l-8.34-30.19L576.92,366.94z"/>
<path class="st0" d="M546.24,336.41L565,358.3l15.16,9.51l-3.08,3.55l-15.95-9.54l-17.87-22.97L546.24,336.41z"/>
<path class="st0" d="M566.49,331.27h3.28v14.32l-5.96,14.32l-2.98-3.24l5.66-12.43V331.27z"/>
<path class="st0" d="M579.6,329.65h4.17v18.91l-0.89,19.46h-4.76l1.49-19.46V329.65z"/>
<path class="st0" d="M598.65,335.87l3.87,0l-6.25,14.59l-13.88,5.67v-3.3l11.79-4.81L598.65,335.87z"/>
<path class="st0" d="M581.11,366.94l34.82-4.59l16.38-25.4h3.57l-17.27,28.52l-37.5,5.29V366.94z"/>
<path class="st0" d="M613.54,339.38l2.38-0.81l1.19,8.92l-5.36,15.94h-2.68l5.96-15.94L613.54,339.38z"/>
<path class="st1" d="M586.49,335c0.18,3.33-11.05,8.12-33.5,7.93c-18.68,1.05-30.97-1.29-31.15-4.62
	c-0.18-3.33,11.82-6.39,30.5-7.44C571.02,329.82,586.31,331.67,586.49,335z"/>
<path class="st1" d="M583.31,328.75c0.23,4.32-20.91,15.96-37.15,16.87c-16.25,0.91-21.44-9.24-21.68-13.56
	c-0.23-4.32,12.74-8.57,28.99-9.48C569.72,321.67,583.08,324.43,583.31,328.75z"/>
<path class="st1" d="M571.23,325c0.23,4.32-11.13,6.91-16.93,7.24c-5.81,0.33-19.49,0.15-19.72-4.17
	c-0.23-4.32,13.06-11.16,18.87-11.49C559.25,316.25,570.99,320.67,571.23,325z"/>
<path class="st1" d="M525.57,344.55c-0.21-3.33,10.46-22.26,27.33-23.35c16.87-1.09,33.56,16.07,33.77,19.4
	c0.21,3.33-13.3,6.91-30.17,8C539.62,349.69,525.78,347.88,525.57,344.55z"/>
<path class="st2" d="M581.45,335.06c0.15,3-9.42,7.32-28.55,7.15c-15.92,0.95-26.4-1.16-26.55-4.16s10.07-5.75,25.99-6.7
	C568.26,330.39,581.29,332.06,581.45,335.06z"/>
<path class="st2" d="M578.74,329.43c0.2,3.9-17.82,14.38-31.66,15.2c-13.84,0.82-18.27-8.32-18.47-12.22
	c-0.2-3.9,10.86-7.72,24.7-8.55C567.15,323.05,578.54,325.54,578.74,329.43z"/>
<path class="st2" d="M568.44,326.04c0.2,3.9-9.48,6.23-14.43,6.52c-4.95,0.29-16.61,0.14-16.81-3.76
	c-0.2-3.9,11.13-10.05,16.08-10.35C558.23,318.16,568.24,322.15,568.44,326.04z"/>
<path class="st2" d="M529.53,343.67c-0.18-3,8.91-20.06,23.29-21.04c14.38-0.98,28.6,14.48,28.77,17.48
	c0.18,3-11.33,6.23-25.71,7.21C541.5,348.3,529.71,346.67,529.53,343.67z"/>
<path class="st1" d="M635.1,326.58c0.26,4.2-15.67,10.25-47.51,10.02c-26.5,1.33-43.93-1.63-44.18-5.83
	c-0.26-4.2,16.76-8.06,43.25-9.39C613.16,320.05,634.84,322.38,635.1,326.58z"/>
<path class="st1" d="M630.59,318.7c0.33,5.46-29.65,20.15-52.69,21.3c-23.04,1.16-30.41-11.66-30.74-17.12
	c-0.33-5.46,18.07-10.82,41.11-11.98C611.31,309.75,630.26,313.24,630.59,318.7z"/>
<path class="st1" d="M613.45,313.95c0.33,5.46-15.78,8.72-24.02,9.14c-8.24,0.41-27.64,0.19-27.97-5.27
	c-0.33-5.46,18.53-14.09,26.76-14.5C596.46,302.91,613.12,308.49,613.45,313.95z"/>
<path class="st1" d="M548.7,338.65c-0.29-4.2,14.83-28.11,38.76-29.49c23.93-1.38,47.59,20.29,47.89,24.49
	c0.3,4.2-18.86,8.73-42.79,10.11C568.63,345.14,548.99,342.85,548.7,338.65z"/>
<path class="st2" d="M627.94,326.66c0.22,3.79-13.36,9.24-40.49,9.03c-22.58,1.2-37.43-1.47-37.65-5.26
	c-0.22-3.79,14.28-7.26,36.86-8.46C609.24,320.77,627.73,322.87,627.94,326.66z"/>
<path class="st2" d="M624.1,319.55c0.28,4.92-25.27,18.15-44.9,19.2c-19.63,1.04-25.91-10.51-26.2-15.43
	c-0.28-4.92,15.4-9.75,35.04-10.79C607.67,311.49,623.82,314.63,624.1,319.55z"/>
<path class="st2" d="M609.49,315.28c0.28,4.92-13.45,7.86-20.47,8.23s-23.55,0.17-23.84-4.75c-0.28-4.92,15.79-12.69,22.81-13.07
	C595.02,305.33,609.21,310.36,609.49,315.28z"/>
<path class="st2" d="M554.31,337.53c-0.25-3.79,12.64-25.33,33.03-26.57c20.39-1.24,40.56,18.28,40.81,22.07
	c0.25,3.79-16.07,7.86-36.46,9.11C571.3,343.38,554.57,341.31,554.31,337.53z"/>
<path class="st1" d="M654.99,339.32c0.18,3.33-10.95,8.12-33.2,7.93c-18.51,1.05-30.69-1.29-30.87-4.62
	c-0.18-3.33,11.71-6.38,30.22-7.44C639.66,334.15,654.81,335.99,654.99,339.32z"/>
<path class="st1" d="M651.83,333.08c0.23,4.32-20.72,15.96-36.82,16.87c-16.1,0.91-21.25-9.24-21.48-13.56
	c-0.23-4.32,12.63-8.57,28.73-9.48C638.36,325.99,651.6,328.75,651.83,333.08z"/>
<path class="st1" d="M639.86,329.32c0.23,4.32-11.03,6.91-16.78,7.24c-5.76,0.33-19.31,0.15-19.54-4.17
	c-0.23-4.32,12.95-11.16,18.7-11.49C627.99,320.57,639.63,325,639.86,329.32z"/>
<path class="st1" d="M594.62,348.88c-0.21-3.33,10.36-22.26,27.08-23.35c16.72-1.09,33.25,16.07,33.46,19.4
	c0.21,3.33-13.18,6.91-29.9,8C608.54,354.02,594.82,352.21,594.62,348.88z"/>
<path class="st2" d="M649.99,339.38c0.15,3-9.33,7.32-28.29,7.15c-15.78,0.95-26.16-1.16-26.31-4.16c-0.15-3,9.98-5.75,25.75-6.7
	C636.92,334.72,649.83,336.38,649.99,339.38z"/>
<path class="st2" d="M647.3,333.76c0.2,3.9-17.66,14.38-31.37,15.2c-13.72,0.82-18.11-8.32-18.3-12.22
	c-0.2-3.9,10.76-7.72,24.48-8.55C635.82,327.37,647.1,329.86,647.3,333.76z"/>
<path class="st2" d="M637.09,330.37c0.2,3.9-9.4,6.23-14.3,6.52c-4.9,0.29-16.46,0.14-16.65-3.76s11.03-10.05,15.94-10.35
	C626.98,322.49,636.9,326.47,637.09,330.37z"/>
<path class="st2" d="M598.54,347.99c-0.18-3,8.83-20.06,23.08-21.04c14.25-0.98,28.34,14.48,28.51,17.48
	c0.17,3-11.23,6.23-25.48,7.21C610.41,352.62,598.72,350.99,598.54,347.99z"/>
<path class="st0" d="M758.12,385.82h7.61l-3.97,40.77l11.59,38.51h-15.23l-9.27-38.51L758.12,385.82z"/>
<path class="st0" d="M724.01,346.87l20.86,27.92l16.86,12.13l-3.42,4.53l-17.74-12.17l-19.87-29.3L724.01,346.87z"/>
<path class="st0" d="M746.53,340.32h3.64v18.27l-6.62,18.27l-3.31-4.14l6.29-15.86V340.32z"/>
<path class="st0" d="M761.1,338.25h4.64v24.13l-0.99,24.82h-5.3l1.66-24.82V338.25z"/>
<path class="st0" d="M782.29,346.18l4.3,0l-6.95,18.61l-15.43,7.24v-4.2l13.11-6.14L782.29,346.18z"/>
<path class="st0" d="M762.78,385.82l38.72-5.86l18.21-32.4h3.97l-19.21,36.38l-41.7,6.75V385.82z"/>
<path class="st0" d="M798.84,350.66l2.65-1.03l1.32,11.37l-5.96,20.34h-2.98L800.5,361L798.84,350.66z"/>
<path class="st1" d="M768.77,345.07c0.2,4.25-12.29,10.36-37.25,10.12c-20.77,1.34-34.44-1.65-34.64-5.89
	c-0.2-4.25,13.14-8.14,33.91-9.49C751.56,338.46,768.56,340.82,768.77,345.07z"/>
<path class="st1" d="M765.23,337.1c0.26,5.52-23.25,20.36-41.31,21.52c-18.06,1.17-23.84-11.78-24.1-17.3
	c-0.26-5.51,14.17-10.93,32.24-12.1C750.11,328.06,764.97,331.59,765.23,337.1z"/>
<path class="st1" d="M751.79,332.31c0.26,5.52-12.37,8.81-18.83,9.23s-21.67,0.19-21.93-5.32c-0.26-5.52,14.53-14.23,20.98-14.65
	C738.47,321.15,751.53,326.79,751.79,332.31z"/>
<path class="st1" d="M701.02,357.26c-0.23-4.25,11.63-28.4,30.39-29.79c18.76-1.39,37.32,20.5,37.55,24.75
	c0.23,4.25-14.79,8.82-33.55,10.21C716.65,363.81,701.25,361.5,701.02,357.26z"/>
<path class="st2" d="M763.15,345.14c0.17,3.83-10.47,9.33-31.74,9.12c-17.7,1.21-29.35-1.48-29.52-5.31
	c-0.17-3.83,11.2-7.34,28.9-8.55S762.98,341.32,763.15,345.14z"/>
<path class="st2" d="M760.14,337.97c0.22,4.97-19.81,18.34-35.21,19.39c-15.39,1.05-20.32-10.62-20.54-15.58
	c-0.22-4.97,12.08-9.85,27.47-10.9C747.26,329.82,759.92,333,760.14,337.97z"/>
<path class="st2" d="M748.69,333.65c0.22,4.97-10.54,7.94-16.05,8.32c-5.5,0.38-18.47,0.17-18.69-4.79
	c-0.22-4.97,12.38-12.82,17.88-13.2C737.34,323.59,748.46,328.68,748.69,333.65z"/>
<path class="st2" d="M705.42,356.12c-0.2-3.82,9.91-25.59,25.9-26.84c15.99-1.26,31.8,18.47,32,22.3c0.2,3.83-12.6,7.94-28.59,9.2
	C718.74,362.03,705.62,359.95,705.42,356.12z"/>
<path class="st1" d="M822.81,334.33c0.28,5.36-17.43,13.08-52.83,12.78c-29.46,1.69-48.84-2.08-49.13-7.44
	c-0.28-5.36,18.64-10.28,48.1-11.98C798.41,325.99,822.53,328.97,822.81,334.33z"/>
<path class="st1" d="M817.8,324.27c0.37,6.96-32.97,25.7-58.59,27.18c-25.62,1.47-33.81-14.88-34.18-21.84
	c-0.37-6.96,20.1-13.8,45.72-15.28C796.36,312.86,817.43,317.31,817.8,324.27z"/>
<path class="st1" d="M798.74,318.22c0.37,6.96-17.55,11.13-26.71,11.65s-30.73,0.25-31.1-6.72c-0.37-6.96,20.6-17.97,29.76-18.5
	C779.85,304.13,798.37,311.26,798.74,318.22z"/>
<path class="st1" d="M726.74,349.72c-0.33-5.36,16.49-35.86,43.1-37.61s52.92,25.88,53.25,31.24c0.33,5.36-20.97,11.13-47.58,12.89
	C748.9,358,727.07,355.08,726.74,349.72z"/>
<path class="st2" d="M814.86,334.43c0.24,4.83-14.85,11.78-45.02,11.51c-25.11,1.53-41.62-1.87-41.87-6.71
	c-0.24-4.83,15.88-9.27,40.99-10.79C794.06,326.91,814.61,329.59,814.86,334.43z"/>
<path class="st2" d="M810.58,325.36c0.32,6.27-28.1,23.16-49.93,24.49s-28.82-13.4-29.13-19.68c-0.32-6.27,17.13-12.44,38.96-13.76
	S810.27,319.09,810.58,325.36z"/>
<path class="st2" d="M794.34,319.91c0.32,6.27-14.95,10.03-22.76,10.5c-7.8,0.47-26.19,0.22-26.5-6.05
	c-0.32-6.27,17.56-16.19,25.36-16.67S794.02,313.64,794.34,319.91z"/>
<path class="st2" d="M732.98,348.29c-0.28-4.83,14.05-32.31,36.72-33.89c22.67-1.58,45.1,23.32,45.38,28.15
	c0.28,4.83-17.87,10.03-40.55,11.61C751.87,355.75,733.26,353.12,732.98,348.29z"/>
<path class="st1" d="M844.93,350.58c0.2,4.25-12.18,10.36-36.91,10.12c-20.59,1.34-34.13-1.65-34.33-5.89
	c-0.2-4.25,13.02-8.14,33.61-9.49C827.88,343.98,844.73,346.34,844.93,350.58z"/>
<path class="st1" d="M841.42,342.62c0.26,5.52-23.04,20.36-40.94,21.52c-17.9,1.17-23.63-11.78-23.89-17.3
	c-0.26-5.52,14.04-10.93,31.94-12.1C826.44,333.58,841.16,337.1,841.42,342.62z"/>
<path class="st1" d="M828.1,337.82c0.26,5.52-12.26,8.81-18.66,9.23c-6.4,0.42-21.47,0.19-21.73-5.32
	c-0.26-5.52,14.4-14.23,20.8-14.65C814.91,326.67,827.85,332.31,828.1,337.82z"/>
<path class="st1" d="M777.8,362.77c-0.23-4.25,11.52-28.4,30.11-29.79c18.59-1.39,36.98,20.5,37.2,24.75
	c0.23,4.25-14.65,8.82-33.24,10.21C793.28,369.33,778.03,367.02,777.8,362.77z"/>
<path class="st2" d="M839.37,350.66c0.17,3.83-10.38,9.33-31.46,9.12c-17.54,1.21-29.08-1.48-29.25-5.31
	c-0.17-3.83,11.1-7.34,28.64-8.55S839.2,346.83,839.37,350.66z"/>
<path class="st2" d="M836.38,343.48c0.22,4.97-19.63,18.34-34.89,19.39c-15.25,1.05-20.13-10.61-20.35-15.58
	c-0.22-4.97,11.97-9.85,27.22-10.9C823.61,335.34,836.16,338.51,836.38,343.48z"/>
<path class="st2" d="M825.03,339.16c0.22,4.97-10.45,7.94-15.9,8.32c-5.45,0.38-18.3,0.18-18.52-4.79
	c-0.22-4.97,12.27-12.82,17.72-13.2C813.79,329.11,824.81,334.19,825.03,339.16z"/>
<path class="st2" d="M782.16,361.64c-0.2-3.82,9.82-25.59,25.66-26.84c15.84-1.26,31.51,18.47,31.7,22.3
	c0.2,3.82-12.49,7.94-28.33,9.2C795.36,367.55,782.36,365.46,782.16,361.64z"/>
</svg>
