<?xml version="1.0" encoding="utf-8"?>
<!-- Generator: Adobe Illustrator 26.1.0, SVG Export Plug-In . SVG Version: 6.00 Build 0)  -->
<svg version="1.1" id="Layer_1" xmlns="http://www.w3.org/2000/svg" xmlns:xlink="http://www.w3.org/1999/xlink" x="0px" y="0px"
	 viewBox="0 0 612 792" style="enable-background:new 0 0 612 792;" xml:space="preserve">
<style type="text/css">
	.st0{fill:#82431D;}
	.st1{fill:#673815;fill-opacity:0.67;}
	.st2{fill:#327C3C;}
	.st3{fill:#358740;fill-opacity:0.43;}
	.st4{fill:#2C6833;}
	.st5{fill:#2C5D2D;fill-opacity:0.67;}
	.st6{fill:#2C5D2D;}
	.st7{fill:#33813E;}
</style>
<ellipse class="st0" cx="178.92" cy="507.37" rx="13.28" ry="8.13"/>
<rect x="165.65" y="462.66" class="st0" width="26.55" height="44.71"/>
<path class="st1" d="M181.45,457.24l10.75,17.61v18.97l-6.59-5.55c-1.5-1.27-2.88-2.68-4.11-4.21l-5.74-7.18l-1.6,3.18
	c-1.83,3.65-4.83,6.58-8.52,8.34v-14.9L181.45,457.24z"/>
<path class="st2" d="M178.29,332.59l58.34,102.66c1.12,1.97,2.78,3.59,4.78,4.66c1.31,0.7,2.77,1.07,4.26,1.07h4.06l-5.06,9.5
	l19.6,23.02l-9.91-0.48c-2.65-0.13-5.27-0.65-7.77-1.54l-2.66-0.95c-2.02-0.72-3.91-1.78-5.58-3.12l1.9,5.42l1.9,5.42l-5.51-2.66
	c-4.7-2.27-8.86-5.52-12.19-9.54l0.15,0.31c0.74,1.6,1.35,3.26,1.8,4.96l1.85,6.93l-3.88-0.76c-6.25-1.22-11.46-5.52-13.82-11.44
	l0.39,0.97c1,2.49,1.51,5.15,1.51,7.84c-3.22-0.86-5.93-3.04-7.47-6l-0.75-1.45v0.31c0,2.5,0.31,4.98,0.93,7.4l0.97,3.81l-2.03-0.91
	c-3.66-1.64-6.96-3.99-9.7-6.93l-2.17-2.33l2.53,6.77l1.9,4.74l-6.87-0.88c-5.68-0.73-10.77-3.86-13.99-8.6
	c-4.15,5.33-9.6,9.53-15.8,12.2l1.9-12.2l-1.01,1.63c-1.01,1.62-2.24,3.08-3.66,4.35l-1.65,1.47l-0.29-1.57
	c-0.23-1.21-0.34-2.44-0.34-3.67v-2.21l-0.78,1.25c-1.99,3.2-4.57,6-7.6,8.25l-3.63,2.7v-3.32c0-2.29,0.26-4.58,0.78-6.82l0.48-2.06
	l-2.56,1.9c-3.72,2.76-8.04,4.62-12.6,5.44l-4.44,0.79l5.06-6.77l4.43-4.74c-4.96,3.99-10.92,6.53-17.24,7.36l-11.11,1.45l3.01-2.63
	c2.13-1.86,4.06-3.93,5.75-6.2l0.64-0.86c-6.1,2.77-12.95,3.45-19.48,1.94l-8.37-1.94l23.14-16.04l-2.67-2.07
	c-1.35-1.05-2.5-2.32-3.4-3.77l4.43-0.96c3.23-0.87,5.95-3.02,7.53-5.97l9.53-17.74L178.29,332.59z"/>
<path class="st3" d="M189.63,433.94l1.6,1.8c1.99,2.25,4.85,3.49,7.85,3.41l-2.16,4.91l1.32,0.36c1.63,0.44,3.32,0.65,5.03,0.64
	l1.86-0.01l-5.54,4.48l1.68,0.29c2.09,0.36,4.22,0.48,6.34,0.37l2.12-0.11l-6.79,6.09l4.3,2.6l-0.42,0.14
	c-2.55,0.83-5.2,1.2-7.84,1.09l0.14,0.75c0.7,3.77,0.87,7.64,0.51,11.5l-0.06,0.6l-2.19-2.36c-2.41-2.6-3.74-6.08-3.74-9.74
	l-7.65,1.34l0.5-0.67c1.9-2.51,3.39-5.31,4.41-8.29l-6.3,0.42l6.69-7.14l-5.44-0.3l0.12-0.23c1.35-2.62,2.33-5.4,2.91-8.28
	L189.63,433.94z"/>
<path class="st3" d="M129.7,436.24l-0.11,2.16c-0.14,2.69,0.82,5.35,2.64,7.32l-4.16,1.48l0.41,0.79c0.82,1.57,1.83,3.04,3,4.36
	l0.87,0.97l-5.9-1.05l0.58,0.93c1.18,1.87,2.55,3.61,4.09,5.19l1.01,1.04l-7.58-0.93l1.02,4.45l-3.34-2.03l-1.87-1.49
	c-1.18,2.62-3.77,4.19-6.58,3.99l-6.75-0.47l3.05-1.89c1.75-1.08,3.31-2.46,4.64-4.07l1.66-2.02l-5.31-4.35l0.69-0.06
	c2.59-0.22,5.12-0.9,7.47-2l-3.97-3.99l8.14,0.23l-3.04-3.84c2.46-0.7,4.81-1.76,6.96-3.17L129.7,436.24z"/>
<path class="st4" d="M176.45,412.53l47.36,3.39l8.22,11.52l3.16,5.42l-12.64-9.48v0.86c0,3.02-0.46,6.03-1.35,8.91l-0.54,1.74
	L216,432.4c-2.76-1.48-5.14-3.59-6.94-6.16l-2.95-4.22l-0.06,0.45c-0.38,2.85-0.35,5.74,0.09,8.57l0.6,3.85l-6.23-2.97
	c-3.4-1.62-6.46-3.87-9.03-6.62l-1.8-1.93l-0.89,3.82c-0.25,1.07-0.58,2.11-1,3.12l-1.9,4.58l-1.69-1.05
	c-3.88-2.43-7.15-5.71-9.57-9.59l-0.12-0.19l-1.33,1.29c-3.69,3.59-8.24,6.18-13.21,7.51l-6.95,1.35l0.35-3.33
	c0.19-1.83,0.07-3.68-0.35-5.48l-6.95,6.1l-6.32,5.42l-0.42-3.57c-0.14-1.23-0.4-2.44-0.77-3.62l-0.71-2.29l-2.8,4.72
	c-1.07,1.81-2.43,3.44-4.01,4.83l-4.56,4l-1.26-6.1l-1.26-5.42l-7.59,8.13l8.22-16.26L176.45,412.53z"/>
<path class="st2" d="M178.29,290.59l51.6,98.67c2.6,2.69,6.19,4.2,9.93,4.2h0.26l-6.11,4.91l2.72,5.61
	c3.04,1.79,6.67,2.27,10.07,1.34l4.86-1.34l-11.54,12.62l6.11,16.12l-5.38-0.83c-5.34-0.83-10.32-3.22-14.31-6.88l-6.79-6.31
	c1.75,4.06,1.9,8.62,0.43,12.79l-0.43,1.23l-1.54-0.72c-3.87-1.82-7.12-4.73-9.33-8.39l-3.4-7.01c-1.76,4.54-1.96,9.54-0.57,14.21
	l0.57,1.91c-6.65-2.74-12.36-7.35-16.45-13.27l-0.52-0.75l-0.4,4.4c-0.18,1.96-0.65,3.88-1.39,5.71l-1.6,3.91l-4.37-3.9
	c-2.04-1.82-3.69-4.05-4.84-6.54l-1.65-3.58c-3.38,7.42-10.32,12.6-18.4,13.74l-1.97,0.28l1-3.79c0.66-2.51,0.3-5.18-1-7.42
	l-4.07,4.55l-9.51,8.77c0-4.15-0.94-8.25-2.75-11.99l-0.65-1.33c-0.44,4.52-2.49,8.73-5.78,11.87l-3.73,3.55l-0.43-1.01
	c-1.48-3.44-1.8-7.27-0.92-10.91l-0.98,0.85c-2.03,1.75-4.44,3.01-7.03,3.68c-2.76,0.71-5.65,0.74-8.42,0.08l-4.61-1.1l0.13-0.12
	c3.52-3.18,6.56-6.83,9.05-10.87l1.01-1.63c-2.8,0.41-5.53-1.11-6.65-3.71l-0.82-1.9l1.16,0.15c2.81,0.36,5.67,0.07,8.35-0.85
	l2.72-5.61l-6.11-5.61l6.44-1.66c2.81-0.72,5.16-2.63,6.45-5.23l23.09-46.38L178.29,290.59z"/>
<path class="st5" d="M174.38,359.69h25.48l27.1,23.03l1.9,4.74l-8.17-4.12c-1.71-0.86-3.28-1.96-4.67-3.27l-2.96-2.77v7.79v7.79
	l-10.11-16.26l-1.97,6.02c-1.62,4.98-4.18,9.6-7.52,13.63l-8.22-14.23l-1,2.67c-0.18,0.48-0.39,0.94-0.64,1.39l-1.52,2.72l-6.32-6.1
	l-4.43-4.07l-4.32,4.63c-0.91,0.97-1.91,1.85-3,2.63l-0.47,0.34c-2.39,1.7-4.92,3.2-7.57,4.46l-1.71,0.82l1.9-10.16l-5.09,4.62
	c-2.07,1.88-4.4,3.46-6.91,4.69l-4.48,2.2l-2.49-13.55l-10.75,12.87l0.81-1.36l8.67-18.29L174.38,359.69z"/>
<path class="st2" d="M174.28,260.78l39.43,68.87c2.72,4.75,7.77,7.68,13.25,7.68l-6.95,5.42c4.12,9.08,13.74,14.34,23.6,12.93
	l0.17-0.02c0.11-0.02,0.2,0.09,0.16,0.2l-0.15,0.41c-1.87,5.22-5.77,9.47-10.81,11.78l-0.97,0.45l8.85,15.58h-7.82
	c-9.26,0-17.83-4.9-22.53-12.87v12.87l-7.58-9.96l-3.16,5.22l-6.32,12.87l-6.32-12.87l-3.16-8.13v1.74c0,4.23-0.64,8.44-1.9,12.48
	l-5.69-6.1l-5.06-5.22c-2.06,4.73-5.48,8.74-9.81,11.53l-5.99,3.85l0.73-1.56c2.02-4.33,3.07-9.05,3.07-13.82
	c-2.47,4.73-6.31,8.6-11.01,11.12l-7.96,4.26l-1.26-6.77l-1.26-7.45c-4.3,7.54-12.31,12.19-20.99,12.19h-2.4l1.16-3.1
	c1.75-4.68,4.12-9.11,7.06-13.15l-15.17-9.71l5.67-1.46c4.98-1.29,9.54-3.86,13.22-7.45l-9.41-5.49c7.44,0,14.27-4.13,17.73-10.73
	L174.28,260.78z"/>
<path class="st6" d="M174.46,298.72h19.81l17.07,26.42l2.53,4.74l-6.38-1.43c-5.65-1.26-10.6-4.63-13.85-9.41l0.7,3.99
	c0.8,4.55,0.96,9.18,0.48,13.77l-0.55,5.27l-7.31-4.36c-6.37-3.79-11.51-9.33-14.81-15.97l-4.99,6.39
	c-2.84,3.63-6.17,6.85-9.89,9.57l-5.98,4.37l-0.18-0.48c-2.37-6.34-2.96-13.2-1.72-19.85l-12.18,9.48l0.63-1.35l9.65-17.61
	L174.46,298.72z"/>
<path class="st7" d="M183.35,438.22h0.21c0.93,0,1.68,0.75,1.68,1.68c0,0.7-0.22,1.38-0.63,1.95l-1.27,1.78l-0.97-2.59
	c-0.2-0.53-0.3-1.09-0.3-1.65c0-0.65,0.53-1.18,1.18-1.18H183.35z"/>
<path class="st7" d="M159.57,469.9c-0.38,0.31-0.9,0.36-1.35,0.14l-0.23-0.12c-0.65-0.33-1.01-1.05-0.9-1.76l0.11-0.7
	c0.08-0.54,0.33-1.03,0.71-1.41l1.69-1.7l0.1,3.16c0.01,0.19,0.04,0.38,0.1,0.57l0.16,0.48
	C160.11,469.05,159.96,469.58,159.57,469.9z"/>
<path class="st2" d="M175.86,233l13.06,29.7c2.21,5.03,4.93,9.81,8.12,14.28l3.26,4.57c9.43,13.23,23.44,22.48,39.31,25.97
	l-22.76,4.74l5.06,7.45l6.32,8.13l-2.8,0.24c-13.1,1.11-25.79-4.94-33.18-15.82v10.84v11.52l-2.14-1.04
	c-7.69-3.73-14.03-9.76-18.14-17.25c-2.5,4.46-5.97,8.3-10.15,11.23l-10.08,7.06l-0.93-7.28c-0.64-5.04-0.33-10.16,0.93-15.08
	c-5.99,12.04-19.22,18.66-32.44,16.24l-3.59-0.66l17.07-15.58l-19.6-7.45c16.46-1.72,31.35-10.52,40.81-24.09l2.73-3.93
	c3.02-4.34,5.52-9.02,7.45-13.94L175.86,233z"/>
<path class="st3" d="M141.26,391.72l0.17,2.19c0.2,2.66,1.49,5.14,3.56,6.82l-3.93,2.08l0.49,0.7c1.02,1.45,2.22,2.77,3.57,3.91
	l0.96,0.82l-5.98-0.17l0.67,0.8c1.43,1.7,3.03,3.24,4.77,4.6l1.1,0.86l-7.63,0.2l1.58,4.26l-0.34-0.14
	c-2.14-0.91-4.11-2.2-5.83-3.81l-0.12,0.24c-1.49,3.1-4.12,5.44-7.33,6.54l3.48-9.36l-5.82-3.53l0.66-0.16
	c2.55-0.6,4.97-1.65,7.16-3.08l-4.45-3.37l8.1-0.97l-3.5-3.36c2.35-1.05,4.53-2.45,6.47-4.15L141.26,391.72z"/>
<path class="st3" d="M155.82,437.82l0.22,2.34c0.2,2.14,1.28,4.12,2.97,5.45l-3.1,2.23l0.06,0.08c1.09,1.55,2.38,2.94,3.83,4.13
	l0.26,0.21l-4.8,0.4c1.55,1.84,3.31,3.49,5.23,4.92l0.16,0.12l-6.11,0.88l1.36,3.69l-0.2-0.07c-1.78-0.64-3.42-1.64-4.83-2.93
	l-0.23,0.59c-1.04,2.71-3.03,4.91-5.59,6.2l2.57-8.76l-4.75-2.65l0.38-0.14c2.13-0.82,4.1-2,5.82-3.49l-3.64-2.63l6.47-1.62
	l-2.88-2.71c1.86-1.17,3.55-2.59,5.01-4.24L155.82,437.82z"/>
<path class="st3" d="M219.47,437.65l1.57,1.31c2,1.66,4.6,2.33,7.15,1.84l-1.22,4.51l0.85,0.09c1.66,0.17,3.35,0.11,5.01-0.17
	l1.26-0.22l-4.15,4.61l1.07,0.01c2.09,0.02,4.19-0.2,6.25-0.65l1.4-0.31l-3.49,5.24c2.46,1.29,4.44,3.39,5.65,6l1.31,2.83
	l-7.94-4.48l-0.03,0.88c-0.05,1.44-0.34,2.87-0.88,4.21l-0.31-0.11c-1.04-0.37-1.95-1.04-2.65-1.92l-3.36,3.39l-0.66-4.65
	l-6.35,2.22l0.35-0.65c1.3-2.41,2.21-5.02,2.7-7.72l-5.32,1.24l4.8-7.06l-4.68,0.5c0.86-2.57,1.37-5.25,1.51-7.95L219.47,437.65z"/>
<path class="st3" d="M175.1,387.01l0.42,0.75c1.86,3.33,4.99,5.77,8.67,6.77l-4.79,3.19l2.31,1.21c1.2,0.63,2.46,1.13,3.77,1.5
	l3.39,0.97l-8.68,1.66l3.19,1.38c1.5,0.65,3.06,1.18,4.65,1.58l4.17,1.04l-10.9,2.51l4.04,3.6l-0.8-0.05
	c-3.3-0.21-6.56-0.84-9.71-1.86c-0.9,3.55-3.32,6.52-6.62,8.13l-1.3,0.64l1.14-10.04l-9.84-1.61l1.89-0.75
	c2.76-1.09,5.35-2.59,7.67-4.45l0.36-0.29l-7.79-1.88l11.25-3.4l-6.43-2.16l0.73-0.43c2.46-1.44,4.71-3.23,6.67-5.3L175.1,387.01z"
	/>
<path class="st7" d="M158.36,342.75c1.54,4.15,5.01,7.29,9.28,8.41l1.18,0.31l-9.6,3.86l3.42,1.73c1.15,0.58,2.34,1.05,3.57,1.4
	l2.61,0.75l-8.96,1.52l4.61,2c1.49,0.65,2.92,1.41,4.29,2.28l1.96,1.26l-9.89,1.08l4.93,4.05l-3.48-0.48
	c-2.6-0.36-5.16-0.98-7.65-1.84l-2.24-0.78c-1.41,3.43-4.3,6.01-7.86,7.02l-2.93,0.83l2.17-9.88l-12.52-2.71l4.16-0.89
	c2.52-0.54,4.95-1.4,7.23-2.57l1.73-0.89l-9.88-2.75l14.7-2.12l-8.11-2.88l3.31-1.17c1.72-0.61,3.39-1.38,4.97-2.3L158.36,342.75z"
	/>
<path class="st7" d="M196.62,342.75c1.61,2.16,4.05,3.55,6.74,3.83l7.65,0.8l-5.46,4.42l3.99,0.7c1.08,0.19,2.17,0.29,3.27,0.3
	l5.41,0.03l-10.66,3.98l7.34,0.83l8.6-0.17l-13.31,5.42l5.78,2.43l-3.49,0.57c-2.58,0.42-5.18,0.58-7.78,0.49l-2.38-0.08
	c-0.47,3.71-2.58,7.04-5.73,9.06l-2.62,1.67l-0.46-10.14l-12.74,1.09l3.78-2.1c2.27-1.26,4.38-2.8,6.27-4.59l1.45-1.37l-0.09,0.02
	c-3.34,0.73-6.77,0.81-10.11,0.25l8.85-5.93c-1.67-1.34-3.07-3-4.12-4.88l-0.3-0.54l1.19-0.21c1.73-0.31,3.48-0.46,5.23-0.46h1.06
	L196.62,342.75z"/>
<path class="st3" d="M213.01,386.05l1.31,1.88c1.75,2.52,4.5,4.13,7.56,4.44l-2.85,4.52l1.35,0.54c1.56,0.62,3.19,1.04,4.86,1.24
	l1.97,0.24l-6.21,3.66l1.76,0.53c2,0.6,4.07,0.99,6.16,1.15l2.28,0.17l-7.7,5.07l10.18,7.63c-5.25,0.06-10.23-2.13-13.68-6.04
	l-2.91-3.29v2.46c0,4.96-4.04,9.06-8.93,9.06l3.06-5.75l-5.68-0.48l0.64-0.62c2.24-2.18,4.12-4.72,5.55-7.5l-6.44-0.41l7.74-6.11
	l-5.47-1l0.15-0.21c1.72-2.38,3.09-4.99,4.08-7.75L213.01,386.05z"/>
<path class="st7" d="M176.12,254l6.33,16.26c1.35,3.45,3.02,6.77,5,9.9c5.63,8.91,13.59,16.11,23.01,20.83l1.96,0.98l-15.4-2.34
	l2.58,4.29l5.87,5.85h-3.06c-7.34,0-14.15-3.85-17.93-10.14v6.24v6.63l-0.65-0.36c-4.21-2.3-7.59-5.86-9.69-10.17
	c-1.27,2.56-3.15,4.76-5.49,6.42l-5.8,4.11l-0.35-1.47c-1.11-4.66-0.99-9.53,0.35-14.13l-0.71,1.33
	c-3.79,7.09-11.22,11.46-19.25,11.33l8.22-9.93h-9.48l0.45-0.17c9.91-3.68,18.32-10.57,23.87-19.57c1.82-2.95,3.31-6.09,4.45-9.36
	L176.12,254z"/>
<ellipse class="st0" cx="338.17" cy="548.56" rx="10.13" ry="5.94"/>
<rect x="328.05" y="515.88" class="st0" width="20.25" height="32.68"/>
<path class="st1" d="M340.1,511.92l8.2,12.88v13.87l-4.45-3.59c-1.53-1.24-2.93-2.62-4.19-4.12l-3.89-4.66l-1.16,2.21
	c-1.44,2.74-3.74,4.92-6.55,6.21V523.8L340.1,511.92z"/>
<path class="st2" d="M337.69,420.8l44.45,74.96c0.89,1.5,2.18,2.71,3.73,3.51c0.98,0.5,2.06,0.77,3.16,0.77h3.15l-3.86,6.94
	l14.95,16.83l-7.6-0.35c-1.99-0.09-3.96-0.47-5.85-1.11l-2.08-0.71c-1.52-0.52-2.95-1.29-4.23-2.27l1.45,3.96l1.45,3.96l-4.29-1.98
	c-3.53-1.63-6.67-3.99-9.21-6.93c0.64,1.32,1.16,2.69,1.55,4.1l1.34,4.81l-3.22-0.6c-4.61-0.86-8.47-3.98-10.28-8.31l0.3,0.72
	c0.76,1.81,1.14,3.75,1.14,5.71c-2.46-0.63-4.54-2.26-5.75-4.49l-0.52-0.95c0,1.97,0.26,3.94,0.76,5.84l0.68,2.58l-0.27-0.12
	c-3.64-1.56-6.93-3.82-9.69-6.65l-0.64-0.66l1.93,4.95l1.45,3.47l-5.43-0.67c-4.22-0.52-8.02-2.79-10.48-6.26
	c-3.16,3.9-7.26,6.94-11.9,8.85l-0.15,0.06l1.45-8.91l-0.35,0.55c-1.04,1.61-2.32,3.06-3.77,4.3l-0.7,0.6l-0.11-0.58
	c-0.24-1.26-0.37-2.54-0.37-3.82v-1.04c-1.91,2.95-4.36,5.5-7.22,7.54l-1.94,1.38v-1.35c0-2.39,0.29-4.77,0.85-7.1l0.11-0.47
	l-0.69,0.49c-3.67,2.61-7.88,4.36-12.32,5.12l-1.93,0.33l3.86-4.95l3.38-3.47c-3.79,2.92-8.29,4.77-13.03,5.36l-8.59,1.08l1.71-1.43
	c2.02-1.69,3.85-3.58,5.47-5.65c-4.66,2.03-9.85,2.53-14.82,1.42l-6.42-1.42l17.65-11.73l-2.06-1.53c-1.01-0.75-1.89-1.68-2.57-2.74
	l3.38-0.7c2.46-0.63,4.56-2.25,5.8-4.46l7.21-12.87L337.69,420.8z"/>
<path class="st3" d="M346.34,494.88l1.16,1.26c1.56,1.68,3.75,2.61,6.05,2.55l-1.65,3.59l0.43,0.11c1.64,0.42,3.32,0.63,5.01,0.62
	l0.82-0.01l-4.22,3.27l0.56,0.09c2.07,0.34,4.18,0.46,6.29,0.35l0.89-0.05l-5.18,4.45l3.28,1.9l-0.33,0.1
	c-1.93,0.61-3.95,0.87-5.97,0.79l0.02,0.1c0.59,3.05,0.74,6.18,0.43,9.29l-1.67-1.73c-1.83-1.9-2.85-4.45-2.85-7.11l-5.84,0.98
	l0.41-0.52c1.44-1.81,2.56-3.85,3.34-6.03l-4.81,0.3l5.1-5.22l-4.15-0.22c1.09-2.02,1.88-4.19,2.36-6.43L346.34,494.88z"/>
<path class="st3" d="M300.63,496.56l-0.08,1.51c-0.11,2,0.62,3.97,2.01,5.42l-3.17,1.08l0.01,0.03c0.82,1.51,1.83,2.92,3,4.18
	l0.25,0.27l-4.5-0.77l0.03,0.04c1.18,1.79,2.55,3.46,4.07,4.96l0.24,0.23l-5.78-0.68l0.78,3.25l-2.55-1.49l-1.43-1.09
	c-0.9,1.91-2.85,3.06-4.94,2.92l-5.22-0.35l1.58-0.94c1.83-1.09,3.47-2.47,4.86-4.09l0.69-0.8l-4.05-3.18l0.55-0.05
	c1.96-0.16,3.88-0.65,5.67-1.46l-3.03-2.92l6.21,0.17l-2.32-2.81c1.88-0.51,3.67-1.29,5.33-2.33L300.63,496.56z"/>
<path class="st4" d="M336.28,479.23l36.12,2.48l6.27,8.42l2.41,3.96l-9.64-6.93c0,2.62-0.41,5.23-1.22,7.73l-0.22,0.69l-2.53-1.3
	c-2.77-1.42-5.18-3.48-7.02-6l-1.54-2.11c-0.32,2.3-0.29,4.63,0.08,6.92l0.4,2.49l-3.56-1.63c-3.38-1.54-6.45-3.7-9.04-6.36
	l-0.42-0.43l-0.56,2.31c-0.27,1.1-0.63,2.17-1.08,3.21l-1.25,2.9l-1.23-0.74c-3-1.8-5.55-4.26-7.45-7.19l-0.94,0.88
	c-2.87,2.67-6.36,4.59-10.15,5.56l-5.3,0.99l0.26-2.43c0.14-1.34,0.06-2.7-0.26-4.01l-5.3,4.46l-4.82,3.96l-0.25-2.04
	c-0.15-1.28-0.43-2.54-0.83-3.76l-0.37-1.13l-1.69,2.73c-1.12,1.8-2.51,3.41-4.13,4.78l-2.85,2.4l-0.96-4.46l-0.96-3.96l-5.79,5.94
	l6.27-11.89L336.28,479.23z"/>
<path class="st2" d="M337.69,390.1l39.36,72.12c1.99,1.97,4.68,3.07,7.48,3.07h0.29l-4.66,3.59l2.07,4.1
	c2.32,1.31,5.07,1.67,7.65,0.99l3.74-0.99l-8.8,9.22l4.66,11.78l-4.22-0.63c-4.01-0.59-7.76-2.33-10.8-5.01l-5.18-4.61
	c1.33,2.96,1.45,6.32,0.33,9.36l-0.33,0.89l-1.27-0.57c-2.88-1.3-5.32-3.41-7.01-6.09l-2.59-5.12c-1.34,3.31-1.49,6.99-0.43,10.4
	l0.43,1.38c-5.07-2.01-9.46-5.42-12.66-9.85l-0.29-0.4l-0.22,2.31c-0.2,2.03-0.7,4.03-1.5,5.91l-0.86,2.03l-2.5-2.14
	c-2.11-1.8-3.82-4.02-5.02-6.52l-0.76-1.59c-2.59,5.43-7.74,9.2-13.7,10l-1.83,0.25l0.76-2.75c0.51-1.84,0.23-3.81-0.76-5.45
	l-3.11,3.32l-7.25,6.41c0-3.03-0.71-6.02-2.08-8.73l-0.51-1.01c-0.33,3.3-1.87,6.36-4.32,8.6l-2.93,2.67l-0.34-0.75
	c-1.12-2.5-1.37-5.3-0.7-7.96l-0.69,0.57c-1.59,1.31-3.45,2.25-5.45,2.74c-2.09,0.52-4.27,0.54-6.37,0.06l-3.54-0.81
	c2.75-2.38,5.14-5.14,7.11-8.19l0.66-1.03c-2.15,0.3-4.24-0.85-5.12-2.83l-0.57-1.27l0.9,0.11c2.14,0.26,4.31,0.05,6.35-0.62
	l2.07-4.1l-4.66-4.1l3.9-0.96c2.79-0.69,5.15-2.55,6.47-5.1l17.08-32.88L337.69,390.1z"/>
<path class="st5" d="M334.71,440.61h19.43l20.67,16.84l1.45,3.47l-5.64-2.73c-1.69-0.82-3.27-1.87-4.67-3.13l-1.75-1.57v5.69v5.7
	l-7.71-11.89l-1.47,4.33c-1.26,3.68-3.21,7.09-5.76,10.04l-6.27-10.4l-0.68,1.74c-0.19,0.49-0.42,0.96-0.68,1.42l-1.05,1.8
	l-4.82-4.46l-3.38-2.97l-3.18,3.27c-0.77,0.79-1.62,1.5-2.53,2.13c-1.98,1.35-4.07,2.53-6.24,3.53l-1.07,0.49l1.45-7.43l-3.14,2.73
	c-2.08,1.81-4.39,3.32-6.88,4.49l-2.55,1.2l-1.9-9.9l-8.2,9.41l0.62-0.99l6.61-13.37L334.71,440.61z"/>
<path class="st2" d="M334.63,368.31l29.97,50.16c2.15,3.59,6.03,5.8,10.21,5.8l-5.3,3.96c3.16,6.66,10.27,10.51,17.58,9.51
	l0.55-0.08c0.09-0.01,0.16,0.07,0.13,0.16l-0.11,0.29c-1.43,3.81-4.33,6.89-8.06,8.53l-0.92,0.41l6.75,11.39h-6.31
	c-6.86,0-13.24-3.56-16.83-9.41v9.41l-5.79-7.28l-2.41,3.82l-4.82,9.41l-4.82-9.41l-2.41-5.94v1.26c0,3.1-0.49,6.19-1.45,9.14
	l-4.34-4.46l-3.86-3.82c-1.57,3.46-4.14,6.37-7.37,8.36l-4.68,2.89l0.57-1.18c1.53-3.14,2.32-6.58,2.32-10.07
	c-1.89,3.45-4.77,6.26-8.27,8.06l-6.2,3.18l-0.96-4.95l-0.96-5.45c-3.29,5.53-9.24,8.91-15.68,8.91h-2.16l0.86-2.22
	c1.35-3.46,3.17-6.71,5.4-9.67l-11.57-7.1l4.43-1.1c3.74-0.92,7.17-2.79,9.98-5.42l-7.18-4.01c5.69,0,10.93-3.11,13.66-8.1
	L334.63,368.31z"/>
<path class="st6" d="M334.77,396.04h15.11l13.02,19.31l1.93,3.47l-5.04-1.08c-4.2-0.9-7.9-3.34-10.38-6.84l0.14,0.78
	c0.86,4.74,1.04,9.57,0.52,14.36l-0.18,1.7l-5.75-3.28c-4.75-2.71-8.61-6.73-11.13-11.58l-2.69,3.3c-2.91,3.56-6.29,6.71-10.06,9.34
	l-3.16,2.21l-0.15-0.38c-1.79-4.61-2.24-9.63-1.3-14.48l-9.29,6.93l0.48-0.99l7.36-12.88L334.77,396.04z"/>
<path class="st7" d="M341.55,498.01h0.23c0.67,0,1.21,0.54,1.21,1.21c0,0.52-0.17,1.03-0.48,1.45l-0.97,1.3l-0.73-1.88
	c-0.15-0.39-0.23-0.81-0.23-1.23c0-0.47,0.38-0.85,0.85-0.85H341.55z"/>
<path class="st7" d="M323.39,521.18c-0.28,0.22-0.66,0.26-0.98,0.1l-0.19-0.09c-0.5-0.25-0.79-0.8-0.7-1.35l0.07-0.45
	c0.06-0.4,0.26-0.76,0.54-1.04l1.29-1.24l0.08,2.31c0,0.14,0.03,0.28,0.07,0.41l0.11,0.33C323.82,520.53,323.7,520.94,323.39,521.18
	z"/>
<path class="st2" d="M335.84,348l9.86,21.5c1.75,3.81,3.89,7.43,6.4,10.8l2.08,2.8c7.39,9.93,18.16,16.82,30.28,19.38l-17.36,3.47
	l3.86,5.45l4.82,5.94l-2.59,0.21c-9.75,0.79-19.2-3.62-24.85-11.6v7.92v8.42l-1.85-0.86c-5.72-2.66-10.48-7.03-13.62-12.51
	c-1.9,3.26-4.52,6.04-7.65,8.15l-7.77,5.22l-0.7-5.31c-0.49-3.69-0.25-7.44,0.7-11.03c-4.59,8.84-14.39,13.69-24.2,11.96l-3.28-0.58
	l13.02-11.39l-14.95-5.45c12.58-1.26,24.02-7.83,31.45-18.05l1.64-2.26c2.39-3.28,4.37-6.84,5.9-10.6L335.84,348z"/>
<path class="st3" d="M309.45,464.02l0.12,1.52c0.16,1.99,1.15,3.83,2.72,5.07l-2.99,1.52c1.02,1.39,2.23,2.66,3.56,3.75l0.27,0.22
	l-4.56-0.12l0.02,0.02c1.42,1.62,3,3.08,4.72,4.36l0.25,0.19l-5.82,0.15l1.2,3.11l-0.27-0.11c-1.62-0.66-3.12-1.6-4.43-2.78
	l-0.05,0.1c-1.16,2.31-3.18,4.05-5.63,4.86l2.65-6.85l-4.44-2.58l0.54-0.12c1.92-0.44,3.76-1.2,5.43-2.25l-3.39-2.46l6.17-0.71
	l-2.67-2.46c1.79-0.77,3.46-1.8,4.96-3.05L309.45,464.02z"/>
<path class="st3" d="M320.55,497.72l0.16,1.64c0.16,1.61,0.98,3.08,2.27,4.05l-2.37,1.63c0.86,1.17,1.87,2.22,3.01,3.12l0.16,0.12
	l-3.66,0.29c1.19,1.35,2.52,2.55,3.98,3.59l0.13,0.1l-4.66,0.64l1.04,2.7l-0.17-0.06c-1.35-0.47-2.59-1.19-3.67-2.13l-0.15,0.36
	c-0.81,2.02-2.34,3.66-4.29,4.6l1.96-6.4l-3.62-1.93l0.32-0.12c1.6-0.59,3.09-1.45,4.41-2.54l-2.78-1.92l4.93-1.18l-2.2-1.98
	c1.42-0.85,2.71-1.9,3.84-3.12L320.55,497.72z"/>
<path class="st3" d="M369.1,497.6l1.16,0.92c1.55,1.23,3.54,1.73,5.49,1.37l-0.93,3.29l0.04,0c1.68,0.16,3.37,0.11,5.04-0.17
	l0.36-0.06l-3.17,3.37l0.06,0c2.1,0.02,4.2-0.19,6.26-0.63l0.33-0.07l-2.66,3.83c1.88,0.94,3.39,2.49,4.32,4.4l0.99,2.05l-6.06-3.28
	l-0.02,0.63c-0.04,1.06-0.26,2.11-0.67,3.09l-0.25-0.08c-0.79-0.27-1.48-0.75-2.01-1.4l-2.57,2.48l-0.5-3.4l-4.85,1.62l0.28-0.49
	c0.98-1.75,1.67-3.65,2.05-5.62l-4.06,0.91l3.66-5.16l-3.57,0.37c0.66-1.88,1.05-3.84,1.16-5.83L369.1,497.6z"/>
<path class="st3" d="M335.26,460.58l0.25,0.43c1.46,2.51,3.87,4.33,6.68,5.06l-3.66,2.33l1.38,0.69c1.17,0.59,2.4,1.06,3.67,1.4
	l2.18,0.6l-6.62,1.21l1.96,0.82c1.46,0.61,2.97,1.1,4.51,1.47l2.69,0.65l-8.32,1.84l3.08,2.63l-0.62-0.04
	c-2.51-0.15-4.99-0.61-7.39-1.36c-0.69,2.59-2.49,4.75-4.92,5.88l-1.12,0.52l0.87-7.34l-7.5-1.18l1.15-0.44
	c2.3-0.87,4.46-2.08,6.42-3.57l-5.94-1.37l8.58-2.48l-4.9-1.58c2.25-1.26,4.31-2.83,6.12-4.67L335.26,460.58z"/>
<path class="st7" d="M322.49,428.23c1.17,3.04,3.75,5.32,6.91,6.11l1.06,0.27l-7.32,2.82l2.25,1.09c1.11,0.54,2.27,0.98,3.46,1.3
	l1.61,0.44l-6.83,1.11l3.04,1.27c1.45,0.6,2.85,1.32,4.18,2.14l1.05,0.65l-7.54,0.79l3.76,2.96l-1.88-0.25
	c-2.5-0.33-4.96-0.9-7.36-1.7l-0.96-0.32c-1.07,2.5-3.23,4.38-5.86,5.09l-2.37,0.64l1.65-7.22l-9.55-1.98l2.36-0.49
	c2.46-0.51,4.84-1.32,7.09-2.42l0.56-0.27l-7.54-2.01l11.21-1.55l-6.19-2.1l1.94-0.66c1.7-0.58,3.35-1.31,4.91-2.18L322.49,428.23z"
	/>
<path class="st7" d="M351.67,428.23c1.23,1.58,3.06,2.59,5.05,2.79l5.92,0.59l-4.16,3.23l2.7,0.46c1.05,0.18,2.11,0.27,3.18,0.27
	l3.78,0.02l-8.13,2.91l5.6,0.61l6.56-0.12l-10.15,3.96l4.41,1.78l-1.88,0.29c-2.49,0.39-5,0.54-7.51,0.45l-1.02-0.03
	c-0.36,2.71-1.92,5.12-4.26,6.55l-2.11,1.29l-0.35-7.41l-9.71,0.8l2.14-1.14c2.22-1.18,4.29-2.64,6.16-4.33l0.47-0.42l-0.09,0.02
	c-2.54,0.53-5.14,0.59-7.69,0.18l6.75-4.33c-1.27-0.98-2.35-2.2-3.16-3.59l-0.22-0.37l0.39-0.07c1.67-0.29,3.36-0.43,5.05-0.43h0.27
	L351.67,428.23z"/>
<path class="st3" d="M364.17,459.88l0.94,1.29c1.38,1.89,3.49,3.1,5.82,3.33l-2.18,3.3l0.49,0.19c1.55,0.6,3.16,0.99,4.81,1.18
	l0.94,0.11l-4.74,2.67l0.67,0.19c1.98,0.57,4.01,0.93,6.06,1.08l1.05,0.08l-5.87,3.71l7.76,5.58c-4.01,0.05-7.84-1.6-10.55-4.54
	l-2.11-2.28v1.57c0,3.77-3.06,6.85-6.81,6.85l2.34-4.2l-4.33-0.35l0.52-0.48c1.69-1.58,3.11-3.42,4.2-5.45l-4.91-0.3l5.9-4.47
	l-4.17-0.73c1.39-1.84,2.5-3.87,3.31-6.03L364.17,459.88z"/>
<path class="st7" d="M336.04,363.35l4.79,11.77c1.06,2.6,2.36,5.08,3.91,7.42c4.26,6.46,10.2,11.65,17.18,14.99l1.81,0.87
	l-11.74-1.71l1.97,3.14l4.48,4.28h-2.61c-5.45,0-10.51-2.8-13.4-7.41v4.56v4.85l-0.62-0.32c-3.13-1.64-5.67-4.22-7.27-7.37
	c-0.97,1.87-2.39,3.47-4.13,4.65l-4.48,3.04l-0.26-1.07c-0.85-3.4-0.76-6.98,0.26-10.33l-0.38,0.69c-2.99,5.37-8.7,8.66-14.84,8.56
	l6.27-7.26h-7.23l0.73-0.26c7.31-2.6,13.56-7.55,17.76-14.08c1.42-2.21,2.6-4.58,3.49-7.06L336.04,363.35z"/>
<ellipse class="st0" cx="284.92" cy="568.37" rx="13.27" ry="8.13"/>
<rect x="271.65" y="523.66" class="st0" width="26.55" height="44.71"/>
<path class="st1" d="M287.45,518.24l10.75,17.61v18.97l-6.59-5.55c-1.5-1.27-2.88-2.68-4.11-4.21l-5.74-7.18l-1.6,3.18
	c-1.83,3.65-4.83,6.58-8.52,8.34v-14.9L287.45,518.24z"/>
<path class="st2" d="M284.29,393.59l58.34,102.66c1.12,1.97,2.78,3.59,4.78,4.66c1.31,0.7,2.77,1.07,4.26,1.07h4.06l-5.06,9.5
	l19.6,23.02l-9.91-0.48c-2.65-0.13-5.27-0.65-7.77-1.54l-2.66-0.95c-2.02-0.72-3.91-1.78-5.58-3.12l1.9,5.42l1.9,5.42l-5.51-2.66
	c-4.7-2.27-8.86-5.52-12.19-9.54l0.14,0.31c0.74,1.6,1.35,3.26,1.8,4.96l1.85,6.93l-3.88-0.76c-6.25-1.22-11.45-5.53-13.82-11.44
	l0.39,0.97c1,2.49,1.51,5.15,1.51,7.84c-3.22-0.86-5.93-3.04-7.47-6l-0.75-1.45v0.31c0,2.5,0.31,4.98,0.93,7.4l0.97,3.81l-2.03-0.91
	c-3.66-1.64-6.96-3.99-9.7-6.93l-2.17-2.33l2.53,6.78l1.9,4.74l-6.87-0.88c-5.68-0.73-10.77-3.86-13.99-8.6
	c-4.15,5.33-9.6,9.53-15.8,12.2l1.9-12.2l-1.01,1.63c-1.01,1.62-2.24,3.08-3.66,4.35l-1.65,1.47l-0.29-1.57
	c-0.23-1.21-0.34-2.44-0.34-3.67v-2.22l-0.78,1.25c-1.99,3.2-4.57,6-7.6,8.25l-3.63,2.7v-3.32c0-2.29,0.26-4.58,0.78-6.82l0.48-2.06
	l-2.56,1.9c-3.72,2.76-8.04,4.62-12.6,5.44l-4.44,0.79l5.06-6.77l4.43-4.74c-4.96,3.99-10.93,6.53-17.24,7.36l-11.11,1.45l3.01-2.63
	c2.13-1.86,4.06-3.93,5.75-6.2l0.64-0.86c-6.1,2.77-12.95,3.45-19.48,1.94l-8.37-1.94l23.14-16.04l-2.67-2.07
	c-1.35-1.05-2.5-2.32-3.4-3.77l4.42-0.96c3.23-0.86,5.95-3.02,7.54-5.97l9.53-17.74L284.29,393.59z"/>
<path class="st3" d="M295.63,494.94l1.6,1.8c1.99,2.25,4.85,3.49,7.85,3.41l-2.16,4.91l1.32,0.36c1.64,0.44,3.32,0.65,5.03,0.64
	l1.86-0.01l-5.54,4.48l1.68,0.29c2.09,0.36,4.22,0.48,6.35,0.37l2.12-0.11l-6.79,6.09l4.3,2.6l-0.42,0.14
	c-2.55,0.83-5.2,1.2-7.84,1.09l0.14,0.75c0.7,3.77,0.87,7.64,0.51,11.5l-0.06,0.6l-2.19-2.36c-2.41-2.6-3.74-6.08-3.74-9.74
	l-7.65,1.34l0.51-0.67c1.9-2.51,3.39-5.31,4.41-8.29l-6.3,0.41l6.69-7.14l-5.44-0.3l0.12-0.23c1.35-2.62,2.33-5.4,2.91-8.28
	L295.63,494.94z"/>
<path class="st3" d="M235.7,497.24l-0.11,2.16c-0.14,2.69,0.82,5.35,2.64,7.32l-4.16,1.48l0.41,0.79c0.82,1.57,1.83,3.04,3,4.35
	l0.87,0.97l-5.9-1.05l0.59,0.93c1.18,1.87,2.55,3.61,4.09,5.19l1.01,1.04l-7.58-0.92l1.02,4.45l-3.34-2.03l-1.87-1.49
	c-1.18,2.62-3.77,4.19-6.58,3.99l-6.75-0.47l3.05-1.89c1.75-1.08,3.31-2.46,4.63-4.07l1.66-2.02l-5.31-4.35l0.69-0.06
	c2.59-0.22,5.12-0.9,7.47-2l-3.97-3.99l8.14,0.23l-3.04-3.84c2.46-0.7,4.81-1.76,6.96-3.17L235.7,497.24z"/>
<path class="st4" d="M282.45,473.53l47.36,3.39l8.22,11.52l3.16,5.42l-12.64-9.48v0.86c0,3.02-0.46,6.03-1.35,8.91l-0.54,1.74
	L322,493.4c-2.76-1.48-5.14-3.59-6.94-6.16l-2.95-4.22l-0.06,0.45c-0.38,2.85-0.35,5.73,0.09,8.57l0.6,3.85l-6.23-2.97
	c-3.4-1.62-6.46-3.86-9.03-6.62l-1.8-1.93l-0.89,3.82c-0.25,1.07-0.58,2.11-1,3.12l-1.9,4.58l-1.69-1.05
	c-3.88-2.43-7.15-5.71-9.57-9.59l-0.12-0.19l-1.33,1.3c-3.69,3.59-8.24,6.18-13.21,7.51l-6.95,1.35l0.35-3.33
	c0.19-1.83,0.07-3.68-0.35-5.48l-6.95,6.1l-6.32,5.42l-0.42-3.57c-0.14-1.23-0.4-2.44-0.77-3.62l-0.71-2.29l-2.8,4.72
	c-1.07,1.81-2.43,3.44-4.01,4.83l-4.57,4l-1.26-6.1l-1.26-5.42l-7.59,8.13l8.22-16.26L282.45,473.53z"/>
<path class="st2" d="M284.29,351.59l51.6,98.67c2.6,2.69,6.19,4.2,9.93,4.2h0.26l-6.11,4.91l2.72,5.61
	c3.04,1.79,6.67,2.28,10.07,1.34l4.86-1.34l-11.54,12.62l6.11,16.12l-5.38-0.83c-5.34-0.83-10.32-3.22-14.31-6.88l-6.79-6.31
	c1.75,4.06,1.9,8.62,0.43,12.79l-0.43,1.23l-1.54-0.72c-3.87-1.82-7.11-4.74-9.33-8.39l-3.39-7.01c-1.76,4.54-1.96,9.54-0.57,14.21
	l0.57,1.91c-6.65-2.75-12.36-7.35-16.45-13.27l-0.52-0.75l-0.4,4.4c-0.18,1.96-0.65,3.88-1.39,5.71l-1.6,3.92l-4.37-3.9
	c-2.04-1.82-3.69-4.05-4.84-6.54l-1.65-3.58c-3.38,7.42-10.32,12.6-18.4,13.74l-1.97,0.28l1-3.79c0.66-2.51,0.3-5.18-1-7.42
	l-4.07,4.55l-9.51,8.77c0-4.15-0.94-8.25-2.75-11.99l-0.65-1.33c-0.44,4.52-2.49,8.73-5.78,11.87l-3.73,3.55l-0.43-1.01
	c-1.48-3.44-1.81-7.27-0.92-10.91l-0.98,0.85c-2.03,1.75-4.44,3.01-7.04,3.68c-2.76,0.71-5.65,0.74-8.42,0.08l-4.61-1.1l0.13-0.12
	c3.52-3.18,6.56-6.84,9.05-10.87l1.01-1.63c-2.8,0.41-5.53-1.11-6.65-3.71l-0.82-1.9l1.16,0.15c2.81,0.36,5.67,0.07,8.35-0.85
	l2.72-5.61l-6.11-5.61l6.44-1.66c2.81-0.72,5.16-2.63,6.45-5.23l23.09-46.38L284.29,351.59z"/>
<path class="st5" d="M280.38,420.69h25.48l27.11,23.03l1.9,4.74l-8.17-4.12c-1.71-0.86-3.28-1.96-4.67-3.27l-2.96-2.77v7.79v7.79
	l-10.11-16.26l-1.97,6.02c-1.62,4.98-4.17,9.6-7.52,13.63l-8.22-14.23l-1,2.67c-0.18,0.48-0.39,0.94-0.64,1.39l-1.52,2.72l-6.32-6.1
	l-4.42-4.07l-4.32,4.63c-0.91,0.97-1.91,1.85-3,2.63l-0.47,0.34c-2.39,1.7-4.92,3.2-7.57,4.46l-1.71,0.82l1.9-10.16l-5.1,4.62
	c-2.07,1.88-4.4,3.46-6.91,4.69l-4.48,2.2l-2.49-13.55l-10.75,12.87l0.81-1.36l8.67-18.29L280.38,420.69z"/>
<path class="st2" d="M280.28,321.78l39.43,68.87c2.72,4.75,7.77,7.68,13.25,7.68l-6.95,5.42c4.12,9.08,13.74,14.34,23.6,12.93
	l0.17-0.02c0.11-0.02,0.2,0.09,0.16,0.2l-0.15,0.41c-1.87,5.22-5.77,9.47-10.81,11.78l-0.97,0.45l8.85,15.58h-7.82
	c-9.26,0-17.83-4.9-22.53-12.87v12.87l-7.58-9.96l-3.16,5.22l-6.32,12.87l-6.32-12.87l-3.16-8.13v1.74c0,4.23-0.64,8.44-1.9,12.48
	l-5.69-6.1l-5.06-5.22c-2.06,4.73-5.48,8.74-9.81,11.53l-5.99,3.85l0.73-1.56c2.02-4.33,3.07-9.05,3.07-13.82
	c-2.47,4.73-6.31,8.6-11.01,11.12l-7.96,4.26l-1.26-6.77l-1.26-7.45c-4.3,7.54-12.31,12.19-20.99,12.19h-2.4l1.16-3.1
	c1.75-4.68,4.12-9.11,7.06-13.15l-15.17-9.71l5.67-1.46c4.98-1.29,9.54-3.86,13.22-7.45l-9.41-5.49c7.44,0,14.27-4.13,17.73-10.73
	L280.28,321.78z"/>
<path class="st6" d="M280.46,359.72h19.81l17.07,26.42l2.53,4.74l-6.38-1.43c-5.65-1.26-10.6-4.63-13.85-9.41l0.7,3.99
	c0.8,4.55,0.96,9.18,0.48,13.77l-0.55,5.27l-7.32-4.36c-6.37-3.79-11.51-9.33-14.81-15.97l-4.99,6.39
	c-2.84,3.63-6.17,6.85-9.89,9.57l-5.98,4.37l-0.18-0.48c-2.36-6.34-2.96-13.2-1.72-19.85l-12.18,9.48l0.63-1.35l9.65-17.61
	L280.46,359.72z"/>
<path class="st7" d="M289.35,499.22h0.21c0.93,0,1.68,0.75,1.68,1.68c0,0.7-0.22,1.39-0.63,1.95l-1.27,1.78l-0.97-2.59
	c-0.2-0.53-0.3-1.09-0.3-1.65c0-0.65,0.53-1.18,1.18-1.18H289.35z"/>
<path class="st7" d="M265.57,530.9c-0.38,0.31-0.9,0.36-1.35,0.14l-0.23-0.12c-0.65-0.33-1.01-1.04-0.9-1.76l0.11-0.7
	c0.08-0.54,0.33-1.03,0.71-1.41l1.69-1.7l0.1,3.16c0.01,0.19,0.04,0.38,0.1,0.57l0.16,0.48
	C266.11,530.05,265.96,530.58,265.57,530.9z"/>
<path class="st2" d="M281.86,294l13.06,29.7c2.21,5.02,4.93,9.81,8.12,14.28l3.26,4.57c9.43,13.23,23.44,22.48,39.31,25.97
	l-22.76,4.74l5.06,7.45l6.32,8.13l-2.8,0.24c-13.11,1.11-25.79-4.94-33.18-15.82v10.84v11.52l-2.14-1.04
	c-7.69-3.73-14.03-9.76-18.14-17.25c-2.5,4.46-5.97,8.3-10.15,11.23l-10.08,7.06l-0.93-7.28c-0.64-5.04-0.33-10.16,0.93-15.08
	c-5.99,12.04-19.22,18.66-32.44,16.24l-3.59-0.66l17.07-15.58l-19.6-7.45c16.46-1.72,31.35-10.52,40.81-24.1l2.73-3.93
	c3.02-4.34,5.52-9.02,7.45-13.94L281.86,294z"/>
<path class="st3" d="M247.26,452.72l0.17,2.19c0.2,2.66,1.49,5.14,3.56,6.82l-3.93,2.08l0.49,0.7c1.02,1.45,2.22,2.77,3.57,3.91
	l0.96,0.82l-5.98-0.17l0.67,0.8c1.43,1.7,3.03,3.24,4.77,4.6l1.1,0.86l-7.63,0.2l1.58,4.26l-0.34-0.14
	c-2.14-0.91-4.11-2.2-5.82-3.81l-0.12,0.24c-1.49,3.1-4.12,5.44-7.33,6.54l3.48-9.36l-5.82-3.53l0.66-0.16
	c2.55-0.6,4.97-1.65,7.16-3.08l-4.45-3.37l8.1-0.97l-3.5-3.36c2.35-1.05,4.53-2.45,6.47-4.15L247.26,452.72z"/>
<path class="st3" d="M261.82,498.82l0.22,2.34c0.2,2.14,1.28,4.12,2.97,5.45l-3.1,2.23l0.06,0.08c1.09,1.55,2.38,2.94,3.83,4.13
	l0.26,0.22l-4.8,0.4c1.55,1.84,3.31,3.49,5.23,4.92l0.16,0.12l-6.11,0.88l1.36,3.69l-0.2-0.07c-1.78-0.64-3.42-1.64-4.83-2.93
	l-0.23,0.59c-1.04,2.71-3.03,4.91-5.59,6.2l2.57-8.76l-4.75-2.65l0.38-0.15c2.13-0.82,4.1-2,5.82-3.49l-3.64-2.63l6.47-1.62
	l-2.89-2.71c1.86-1.17,3.55-2.59,5.01-4.24L261.82,498.82z"/>
<path class="st3" d="M325.47,498.65l1.57,1.31c2,1.66,4.6,2.33,7.15,1.84l-1.22,4.51l0.85,0.09c1.67,0.17,3.35,0.11,5.01-0.18
	l1.26-0.22l-4.15,4.61l1.07,0.01c2.09,0.02,4.19-0.2,6.25-0.65l1.4-0.31l-3.49,5.24c2.46,1.29,4.44,3.39,5.65,6l1.31,2.83
	l-7.94-4.48l-0.03,0.88c-0.05,1.44-0.34,2.87-0.88,4.21l-0.31-0.11c-1.04-0.37-1.95-1.04-2.65-1.92l-3.36,3.39l-0.66-4.65
	l-6.35,2.22l0.35-0.65c1.3-2.41,2.21-5.02,2.7-7.71l-5.32,1.24l4.8-7.06l-4.68,0.5c0.86-2.57,1.37-5.25,1.52-7.95L325.47,498.65z"/>
<path class="st3" d="M281.1,448.01l0.42,0.75c1.86,3.33,4.99,5.77,8.67,6.77l-4.8,3.19l2.31,1.21c1.2,0.63,2.46,1.13,3.77,1.5
	l3.39,0.97l-8.68,1.66l3.19,1.38c1.5,0.65,3.06,1.18,4.65,1.58l4.17,1.04l-10.9,2.51l4.03,3.6l-0.8-0.05
	c-3.3-0.21-6.56-0.84-9.71-1.86c-0.9,3.55-3.32,6.52-6.62,8.13l-1.3,0.64l1.14-10.04l-9.83-1.61l1.89-0.75
	c2.76-1.09,5.35-2.59,7.67-4.45l0.36-0.29l-7.79-1.88l11.25-3.4l-6.43-2.16l0.73-0.43c2.46-1.44,4.71-3.23,6.67-5.3L281.1,448.01z"
	/>
<path class="st7" d="M264.36,403.75c1.54,4.15,5.01,7.29,9.27,8.41l1.18,0.31l-9.6,3.86l3.42,1.73c1.14,0.58,2.34,1.05,3.57,1.4
	l2.61,0.75l-8.96,1.52l4.61,2c1.49,0.65,2.92,1.41,4.28,2.28l1.96,1.26l-9.89,1.08l4.93,4.05l-3.48-0.48
	c-2.6-0.36-5.16-0.98-7.65-1.84l-2.24-0.78c-1.4,3.43-4.3,6.01-7.86,7.02l-2.93,0.83l2.17-9.88l-12.52-2.71l4.16-0.89
	c2.51-0.54,4.95-1.4,7.23-2.57l1.73-0.89l-9.88-2.75l14.7-2.12l-8.11-2.88l3.3-1.17c1.73-0.61,3.39-1.38,4.97-2.3L264.36,403.75z"/>
<path class="st7" d="M302.62,403.75c1.62,2.16,4.05,3.55,6.75,3.83l7.65,0.8l-5.46,4.42l3.99,0.7c1.08,0.19,2.17,0.29,3.27,0.3
	l5.41,0.03l-10.66,3.98l7.34,0.83l8.6-0.17l-13.31,5.42l5.78,2.43l-3.49,0.57c-2.58,0.42-5.18,0.58-7.78,0.49l-2.38-0.08
	c-0.47,3.71-2.58,7.04-5.73,9.06l-2.62,1.67l-0.46-10.14l-12.74,1.09l3.78-2.1c2.27-1.26,4.38-2.8,6.27-4.59l1.45-1.37l-0.09,0.02
	c-3.34,0.73-6.77,0.81-10.11,0.25l8.85-5.93c-1.67-1.34-3.07-3-4.12-4.88l-0.3-0.54l1.19-0.21c1.73-0.31,3.48-0.46,5.23-0.46h1.06
	L302.62,403.75z"/>
<path class="st3" d="M319.01,447.05l1.31,1.88c1.75,2.52,4.5,4.13,7.56,4.44l-2.86,4.52l1.36,0.54c1.55,0.62,3.19,1.04,4.86,1.24
	l1.97,0.24l-6.21,3.66l1.76,0.53c2,0.6,4.07,0.99,6.16,1.15l2.28,0.17l-7.7,5.07l10.18,7.63c-5.25,0.06-10.23-2.13-13.68-6.05
	l-2.91-3.29v2.46c0,4.96-4.04,9.06-8.93,9.06l3.06-5.75l-5.68-0.47l0.64-0.62c2.24-2.18,4.12-4.72,5.55-7.5l-6.44-0.41l7.74-6.11
	l-5.47-1l0.15-0.21c1.72-2.38,3.09-4.99,4.08-7.75L319.01,447.05z"/>
<path class="st7" d="M282.12,315l6.33,16.26c1.35,3.45,3.02,6.77,5,9.9c5.63,8.91,13.59,16.11,23.01,20.83l1.96,0.98l-15.4-2.34
	l2.58,4.29l5.87,5.85h-3.06c-7.34,0-14.15-3.85-17.93-10.14v6.24v6.63l-0.65-0.36c-4.21-2.3-7.59-5.86-9.69-10.17
	c-1.27,2.56-3.15,4.77-5.48,6.42l-5.8,4.11l-0.35-1.47c-1.11-4.66-0.99-9.53,0.35-14.13l-0.71,1.33
	c-3.79,7.09-11.22,11.46-19.25,11.33l8.22-9.93h-9.48l0.45-0.17c9.91-3.68,18.32-10.57,23.87-19.57c1.82-2.95,3.31-6.09,4.45-9.36
	L282.12,315z"/>
<ellipse class="st0" cx="410.47" cy="574.61" rx="17.7" ry="10.89"/>
<rect x="392.77" y="514.71" class="st0" width="35.4" height="59.91"/>
<path class="st1" d="M413.85,507.44l14.33,23.6v25.41l-9.55-8.08c-1.5-1.27-2.87-2.68-4.09-4.22l-8.27-10.4l-2.14,4.28
	c-2.44,4.88-6.43,8.8-11.35,11.15v-19.97L413.85,507.44z"/>
<path class="st2" d="M409.63,340.43L487.43,478c1.49,2.63,3.69,4.79,6.35,6.22c1.75,0.94,3.71,1.44,5.7,1.44h5.4l-6.74,12.73
	l26.13,30.84l-14.08-0.69c-2.96-0.15-5.88-0.73-8.67-1.73l-4.36-1.56c-2.7-0.97-5.22-2.39-7.45-4.19l2.53,7.26l2.53,7.26l-9.01-4.36
	c-5.17-2.51-9.74-6.1-13.4-10.53l-1.19-1.44l0.58,1.24c0.74,1.59,1.34,3.24,1.79,4.94l2.7,10.16l-5.12-1
	c-8.37-1.64-15.33-7.41-18.48-15.34l0.52,1.29c1.33,3.34,2.01,6.91,2.01,10.51c-4.3-1.16-7.9-4.07-9.94-8.02l-1.01-1.96v1.71
	c0,2.48,0.31,4.96,0.92,7.37l1.61,6.36l-4.56-2.04c-3.67-1.65-6.97-4.01-9.7-6.96l-4.28-4.61l3.37,9.08l2.53,6.35l-9.12-1.18
	c-7.6-0.98-14.4-5.18-18.69-11.53l-2.11,2.72c-4.15,5.36-9.59,9.58-15.81,12.26l-3.16,1.36l2.53-16.34l-1.86,3.01
	c-1,1.62-2.23,3.09-3.65,4.36l-2.92,2.62l-0.51-2.73c-0.22-1.21-0.34-2.43-0.34-3.65v-3.6l-2.05,3.32
	c-1.98,3.21-4.55,6.01-7.58,8.26l-6.38,4.76v-5.64c0-2.28,0.26-4.56,0.78-6.78l0.91-3.91l-5.29,3.94
	c-3.73,2.78-8.05,4.65-12.63,5.48l-8.21,1.47l6.74-9.08l5.9-6.35l-1.35,1.09c-5.73,4.63-12.63,7.59-19.93,8.54l-16.51,2.16
	l5.09-4.46c2.13-1.86,4.05-3.94,5.74-6.21l1.72-2.31l-0.16,0.07c-8.03,3.66-17.05,4.56-25.64,2.56l-11.32-2.63l30.85-21.49
	l-3.55-2.77c-1.8-1.4-3.34-3.11-4.54-5.05l5.9-1.28c4.3-1.16,7.93-4.04,10.04-7.97l12.72-23.8L409.63,340.43z"/>
<path class="st3" d="M424.75,476.22l2.14,2.43c2.65,3.01,6.45,4.66,10.46,4.55l-2.88,6.57l2.59,0.7c1.63,0.44,3.33,0.66,5.03,0.65
	l3.33-0.02l-7.38,6l3.29,0.57c2.09,0.36,4.22,0.49,6.35,0.37l3.89-0.21l-9.05,8.16l5.74,3.48l-0.55,0.18
	c-3.4,1.12-6.94,1.61-10.46,1.46l0.55,2.95c0.7,3.76,0.86,7.62,0.5,11.48l-0.26,2.78l-2.92-3.17c-3.21-3.49-4.99-8.14-4.99-13.04
	l-10.2,1.79l1.38-1.83c2.07-2.74,3.68-5.8,4.79-9.06l0.38-1.12l-8.4,0.56l8.92-9.57l-7.25-0.41l0.84-1.63
	c1.34-2.62,2.32-5.42,2.9-8.3L424.75,476.22z"/>
<path class="st3" d="M344.84,479.3l-0.15,2.9c-0.19,3.59,1.09,7.15,3.53,9.8l-5.54,1.98l0.96,1.85c0.82,1.58,1.83,3.05,3,4.38
	l1.75,1.97l-7.87-1.4l1.37,2.18c1.18,1.88,2.55,3.63,4.09,5.22l2.12,2.19l-10.11-1.24l1.36,5.96l-4.46-2.73l-2.49-2
	c-1.57,3.5-5.03,5.61-8.79,5.35l-8.98-0.63l4.96-3.09c1.74-1.08,3.3-2.46,4.61-4.06l2.89-3.53l-7.08-5.83l1.22-0.1
	c3.26-0.28,6.43-1.13,9.38-2.52l0.28-0.13l-5.29-5.35l10.86,0.31l-4.05-5.15l0.9-0.26c2.69-0.76,5.24-1.93,7.58-3.47L344.84,479.3z"
	/>
<path class="st4" d="M407.18,447.54l63.14,4.54l10.96,15.43l4.21,7.26l-16.86-12.71v2.73c0,3.01-0.45,6-1.34,8.87l-1.19,3.83
	l-7.6-4.09c-2.76-1.49-5.14-3.61-6.93-6.18l-4.86-6.98l-0.28,2.08c-0.38,2.84-0.35,5.71,0.09,8.53l1.03,6.63l-10.02-4.8
	c-3.4-1.63-6.47-3.88-9.03-6.65l-3.7-3.99l-1.32,5.67c-0.25,1.06-0.58,2.1-0.99,3.11l-2.75,6.66l-4.23-2.65
	c-3.87-2.43-7.14-5.72-9.55-9.61l-1.4-2.26l-1.79,1.75c-4.91,4.8-10.97,8.27-17.6,10.05l-9.27,1.82l0.5-4.85
	c0.23-2.2,0.09-4.42-0.41-6.57l-0.09-0.38l-9.27,8.17l-8.43,7.26l-0.63-5.42c-0.14-1.22-0.4-2.43-0.76-3.61l-1.14-3.68l-4.29,7.25
	c-1.07,1.81-2.42,3.44-4,4.83l-6.89,6.07l-1.69-8.17l-1.68-7.26l-10.12,10.89l10.96-21.79L407.18,447.54z"/>
<path class="st2" d="M409.63,284.16l68.8,132.2c3.47,3.6,8.26,5.63,13.26,5.63h0.32l-8.15,6.57l3.62,7.51
	c4.05,2.4,8.9,3.05,13.44,1.79l6.48-1.79l-15.39,16.9l8.15,21.6l-9.09-1.41c-5.88-0.92-11.35-3.56-15.72-7.59l-1.44-1.33l-9.05-8.45
	c2.33,5.44,2.54,11.55,0.58,17.13l-0.58,1.65l-2.02-0.96c-5.17-2.44-9.51-6.35-12.46-11.25l-4.53-9.39
	c-2.35,6.09-2.61,12.78-0.76,19.04l0.76,2.56c-8.86-3.68-16.48-9.84-21.92-17.74l-0.71-1.04l-0.64,6.91
	c-0.18,1.95-0.64,3.87-1.38,5.69l-2.51,6.19l-6.87-6.16c-2.04-1.83-3.68-4.05-4.82-6.54l-2.79-6.08
	c-4.51,9.94-13.79,16.89-24.6,18.42l-2.56,0.36l1.34-5.08c0.88-3.36,0.4-6.93-1.34-9.94l-5.43,6.1l-12.67,11.75
	c0-5.56-1.25-11.05-3.67-16.07l-0.86-1.78c-0.58,6.06-3.32,11.71-7.72,15.92l-4.95,4.74l-0.58-1.35c-1.98-4.61-2.41-9.74-1.23-14.62
	l-1.32,1.15c-2.7,2.34-5.91,4.02-9.36,4.91c-3.68,0.95-7.54,0.99-11.24,0.11l-6.13-1.47l1.96-1.78c3.51-3.18,6.54-6.84,9.01-10.88
	l2.61-4.25c-3.74,0.55-7.37-1.48-8.86-4.95l-1.1-2.56l2.58,0.33c3.07,0.4,6.18,0.08,9.11-0.93l0.99-0.34l3.62-7.51l-8.15-7.51
	l10.06-2.61c2.81-0.73,5.16-2.64,6.45-5.24l31.47-63.52L409.63,284.16z"/>
<path class="st5" d="M404.42,376.74h33.97l36.14,30.86l2.53,6.35L465.31,408c-1.71-0.86-3.28-1.97-4.67-3.28l-4.64-4.37v10.44v10.44
	l-13.49-21.78l-2.96,9.11c-1.94,5.97-4.99,11.53-8.99,16.37l-0.69,0.84l-10.96-19.06l-1.42,3.82c-0.18,0.48-0.39,0.94-0.64,1.39
	l-2.16,3.87l-8.43-8.17l-5.9-5.45l-6.22,6.7c-0.91,0.98-1.91,1.86-2.99,2.64l-2.37,1.7c-2.39,1.71-4.92,3.21-7.57,4.48l-3.6,1.72
	l2.53-13.61l-7.83,7.14c-2.07,1.89-4.4,3.48-6.91,4.72l-7.23,3.57l-3.31-18.15l-14.33,17.25l1.08-1.82l11.56-24.51L404.42,376.74z"
	/>
<path class="st2" d="M404.29,244.22l52.6,92.31c3.61,6.34,10.35,10.25,17.64,10.25l-9.27,7.26c5.49,12.15,18.5,19.19,31.7,17.29
	c0.15-0.02,0.27,0.12,0.22,0.27l-0.2,0.55c-2.5,6.99-7.71,12.69-14.45,15.8l-1.26,0.58l11.8,20.88h-10.35
	c-12.38,0-23.84-6.56-30.11-17.25v17.25l-10.11-13.35l-4.21,6.99l-8.43,17.25l-8.43-17.25l-4.21-10.89v3.33
	c0,5.01-0.75,10-2.24,14.78l-0.29,0.95l-7.59-8.17l-6.74-6.99c-2.75,6.34-7.31,11.72-13.11,15.46l-7.96,5.14l0.96-2.08
	c2.7-5.8,4.09-12.13,4.09-18.53c-3.29,6.33-8.42,11.52-14.7,14.91l-10.58,5.7l-1.68-9.08l-1.69-9.98
	c-5.73,10.1-16.45,16.34-28.06,16.34h-3.13l1.55-4.17c2.33-6.27,5.49-12.19,9.41-17.62l-20.23-13.01l7.54-1.96
	c6.65-1.73,12.74-5.17,17.64-9.99l-12.55-7.35c9.92,0,19.02-5.52,23.61-14.32L404.29,244.22z"/>
<path class="st6" d="M404.52,295.05h26.41l22.76,35.4l3.37,6.35l-8.47-1.9c-7.55-1.69-14.17-6.21-18.5-12.62l1.34,7.7
	c0.79,4.53,0.95,9.14,0.48,13.71l-0.98,9.45l-10.14-6.07c-8.24-4.93-14.88-12.12-19.14-20.72l-0.22-0.44l-8.1,10.4
	c-2.83,3.64-6.15,6.86-9.86,9.59l-9.85,7.23l-0.25-0.66c-3.15-8.48-3.93-17.68-2.28-26.57l-16.24,12.71l0.84-1.82l12.87-23.6
	L404.52,295.05z"/>
<path class="st7" d="M416.37,481.96h0.27c1.25,0,2.26,1.01,2.26,2.26c0,0.94-0.29,1.85-0.83,2.62l-1.69,2.39l-1.29-3.47
	c-0.26-0.71-0.4-1.45-0.4-2.21c0-0.88,0.71-1.58,1.58-1.58H416.37z"/>
<path class="st7" d="M384.67,524.4c-0.51,0.42-1.21,0.49-1.81,0.18l-0.31-0.16c-0.86-0.44-1.35-1.4-1.2-2.35l0.15-0.95
	c0.11-0.72,0.44-1.38,0.95-1.89l2.26-2.28l0.13,4.24c0.01,0.26,0.05,0.51,0.13,0.76l0.21,0.65
	C385.39,523.26,385.19,523.97,384.67,524.4z"/>
<path class="st2" d="M406.4,207l17.43,39.84c2.93,6.7,6.55,13.09,10.78,19.06l4.42,6.23c12.54,17.67,31.2,30.04,52.36,34.71
	l-30.34,6.35l6.74,9.98l8.43,10.89l-3.65,0.31c-17.52,1.49-34.48-6.62-44.33-21.19v14.52v15.43l-2.8-1.37
	c-10.28-5.01-18.75-13.1-24.23-23.14c-3.33,5.97-7.96,11.12-13.55,15.06l-13.42,9.45L373,333.4c-0.85-6.75-0.44-13.6,1.24-20.2
	c-7.98,16.12-25.68,24.99-43.37,21.73l-4.67-0.86l22.76-20.88l-26.13-9.98c21.94-2.31,41.78-14.06,54.35-32.19l3.73-5.39
	c4.01-5.79,7.33-12.03,9.89-18.59L406.4,207z"/>
<path class="st3" d="M360.26,419.65l0.22,2.96c0.27,3.55,1.99,6.86,4.74,9.12l-5.24,2.79l1.17,1.67c1.02,1.46,2.22,2.78,3.57,3.93
	l1.95,1.67l-7.97-0.23l1.61,1.93c1.43,1.71,3.03,3.26,4.78,4.62l2.34,1.82l-10.17,0.27l2.11,5.7l-0.45-0.19
	c-2.85-1.22-5.48-2.95-7.77-5.1l-0.16,0.34c-1.99,4.14-5.49,7.27-9.76,8.74l4.64-12.55l-7.76-4.72l1.17-0.28
	c3.21-0.76,6.25-2.08,9-3.89l0.25-0.17l-5.93-4.51l10.79-1.31l-4.67-4.5l0.87-0.39c2.56-1.15,4.93-2.68,7.04-4.54L360.26,419.65z"/>
<path class="st3" d="M379.67,481.42l0.29,3.14c0.27,2.86,1.71,5.51,3.96,7.29l-4.13,2.99l0.62,0.89c1.09,1.55,2.38,2.95,3.83,4.15
	l1.08,0.89l-6.4,0.53l0.78,0.93c1.55,1.85,3.31,3.51,5.24,4.94l1.17,0.88l-8.15,1.18l1.82,4.95l-0.27-0.1
	c-2.37-0.86-4.56-2.19-6.44-3.92l-0.31,0.8c-1.39,3.62-4.03,6.57-7.44,8.3l3.43-11.74l-6.33-3.54l0.5-0.19
	c2.84-1.09,5.47-2.68,7.76-4.68l-4.85-3.52l8.62-2.17l-3.85-3.63l0.27-0.17c2.3-1.45,4.39-3.22,6.2-5.27L379.67,481.42z"/>
<path class="st3" d="M464.54,481.2l2.1,1.76c2.66,2.22,6.12,3.11,9.52,2.46l-1.63,6.04l1.97,0.2c1.66,0.17,3.35,0.11,5.01-0.18
	l2.52-0.43l-5.54,6.18l2.47,0.02c2.09,0.02,4.19-0.2,6.25-0.66l2.9-0.64l-4.65,7.02c3.28,1.73,5.92,4.54,7.53,8.03l1.74,3.8
	l-10.59-6l-0.04,1.17c-0.06,1.93-0.46,3.84-1.17,5.64l-0.41-0.15c-1.39-0.5-2.61-1.39-3.53-2.58l-4.49,4.54l-0.87-6.22l-8.48,2.97
	l0.62-1.16c1.63-3.04,2.77-6.32,3.39-9.72l0.06-0.33l-7.1,1.66l6.39-9.45l-6.24,0.67l0.32-0.94c0.94-2.82,1.5-5.75,1.65-8.71
	L464.54,481.2z"/>
<path class="st3" d="M405.38,413.35l0.57,1.03c2.47,4.45,6.64,7.71,11.54,9.04l-6.39,4.27l3.68,1.93c1.2,0.63,2.47,1.14,3.78,1.51
	l5.17,1.48l-11.57,2.22l5.01,2.18c1.51,0.66,3.07,1.19,4.66,1.59l6.35,1.6l-14.54,3.37l5.38,4.83l-2.65-0.17
	c-3.35-0.22-6.66-0.86-9.85-1.9l-1.51-0.5c-1.21,4.76-4.44,8.74-8.85,10.9l-1.71,0.84l1.52-13.45l-13.11-2.16l3.9-1.55
	c2.77-1.1,5.36-2.61,7.68-4.47l1.64-1.32l-10.39-2.52l15.01-4.55l-8.58-2.89l2.22-1.3c2.46-1.45,4.71-3.24,6.66-5.32L405.38,413.35z
	"/>
<path class="st7" d="M383.06,354.05c2.05,5.55,6.69,9.77,12.4,11.28l1.53,0.4l-12.8,5.17l5.13,2.61c1.15,0.59,2.35,1.06,3.59,1.42
	l4.09,1.18l-11.94,2.04l6.88,3c1.49,0.65,2.93,1.42,4.3,2.3l3.29,2.12l-13.18,1.45l6.58,5.42l-5.93-0.82
	c-2.61-0.36-5.19-0.98-7.68-1.85l-4.22-1.47c-1.87,4.59-5.74,8.05-10.51,9.41l-3.88,1.1l2.89-13.24l-16.7-3.64l6.8-1.47
	c2.52-0.54,4.96-1.42,7.25-2.59l3.46-1.77l-13.18-3.69l19.6-2.84L360,365.73l5.27-1.88c1.73-0.62,3.39-1.39,4.97-2.31L383.06,354.05
	z"/>
<path class="st7" d="M434.07,354.05c2.15,2.9,5.41,4.75,9.01,5.13l10.18,1.07l-7.28,5.93l5.86,1.03c1.08,0.19,2.18,0.29,3.28,0.3
	l7.75,0.05l-14.21,5.33l9.79,1.12l11.47-0.23l-17.74,7.26l7.71,3.26l-5.93,0.97c-2.59,0.42-5.21,0.59-7.81,0.5l-4.45-0.16
	c-0.62,4.97-3.45,9.44-7.67,12.15l-3.46,2.22l-0.62-13.58l-16.98,1.46l6.18-3.44c2.27-1.27,4.38-2.82,6.28-4.62l2.88-2.74
	l-1.24,0.27c-3.71,0.81-7.53,0.91-11.24,0.29l-1.12-0.19l11.8-7.94l-0.46-0.38c-1.92-1.55-3.53-3.46-4.74-5.63l-0.7-1.26l2.44-0.44
	c1.74-0.31,3.5-0.47,5.25-0.47h2.27L434.07,354.05z"/>
<path class="st3" d="M455.93,412.06l1.76,2.53c2.33,3.36,5.99,5.52,10.06,5.94l-3.81,6.05l2.59,1.04c1.56,0.63,3.19,1.05,4.87,1.25
	l3.46,0.42l-8.29,4.9l3.35,1.01c2,0.61,4.07,0.99,6.17,1.15l4.09,0.31l-10.26,6.79l13.57,10.22c-7,0.09-13.63-2.85-18.23-8.07
	l-3.9-4.44v3.34c0,6.62-5.39,12.09-11.91,12.09l4.08-7.7l-7.57-0.64l1.7-1.67c2.42-2.37,4.45-5.12,6-8.15l0.55-1.07l-8.58-0.55
	l10.32-8.19l-7.29-1.35l1.07-1.49c1.71-2.39,3.08-5,4.07-7.76L455.93,412.06z"/>
<path class="st7" d="M406.74,235.14l8.45,21.8c1.79,4.61,4.01,9.04,6.65,13.23c7.51,11.95,18.15,21.61,30.76,27.95l2.55,1.28
	l-20.53-3.13l3.44,5.75l7.82,7.84h-4.02c-9.82,0-18.92-5.16-23.97-13.58v8.36v8.88l-0.85-0.47c-5.62-3.1-10.15-7.86-12.94-13.64
	c-1.69,3.43-4.21,6.39-7.33,8.61l-7.72,5.5l-0.47-1.97c-1.48-6.25-1.32-12.77,0.47-18.93l-0.98,1.84
	c-5.03,9.46-14.93,15.3-25.64,15.12l10.96-13.3h-12.64l0.52-0.19c13.27-4.95,24.5-14.2,31.92-26.27c2.42-3.94,4.4-8.13,5.91-12.5
	L406.74,235.14z"/>
</svg>
