<?xml version="1.0" encoding="utf-8"?>
<!-- Generator: Adobe Illustrator 26.1.0, SVG Export Plug-In . SVG Version: 6.00 Build 0)  -->
<svg version="1.1" id="Layer_1" xmlns="http://www.w3.org/2000/svg" xmlns:xlink="http://www.w3.org/1999/xlink" x="0px" y="0px"
	 viewBox="0 0 1280 480" style="enable-background:new 0 0 1280 480;" xml:space="preserve">
<style type="text/css">
	.st0{fill:#544639;}
	.st1{fill:#D87F1F;}
</style>
<polygon class="st0" points="297.33,77.68 299.25,77.53 300.13,102.97 298.21,103.12 "/>
<polygon class="st0" points="300.25,72.52 301.82,73.76 299.26,77.61 297.69,76.37 "/>
<polygon class="st0" points="302.72,70.35 303.88,71.66 300.99,74.71 299.83,73.4 "/>
<polygon class="st0" points="305.96,68.21 306.84,69.63 303.53,72.07 302.65,70.65 "/>
<polygon class="st0" points="308.98,66.91 309.58,68.34 305.93,70.1 305.34,68.66 "/>
<polygon class="st0" points="312.41,66.05 312.78,67.58 308.92,68.59 308.55,67.06 "/>
<polygon class="st1" points="298.91,73.95 300.43,72.24 300.64,72.49 299.13,74.19 "/>
<polygon class="st1" points="302.77,70.11 306.12,67.94 306.28,68.24 302.93,70.41 "/>
<polygon class="st1" points="301.13,71.58 302.82,70.1 303.01,70.37 301.32,71.86 "/>
<polygon class="st0" points="296.16,71.66 295.21,72.9 296.75,76.75 297.69,75.51 "/>
<polygon class="st0" points="294.68,69.49 293.98,70.8 295.71,73.85 296.41,72.54 "/>
<polygon class="st0" points="292.73,67.35 292.21,68.77 294.19,71.21 294.72,69.79 "/>
<polygon class="st0" points="290.93,66.05 290.57,67.48 292.75,69.24 293.11,67.8 "/>
<polygon class="st0" points="288.88,65.19 288.66,66.72 290.97,67.73 291.19,66.2 "/>
<polygon class="st1" points="296.95,73.09 296.05,71.38 295.92,71.62 296.83,73.33 "/>
<polygon class="st1" points="294.64,69.25 292.64,67.08 292.55,67.38 294.55,69.55 "/>
<polygon class="st1" points="295.62,70.72 294.61,69.24 294.5,69.51 295.51,71 "/>
<polygon class="st0" points="295.99,65.22 296.6,65.3 295.25,72.07 294.64,71.99 "/>
<polygon class="st0" points="304.91,66.31 305.52,66.39 304.58,71.13 303.97,71.05 "/>
<polygon class="st0" points="302.37,66.83 302.72,66.74 303.77,71.39 303.42,71.48 "/>
<polygon class="st0" points="298.09,67.62 298.41,67.76 296.1,71.96 295.77,71.82 "/>
<polygon class="st0" points="290.31,67.48 290.59,67.26 296.21,74.37 295.93,74.59 "/>
<rect x="297.68" y="102.77" class="st1" width="3.07" height="1.31"/>
<path class="st0" d="M298.33,80.23l-2.12-4.8l3.9-0.31L298.33,80.23z"/>
<path class="st0" d="M283.41,63.84l5.66,1.39l-0.38,1.52L283.41,63.84z"/>
<path class="st0" d="M297.25,61.61l-0.62,4.15l-0.58-0.21L297.25,61.61z"/>
<path class="st0" d="M318.12,64.95l-5.39,2.58l-0.32-1.55L318.12,64.95z"/>
<path class="st0" d="M311.06,60.76l0.36,6.53l-0.81-0.01L311.06,60.76z"/>
<path class="st0" d="M306.28,62.54l3.1,5.24l-0.68,0.55L306.28,62.54z"/>
<path class="st0" d="M308.63,63.48l-0.57,2.09l-0.42-0.27L308.63,63.48z"/>
<path class="st0" d="M305.5,64.51l-0.15,2.2l-0.46-0.13L305.5,64.51z"/>
<path class="st0" d="M311.82,62.02l-0.57,2.09l-0.42-0.27L311.82,62.02z"/>
<path class="st0" d="M305.63,64.4l1.75-0.02l-0.06,0.59L305.63,64.4z"/>
<path class="st0" d="M309.12,64.4l1.75-0.02l-0.06,0.59L309.12,64.4z"/>
<path class="st0" d="M294.28,65.14l1.75-0.02l-0.06,0.59L294.28,65.14z"/>
<path class="st0" d="M288.76,62.94l1.75-0.02l-0.06,0.59L288.76,62.94z"/>
<path class="st0" d="M298.32,63.67l-1.66,0.72l-0.09-0.59L298.32,63.67z"/>
<path class="st0" d="M292.21,63.67l-1.66,0.72l-0.09-0.59L292.21,63.67z"/>
<path class="st0" d="M291.21,60.17l-0.94,6.18l-0.75-0.26L291.21,60.17z"/>
<polygon class="st0" points="225.65,82.86 227.57,82.57 228.45,129.97 226.53,130.25 "/>
<polygon class="st0" points="228.57,73.24 230.14,75.55 227.58,82.72 226.01,80.41 "/>
<polygon class="st0" points="231.04,69.19 232.2,71.63 229.32,77.31 228.15,74.88 "/>
<polygon class="st0" points="234.29,65.21 235.17,67.85 231.85,72.39 230.97,69.76 "/>
<polygon class="st0" points="237.3,62.78 237.9,65.45 234.26,68.72 233.66,66.05 "/>
<polygon class="st0" points="240.73,61.18 241.1,64.03 237.24,65.92 236.87,63.07 "/>
<polygon class="st1" points="227.23,75.9 228.75,72.72 228.96,73.17 227.45,76.35 "/>
<polygon class="st1" points="231.1,68.76 234.45,64.7 234.6,65.26 231.25,69.31 "/>
<polygon class="st1" points="229.46,71.5 231.14,68.73 231.33,69.24 229.64,72 "/>
<polygon class="st0" points="224.48,71.63 223.53,73.94 225.07,81.11 226.01,78.8 "/>
<polygon class="st0" points="223,67.59 222.3,70.03 224.03,75.71 224.73,73.27 "/>
<polygon class="st0" points="221.06,63.61 220.53,66.25 222.51,70.79 223.04,68.16 "/>
<polygon class="st0" points="219.25,61.18 218.89,63.85 221.07,67.12 221.43,64.45 "/>
<polygon class="st0" points="217.2,59.57 216.98,62.42 219.29,64.32 219.51,61.47 "/>
<polygon class="st1" points="225.28,74.29 224.37,71.12 224.24,71.57 225.15,74.74 "/>
<polygon class="st1" points="222.97,67.15 220.96,63.1 220.87,63.66 222.87,67.71 "/>
<polygon class="st1" points="223.95,69.89 222.94,67.13 222.82,67.63 223.83,70.4 "/>
<polygon class="st0" points="224.31,59.63 224.92,59.78 223.57,72.39 222.96,72.24 "/>
<polygon class="st0" points="233.24,61.66 233.85,61.82 232.9,70.66 232.29,70.5 "/>
<polygon class="st0" points="230.7,62.64 231.04,62.47 232.09,71.13 231.74,71.29 "/>
<polygon class="st0" points="226.41,64.1 226.73,64.37 224.42,72.2 224.1,71.93 "/>
<polygon class="st0" points="218.63,63.85 218.91,63.43 224.53,76.68 224.25,77.09 "/>
<rect x="226" y="129.6" class="st1" width="3.07" height="2.44"/>
<path class="st0" d="M226.65,87.61l-2.12-8.95l3.9-0.58L226.65,87.61z"/>
<path class="st0" d="M211.74,57.07l5.66,2.6l-0.38,2.84L211.74,57.07z"/>
<path class="st0" d="M225.57,52.91l-0.62,7.73l-0.58-0.39L225.57,52.91z"/>
<path class="st0" d="M246.44,59.14l-5.39,4.81l-0.32-2.88L246.44,59.14z"/>
<path class="st0" d="M239.39,51.33l0.36,12.16l-0.81-0.02L239.39,51.33z"/>
<path class="st0" d="M234.61,54.64l3.1,9.76l-0.68,1.02L234.61,54.64z"/>
<path class="st0" d="M236.95,56.4l-0.57,3.89l-0.42-0.5L236.95,56.4z"/>
<path class="st0" d="M233.82,58.31l-0.15,4.1l-0.46-0.25L233.82,58.31z"/>
<path class="st0" d="M240.15,53.66l-0.57,3.89l-0.42-0.5L240.15,53.66z"/>
<path class="st0" d="M233.95,58.12l1.75-0.04l-0.06,1.1L233.95,58.12z"/>
<path class="st0" d="M237.44,58.12l1.75-0.04l-0.06,1.1L237.44,58.12z"/>
<path class="st0" d="M222.61,59.48l1.75-0.04l-0.06,1.1L222.61,59.48z"/>
<path class="st0" d="M217.08,55.38l1.75-0.04l-0.06,1.1L217.08,55.38z"/>
<path class="st0" d="M226.64,56.74l-1.66,1.34l-0.09-1.09L226.64,56.74z"/>
<path class="st0" d="M220.53,56.74l-1.66,1.34l-0.09-1.09L220.53,56.74z"/>
<path class="st0" d="M219.53,50.24l-0.94,11.51l-0.75-0.49L219.53,50.24z"/>
<polygon class="st0" points="939.42,313.41 949.06,312.8 953.48,414.15 943.84,414.76 "/>
<polygon class="st0" points="954.08,292.84 962,297.78 949.12,313.11 941.2,308.17 "/>
<polygon class="st0" points="966.51,284.19 972.36,289.4 957.83,301.55 951.98,296.34 "/>
<polygon class="st0" points="982.83,275.68 987.25,281.31 970.57,291.03 966.15,285.4 "/>
<polygon class="st0" points="998,270.47 1000.99,276.19 982.67,283.18 979.68,277.46 "/>
<polygon class="st0" points="1015.25,267.05 1017.08,273.14 997.68,277.19 995.84,271.1 "/>
<polygon class="st1" points="947.36,298.52 954.98,291.73 956.06,292.7 948.45,299.49 "/>
<polygon class="st1" points="966.79,283.25 983.63,274.59 984.4,275.78 967.56,284.44 "/>
<polygon class="st1" points="958.54,289.11 967.03,283.2 967.97,284.28 959.48,290.19 "/>
<polygon class="st0" points="933.49,289.41 928.75,294.35 936.46,309.68 941.2,304.74 "/>
<polygon class="st0" points="926.06,280.76 922.55,285.97 931.25,298.12 934.75,292.91 "/>
<polygon class="st0" points="916.29,272.25 913.64,277.89 923.62,287.6 926.27,281.97 "/>
<polygon class="st0" points="907.21,267.05 905.42,272.76 916.38,279.75 918.17,274.04 "/>
<polygon class="st0" points="896.89,263.62 895.79,269.71 907.4,273.76 908.5,267.67 "/>
<polygon class="st1" points="937.52,295.09 932.96,288.3 932.3,289.27 936.86,296.06 "/>
<polygon class="st1" points="925.89,279.82 915.81,271.16 915.35,272.35 925.43,281.01 "/>
<polygon class="st1" points="930.83,285.68 925.74,279.77 925.18,280.85 930.26,286.76 "/>
<polygon class="st0" points="932.65,263.73 935.72,264.06 928.93,291.03 925.86,290.71 "/>
<polygon class="st0" points="977.54,268.08 980.61,268.41 975.85,287.31 972.78,286.99 "/>
<polygon class="st0" points="964.77,270.18 966.52,269.82 971.77,288.32 970.02,288.68 "/>
<polygon class="st0" points="943.21,273.3 944.85,273.88 933.22,290.62 931.58,290.04 "/>
<polygon class="st0" points="904.11,272.75 905.49,271.87 933.74,300.2 932.36,301.08 "/>
<rect x="941.14" y="413.37" class="st1" width="15.45" height="5.22"/>
<path class="st0" d="M944.43,323.57l-10.66-19.13l19.6-1.23L944.43,323.57z"/>
<path class="st0" d="M869.42,258.25l28.47,5.55l-1.89,6.07L869.42,258.25z"/>
<path class="st0" d="M939,249.37l-3.13,16.53l-2.9-0.82L939,249.37z"/>
<path class="st0" d="M1043.97,262.69l-27.13,10.27l-1.59-6.16L1043.97,262.69z"/>
<path class="st0" d="M1008.48,245.99l1.8,26l-4.06-0.04L1008.48,245.99z"/>
<path class="st0" d="M984.43,253.07l15.61,20.87l-3.43,2.17L984.43,253.07z"/>
<path class="st0" d="M996.21,256.83l-2.87,8.33l-2.12-1.07L996.21,256.83z"/>
<path class="st0" d="M980.5,260.91l-0.78,8.77l-2.32-0.53L980.5,260.91z"/>
<path class="st0" d="M1012.3,250.98l-2.87,8.33l-2.12-1.07L1012.3,250.98z"/>
<path class="st0" d="M981.13,260.5l8.81-0.08l-0.3,2.36L981.13,260.5z"/>
<path class="st0" d="M998.69,260.5l8.81-0.08l-0.3,2.36L998.69,260.5z"/>
<path class="st0" d="M924.08,263.43l8.81-0.08l-0.3,2.36L924.08,263.43z"/>
<path class="st0" d="M896.29,254.65l8.81-0.08l-0.3,2.36L896.29,254.65z"/>
<path class="st0" d="M944.37,257.56l-8.33,2.86l-0.46-2.33L944.37,257.56z"/>
<path class="st0" d="M913.65,257.56l-8.33,2.86l-0.46-2.33L913.65,257.56z"/>
<path class="st0" d="M908.61,243.65l-4.75,24.61l-3.78-1.04L908.61,243.65z"/>
<polygon class="st0" points="594.19,309.02 603.84,308.41 608.26,409.76 598.62,410.37 "/>
<polygon class="st0" points="608.85,288.45 616.77,293.39 603.9,308.72 595.98,303.78 "/>
<polygon class="st0" points="621.28,279.8 627.13,285.01 612.6,297.16 606.75,291.95 "/>
<polygon class="st0" points="637.6,271.29 642.03,276.92 625.35,286.64 620.92,281.01 "/>
<polygon class="st0" points="652.78,266.09 655.77,271.8 637.45,278.79 634.46,273.08 "/>
<polygon class="st0" points="670.02,262.66 671.86,268.75 652.45,272.8 650.62,266.71 "/>
<polygon class="st1" points="602.13,294.13 609.75,287.34 610.84,288.31 603.22,295.1 "/>
<polygon class="st1" points="621.56,278.86 638.4,270.2 639.17,271.39 622.33,280.05 "/>
<polygon class="st1" points="613.31,284.72 621.8,278.81 622.75,279.89 614.26,285.8 "/>
<polygon class="st0" points="588.27,285.02 583.53,289.96 591.24,305.29 595.97,300.35 "/>
<polygon class="st0" points="580.83,276.37 577.33,281.58 586.03,293.74 589.53,288.52 "/>
<polygon class="st0" points="571.07,267.86 568.42,273.5 578.4,283.22 581.05,277.58 "/>
<polygon class="st0" points="561.98,262.66 560.19,268.37 571.16,275.36 572.95,269.65 "/>
<polygon class="st0" points="551.66,259.23 550.57,265.32 562.18,269.37 563.28,263.28 "/>
<polygon class="st1" points="592.29,290.7 587.73,283.91 587.08,284.88 591.64,291.67 "/>
<polygon class="st1" points="580.66,275.43 570.59,266.77 570.13,267.96 580.2,276.62 "/>
<polygon class="st1" points="585.6,281.29 580.52,275.38 579.95,276.46 585.03,282.37 "/>
<polygon class="st0" points="587.43,259.34 590.5,259.67 583.7,286.65 580.63,286.32 "/>
<polygon class="st0" points="632.32,263.69 635.39,264.02 630.63,282.93 627.56,282.6 "/>
<polygon class="st0" points="619.55,265.79 621.29,265.43 626.54,283.93 624.79,284.29 "/>
<polygon class="st0" points="597.98,268.91 599.62,269.49 588,286.23 586.36,285.65 "/>
<polygon class="st0" points="558.88,268.37 560.27,267.48 588.52,295.81 587.13,296.69 "/>
<rect x="595.92" y="408.98" class="st1" width="15.45" height="5.22"/>
<path class="st0" d="M599.2,319.18l-10.66-19.13l19.6-1.23L599.2,319.18z"/>
<path class="st0" d="M524.19,253.87l28.47,5.55l-1.89,6.07L524.19,253.87z"/>
<path class="st0" d="M593.78,244.98l-3.13,16.53l-2.9-0.82L593.78,244.98z"/>
<path class="st0" d="M698.75,258.3l-27.13,10.27l-1.59-6.16L698.75,258.3z"/>
<path class="st0" d="M663.25,241.6l1.8,26l-4.06-0.04L663.25,241.6z"/>
<path class="st0" d="M639.21,248.68l15.61,20.87l-3.43,2.17L639.21,248.68z"/>
<path class="st0" d="M650.98,252.44l-2.87,8.33l-2.12-1.07L650.98,252.44z"/>
<path class="st0" d="M635.27,256.52l-0.78,8.77l-2.32-0.53L635.27,256.52z"/>
<path class="st0" d="M667.08,246.59l-2.87,8.33l-2.12-1.07L667.08,246.59z"/>
<path class="st0" d="M635.91,256.11l8.81-0.08l-0.3,2.36L635.91,256.11z"/>
<path class="st0" d="M653.46,256.11l8.81-0.08l-0.3,2.36L653.46,256.11z"/>
<path class="st0" d="M578.86,259.04l8.81-0.08l-0.3,2.36L578.86,259.04z"/>
<path class="st0" d="M551.07,250.26l8.81-0.08l-0.3,2.36L551.07,250.26z"/>
<path class="st0" d="M599.15,253.17l-8.33,2.86l-0.46-2.33L599.15,253.17z"/>
<path class="st0" d="M568.43,253.17l-8.33,2.86l-0.46-2.33L568.43,253.17z"/>
<path class="st0" d="M563.38,239.26l-4.75,24.61l-3.78-1.04L563.38,239.26z"/>
<polygon class="st0" points="476.2,125.27 480.35,124.75 482.26,210.06 478.1,210.57 "/>
<polygon class="st0" points="482.51,107.95 485.93,112.11 480.38,125.01 476.97,120.85 "/>
<polygon class="st0" points="487.87,100.67 490.39,105.06 484.13,115.29 481.61,110.9 "/>
<polygon class="st0" points="494.9,93.51 496.81,98.25 489.62,106.43 487.71,101.69 "/>
<polygon class="st0" points="501.44,89.13 502.73,93.94 494.83,99.83 493.54,95.01 "/>
<polygon class="st0" points="508.87,86.24 509.66,91.37 501.3,94.78 500.51,89.65 "/>
<polygon class="st1" points="479.62,112.73 482.9,107.02 483.37,107.84 480.09,113.55 "/>
<polygon class="st1" points="487.99,99.88 495.24,92.59 495.57,93.59 488.32,100.88 "/>
<polygon class="st1" points="484.43,104.82 488.09,99.84 488.5,100.75 484.84,105.73 "/>
<polygon class="st0" points="473.65,105.07 471.6,109.23 474.92,122.13 476.97,117.97 "/>
<polygon class="st0" points="470.44,97.79 468.93,102.17 472.68,112.4 474.19,108.01 "/>
<polygon class="st0" points="466.23,90.63 465.09,95.37 469.39,103.55 470.53,98.81 "/>
<polygon class="st0" points="462.32,86.24 461.55,91.06 466.27,96.94 467.05,92.13 "/>
<polygon class="st0" points="457.88,83.36 457.4,88.49 462.41,91.9 462.88,86.77 "/>
<polygon class="st1" points="475.38,109.85 473.41,104.14 473.13,104.95 475.1,110.67 "/>
<polygon class="st1" points="470.37,97 466.03,89.71 465.83,90.71 470.17,98 "/>
<polygon class="st1" points="472.5,101.93 470.31,96.96 470.06,97.87 472.25,102.84 "/>
<polygon class="st0" points="473.28,83.46 474.6,83.73 471.68,106.44 470.36,106.16 "/>
<polygon class="st0" points="492.62,87.12 493.94,87.39 491.89,103.3 490.57,103.03 "/>
<polygon class="st0" points="487.12,88.88 487.87,88.58 490.13,104.15 489.38,104.45 "/>
<polygon class="st0" points="477.83,91.51 478.54,92 473.53,106.09 472.82,105.6 "/>
<polygon class="st0" points="460.99,91.05 461.58,90.31 473.75,114.15 473.16,114.89 "/>
<rect x="476.94" y="209.4" class="st1" width="6.66" height="4.39"/>
<path class="st0" d="M478.36,133.82l-4.59-16.1l8.44-1.04L478.36,133.82z"/>
<path class="st0" d="M446.04,78.85l12.27,4.67l-0.82,5.11L446.04,78.85z"/>
<path class="st0" d="M476.02,71.37l-1.35,13.91l-1.25-0.69L476.02,71.37z"/>
<path class="st0" d="M521.24,82.58l-11.69,8.65l-0.68-5.18L521.24,82.58z"/>
<path class="st0" d="M505.95,68.53l0.78,21.89l-1.75-0.03L505.95,68.53z"/>
<path class="st0" d="M495.59,74.48l6.73,17.57l-1.48,1.83L495.59,74.48z"/>
<path class="st0" d="M500.66,77.65l-1.24,7.01l-0.91-0.9L500.66,77.65z"/>
<path class="st0" d="M493.89,81.08l-0.33,7.39l-1-0.44L493.89,81.08z"/>
<path class="st0" d="M507.6,72.72l-1.24,7.01l-0.92-0.9L507.6,72.72z"/>
<path class="st0" d="M494.17,80.74l3.79-0.07l-0.13,1.99L494.17,80.74z"/>
<path class="st0" d="M501.73,80.74l3.79-0.07l-0.13,1.99L501.73,80.74z"/>
<path class="st0" d="M469.59,83.2l3.8-0.07l-0.13,1.99L469.59,83.2z"/>
<path class="st0" d="M457.62,75.81l3.79-0.07l-0.13,1.99L457.62,75.81z"/>
<path class="st0" d="M478.33,78.26l-3.59,2.41l-0.2-1.96L478.33,78.26z"/>
<path class="st0" d="M465.1,78.26l-3.59,2.41l-0.2-1.96L465.1,78.26z"/>
<path class="st0" d="M462.92,66.55l-2.05,20.71l-1.63-0.88L462.92,66.55z"/>
<polygon class="st0" points="374.86,214.5 370.62,213.99 368.68,299.29 372.92,299.8 "/>
<polygon class="st0" points="368.42,197.18 364.94,201.34 370.6,214.25 374.07,210.09 "/>
<polygon class="st0" points="362.96,189.9 360.39,194.29 366.77,204.52 369.34,200.13 "/>
<polygon class="st0" points="355.8,182.74 353.85,187.48 361.18,195.66 363.12,190.92 "/>
<polygon class="st0" points="349.13,178.36 347.82,183.17 355.86,189.06 357.18,184.25 "/>
<polygon class="st0" points="341.56,175.48 340.76,180.6 349.28,184.01 350.08,178.89 "/>
<polygon class="st1" points="371.37,201.97 368.03,196.25 367.55,197.07 370.89,202.78 "/>
<polygon class="st1" points="362.84,189.12 355.45,181.83 355.11,182.82 362.5,190.12 "/>
<polygon class="st1" points="366.46,194.05 362.73,189.07 362.32,189.98 366.05,194.96 "/>
<polygon class="st0" points="377.46,194.3 379.54,198.46 376.16,211.36 374.07,207.2 "/>
<polygon class="st0" points="380.72,187.02 382.26,191.41 378.44,201.63 376.91,197.25 "/>
<polygon class="st0" points="385.01,179.86 386.18,184.6 381.79,192.78 380.63,188.04 "/>
<polygon class="st0" points="389,175.48 389.79,180.29 384.97,186.17 384.19,181.36 "/>
<polygon class="st0" points="393.53,172.59 394.01,177.72 388.91,181.13 388.43,176 "/>
<polygon class="st1" points="375.69,199.08 377.69,193.37 377.98,194.18 375.98,199.9 "/>
<polygon class="st1" points="380.8,186.23 385.22,178.94 385.43,179.94 381,187.23 "/>
<polygon class="st1" points="378.63,191.16 380.86,186.19 381.11,187.1 378.88,192.07 "/>
<polygon class="st0" points="377.83,172.69 376.48,172.96 379.46,195.67 380.81,195.39 "/>
<polygon class="st0" points="358.12,176.35 356.77,176.62 358.86,192.54 360.21,192.26 "/>
<polygon class="st0" points="363.72,178.11 362.96,177.81 360.65,193.38 361.42,193.68 "/>
<polygon class="st0" points="373.19,180.74 372.47,181.23 377.58,195.32 378.3,194.83 "/>
<polygon class="st0" points="390.36,180.28 389.75,179.54 377.35,203.38 377.96,204.12 "/>
<rect x="367.32" y="298.63" class="st1" width="6.79" height="4.39"/>
<path class="st0" d="M372.66,223.05l4.68-16.1l-8.61-1.04L372.66,223.05z"/>
<path class="st0" d="M405.59,168.08l-12.5,4.67l0.83,5.11L405.59,168.08z"/>
<path class="st0" d="M375.04,160.6l1.37,13.91l1.27-0.69L375.04,160.6z"/>
<path class="st0" d="M328.95,171.81l11.91,8.65l0.7-5.18L328.95,171.81z"/>
<path class="st0" d="M344.53,157.76l-0.79,21.89l1.78-0.03L344.53,157.76z"/>
<path class="st0" d="M355.09,163.71l-6.86,17.57l1.51,1.83L355.09,163.71z"/>
<path class="st0" d="M349.92,166.88l1.26,7.01l0.93-0.9L349.92,166.88z"/>
<path class="st0" d="M356.82,170.31l0.34,7.39l1.02-0.44L356.82,170.31z"/>
<path class="st0" d="M342.85,161.95l1.26,7.01l0.93-0.9L342.85,161.95z"/>
<path class="st0" d="M356.54,169.97l-3.87-0.07l0.13,1.99L356.54,169.97z"/>
<path class="st0" d="M348.83,169.97l-3.87-0.07l0.13,1.99L348.83,169.97z"/>
<path class="st0" d="M381.59,172.43l-3.87-0.07l0.13,1.99L381.59,172.43z"/>
<path class="st0" d="M393.79,165.04l-3.87-0.07l0.13,1.99L393.79,165.04z"/>
<path class="st0" d="M372.68,167.49l3.66,2.41l0.2-1.96L372.68,167.49z"/>
<path class="st0" d="M386.17,167.49l3.66,2.41l0.2-1.96L386.17,167.49z"/>
<path class="st0" d="M388.39,155.78l2.08,20.71l1.66-0.88L388.39,155.78z"/>
</svg>
