<?xml version="1.0" encoding="utf-8"?>
<!-- Generator: Adobe Illustrator 26.1.0, SVG Export Plug-In . SVG Version: 6.00 Build 0)  -->
<svg version="1.1" id="Layer_1" xmlns="http://www.w3.org/2000/svg" xmlns:xlink="http://www.w3.org/1999/xlink" x="0px" y="0px"
	 viewBox="0 0 612 792" style="enable-background:new 0 0 612 792;" xml:space="preserve">
<style type="text/css">
	.st0{fill:#554639;}
</style>
<path class="st0" d="M134.61,356.07h13.46l-7.03,64.55l20.49,60.98h-26.93l-16.39-60.98L134.61,356.07z"/>
<path class="st0" d="M74.32,294.39l36.88,44.21l29.8,19.2l-6.05,7.17l-31.36-19.27L68.46,299.3L74.32,294.39z"/>
<path class="st0" d="M114.12,284.02h6.44v28.93l-11.71,28.93l-5.85-6.55l11.12-25.11V284.02z"/>
<path class="st0" d="M139.88,280.75h8.2v38.21l-1.76,39.3h-9.37l2.93-39.3V280.75z"/>
<path class="st0" d="M177.35,293.3l7.61,0l-12.29,29.47l-27.28,11.46v-6.66l23.19-9.72L177.35,293.3z"/>
<path class="st0" d="M142.85,356.06l68.45-9.28l32.2-51.3h7.02l-33.95,57.61l-73.72,10.69V356.06z"/>
<path class="st0" d="M206.62,300.39l4.68-1.64l2.34,18.01l-10.54,32.2h-5.27l11.71-32.2L206.62,300.39z"/>
<path class="st0" d="M124.14,287.3l21.17,10.02l-2.52,4.35L124.14,287.3z"/>
<path class="st0" d="M86.21,296.91l2.52,23.81l-4.93,0.01L86.21,296.91z"/>
<path class="st0" d="M122.27,274.05l-3.23,16.44l-5.68-2.39L122.27,274.05z"/>
<path class="st0" d="M245.62,287.25l-0.48,11.13l-3.49-0.76L245.62,287.25z"/>
<path class="st0" d="M53.36,291.34l21.17,10.02l-2.52,4.35L53.36,291.34z"/>
<path class="st0" d="M92.68,303.46l21.17,10.02l-2.52,4.35L92.68,303.46z"/>
<path class="st0" d="M258.64,284.84l-14.68,18.61l-3.48-3.59L258.64,284.84z"/>
<path class="st0" d="M168.5,273.93l12.23,20.39l-4.45,2.19L168.5,273.93z"/>
<path class="st0" d="M153.57,265.97l-8.8,22.18l-4.34-2.4L153.57,265.97z"/>
<path class="st0" d="M186.19,274.82l-8.12,14.83l-4.43-3.72L186.19,274.82z"/>
<path class="st0" d="M126.81,290.09l-7.79,22.57l-4.45-2.19L126.81,290.09z"/>
<path class="st0" d="M185.49,285.83l-2.29,10.11l-3.78-1.81L185.49,285.83z"/>
<path class="st0" d="M220.95,308.87l-11.2,3.95l-0.62-3.22L220.95,308.87z"/>
<path class="st0" d="M426.1,423.77h13.46l-7.03,64.55l20.49,60.98H426.1l-16.39-60.98L426.1,423.77z"/>
<path class="st0" d="M365.8,362.09l36.88,44.21l29.8,19.2l-6.05,7.17l-31.36-19.27L359.95,367L365.8,362.09z"/>
<path class="st0" d="M405.61,351.72h6.44v28.93l-11.71,28.93l-5.85-6.55l11.12-25.11V351.72z"/>
<path class="st0" d="M431.37,348.45h8.2v38.21l-1.76,39.3h-9.37l2.93-39.3V348.45z"/>
<path class="st0" d="M468.84,361l7.61,0l-12.29,29.47l-27.28,11.46v-6.66l23.19-9.72L468.84,361z"/>
<path class="st0" d="M434.34,423.77l68.45-9.28l32.2-51.3h7.02l-33.95,57.61l-73.72,10.69V423.77z"/>
<path class="st0" d="M498.11,368.09l4.68-1.64l2.34,18.01l-10.54,32.2h-5.27l11.71-32.2L498.11,368.09z"/>
<path class="st0" d="M415.63,355l21.17,10.02l-2.53,4.35L415.63,355z"/>
<path class="st0" d="M377.7,364.61l2.52,23.81l-4.93,0.01L377.7,364.61z"/>
<path class="st0" d="M413.76,341.75l-3.23,16.44l-5.68-2.39L413.76,341.75z"/>
<path class="st0" d="M537.11,354.95l-0.48,11.13l-3.49-0.76L537.11,354.95z"/>
<path class="st0" d="M344.85,359.04l21.17,10.02l-2.53,4.35L344.85,359.04z"/>
<path class="st0" d="M384.17,371.16l21.17,10.02l-2.53,4.35L384.17,371.16z"/>
<path class="st0" d="M550.13,352.54l-14.68,18.61l-3.48-3.59L550.13,352.54z"/>
<path class="st0" d="M459.99,341.63l12.24,20.39l-4.45,2.19L459.99,341.63z"/>
<path class="st0" d="M445.06,333.67l-8.8,22.18l-4.34-2.4L445.06,333.67z"/>
<path class="st0" d="M477.68,342.52l-8.12,14.83l-4.42-3.72L477.68,342.52z"/>
<path class="st0" d="M418.29,357.79l-7.79,22.57l-4.45-2.19L418.29,357.79z"/>
<path class="st0" d="M476.97,353.53l-2.29,10.11l-3.78-1.81L476.97,353.53z"/>
<path class="st0" d="M512.44,376.57l-11.2,3.95l-0.62-3.22L512.44,376.57z"/>
</svg>
