<?xml version="1.0" encoding="utf-8"?>
<!-- Generator: Adobe Illustrator 26.1.0, SVG Export Plug-In . SVG Version: 6.00 Build 0)  -->
<svg version="1.1" id="Layer_1" xmlns="http://www.w3.org/2000/svg" xmlns:xlink="http://www.w3.org/1999/xlink" x="0px" y="0px"
	 viewBox="0 0 1280 480" style="enable-background:new 0 0 1280 480;" xml:space="preserve">
<style type="text/css">
	.st0{fill:#F3D1B0;}
	.st1{fill:#873C3C;}
	.st2{fill:#544639;}
	.st3{fill:#FFFFFF;}
	.st4{fill:#C4C4C4;}
	.st5{fill:#AC8865;}
	.st6{fill:#473E3E;}
	.st7{fill:none;stroke:#544639;}
	.st8{fill:#E48A8A;}
	.st9{fill:#F4C9C9;}
</style>
<path class="st0" d="M652.47,254.96c-1.69,4.45-21.09,1.2-43.33-7.25c-22.24-8.45-29.44-16.01-27.75-20.46
	c1.69-4.45,11.63-4.1,33.87,4.35C637.51,240.05,654.16,250.51,652.47,254.96z"/>
<path class="st0" d="M527.47,384.22c-4.72-0.58-6.2-20.2-3.29-43.81c2.91-23.61,8.53-32.41,13.25-31.82
	c4.72,0.58,6.76,10.32,3.85,33.93C538.37,366.13,532.19,384.8,527.47,384.22z"/>
<path class="st0" d="M580.66,438.92c-4.72-0.58-6.2-20.2-3.29-43.81c2.91-23.61,8.53-32.41,13.25-31.83
	c4.72,0.58,6.76,10.32,3.85,33.93C591.57,420.83,585.38,439.5,580.66,438.92z"/>
<path class="st0" d="M591.54,386.17c-4.76,0.11-9.08-19.08-9.64-42.86c-0.57-23.79,3.71-33.3,8.47-33.42
	c4.76-0.11,8.19,9.22,8.76,33.01C599.69,366.69,596.3,386.06,591.54,386.17z"/>
<path class="st0" d="M502.17,436.8c-4.41-1.79-0.71-21.11,8.26-43.15c8.97-22.04,16.69-29.06,21.1-27.26
	c4.41,1.79,3.83,11.72-5.14,33.76C517.42,422.19,506.58,438.6,502.17,436.8z"/>
<path class="st1" d="M578.67,159.69l62.39,185.98L471.35,323.9L578.67,159.69z"/>
<circle class="st2" cx="490.07" cy="53.09" r="37.09"/>
<circle class="st2" cx="634.67" cy="38.86" r="37.09"/>
<path class="st0" d="M651.46,105.14c0.1,2.75-0.3,5.5-1.07,8.14c-11.76,40.72-23.38,64.97-58.57,79.31
	c-5.67,2.31-12.01,2.35-17.79,0.34c-39.97-13.9-70.83-38.45-80.14-81.49c-0.31-1.42-0.45-2.9-0.42-4.36
	c1.13-46.78,38.08-84.34,83.51-84.34C621.77,22.75,649.86,59.27,651.46,105.14z"/>
<path class="st2" d="M647.41,80.07c-10.49,1.87-38.2-5.88-55.07-14.25s-52.08-24.63-47.02-34.83c5.06-10.19,48.51-12.11,65.38-3.75
	C628.35,34.95,647.41,68.83,647.41,80.07z"/>
<path class="st2" d="M570.62,26.12c7.06,8.92-6.38,40.83-22.86,57.69c-16.11,14.61-48.01,35.15-55.07,26.22
	c0-10.74,6.21-52.75,20.98-64.43C528.44,33.92,563.56,17.2,570.62,26.12z"/>
<path class="st2" d="M492.83,115.48c0,6.09,14.35,33.89,17.85,33.89c3.5,0,0-38.4,0-44.49c0-6.09-8.59,0-12.09,0
	C493.4,104.88,491.94,107.41,492.83,115.48z"/>
<path class="st0" d="M515.8,136.39c-4.25-0.12-8.3-1.51-11.24-3.84c-2.94-2.34-4.54-5.44-4.45-8.62c0.09-3.18,1.87-6.18,4.95-8.34
	c3.07-2.16,7.19-3.31,11.45-3.18l-0.35,11.99L515.8,136.39z"/>
<circle class="st3" cx="556.38" cy="107.41" r="14.24"/>
<circle class="st3" cx="609.57" cy="101.42" r="14.24"/>
<circle class="st4" cx="556.38" cy="107.41" r="7.49"/>
<circle cx="556.38" cy="107.41" r="7.49"/>
<circle cx="609.57" cy="101.42" r="7.49"/>
<circle class="st4" cx="552.26" cy="103.29" r="1.87"/>
<circle class="st4" cx="604.7" cy="98.05" r="1.87"/>
<path class="st5" d="M567.61,107.41c0,6.21-5.03,11.24-11.24,11.24c-6.21,0-11.24-5.03-11.24-11.24s5.03-11.24,11.24-11.24
	C562.58,96.17,567.61,101.21,567.61,107.41z M548.89,107.41c0,4.14,3.35,7.49,7.49,7.49c4.14,0,7.49-3.35,7.49-7.49
	s-3.35-7.49-7.49-7.49C552.24,99.92,548.89,103.28,548.89,107.41z"/>
<path class="st5" d="M567.61,107.41c0,6.21-5.03,11.24-11.24,11.24c-6.21,0-11.24-5.03-11.24-11.24s5.03-11.24,11.24-11.24
	C562.58,96.17,567.61,101.21,567.61,107.41z M548.89,107.41c0,4.14,3.35,7.49,7.49,7.49c4.14,0,7.49-3.35,7.49-7.49
	s-3.35-7.49-7.49-7.49C552.24,99.92,548.89,103.28,548.89,107.41z"/>
<path class="st5" d="M567.61,107.41c0,6.21-5.03,11.24-11.24,11.24c-6.21,0-11.24-5.03-11.24-11.24s5.03-11.24,11.24-11.24
	C562.58,96.17,567.61,101.21,567.61,107.41z M548.89,107.41c0,4.14,3.35,7.49,7.49,7.49c4.14,0,7.49-3.35,7.49-7.49
	s-3.35-7.49-7.49-7.49C552.24,99.92,548.89,103.28,548.89,107.41z"/>
<path class="st5" d="M567.61,107.41c0,6.21-5.03,11.24-11.24,11.24c-6.21,0-11.24-5.03-11.24-11.24s5.03-11.24,11.24-11.24
	C562.58,96.17,567.61,101.21,567.61,107.41z M548.89,107.41c0,4.14,3.35,7.49,7.49,7.49c4.14,0,7.49-3.35,7.49-7.49
	s-3.35-7.49-7.49-7.49C552.24,99.92,548.89,103.28,548.89,107.41z"/>
<path class="st5" d="M620.81,101.42c0,6.21-5.03,11.24-11.24,11.24c-6.21,0-11.24-5.03-11.24-11.24s5.03-11.24,11.24-11.24
	C615.78,90.18,620.81,95.21,620.81,101.42z M602.08,101.42c0,4.14,3.35,7.49,7.49,7.49c4.14,0,7.49-3.35,7.49-7.49
	c0-4.14-3.35-7.49-7.49-7.49C605.43,93.93,602.08,97.28,602.08,101.42z"/>
<path class="st5" d="M620.81,101.42c0,6.21-5.03,11.24-11.24,11.24c-6.21,0-11.24-5.03-11.24-11.24s5.03-11.24,11.24-11.24
	C615.78,90.18,620.81,95.21,620.81,101.42z M602.08,101.42c0,4.14,3.35,7.49,7.49,7.49c4.14,0,7.49-3.35,7.49-7.49
	c0-4.14-3.35-7.49-7.49-7.49C605.43,93.93,602.08,97.28,602.08,101.42z"/>
<path class="st5" d="M620.81,101.42c0,6.21-5.03,11.24-11.24,11.24c-6.21,0-11.24-5.03-11.24-11.24s5.03-11.24,11.24-11.24
	C615.78,90.18,620.81,95.21,620.81,101.42z M602.08,101.42c0,4.14,3.35,7.49,7.49,7.49c4.14,0,7.49-3.35,7.49-7.49
	c0-4.14-3.35-7.49-7.49-7.49C605.43,93.93,602.08,97.28,602.08,101.42z"/>
<path class="st5" d="M620.81,101.42c0,6.21-5.03,11.24-11.24,11.24c-6.21,0-11.24-5.03-11.24-11.24s5.03-11.24,11.24-11.24
	C615.78,90.18,620.81,95.21,620.81,101.42z M602.08,101.42c0,4.14,3.35,7.49,7.49,7.49c4.14,0,7.49-3.35,7.49-7.49
	c0-4.14-3.35-7.49-7.49-7.49C605.43,93.93,602.08,97.28,602.08,101.42z"/>
<path class="st0" d="M551.21,217.72c1.2,4.6-7.74,10.69-30.76,16.68c-23.03,5.99-36.67,4.61-37.87,0
	c-1.2-4.6,10.5-10.69,33.53-16.68C539.13,211.73,550.01,213.12,551.21,217.72z"/>
<path class="st0" d="M543.07,278.87c-2.93,3.75-20.5-5.11-39.23-19.79c-18.73-14.67-23.36-24.02-20.43-27.77
	c2.93-3.75,12.32-0.47,31.05,14.21C533.2,260.19,546.01,275.12,543.07,278.87z"/>
<path class="st0" d="M671.74,275.94c-2.36,3.02-15.32-3.18-28.93-13.85c-13.61-10.67-16.76-17.74-14.4-20.76
	c2.36-3.02,9.35-0.83,22.96,9.83C664.98,261.83,674.1,272.92,671.74,275.94z"/>
<ellipse transform="matrix(0.2567 -0.9665 0.9665 0.2567 11.7804 891.6748)" class="st4" cx="585.6" cy="438.18" rx="5.06" ry="11.83"/>
<ellipse transform="matrix(0.0806 -0.9967 0.9967 0.0806 37.712 909.0513)" cx="511.64" cy="434.08" rx="5.06" ry="11.83"/>
<ellipse transform="matrix(0.105 -0.9945 0.9945 0.105 88.3764 974.5513)" cx="585.6" cy="438.18" rx="5.06" ry="11.83"/>
<path class="st6" d="M546.92,146.41c-0.33,3.92,0.06,7.86,1.14,11.59c1.09,3.74,2.85,7.2,5.19,10.18c2.34,2.99,5.2,5.44,8.44,7.22
	c3.23,1.78,6.77,2.86,10.41,3.16c3.64,0.31,7.3-0.16,10.79-1.37c3.49-1.22,6.73-3.15,9.53-5.71c2.81-2.55,5.12-5.67,6.82-9.17
	c1.7-3.5,2.74-7.32,3.07-11.24l-27.69-2.34L546.92,146.41z"/>
<path class="st7" d="M566.94,92.54c-12.25-5.96-18.21-4.17-28.15,4.63"/>
<path class="st7" d="M594.37,90.66c10.66-8.48,18.2-8.41,29.81-1.98"/>
<path class="st8" d="M580.6,168.83c1.75,1.68,2.14,4.34,1.22,6.59c-1.25,3.08-3.96,3.46-9.71,3.17
	c-7.12,0.37-19.48-8.26-19.48-11.99c0-3.29,6.62-3.98,12.59-4.1c1.54-0.03,3.08,0.11,4.56,0.54
	C574.15,164.32,578.24,166.57,580.6,168.83z"/>
<ellipse class="st9" cx="628.68" cy="133.64" rx="11.61" ry="7.49"/>
<ellipse class="st9" cx="538.77" cy="133.64" rx="11.61" ry="7.49"/>
</svg>
