<?xml version="1.0" encoding="utf-8"?>
<!-- Generator: Adobe Illustrator 26.1.0, SVG Export Plug-In . SVG Version: 6.00 Build 0)  -->
<svg version="1.1" id="Layer_1" xmlns="http://www.w3.org/2000/svg" xmlns:xlink="http://www.w3.org/1999/xlink" x="0px" y="0px"
	 viewBox="0 0 1280 480" style="enable-background:new 0 0 1280 480;" xml:space="preserve">
<style type="text/css">
	.st0{fill:#F3D1B0;}
	.st1{fill:#873C3C;}
	.st2{fill:#544639;}
	.st3{fill:#FFFFFF;}
	.st4{fill:#C4C4C4;}
	.st5{fill:#AC8865;}
	.st6{fill:none;stroke:#544639;}
	.st7{fill:#F4C9C9;}
	.st8{fill:#2B2B2B;}
</style>
<path class="st0" d="M644.35,262.65c-1.62,4.27-20.23,1.15-41.57-6.96c-21.33-8.11-28.24-15.36-26.62-19.62
	c1.62-4.27,11.16-3.94,32.49,4.17C629.99,248.35,645.97,258.38,644.35,262.65z"/>
<path class="st0" d="M524.43,386.65c-4.53-0.56-5.94-19.37-3.15-42.03c2.79-22.65,8.18-31.09,12.71-30.53
	c4.53,0.56,6.48,9.9,3.7,32.55C534.9,369.3,528.97,387.21,524.43,386.65z"/>
<path class="st0" d="M575.46,439.12c-4.53-0.56-5.94-19.37-3.15-42.03c2.79-22.65,8.18-31.09,12.71-30.53
	c4.53,0.56,6.48,9.9,3.7,32.55C585.93,421.77,579.99,439.68,575.46,439.12z"/>
<path class="st0" d="M585.9,388.53c-4.56,0.11-8.71-18.3-9.25-41.12c-0.55-22.82,3.56-31.95,8.12-32.06
	c4.56-0.11,7.86,8.84,8.4,31.66C593.72,369.83,590.46,388.42,585.9,388.53z"/>
<path class="st0" d="M500.17,437.09c-4.23-1.72-0.68-20.25,7.92-41.39c8.6-21.14,16.01-27.88,20.24-26.15
	c4.23,1.72,3.68,11.25-4.93,32.39C514.8,423.07,504.4,438.82,500.17,437.09z"/>
<path class="st1" d="M573.55,171.26l59.85,178.41l-162.8-20.89L573.55,171.26z"/>
<circle class="st2" cx="488.56" cy="69" r="35.58"/>
<circle class="st2" cx="627.27" cy="55.35" r="35.58"/>
<path class="st0" d="M643.38,118.93c0.09,2.64-0.29,5.27-1.02,7.81c-11.28,39.06-22.42,62.33-56.19,76.08
	c-5.44,2.22-11.52,2.25-17.07,0.33c-38.34-13.33-67.94-36.89-76.88-78.17c-0.3-1.37-0.44-2.78-0.4-4.18
	c1.08-44.87,36.53-80.9,80.11-80.9C614.9,39.9,641.84,74.93,643.38,118.93z"/>
<path class="st2" d="M639.49,94.88c-10.06,1.8-36.65-5.64-52.83-13.67c-16.18-8.03-49.96-23.63-45.11-33.41
	c4.85-9.78,46.54-11.62,62.72-3.59C621.21,51.6,639.49,84.1,639.49,94.88z"/>
<path class="st2" d="M565.84,43.13c6.77,8.56-6.12,39.17-21.93,55.34c-15.45,14.02-46.05,33.72-52.83,25.16
	c0-10.31,5.96-50.6,20.12-61.81C525.36,50.61,559.06,34.57,565.84,43.13z"/>
<path class="st2" d="M491.2,128.85c0,5.84,13.77,32.51,17.12,32.51s0-36.84,0-42.68c0-5.84-8.24,0-11.6,0
	C491.76,118.68,490.36,121.11,491.2,128.85z"/>
<path class="st0" d="M513.25,148.91c-4.08-0.12-7.96-1.44-10.78-3.69c-2.82-2.24-4.36-5.22-4.27-8.27c0.09-3.05,1.8-5.93,4.74-8
	c2.95-2.07,6.9-3.17,10.98-3.05l-0.33,11.5L513.25,148.91z"/>
<circle class="st3" cx="552.17" cy="121.11" r="13.66"/>
<circle class="st3" cx="603.2" cy="115.36" r="13.66"/>
<circle class="st4" cx="552.17" cy="121.11" r="7.19"/>
<circle cx="552.17" cy="121.11" r="7.19"/>
<circle cx="603.2" cy="115.36" r="7.19"/>
<circle class="st4" cx="548.21" cy="117.16" r="1.8"/>
<circle class="st4" cx="598.52" cy="112.13" r="1.8"/>
<path class="st5" d="M562.95,121.11c0,5.95-4.83,10.78-10.78,10.78s-10.78-4.83-10.78-10.78c0-5.95,4.83-10.78,10.78-10.78
	S562.95,115.16,562.95,121.11z M544.98,121.11c0,3.97,3.22,7.19,7.19,7.19s7.19-3.22,7.19-7.19c0-3.97-3.22-7.19-7.19-7.19
	S544.98,117.14,544.98,121.11z"/>
<path class="st5" d="M562.95,121.11c0,5.95-4.83,10.78-10.78,10.78s-10.78-4.83-10.78-10.78c0-5.95,4.83-10.78,10.78-10.78
	S562.95,115.16,562.95,121.11z M544.98,121.11c0,3.97,3.22,7.19,7.19,7.19s7.19-3.22,7.19-7.19c0-3.97-3.22-7.19-7.19-7.19
	S544.98,117.14,544.98,121.11z"/>
<path class="st5" d="M562.95,121.11c0,5.95-4.83,10.78-10.78,10.78s-10.78-4.83-10.78-10.78c0-5.95,4.83-10.78,10.78-10.78
	S562.95,115.16,562.95,121.11z M544.98,121.11c0,3.97,3.22,7.19,7.19,7.19s7.19-3.22,7.19-7.19c0-3.97-3.22-7.19-7.19-7.19
	S544.98,117.14,544.98,121.11z"/>
<path class="st5" d="M562.95,121.11c0,5.95-4.83,10.78-10.78,10.78s-10.78-4.83-10.78-10.78c0-5.95,4.83-10.78,10.78-10.78
	S562.95,115.16,562.95,121.11z M544.98,121.11c0,3.97,3.22,7.19,7.19,7.19s7.19-3.22,7.19-7.19c0-3.97-3.22-7.19-7.19-7.19
	S544.98,117.14,544.98,121.11z"/>
<path class="st5" d="M613.98,115.36c0,5.95-4.83,10.78-10.78,10.78c-5.95,0-10.78-4.83-10.78-10.78c0-5.95,4.83-10.78,10.78-10.78
	C609.15,104.58,613.98,109.41,613.98,115.36z M596.01,115.36c0,3.97,3.22,7.19,7.19,7.19c3.97,0,7.19-3.22,7.19-7.19
	c0-3.97-3.22-7.19-7.19-7.19C599.23,108.18,596.01,111.39,596.01,115.36z"/>
<path class="st5" d="M613.98,115.36c0,5.95-4.83,10.78-10.78,10.78c-5.95,0-10.78-4.83-10.78-10.78c0-5.95,4.83-10.78,10.78-10.78
	C609.15,104.58,613.98,109.41,613.98,115.36z M596.01,115.36c0,3.97,3.22,7.19,7.19,7.19c3.97,0,7.19-3.22,7.19-7.19
	c0-3.97-3.22-7.19-7.19-7.19C599.23,108.18,596.01,111.39,596.01,115.36z"/>
<path class="st5" d="M613.98,115.36c0,5.95-4.83,10.78-10.78,10.78c-5.95,0-10.78-4.83-10.78-10.78c0-5.95,4.83-10.78,10.78-10.78
	C609.15,104.58,613.98,109.41,613.98,115.36z M596.01,115.36c0,3.97,3.22,7.19,7.19,7.19c3.97,0,7.19-3.22,7.19-7.19
	c0-3.97-3.22-7.19-7.19-7.19C599.23,108.18,596.01,111.39,596.01,115.36z"/>
<path class="st5" d="M613.98,115.36c0,5.95-4.83,10.78-10.78,10.78c-5.95,0-10.78-4.83-10.78-10.78c0-5.95,4.83-10.78,10.78-10.78
	C609.15,104.58,613.98,109.41,613.98,115.36z M596.01,115.36c0,3.97,3.22,7.19,7.19,7.19c3.97,0,7.19-3.22,7.19-7.19
	c0-3.97-3.22-7.19-7.19-7.19C599.23,108.18,596.01,111.39,596.01,115.36z"/>
<path class="st0" d="M547.21,226.93c1.15,4.42-7.42,10.25-29.51,16c-22.09,5.75-35.18,4.42-36.33,0c-1.15-4.42,10.08-10.25,32.16-16
	C535.63,221.18,546.06,222.51,547.21,226.93z"/>
<path class="st0" d="M539.4,285.59c-2.82,3.59-19.66-4.9-37.63-18.98c-17.97-14.08-22.41-23.05-19.59-26.64
	c2.82-3.59,11.82-0.45,29.79,13.63C529.94,267.67,542.22,282,539.4,285.59z"/>
<path class="st0" d="M662.83,282.78c-2.27,2.9-14.69-3.05-27.75-13.28s-16.08-17.02-13.81-19.92c2.27-2.9,8.97-0.8,22.03,9.43
	S665.1,279.89,662.83,282.78z"/>
<ellipse transform="matrix(0.2567 -0.9665 0.9665 0.2567 7.541 886.6315)" class="st4" cx="580.2" cy="438.41" rx="4.86" ry="11.35"/>
<ellipse transform="matrix(0.0806 -0.9967 0.9967 0.0806 35.1168 907.0403)" cx="509.25" cy="434.48" rx="4.86" ry="11.35"/>
<ellipse transform="matrix(0.105 -0.9945 0.9945 0.105 83.3113 969.3926)" cx="580.2" cy="438.41" rx="4.86" ry="11.35"/>
<path class="st6" d="M562.3,106.84c-11.75-5.71-17.47-4-27.01,4.44"/>
<path class="st6" d="M588.61,105.04c10.23-8.13,17.46-8.07,28.6-1.9"/>
<ellipse class="st7" cx="621.52" cy="146.27" rx="11.14" ry="7.19"/>
<ellipse class="st7" cx="535.28" cy="146.27" rx="11.14" ry="7.19"/>
<path class="st8" d="M589.53,180.4c-0.74,3.29-10.27,5.36-20.09,3.16c-9.82-2.21-23.06-11.75-22.31-15.04s13.2,9.68,23.02,11.89
	C579.97,182.61,590.27,177.11,589.53,180.4z"/>
</svg>
