<?xml version="1.0" encoding="utf-8"?>
<!-- Generator: Adobe Illustrator 26.1.0, SVG Export Plug-In . SVG Version: 6.00 Build 0)  -->
<svg version="1.1" id="Layer_1" xmlns="http://www.w3.org/2000/svg" xmlns:xlink="http://www.w3.org/1999/xlink" x="0px" y="0px"
	 viewBox="0 0 1280 480" style="enable-background:new 0 0 1280 480;" xml:space="preserve">
<style type="text/css">
	.st0{fill:#824106;}
	.st1{fill:#683607;fill-opacity:0.67;}
	.st2{fill:#307B0C;}
	.st3{fill:#34860D;fill-opacity:0.43;}
	.st4{fill:#28670B;}
	.st5{fill:#255C0A;fill-opacity:0.67;}
	.st6{fill:#255C0A;}
	.st7{fill:#32800C;}
	.st8{fill:#32800D;}
</style>
<ellipse class="st0" cx="589.83" cy="231.51" rx="10.5" ry="6"/>
<rect x="579.33" y="198.51" class="st0" width="21" height="33"/>
<path class="st1" d="M591.83,194.51l8.5,13v14l-4.68-3.68c-1.54-1.21-2.97-2.58-4.24-4.07l-4.08-4.76l-1.17,2.16
	c-1.51,2.81-3.92,5.04-6.83,6.34v-11L591.83,194.51z"/>
<path class="st2" d="M589.33,102.51l46.06,75.64c0.94,1.54,2.3,2.79,3.92,3.6c1,0.5,2.11,0.76,3.23,0.76h3.3l-4,7.01l15.5,16.99
	l-7.91-0.36c-2.05-0.09-4.08-0.47-6.02-1.12l-2.19-0.73c-1.57-0.52-3.05-1.3-4.37-2.29l1.5,4l1.5,4l-4.51-2.03
	c-3.62-1.63-6.85-4-9.49-6.97c0.66,1.33,1.21,2.72,1.61,4.15l1.39,4.85l-3.51-0.64c-4.68-0.85-8.62-3.99-10.49-8.36l0.32,0.74
	c0.78,1.82,1.18,3.78,1.18,5.76c-2.55-0.64-4.72-2.3-6-4.6l-0.5-0.9c0,1.99,0.27,3.97,0.79,5.89l0.71,2.61l-0.52-0.22
	c-3.62-1.51-6.9-3.71-9.67-6.48l-0.8-0.8l2,5l1.5,3.5l-5.75-0.69c-4.31-0.52-8.2-2.8-10.75-6.31c-3.28,3.94-7.49,7-12.25,8.9
	l-0.25,0.1l1.5-9l-0.39,0.59c-1.07,1.6-2.36,3.04-3.84,4.27l-0.77,0.64l-0.11-0.56c-0.26-1.29-0.39-2.6-0.39-3.92v-1.02
	c-1.98,2.97-4.51,5.54-7.45,7.58l-2.05,1.42v-1.31c0-2.45,0.3-4.9,0.9-7.28l0.1-0.42l-0.98,0.68c-3.64,2.52-7.78,4.2-12.14,4.93
	l-2.38,0.4l4-5l3.5-3.5c-3.93,2.95-8.57,4.81-13.45,5.41l-8.97,1.09l1.79-1.45c2.08-1.69,3.98-3.6,5.66-5.7
	c-4.84,2.05-10.2,2.55-15.34,1.44l-6.68-1.44l18.3-11.84l-2.15-1.55c-1.04-0.75-1.94-1.68-2.66-2.75l3.5-0.71
	c2.56-0.64,4.74-2.29,6.06-4.57l7.44-12.93L589.33,102.51z"/>
<path class="st3" d="M598.3,177.31l1.17,1.23c1.64,1.73,3.93,2.68,6.31,2.62l-1.71,3.62l0.54,0.13c1.63,0.41,3.31,0.61,5,0.6
	l0.96-0.01l-4.38,3.3l0.71,0.11c2.07,0.33,4.16,0.45,6.25,0.34l1.07-0.05l-5.37,4.49l3.4,1.92l-0.35,0.11
	c-2,0.61-4.09,0.88-6.18,0.79l0.02,0.09c0.61,3.09,0.77,6.26,0.45,9.4l-1.73-1.75c-1.89-1.91-2.96-4.49-2.96-7.18l-6.05,0.99
	l0.44-0.54c1.48-1.82,2.64-3.87,3.45-6.08l-4.98,0.31l5.29-5.27l-4.3-0.23c1.13-2.04,1.95-4.23,2.45-6.51L598.3,177.31z"/>
<path class="st3" d="M550.89,179.01l-0.08,1.49c-0.12,2.05,0.64,4.05,2.09,5.51l-3.29,1.09l0.06,0.1c0.82,1.48,1.83,2.84,3,4.07
	l0.32,0.34l-4.67-0.77l0.1,0.14c1.18,1.74,2.54,3.36,4.06,4.81l0.34,0.33l-6-0.68l0.81,3.29l-2.64-1.5l-1.48-1.1
	c-0.93,1.93-2.93,3.1-5.07,2.96l-5.47-0.35l1.66-0.96c1.88-1.09,3.57-2.47,5-4.1l0.72-0.82l-4.2-3.21l0.59-0.05
	c2.02-0.16,4.01-0.66,5.87-1.47l-3.14-2.95l6.44,0.17l-2.4-2.84c1.95-0.51,3.81-1.31,5.53-2.36L550.89,179.01z"/>
<path class="st4" d="M587.87,161.51l37.46,2.5l6.5,8.5l2.5,4l-10-7c0,2.65-0.43,5.28-1.27,7.79l-0.23,0.71l-2.78-1.39
	c-2.78-1.39-5.19-3.4-7.06-5.89l-1.67-2.22c-0.33,2.32-0.3,4.68,0.08,6.99l0.42,2.51l-3.91-1.74c-3.36-1.49-6.43-3.6-9.03-6.2
	l-0.56-0.56l-0.58,2.32c-0.28,1.12-0.66,2.22-1.13,3.27l-1.29,2.91l-1.33-0.77c-3.07-1.79-5.7-4.26-7.67-7.23l-0.92,0.84
	c-3,2.73-6.64,4.68-10.58,5.66l-5.5,1l0.27-2.45c0.15-1.35,0.06-2.73-0.27-4.05l-5.5,4.5l-5,4l-0.25-2.04
	c-0.16-1.31-0.46-2.59-0.87-3.84l-0.37-1.12l-1.78,2.79c-1.14,1.79-2.56,3.4-4.21,4.74l-3.02,2.47l-1-4.5l-1-4l-6,6l6.5-12
	L587.87,161.51z"/>
<path class="st2" d="M589.33,71.51l40.81,72.82c2.07,1.99,4.83,3.1,7.7,3.1h0.36l-4.83,3.62l2.15,4.14c2.41,1.33,5.24,1.69,7.91,1
	l3.9-1l-9.13,9.31l4.83,11.9l-4.44-0.64c-4.11-0.59-7.97-2.35-11.13-5.05l-5.37-4.66c1.37,2.98,1.5,6.38,0.34,9.45l-0.34,0.89
	l-1.39-0.61c-2.95-1.29-5.45-3.42-7.2-6.12l-2.69-5.17c-1.39,3.34-1.54,7.06-0.44,10.51l0.44,1.39c-5.26-2.03-9.84-5.51-13.2-10.04
	l-0.23-0.31l-0.23,2.29c-0.21,2.08-0.74,4.12-1.57,6.03l-0.89,2.03l-2.66-2.21c-2.14-1.79-3.89-4-5.13-6.5l-0.81-1.63
	c-2.68,5.49-7.94,9.27-14,10.07l-2.11,0.28l0.78-2.76c0.53-1.87,0.25-3.87-0.78-5.52l-3.22,3.36l-7.52,6.47
	c0-3.06-0.74-6.07-2.14-8.79l-0.54-1.04c-0.35,3.33-1.92,6.41-4.42,8.63l-3.09,2.75l-0.36-0.77c-1.16-2.51-1.41-5.34-0.72-8.02
	l-0.68,0.55c-1.67,1.34-3.62,2.3-5.71,2.8c-2.16,0.52-4.4,0.54-6.57,0.06l-3.69-0.82c2.85-2.4,5.34-5.2,7.39-8.31l0.66-1
	c-2.23,0.31-4.4-0.88-5.35-2.93l-0.56-1.21l0.94,0.11c2.21,0.27,4.46,0.05,6.58-0.63l2.15-4.14l-4.83-4.14l4.23-1.02
	c2.78-0.67,5.14-2.49,6.48-5.01l17.76-33.28L589.33,71.51z"/>
<path class="st5" d="M586.23,122.51h20.15l21.44,17l1.5,3.5l-5.96-2.8c-1.69-0.79-3.25-1.82-4.65-3.04l-1.89-1.65v5.75v5.75l-8-12
	l-1.51,4.32c-1.31,3.75-3.35,7.21-5.99,10.18l-6.5-10.5l-0.7,1.76c-0.2,0.5-0.44,0.97-0.71,1.43l-1.09,1.81l-5-4.5l-3.5-3
	l-3.29,3.29c-0.81,0.81-1.69,1.53-2.64,2.17c-2.04,1.36-4.2,2.55-6.44,3.55l-1.13,0.5l1.5-7.5l-3.37,2.85
	c-2.08,1.76-4.39,3.23-6.86,4.36l-2.81,1.29l-1.97-10l-8.5,9.5l0.64-1l6.86-13.5L586.23,122.51z"/>
<path class="st2" d="M586.16,49.51l31.01,50.53c2.27,3.71,6.31,5.97,10.66,5.97l-5.5,4c3.28,6.75,10.52,10.63,17.96,9.64l0.83-0.11
	c0.09-0.01,0.17,0.08,0.13,0.17l-0.11,0.29c-1.48,3.85-4.45,6.94-8.24,8.56l-1.07,0.46l7,11.5h-6.76c-7,0-13.5-3.59-17.24-9.5v9.5
	l-6-7.35l-2.5,3.85l-5,9.5l-5-9.5l-2.5-6v1.26c0,3.14-0.51,6.26-1.5,9.24l-4.5-4.5l-4-3.85c-1.63,3.49-4.26,6.41-7.57,8.39
	l-4.93,2.96l0.61-1.21c1.57-3.15,2.39-6.62,2.39-10.14c-1.95,3.49-4.91,6.31-8.49,8.1l-6.51,3.26l-1-5l-1-5.5
	c-3.42,5.59-9.5,9-16.05,9h-2.45l0.88-2.21c1.4-3.51,3.3-6.81,5.62-9.79l-12-7.17l4.66-1.12c3.83-0.92,7.37-2.8,10.29-5.46
	l-7.44-4.05c5.91,0,11.37-3.19,14.26-8.35L586.16,49.51z"/>
<path class="st6" d="M586.3,77.51h15.67l13.5,19.5l2,3.5l-5.34-1.11c-4.28-0.89-8.08-3.35-10.66-6.89l0.13,0.67
	c0.91,4.86,1.1,9.82,0.55,14.74l-0.18,1.59l-6.07-3.37c-4.85-2.69-8.82-6.73-11.43-11.63l-2.89,3.45
	c-2.95,3.52-6.36,6.61-10.15,9.19l-3.45,2.36l-0.16-0.4c-1.85-4.63-2.32-9.71-1.34-14.6l-9.64,7l0.5-1l7.64-13L586.3,77.51z"/>
<path class="st7" d="M593.33,180.47h0.28c0.67,0,1.22,0.54,1.22,1.22c0,0.53-0.18,1.05-0.5,1.48l-1,1.31l-0.76-1.89
	c-0.16-0.4-0.24-0.83-0.24-1.26c0-0.47,0.38-0.85,0.85-0.85H593.33z"/>
<path class="st7" d="M574.49,203.88c-0.28,0.22-0.66,0.26-0.98,0.1l-0.2-0.1c-0.53-0.25-0.83-0.82-0.73-1.4l0.07-0.41
	c0.07-0.4,0.27-0.78,0.57-1.06l1.34-1.26l0.08,2.34c0,0.14,0.03,0.28,0.08,0.41l0.11,0.31C574.94,203.2,574.81,203.63,574.49,203.88
	z"/>
<path class="st2" d="M587.41,29.01l10.16,21.57c1.86,3.94,4.13,7.68,6.78,11.14l1.89,2.47c7.8,10.2,19.01,17.24,31.59,19.82l-18,3.5
	l4,5.5l5,6l-2.97,0.23c-9.96,0.79-19.61-3.66-25.49-11.73v8v8.5l-2.06-0.93c-5.85-2.65-10.73-7.04-13.98-12.57
	c-1.97,3.29-4.67,6.09-7.88,8.19l-8.12,5.31l-0.73-5.35c-0.51-3.73-0.26-7.52,0.73-11.15c-4.78,8.96-14.75,13.85-24.76,12.14
	l-3.74-0.64l13.5-11.5l-15.5-5.5c13.06-1.27,24.97-7.99,32.82-18.51l1.41-1.89c2.53-3.39,4.63-7.07,6.27-10.96L587.41,29.01z"/>
<path class="st3" d="M560.04,146.15l0.12,1.49c0.17,2.04,1.19,3.92,2.82,5.17l-3.11,1.53l0.07,0.1c1.02,1.35,2.21,2.57,3.53,3.62
	l0.37,0.29l-4.73-0.12l0.11,0.13c1.41,1.56,2.98,2.98,4.68,4.21l0.38,0.28l-6.04,0.15l1.25,3.14l-0.29-0.12
	c-1.68-0.67-3.23-1.61-4.58-2.8l-0.02,0.05c-1.22,2.36-3.33,4.14-5.86,4.95l2.75-6.91l-4.6-2.6l0.58-0.13
	c1.98-0.44,3.88-1.2,5.61-2.26l-3.52-2.49l6.4-0.72l-2.77-2.48c1.86-0.78,3.6-1.82,5.16-3.09L560.04,146.15z"/>
<path class="st3" d="M571.55,180.17l0.16,1.61c0.17,1.65,1.02,3.16,2.36,4.14l-2.45,1.65c0.89,1.18,1.94,2.24,3.11,3.14l0.17,0.13
	l-3.79,0.29c1.23,1.36,2.61,2.57,4.12,3.62l0.15,0.1l-4.84,0.65l1.08,2.73l-0.19-0.06c-1.39-0.47-2.68-1.2-3.79-2.15l-0.13,0.32
	c-0.85,2.06-2.44,3.74-4.46,4.69l2.04-6.47l-3.75-1.95l0.35-0.12c1.65-0.59,3.19-1.46,4.55-2.56l-2.88-1.94l5.12-1.2l-2.28-2
	c1.47-0.86,2.82-1.92,3.99-3.16L571.55,180.17z"/>
<path class="st3" d="M621.9,180.05l1.18,0.91c1.62,1.26,3.7,1.77,5.72,1.41l-0.97,3.33l0.12,0.01c1.68,0.16,3.38,0.1,5.05-0.16
	l0.46-0.07l-3.28,3.4l0.17,0c2.1,0.02,4.21-0.19,6.27-0.61l0.46-0.09l-2.76,3.87c1.95,0.95,3.52,2.52,4.48,4.46l1.02,2.06
	l-6.28-3.31l-0.02,0.63c-0.04,1.08-0.27,2.14-0.7,3.13l-0.26-0.09c-0.81-0.27-1.53-0.76-2.08-1.41l-2.66,2.5l-0.52-3.43l-5.03,1.64
	l0.3-0.51c1.01-1.76,1.73-3.67,2.12-5.66l-4.21,0.91l3.79-5.21l-3.7,0.37c0.68-1.9,1.09-3.88,1.2-5.89L621.9,180.05z"/>
<path class="st3" d="M586.8,142.67l0.22,0.37c1.54,2.58,4.05,4.44,6.97,5.18l-3.79,2.35l1.52,0.74c1.16,0.56,2.36,1.01,3.61,1.34
	l2.37,0.63l-6.86,1.22l2.16,0.87c1.43,0.58,2.91,1.05,4.42,1.4l2.92,0.68l-8.62,1.86l3.19,2.66l-0.66-0.04
	c-2.6-0.16-5.17-0.62-7.66-1.38c-0.71,2.62-2.56,4.78-5.03,5.9l-1.24,0.56l0.9-7.41l-7.78-1.19l1.22-0.45
	c2.37-0.88,4.6-2.09,6.63-3.6l-6.16-1.39l8.9-2.51l-5.09-1.59c2.33-1.27,4.48-2.87,6.37-4.74L586.8,142.67z"/>
<path class="st8" d="M573.56,110.01c1.22,3.07,3.85,5.36,7.06,6.14l1.21,0.3l-7.59,2.85l2.43,1.15c1.09,0.52,2.22,0.93,3.39,1.24
	l1.78,0.47l-7.09,1.12l3.27,1.33c1.42,0.58,2.8,1.26,4.12,2.05l1.19,0.71l-7.82,0.8l3.9,2.99l-2.18-0.28
	c-2.44-0.32-4.84-0.85-7.18-1.61l-1.21-0.39c-1.11,2.53-3.31,4.41-5.99,5.12l-2.55,0.67l1.71-7.29l-9.91-2l2.64-0.53
	c2.42-0.49,4.77-1.27,7-2.33l0.74-0.35l-7.82-2.03l11.62-1.56l-6.42-2.12l2.13-0.71c1.69-0.56,3.32-1.26,4.88-2.11L573.56,110.01z"
	/>
<path class="st8" d="M603.83,110.01c1.28,1.6,3.15,2.61,5.19,2.81l6.2,0.6l-4.32,3.26l2.89,0.47c1.03,0.17,2.08,0.26,3.12,0.26
	l4.01,0.02l-8.43,2.94l5.81,0.62l6.8-0.13l-10.52,4l4.57,1.8l-2.17,0.33c-2.43,0.37-4.89,0.51-7.35,0.43l-1.28-0.04
	c-0.37,2.74-1.97,5.16-4.34,6.57l-2.26,1.35l-0.37-7.48l-10.07,0.81l2.39-1.24c2.19-1.13,4.24-2.53,6.09-4.17l0.61-0.54l-0.1,0.02
	c-2.62,0.53-5.32,0.59-7.97,0.18l7-4.38c-1.32-0.99-2.44-2.23-3.29-3.64l-0.21-0.36l0.55-0.09c1.63-0.27,3.28-0.41,4.93-0.41h0.43
	L603.83,110.01z"/>
<path class="st3" d="M616.79,141.97l0.93,1.25c1.45,1.95,3.66,3.19,6.08,3.42l-2.26,3.33l0.61,0.23c1.54,0.58,3.14,0.96,4.77,1.15
	l1.09,0.12l-4.92,2.7l0.83,0.23c1.96,0.55,3.97,0.9,6,1.04l1.24,0.09l-6.09,3.74l8.05,5.63c-4.16,0.05-8.15-1.64-11.02-4.66
	l-2.11-2.23v1.44c0,3.9-3.16,7.06-7.06,7.06l2.42-4.24l-4.49-0.35l0.56-0.51c1.74-1.58,3.2-3.43,4.34-5.49l-5.09-0.3l6.12-4.51
	l-4.32-0.74c1.44-1.86,2.6-3.92,3.44-6.11L616.79,141.97z"/>
<path class="st8" d="M587.61,44.51l4.93,11.81c1.11,2.67,2.49,5.22,4.12,7.62c4.4,6.49,10.47,11.68,17.58,14.99l2.09,0.97
	l-12.18-1.73l2.04,3.17l4.64,4.32h-2.88c-5.55,0-10.72-2.82-13.73-7.48v4.6v4.89l-0.72-0.37c-3.2-1.63-5.8-4.22-7.46-7.4
	c-1,1.89-2.46,3.5-4.25,4.68l-4.68,3.09l-0.27-1.07c-0.88-3.44-0.78-7.05,0.27-10.44l-0.3,0.52c-3.17,5.54-9.11,8.92-15.49,8.83
	l6.5-7.33h-7.5l1.01-0.35c7.42-2.57,13.8-7.52,18.13-14.07c1.5-2.27,2.74-4.71,3.69-7.26L587.61,44.51z"/>
</svg>
