<?xml version="1.0" encoding="utf-8"?>
<!-- Generator: Adobe Illustrator 25.4.1, SVG Export Plug-In . SVG Version: 6.00 Build 0)  -->
<svg version="1.1" id="Layer_1" xmlns="http://www.w3.org/2000/svg" xmlns:xlink="http://www.w3.org/1999/xlink" x="0px" y="0px"
	 viewBox="0 0 1366 768" style="enable-background:new 0 0 1366 768;" xml:space="preserve">
<style type="text/css">
	.st0{fill:#FFF1E3;}
	.st1{fill:none;}
	.st2{fill:#FBE9D8;}
	.st3{fill:#45A817;}
</style>
<g>
	<path class="st0" d="M917.09,312.47L917.09,312.47c-2.26-7-9.79-11.1-16.83-9.15l-60.4,16.7c-7.04,1.95-10.92,9.2-8.66,16.2l0,0
		c2.26,7,9.79,11.1,16.83,9.15l60.4-16.7C915.47,326.72,919.35,319.47,917.09,312.47z"/>
	<path class="st1" d="M917.09,312.47L917.09,312.47c-2.26-7-9.79-11.1-16.83-9.15l-60.4,16.7c-7.04,1.95-10.92,9.2-8.66,16.2l0,0
		c2.26,7,9.79,11.1,16.83,9.15l60.4-16.7C915.47,326.72,919.35,319.47,917.09,312.47z"/>
	<path class="st0" d="M832.52,359.77c1.07-5.2-2.03-10.53-7.06-12.17L624.7,282.36c-5.32-1.73-10.8,1.31-12.15,6.75l-17.92,72.28
		c-1.53,6.15,2.89,12.45,9.13,13.01l213.28,19.27c4.83,0.44,9.09-2.78,10.08-7.59L832.52,359.77z"/>
	<path class="st1" d="M832.52,359.77c1.07-5.2-2.03-10.53-7.06-12.17L624.7,282.36c-5.32-1.73-10.8,1.31-12.15,6.75l-17.92,72.28
		c-1.53,6.15,2.89,12.45,9.13,13.01l213.28,19.27c4.83,0.44,9.09-2.78,10.08-7.59L832.52,359.77z"/>
	<path class="st0" d="M960.69,434.39L960.69,434.39c1.21-6.05-2.63-12.24-8.56-13.81l-78.18-20.69c-5.94-1.57-11.73,2.06-12.94,8.12
		l0,0c-1.21,6.05,2.63,12.24,8.56,13.81l78.18,20.69C953.69,444.08,959.48,440.45,960.69,434.39z"/>
	<path class="st0" d="M1001.98,388.11L1001.98,388.11c0.59-6.15-3.85-11.9-9.92-12.85l-79.88-12.52
		c-6.06-0.95-11.46,3.26-12.04,9.41v0c-0.59,6.15,3.85,11.9,9.92,12.85l79.88,12.52C996.01,398.47,1001.4,394.26,1001.98,388.11z"/>
	<path class="st1" d="M1001.98,388.11L1001.98,388.11c0.59-6.15-3.85-11.9-9.92-12.85l-79.88-12.52
		c-6.06-0.95-11.46,3.26-12.04,9.41v0c-0.59,6.15,3.85,11.9,9.92,12.85l79.88,12.52C996.01,398.47,1001.4,394.26,1001.98,388.11z"/>
	<path class="st0" d="M987.6,359.33L987.6,359.33c0.42-6.16-4.18-11.79-10.26-12.57l-80.2-10.31c-6.09-0.78-11.36,3.58-11.78,9.74
		l0,0c-0.42,6.16,4.18,11.79,10.26,12.57l80.2,10.31C981.91,369.85,987.18,365.49,987.6,359.33z"/>
	<path class="st1" d="M987.6,359.33L987.6,359.33c0.42-6.16-4.18-11.79-10.26-12.57l-80.2-10.31c-6.09-0.78-11.36,3.58-11.78,9.74
		l0,0c-0.42,6.16,4.18,11.79,10.26,12.57l80.2,10.31C981.91,369.85,987.18,365.49,987.6,359.33z"/>
	<path class="st0" d="M988.89,410.87L988.89,410.87c0.59-6.15-3.85-11.9-9.92-12.85l-79.88-12.52c-6.06-0.95-11.46,3.26-12.04,9.41
		v0c-0.59,6.15,3.85,11.9,9.92,12.85l79.88,12.52C982.91,421.23,988.3,417.02,988.89,410.87z"/>
	<path class="st1" d="M988.89,410.87L988.89,410.87c0.59-6.15-3.85-11.9-9.92-12.85l-79.88-12.52c-6.06-0.95-11.46,3.26-12.04,9.41
		v0c-0.59,6.15,3.85,11.9,9.92,12.85l79.88,12.52C982.91,421.23,988.3,417.02,988.89,410.87z"/>
	<path class="st0" d="M860.8,420.27c24.91,6.33,49.13-9.16,53.99-34.52c5.13-26.75-13.3-53.37-39.93-57.68l-28.79-4.66
		c-16.23-2.62-32.14,4.08-41.39,17.45c-7.95,11.49-9.92,26.55-5.36,40.4c5.17,15.72,17.99,27.95,33.61,31.92L860.8,420.27z"/>
</g>
<g>
	<g>
		<path class="st2" d="M885.52,323.22L885.52,323.22c-4.63-5.69-13.13-6.74-18.97-2.35l-50.23,37.75
			c-5.84,4.39-6.83,12.57-2.19,18.25l0,0c4.63,5.69,13.13,6.74,18.97,2.35l50.23-37.75C889.17,337.08,890.15,328.91,885.52,323.22z"
			/>
		<path class="st2" d="M823.87,398.31c-0.88-5.23-5.7-9.05-10.99-8.73l-210.52,12.96c-5.59,0.34-9.6,5.18-8.89,10.74l9.46,73.91
			c0.8,6.28,7.2,10.51,13.23,8.74l205.55-60.36c4.66-1.37,7.47-5.92,6.65-10.76L823.87,398.31z"/>
		<path class="st2" d="M970.22,420.75L970.22,420.75c-1.06-6.08-6.89-10.43-13-9.71l-80.22,9.43c-6.12,0.72-10.21,6.23-9.15,12.31
			l0,0c1.06,6.08,6.89,10.43,13,9.71l80.22-9.43C967.19,432.34,971.28,426.83,970.22,420.75z"/>
		<path class="st2" d="M991.93,362.49L991.93,362.49c-1.68-5.94-7.9-9.67-13.91-8.32l-78.87,17.66c-6,1.34-9.51,7.25-7.84,13.19v0
			c1.68,5.94,7.9,9.67,13.91,8.32l78.87-17.66C990.1,374.34,993.61,368.43,991.93,362.49z"/>
		<path class="st2" d="M968.13,340.97L968.13,340.97c-1.84-5.89-8.16-9.44-14.12-7.93l-78.37,19.84c-5.96,1.51-9.31,7.51-7.47,13.4
			l0,0c1.84,5.89,8.16,9.44,14.12,7.93l78.37-19.84C966.62,352.86,969.97,346.86,968.13,340.97z"/>
		<path class="st2" d="M987.96,388.49L987.96,388.49c-1.68-5.94-7.9-9.67-13.91-8.32l-78.87,17.66c-6,1.34-9.51,7.25-7.84,13.19v0
			c1.68,5.94,7.9,9.67,13.91,8.32l78.87-17.66C986.13,400.34,989.64,394.43,987.96,388.49z"/>
		<path class="st2" d="M871.96,444.29c25.55-3.26,42.57-26.58,37.92-51.98c-4.9-26.8-31.75-44.81-58.19-39.02l-28.24,6.18
			c-16.13,3.53-28.57,15.64-32.35,31.52c-3.25,13.6,0.36,28.3,9.59,39.51c10.52,12.76,26.94,19.45,42.98,17.4L871.96,444.29z"/>
	</g>
</g>
<path class="st3" d="M612.11,265.87l-208.4-39.71c-10.85-2.07-21.3,5.06-23.34,15.91l-13.91,74.11
	c-2.04,10.86,5.11,21.33,15.96,23.4l208.4,39.71c10.85,2.07,21.3-5.06,23.34-15.91l13.91-74.11
	C630.1,278.41,622.96,267.93,612.11,265.87z"/>
<path class="st3" d="M600.94,396.41L391.2,428.1c-10.92,1.65-18.46,11.84-16.83,22.77l11.1,74.6c1.63,10.93,11.8,18.44,22.72,16.79
	l209.74-31.69c10.92-1.65,18.46-11.84,16.83-22.77l-11.1-74.6C622.04,402.27,611.87,394.76,600.94,396.41z"/>
</svg>
