<?xml version="1.0" encoding="utf-8"?>
<!-- Generator: Adobe Illustrator 26.1.0, SVG Export Plug-In . SVG Version: 6.00 Build 0)  -->
<svg version="1.1" id="Layer_1" xmlns="http://www.w3.org/2000/svg" xmlns:xlink="http://www.w3.org/1999/xlink" x="0px" y="0px"
	 viewBox="0 0 612 792" style="enable-background:new 0 0 612 792;" xml:space="preserve">
<style type="text/css">
	.st0{fill:#E7E047;}
	.st1{fill:#EEA35D;}
	.st2{fill:#F3D1B0;}
	.st3{fill:#B8744C;}
	.st4{fill:#7FB3E1;}
	.st5{fill:#B8ACAC;}
	.st6{fill:#FAE8D8;}
	.st7{fill:none;stroke:#000000;stroke-width:0.1;}
	.st8{fill:#FAE8D8;stroke:#000000;stroke-width:0.1;}
	.st9{fill:#A8643E;}
	.st10{fill:none;stroke:#000000;stroke-width:0.2;}
	.st11{fill:#FFFFFF;}
	.st12{fill:#A4C1E5;}
	.st13{fill:none;stroke:#A8643E;stroke-width:0.2;}
	.st14{fill:none;stroke:#000000;stroke-width:0.2;stroke-linecap:round;}
	.st15{fill:#FDC58B;}
	.st16{fill:none;stroke:#E8B85C;stroke-width:0.2;}
	.st17{fill:none;stroke:#000000;stroke-width:0.1;stroke-linecap:round;}
</style>
<path class="st0" d="M566.07,642.92L566.07,642.92c-0.71,0-1.28,0.57-1.28,1.28v4.65c0,0.71,0.57,1.28,1.28,1.28l0,0
	c0.71,0,1.28-0.57,1.28-1.28v-4.65C567.35,643.49,566.78,642.92,566.07,642.92z"/>
<path class="st0" d="M564.24,646.08c-0.8,0.45-0.81,1.59-0.02,2.05c0.78,0.45,1.76-0.11,1.77-1.01
	C566,646.21,565.03,645.64,564.24,646.08z"/>
<rect x="180.73" y="298.52" class="st1" width="301.26" height="190.55"/>
<path class="st1" d="M481.99,489.07L433.72,303.8h96.53L481.99,489.07z"/>
<path class="st1" d="M180.73,489.07L132.46,303.8h96.53L180.73,489.07z"/>
<ellipse class="st2" cx="331.36" cy="303.04" rx="199.21" ry="46.7"/>
<ellipse class="st3" cx="330.6" cy="302.67" rx="187.91" ry="40.29"/>
<ellipse class="st4" cx="477.85" cy="299.27" rx="24.1" ry="9.04"/>
<ellipse transform="matrix(0.2419 -0.9703 0.9703 0.2419 -159.8219 424.1498)" class="st4" cx="191.53" cy="314.36" rx="15.82" ry="50.27"/>
<ellipse class="st4" cx="330.6" cy="309.07" rx="175.48" ry="33.89"/>
<ellipse transform="matrix(0.9703 -0.2419 0.2419 0.9703 -62.0943 122.9983)" class="st4" cx="469.82" cy="314.36" rx="50.27" ry="15.82"/>
<ellipse class="st4" cx="173.2" cy="301.16" rx="24.1" ry="9.04"/>
<ellipse class="st1" cx="331.36" cy="489.07" rx="150.63" ry="31.63"/>
<rect x="155.87" y="371.2" class="st5" width="350.97" height="22.59"/>
<rect x="177.72" y="457.44" class="st5" width="307.28" height="22.59"/>
<path class="st5" d="M484.8,480.26l-1.45-22.69l6.82,0.6L484.8,480.26z"/>
<path class="st5" d="M156.4,393.49l-5.37-22.09l6.82-0.6L156.4,393.49z"/>
<path class="st5" d="M507.01,393.49l-1.45-22.69l6.82,0.6L507.01,393.49z"/>
<path class="st5" d="M177.86,480.48l-5.4-22.4l6.82-0.6L177.86,480.48z"/>
<rect x="259.04" y="275.95" transform="matrix(0.9994 -0.0349 0.0349 0.9994 -9.756 10.2493)" class="st6" width="59.36" height="17.28"/>
<path class="st7" d="M290.24,287.46v5.02"/>
<path class="st7" d="M269.62,288.57v5.02"/>
<path class="st7" d="M309.75,287.46v5.02"/>
<ellipse transform="matrix(0.0698 -0.9976 0.9976 0.0698 -45.082 523.3649)" class="st6" cx="258.08" cy="285.85" rx="8.36" ry="1.25"/>
<ellipse transform="matrix(0.9945 -0.1045 0.1045 0.9945 -27.8714 34.9089)" class="st6" cx="319.12" cy="283.36" rx="1.25" ry="8.36"/>
<rect x="257.08" y="287.46" class="st6" width="3.9" height="6.69"/>
<rect x="276.5" y="271.84" transform="matrix(0.9976 -0.0698 0.0698 0.9976 -18.4835 20.7864)" class="st6" width="23.76" height="6.41"/>
<rect x="316.72" y="285.79" class="st6" width="3.9" height="6.69"/>
<ellipse transform="matrix(0.1392 -0.9903 0.9903 0.1392 -6.071 540.2801)" class="st6" cx="307.73" cy="273.63" rx="2.24" ry="10.87"/>
<ellipse transform="matrix(0.9781 -0.2079 0.2079 0.9781 -51.4518 61.9564)" class="st6" cx="269.01" cy="275.74" rx="10.87" ry="2.24"/>
<rect x="295.81" y="273.52" class="st6" width="11.98" height="3.9"/>
<ellipse transform="matrix(0.9455 -0.3256 0.3256 0.9455 -73.8083 105.8745)" class="st6" cx="279.44" cy="273.47" rx="9.61" ry="2.23"/>
<ellipse transform="matrix(0.9455 -0.3256 0.3256 0.9455 -73.8083 105.8745)" class="st6" cx="279.44" cy="273.47" rx="9.61" ry="2.23"/>
<ellipse transform="matrix(0.9455 -0.3256 0.3256 0.9455 -73.8083 105.8745)" class="st6" cx="279.44" cy="273.47" rx="9.61" ry="2.23"/>
<ellipse transform="matrix(0.2924 -0.9563 0.9563 0.2924 -49.8733 478.9489)" class="st6" cx="298.69" cy="273.17" rx="2.23" ry="9.61"/>
<ellipse transform="matrix(0.2924 -0.9563 0.9563 0.2924 -49.8733 478.9489)" class="st6" cx="298.69" cy="273.17" rx="2.23" ry="9.61"/>
<ellipse transform="matrix(0.2924 -0.9563 0.9563 0.2924 -49.8733 478.9489)" class="st6" cx="298.69" cy="273.17" rx="2.23" ry="9.61"/>
<rect x="272.69" y="273.52" class="st6" width="7.52" height="5.57"/>
<line class="st7" x1="285.87" y1="285.81" x2="273.05" y2="282.74"/>
<line class="st7" x1="296.26" y1="286.64" x2="306.57" y2="282.46"/>
<rect x="281.89" y="249.1" transform="matrix(0.9994 -0.0349 0.0349 0.9994 -8.9268 10.1973)" class="st6" width="11.5" height="23.41"/>
<path class="st8" d="M287.04,265.59c8.63,0,15.61-7.37,15.61-16.45c0-9.08-6.98-16.45-15.61-16.45c-8.63,0-15.61,7.37-15.61,16.45
	C271.43,258.21,278.41,265.59,287.04,265.59z"/>
<path class="st9" d="M301.67,242.03c0-2.66-1.53-5.21-4.24-7.09s-6.4-2.94-10.25-2.94s-7.53,1.06-10.25,2.94
	c-2.72,1.88-4.24,4.43-4.24,7.09h14.49H301.67z"/>
<path class="st10" d="M278.82,257.08l8.36,1.53l8.5-1.53"/>
<ellipse class="st11" cx="280.77" cy="248.59" rx="1.95" ry="0.7"/>
<circle class="st12" cx="280.77" cy="248.72" r="0.56"/>
<circle cx="280.77" cy="248.72" r="0.28"/>
<ellipse class="st11" cx="293.03" cy="248.86" rx="1.95" ry="0.7"/>
<circle class="st12" cx="293.03" cy="249" r="0.56"/>
<circle cx="293.03" cy="249" r="0.28"/>
<path class="st13" d="M291.08,248.03l2.09-0.42l2.09,0.42"/>
<path class="st13" d="M278.4,247.61l2.09-0.42l2.09,0.42"/>
<path class="st14" d="M287.66,252.83c-0.04-0.19-0.08-0.43-0.23-0.57c-0.06-0.06-0.1-0.15-0.17-0.21c-0.11-0.09-0.27-0.13-0.4-0.21
	c-0.18-0.11-0.47-0.09-0.67-0.09c-0.22,0-0.3,0.24-0.31,0.45c-0.02,0.46,0.21,0.88,0.21,1.35c0,0.17,0.03,0.41-0.05,0.56
	c-0.1,0.18-0.29,0.21-0.4,0.35c-0.16,0.21-0.6,0.23-0.67,0.51c-0.05,0.19-0.22,0.57,0.08,0.66c0.29,0.09,0.56,0.24,0.87,0.24
	c0.24,0,0.45-0.02,0.68-0.07c0.05-0.01,0.14-0.07,0.19-0.09c0.15-0.07,0.18,0.11,0.24,0.19c0.1,0.12,0.42,0.11,0.56,0.11
	c0.18,0,0.36-0.03,0.52-0.14c0.11-0.08,0.25-0.29,0.28-0.43c0.04-0.26,0.03-0.6-0.09-0.84c-0.04-0.09-0.13-0.13-0.2-0.21
	c-0.14-0.15-0.18-0.39-0.25-0.58c-0.08-0.25-0.12-0.49-0.18-0.74c-0.08-0.3-0.05-0.58-0.22-0.86"/>
<rect x="362.32" y="255.38" transform="matrix(0.0349 -0.9994 0.9994 0.0349 73.1341 645.8397)" class="st6" width="17.28" height="59.36"/>
<path class="st7" d="M372.28,288.02l-0.35,5"/>
<path class="st7" d="M351.64,287.7l-0.35,5"/>
<path class="st7" d="M391.74,289.38l-0.35,5"/>
<ellipse transform="matrix(0.1392 -0.9903 0.9903 0.1392 11.5375 581.6279)" class="st6" cx="340.31" cy="284.18" rx="8.36" ry="1.25"/>
<ellipse transform="matrix(0.9994 -0.0349 0.0349 0.9994 -9.7352 14.1819)" class="st6" cx="401.37" cy="285.95" rx="1.25" ry="8.36"/>
<rect x="337.57" y="287.23" transform="matrix(0.0698 -0.9976 0.9976 0.0698 28.6584 609.0947)" class="st6" width="6.69" height="3.9"/>
<rect x="359.42" y="272.3" class="st6" width="23.76" height="6.41"/>
<rect x="397.18" y="289.72" transform="matrix(0.0698 -0.9976 0.9976 0.0698 81.6203 670.8745)" class="st6" width="6.69" height="3.9"/>
<ellipse transform="matrix(0.2079 -0.9781 0.9781 0.2079 40.0298 600.3315)" class="st6" cx="390.69" cy="275.45" rx="2.24" ry="10.87"/>
<ellipse transform="matrix(0.9903 -0.1392 0.1392 0.9903 -34.8281 51.6533)" class="st6" cx="351.92" cy="274.86" rx="10.87" ry="2.24"/>
<rect x="382.71" y="270.88" transform="matrix(0.0698 -0.9976 0.9976 0.0698 81.6222 641.2817)" class="st6" width="3.9" height="11.98"/>
<ellipse transform="matrix(0.9659 -0.2588 0.2588 0.9659 -58.3873 103.13)" class="st6" cx="362.48" cy="273.31" rx="9.61" ry="2.23"/>
<ellipse transform="matrix(0.9659 -0.2588 0.2588 0.9659 -58.3873 103.13)" class="st6" cx="362.48" cy="273.31" rx="9.61" ry="2.23"/>
<ellipse transform="matrix(0.9659 -0.2588 0.2588 0.9659 -58.3873 103.13)" class="st6" cx="362.48" cy="273.31" rx="9.61" ry="2.23"/>
<ellipse transform="matrix(0.3584 -0.9336 0.9336 0.3584 -11.2199 532.399)" class="st6" cx="381.71" cy="274.36" rx="2.23" ry="9.61"/>
<ellipse transform="matrix(0.3584 -0.9336 0.9336 0.3584 -11.2199 532.399)" class="st6" cx="381.71" cy="274.36" rx="2.23" ry="9.61"/>
<ellipse transform="matrix(0.3584 -0.9336 0.9336 0.3584 -11.2199 532.399)" class="st6" cx="381.71" cy="274.36" rx="2.23" ry="9.61"/>
<rect x="356.52" y="272.18" transform="matrix(0.0698 -0.9976 0.9976 0.0698 58.969 615.1194)" class="st6" width="5.57" height="7.52"/>
<line class="st7" x1="368.92" y1="283.74" x2="356.34" y2="279.79"/>
<line class="st7" x1="378.09" y1="284.1" x2="388.67" y2="280.65"/>
<rect x="359.84" y="255.51" transform="matrix(0.0349 -0.9994 0.9994 0.0349 97.4826 623.4585)" class="st6" width="23.41" height="11.5"/>
<path class="st8" d="M370.61,265.98c8.61,0.6,16.09-6.26,16.72-15.32c0.63-9.05-5.82-16.89-14.43-17.5
	c-8.61-0.6-16.09,6.26-16.72,15.32C355.55,257.54,362,265.38,370.61,265.98z"/>
<path class="st15" d="M386.85,243.51c0.19-2.65-1.16-5.31-3.74-7.37c-2.58-2.07-6.18-3.38-10.02-3.65
	c-3.83-0.27-7.58,0.53-10.43,2.22c-2.84,1.69-4.54,4.13-4.73,6.78l14.46,1.01L386.85,243.51z"/>
<path class="st10" d="M363.01,256.93l8.23,2.11l8.59-0.94"/>
<ellipse transform="matrix(0.0698 -0.9976 0.9976 0.0698 92.0707 595.8947)" class="st11" cx="365.54" cy="248.58" rx="0.7" ry="1.95"/>
<ellipse transform="matrix(0.0698 -0.9976 0.9976 0.0698 91.9226 596.0149)" class="st12" cx="365.54" cy="248.72" rx="0.56" ry="0.56"/>
<circle cx="365.53" cy="248.72" r="0.28"/>
<ellipse transform="matrix(0.0698 -0.9976 0.9976 0.0698 102.299 609.1317)" class="st11" cx="377.76" cy="249.71" rx="0.7" ry="1.95"/>
<ellipse transform="matrix(0.0698 -0.9976 0.9976 0.0698 102.151 609.252)" class="st12" cx="377.75" cy="249.85" rx="0.56" ry="0.56"/>
<circle cx="377.75" cy="249.85" r="0.28"/>
<path class="st16" d="M375.87,248.75l2.11-0.27l2.06,0.56"/>
<path class="st16" d="M363.25,247.44l2.11-0.27l2.06,0.56"/>
<path class="st17" d="M372.13,253.3c-0.02-0.19-0.05-0.43-0.19-0.59c-0.06-0.07-0.09-0.16-0.16-0.22c-0.11-0.1-0.26-0.15-0.38-0.24
	c-0.17-0.12-0.46-0.12-0.66-0.13c-0.22-0.02-0.31,0.22-0.34,0.42c-0.05,0.46,0.15,0.89,0.11,1.36c-0.01,0.17,0,0.41-0.09,0.55
	c-0.11,0.17-0.3,0.19-0.42,0.32c-0.18,0.19-0.62,0.19-0.7,0.46c-0.06,0.18-0.26,0.55,0.03,0.67c0.28,0.11,0.55,0.27,0.85,0.3
	c0.24,0.02,0.45,0.01,0.68-0.02c0.05-0.01,0.14-0.06,0.2-0.08c0.16-0.06,0.17,0.12,0.23,0.21c0.09,0.13,0.41,0.14,0.55,0.15
	c0.18,0.01,0.37,0,0.52-0.1c0.12-0.07,0.27-0.27,0.31-0.41c0.06-0.26,0.07-0.6-0.03-0.84c-0.04-0.09-0.12-0.14-0.18-0.22
	c-0.13-0.16-0.16-0.4-0.21-0.59c-0.06-0.25-0.08-0.5-0.13-0.75c-0.06-0.31-0.01-0.58-0.16-0.88"/>
</svg>
