<?xml version="1.0" encoding="utf-8"?>
<!-- Generator: Adobe Illustrator 26.1.0, SVG Export Plug-In . SVG Version: 6.00 Build 0)  -->
<svg version="1.1" id="Layer_1" xmlns="http://www.w3.org/2000/svg" xmlns:xlink="http://www.w3.org/1999/xlink" x="0px" y="0px"
	 viewBox="0 0 612 792" style="enable-background:new 0 0 612 792;" xml:space="preserve">
<style type="text/css">
	.st0{fill:#DD944F;}
	.st1{fill:#BA6A3B;}
	.st2{fill:#EDEAE6;}
	.st3{fill:#EEEAE9;}
	.st4{fill:#040504;}
	.st5{fill:#EDEAE9;}
	.st6{fill:#E8B85C;}
	.st7{fill:#CF7D2E;}
	.st8{fill:#BD5D2E;}
	.st9{fill:#0D0C0C;}
	.st10{fill:#A53A23;fill-opacity:0.65;}
	.st11{fill:#D7904F;}
	.st12{fill:#BA6A3B;stroke:#000000;stroke-width:0.1;}
</style>
<path class="st0" d="M430.98,515.09c19.16-8.55,24.13-0.47-3.12-34.47c-6.22-32.96-15.42-81.76-44.09-60.91
	c-13.31,5.79-30.86,45.42-5.05,65.25C404.54,504.79,417.35,515.09,430.98,515.09z"/>
<path class="st0" d="M154.36,379.85c3.86-6.65,9.57-12.02,16.43-15.47c7.57-3.8,16.16-5.06,24.5-3.6l29.01,5.08l36.11,7.42
	c6.3,1.3,12.75,1.74,19.17,1.33l33.13-2.13c23.68-1.52,43.72,17.27,43.72,41v31.96c0,19.01-21.13,30.39-37,19.93
	c-5.89-3.88-13.19-4.96-19.95-2.94L190.1,495c-29.69,8.84-60.74-8.91-68.18-38.98c-2.25-9.11-0.88-18.74,3.83-26.85L154.36,379.85z"
	/>
<path class="st1" d="M124.97,282.78l-11.25,17.57l-42.17-11.42l12.49,29.29l-36.23,20.5l28.74,29.29l-24.99,19.33l29.36,4.98v4.69
	l-14.06,25.77l36.86,7.32l14.68,32.8l27.49-32.8l42.48,32.8l16.24-32.8l41.23-14.94l-25.3-32.51l25.3-30.17l-32.17-17.28
	l19.37-30.46l-44.67,6.44v-28.41l-27.18,6.15l-15.31-18.45l-9.68,29.87L124.97,282.78z"/>
<path class="st0" d="M195.41,354.74c11.57,23.49-22.15,57.79-48.49,57.79s-58.58-32.04-48.49-57.79c0-22.84,21.71-30.07,48.49-30.07
	S195.41,331.9,195.41,354.74z"/>
<path class="st2" d="M177.76,396.45c0,9.39-21.87,16.35-31.19,16.07c-11.61-0.34-30.66-6.19-30.66-16.07
	c0-9.88,14.89-17.89,31.86-17.89C164.73,378.56,177.76,387.06,177.76,396.45z"/>
<path class="st2" d="M156.21,391.74c0,0.49-0.42,0.88-0.94,0.88c-0.52,0-0.94-0.39-0.94-0.88c0-0.49,0.42-0.88,0.94-0.88
	C155.79,390.86,156.21,391.25,156.21,391.74z"/>
<path class="st0" d="M166.44,322.21c9.65,2.62,11.71,15.78,8.38,25.22c-5.37,15.22-18.94,19.41-28.42,19.41
	c-10.93,0-23.26-6.83-27.61-22.14c-2.28-8.01-1.4-18.58,6.18-22.04c2.5-1.14,5.17-1.11,7.89-0.54c9.14,1.89,17.84,1.5,27.04-0.08
	C162.09,321.66,164.28,321.62,166.44,322.21z"/>
<path class="st3" d="M129.33,352.59c-1.61,0.12-3.14,0.66-4.45,1.55c-1.3,0.89-2.31,2.1-2.93,3.5c-0.61,1.4-0.8,2.93-0.55,4.42
	c0.26,1.49,0.95,2.89,1.99,4.04s2.42,2,3.95,2.47c1.53,0.47,3.17,0.52,4.74,0.17c1.57-0.35,3-1.11,4.14-2.18
	c1.14-1.07,1.94-2.41,2.32-3.88l-8.5-1.92L129.33,352.59z"/>
<ellipse class="st4" cx="130.28" cy="360.98" rx="3.75" ry="3.51"/>
<ellipse class="st5" cx="128.41" cy="359.23" rx="1.87" ry="1.76"/>
<path class="st6" d="M136.53,360.98c0,3.23-2.8,5.86-6.25,5.86c-3.45,0-6.25-2.62-6.25-5.86c0-3.24,2.8-5.86,6.25-5.86
	C133.73,355.12,136.53,357.75,136.53,360.98z M126.5,360.98c0,1.96,1.69,3.54,3.78,3.54s3.78-1.59,3.78-3.54
	c0-1.96-1.69-3.54-3.78-3.54S126.5,359.03,126.5,360.98z"/>
<path class="st3" d="M154.42,361.14c0.07,1.51,0.59,2.97,1.49,4.22c0.9,1.25,2.16,2.24,3.62,2.87c1.47,0.63,3.09,0.86,4.69,0.67
	c1.6-0.18,3.11-0.78,4.37-1.72c1.26-0.94,2.22-2.19,2.77-3.61c0.55-1.42,0.67-2.95,0.35-4.44c-0.32-1.48-1.07-2.85-2.17-3.96
	c-1.1-1.11-2.5-1.91-4.05-2.31l-2.35,7.9L154.42,361.14z"/>
<ellipse class="st4" cx="163.39" cy="360.4" rx="3.75" ry="3.51"/>
<ellipse class="st5" cx="160.89" cy="359.23" rx="1.87" ry="1.76"/>
<path class="st6" d="M169.64,360.39c0,3.24-2.8,5.86-6.25,5.86s-6.25-2.62-6.25-5.86c0-3.23,2.8-5.86,6.25-5.86
	S169.64,357.16,169.64,360.39z M159.61,360.39c0,1.96,1.69,3.54,3.78,3.54s3.78-1.59,3.78-3.54c0-1.96-1.69-3.54-3.78-3.54
	S159.61,358.44,159.61,360.39z"/>
<path class="st7" d="M158.39,371.64c-1.57,16.71-5.09,18.33-11.3,18.33c-6.21,0-10.64-3.07-11.19-18.33
	c0-12.88,4.98-16.52,11.19-16.52C153.3,355.13,158.39,358.76,158.39,371.64z"/>
<path class="st8" d="M155.27,385.29c0,2.75-3.72,4.69-8.12,4.69c-4.4,0-8.12-1.94-8.12-4.69c0-3.81,3.72-5.56,8.12-5.56
	C151.55,379.73,155.27,381.19,155.27,385.29z"/>
<path class="st9" d="M155.27,385.65c0,2.3-3.52,4.32-7.82,4.32c-4.31,0-8.42-2.02-8.42-4.32s4.12-4.17,8.42-4.17
	C151.75,381.48,155.27,383.35,155.27,385.65z"/>
<path d="M146.88,396.92c-1.15,1.92-2.84,3.52-4.88,4.63s-4.36,1.67-6.7,1.64c-2.35-0.03-4.63-0.66-6.62-1.81
	c-1.98-1.16-3.59-2.8-4.64-4.75l2.08-1c0.86,1.6,2.18,2.95,3.81,3.9c1.63,0.95,3.5,1.46,5.42,1.49s3.82-0.44,5.5-1.34
	c2.6-0.94,3.8-8.22,3.8-10.27h2.5L146.88,396.92z"/>
<path d="M146.81,397.17c1.15,1.92,2.84,3.52,4.88,4.63c2.04,1.1,4.36,1.67,6.7,1.64c2.35-0.03,4.63-0.66,6.62-1.81
	c1.98-1.16,3.69-2.53,4.94-4.58l-1.87-1.17c-0.87,1.6-2.69,2.95-4.32,3.89c-1.63,0.95-3.5,1.46-5.42,1.49
	c-1.92,0.03-3.82-0.44-5.5-1.34c-2.6-0.94-3.8-8.22-3.8-10.27h-2.5L146.81,397.17z"/>
<path d="M131.53,389.39c0,0.49-0.42,0.88-0.94,0.88c-0.52,0-0.94-0.39-0.94-0.88c0-0.49,0.42-0.88,0.94-0.88
	C131.11,388.51,131.53,388.91,131.53,389.39z"/>
<path d="M134.34,395.25c0,0.49-0.42,0.88-0.94,0.88c-0.52,0-0.94-0.39-0.94-0.88c0-0.49,0.42-0.88,0.94-0.88
	C133.92,394.37,134.34,394.76,134.34,395.25z"/>
<path d="M139.03,391.73c0,0.49-0.42,0.88-0.94,0.88c-0.52,0-0.94-0.39-0.94-0.88c0-0.49,0.42-0.88,0.94-0.88
	C138.61,390.86,139.03,391.25,139.03,391.73z"/>
<path d="M160.89,395.25c0,0.49-0.42,0.88-0.94,0.88c-0.52,0-0.94-0.39-0.94-0.88c0-0.49,0.42-0.88,0.94-0.88
	C160.47,394.37,160.89,394.76,160.89,395.25z"/>
<path d="M163.39,390.56c0,0.49-0.42,0.88-0.94,0.88c-0.52,0-0.94-0.39-0.94-0.88c0-0.49,0.42-0.88,0.94-0.88
	C162.97,389.68,163.39,390.08,163.39,390.56z"/>
<path d="M155.89,391.73c0,0.49-0.42,0.88-0.94,0.88c-0.52,0-0.94-0.39-0.94-0.88c0-0.49,0.42-0.88,0.94-0.88
	C155.48,390.86,155.89,391.25,155.89,391.73z"/>
<path class="st8" d="M157.55,341.16c-0.07,0.79-0.24,1.48-0.5,2.06c-1.7,3.8-7.21,1.54-6.86-2.6c0.3-3.61-2.09-6.73,2.59-6.39
	C155.71,334.45,157.85,337.55,157.55,341.16z"/>
<path class="st10" d="M135.99,338.59c0.09-0.79,0.28-1.47,0.55-2.05c1.79-3.76,7.24-1.37,6.79,2.75c-0.39,3.6,1.91,6.77-2.76,6.32
	C137.65,345.33,135.6,342.19,135.99,338.59z"/>
<path class="st0" d="M412.66,425.71c0,35.91-22.8,65.02-50.92,65.02c-28.12,0-50.92-29.11-50.92-65.02c0-35.91,0-53.3,50.92-60.04
	C389.86,365.67,412.66,389.8,412.66,425.71z"/>
<path class="st0" d="M444.84,343.41c7.82,1.32,13.74,2.07,18.69,3.12c18.74,3.98,29.98,26.05,20.03,42.25
	c-2.43,3.95-5.74,7.49-9.91,10.5c-12.38,8.94-31.23,12.46-52.41,9.79c-21.18-2.67-0.37,8.5-17.95-4.22v-5.58
	c16.29,11.79-2.7,3.1,16.94,5.58c19.63,2.47,35.76-5.56,47.23-13.85c2.01-1.45,3.71-2.88,5.13-4.33
	c13.02-13.25-1.39-34.47-19.61-37.87c-2.36-0.44-5.04-0.95-8.13-1.6V343.41z"/>
<path class="st1" d="M417.15,346.71l19.28-8.24c4.72-2.02,10.07,1.26,10.43,6.4c0.36,5.14-4.47,9.05-9.44,7.63L417.15,346.71z"/>
<path class="st11" d="M329.57,509.47c-18.43-11.13-39.06-75-32.49-88.74c0-29.57,61.85-82.88,104.64-36.32
	c29.05,25.19-4.68,66.78-29.36,107.19C384.19,514.22,372.65,535.49,329.57,509.47z"/>
<path class="st0" d="M447.65,532.9c0,16.5-0.52,29.87-8,29.87c-7.48,0-6.46-16.72-12.62-29.87c-5.62-22.55-7.81-35.15,12.62-29.87
	C447.12,503.03,447.65,503.03,447.65,532.9z"/>
<path class="st11" d="M372.14,540.65c-7.29,19.05-18.99,32.54-26.14,30.13c-7.14-2.4,1.44-21.89,1.38-39.05
	c4.06-23.14,17.88-32.32,25.02-29.92C379.55,504.22,379.43,521.61,372.14,540.65z"/>
<path class="st12" d="M448.12,557.29c-0.03,3.38-2.23,6.45-5.73,8.7c-3.52,2.26-8.33,3.66-13.48,3.66c-5.15,0-9.8-1.4-13.17-3.66
	c-3.36-2.26-5.42-5.37-5.42-8.78c0-3.4,2.04-5.77,5.4-7.3c3.35-1.53,8-2.21,13.15-2.21c2.85,1.62,5.21,2.47,7.52,3.29
	c0.6,0.21,1.2,0.43,1.8,0.65C441.08,552.73,444.1,554.11,448.12,557.29z"/>
<path class="st12" d="M358.42,562.63c-0.03,3.38-2.08,6.46-5.42,8.7c-3.36,2.26-8.02,3.66-13.17,3.66c-5.15,0-9.8-1.4-13.17-3.66
	c-3.36-2.26-5.42-5.37-5.42-8.78c0-3.41,2.06-6.52,5.42-8.78c3.36-2.26,8.02-3.66,13.17-3.66c2.57,0,4.55,0.4,6.18,1.09
	c1.63,0.69,2.93,1.68,4.15,2.86c0.91,0.89,1.78,1.88,2.7,2.94c0.31,0.36,0.63,0.72,0.96,1.09
	C355.11,559.56,356.56,561.1,358.42,562.63z"/>
<path class="st0" d="M162.14,514.74c0,30.09,0.29,54.48-11.23,54.48s-16.26-24.39-16.26-54.48c0-35.44,4.74-41.3,16.26-41.3
	S162.14,484.66,162.14,514.74z"/>
<path class="st0" d="M211.5,496.88c0,30.09,0.29,54.48-11.23,54.48c-9.91,0-17.12-18.06-18.93-42.26
	c-0.61-8.1,0.32-16.25,1.95-24.21c4.31-20.99,7.16-29.3,16.98-29.3C211.78,455.58,211.5,466.79,211.5,496.88z"/>
<path class="st12" d="M156.99,562.56c-0.03,3.38-2.08,6.46-5.42,8.7c-3.36,2.26-8.02,3.66-13.17,3.66c-5.15,0-9.8-1.4-13.17-3.66
	c-3.36-2.26-5.42-5.37-5.42-8.78c0-3.41,2.06-6.52,5.42-8.78c3.36-2.26,8.02-3.66,13.17-3.66c2.57,0,4.55,0.4,6.18,1.09
	c1.63,0.69,2.93,1.68,4.15,2.86c0.91,0.89,1.78,1.88,2.7,2.94c0.31,0.36,0.63,0.72,0.96,1.09
	C153.68,559.48,155.13,561.03,156.99,562.56z"/>
<path class="st12" d="M205.72,546.74c-0.03,2.73-1.87,5.22-4.87,7.04c-3.02,1.84-7.21,2.98-11.85,2.98c-4.63,0-8.82-1.14-11.85-2.98
	c-3.03-1.84-4.87-4.36-4.87-7.12s1.84-5.28,4.87-7.12c3.02-1.84,7.21-2.98,11.85-2.98c2.31,0,4.09,0.33,5.56,0.89
	c1.47,0.56,2.64,1.36,3.73,2.32c0.82,0.72,1.6,1.53,2.43,2.39c0.28,0.29,0.57,0.59,0.86,0.89
	C202.75,544.25,204.05,545.5,205.72,546.74z"/>
</svg>
