<?xml version="1.0" encoding="utf-8"?>
<!-- Generator: Adobe Illustrator 26.1.0, SVG Export Plug-In . SVG Version: 6.00 Build 0)  -->
<svg version="1.1" id="Layer_1" xmlns="http://www.w3.org/2000/svg" xmlns:xlink="http://www.w3.org/1999/xlink" x="0px" y="0px"
	 viewBox="0 0 612 792" style="enable-background:new 0 0 612 792;" xml:space="preserve">
<style type="text/css">
	.st0{fill:#DD944F;}
	.st1{fill:#BA6A3B;}
	.st2{fill:#EDEAE6;}
	.st3{fill:#EEEAE9;}
	.st4{fill:#040504;}
	.st5{fill:#EDEAE9;}
	.st6{fill:#E8B85C;}
	.st7{fill:#CF7D2E;}
	.st8{fill:#BD5D2E;}
	.st9{fill:#0D0C0C;}
	.st10{fill:#A53A23;fill-opacity:0.65;}
	.st11{fill:#D7904F;}
	.st12{fill:#BA6A3B;stroke:#000000;stroke-width:0.1;}
	.st13{fill:none;stroke:#000000;stroke-width:0.5;}
</style>
<path class="st0" d="M277.35,454.91c6.17-2.75,7.77-0.15-1.01-11.1c-2-10.61-4.96-26.33-14.2-19.61
	c-4.29,1.87-9.94,14.63-1.62,21.01C268.84,451.59,272.96,454.91,277.35,454.91z"/>
<path class="st0" d="M188.28,411.36c1.24-2.14,3.08-3.87,5.29-4.98l0,0c2.44-1.22,5.2-1.63,7.89-1.16l9.34,1.63l11.63,2.39
	c2.03,0.42,4.11,0.56,6.17,0.43l12.23-0.79c6.78-0.44,12.52,4.95,12.52,11.74v9.66c0,6.39-7.54,9.79-12.33,5.55l0,0
	c-1.9-1.68-4.53-2.27-6.97-1.57l-22.08,6.37l-12.55,5.5c-8.98,3.93-19.34-1.17-21.7-10.69l0,0c-0.66-2.65-0.26-5.46,1.11-7.82
	L188.28,411.36z"/>
<path class="st1" d="M178.81,380.1l-3.62,5.66l-13.58-3.68l4.02,9.43l-11.67,6.6l9.25,9.43l-8.05,6.22l9.46,1.6v1.51l-4.53,8.3
	l11.87,2.36l4.73,10.56l8.85-10.56l13.68,10.56l5.23-10.56l13.28-4.81l-8.15-10.47l8.15-9.71l-10.36-5.56l6.24-9.81l-14.38,2.07
	v-9.15l-8.75,1.98l-4.93-5.94l-3.12,9.62L178.81,380.1z"/>
<path class="st0" d="M201.5,403.27c3.73,7.57-7.13,18.61-15.61,18.61c-8.48,0-18.86-10.32-15.61-18.61c0-7.35,6.99-9.68,15.61-9.68
	C194.51,393.59,201.5,395.92,201.5,403.27z"/>
<path class="st2" d="M195.81,416.7c0,3.02-7.04,5.26-10.04,5.18c-3.74-0.11-9.87-1.99-9.87-5.18c0-3.18,4.79-5.76,10.26-5.76
	C191.62,410.94,195.81,413.68,195.81,416.7z"/>
<path class="st2" d="M188.87,415.18c0,0.16-0.14,0.28-0.3,0.28c-0.17,0-0.3-0.13-0.3-0.28c0-0.16,0.14-0.28,0.3-0.28
	C188.74,414.9,188.87,415.03,188.87,415.18z"/>
<path class="st0" d="M192.17,392.8c3.11,0.85,3.77,5.08,2.7,8.12c-1.73,4.9-6.1,6.25-9.15,6.25c-3.52,0-7.49-2.2-8.89-7.13
	c-0.73-2.58-0.45-5.98,1.99-7.1c0.81-0.37,1.66-0.36,2.54-0.17c2.94,0.61,5.75,0.48,8.71-0.03
	C190.76,392.62,191.47,392.61,192.17,392.8z"/>
<path class="st3" d="M180.21,402.58c-0.52,0.04-1.01,0.21-1.43,0.5c-0.42,0.29-0.74,0.68-0.94,1.13c-0.2,0.45-0.26,0.94-0.18,1.42
	c0.08,0.48,0.3,0.93,0.64,1.3c0.34,0.37,0.78,0.64,1.27,0.79c0.49,0.15,1.02,0.17,1.53,0.05c0.5-0.11,0.97-0.36,1.33-0.7
	c0.37-0.34,0.63-0.78,0.75-1.25l-2.74-0.62L180.21,402.58z"/>
<ellipse class="st4" cx="180.52" cy="405.28" rx="1.21" ry="1.13"/>
<ellipse class="st5" cx="179.92" cy="404.71" rx="0.6" ry="0.57"/>
<path class="st6" d="M182.53,405.28c0,1.04-0.9,1.89-2.01,1.89s-2.01-0.84-2.01-1.89c0-1.04,0.9-1.89,2.01-1.89
	S182.53,404.24,182.53,405.28z M179.31,405.28c0,0.63,0.54,1.14,1.22,1.14c0.67,0,1.22-0.51,1.22-1.14c0-0.63-0.54-1.14-1.22-1.14
	C179.85,404.14,179.31,404.65,179.31,405.28z"/>
<path class="st3" d="M188.3,405.33c0.02,0.49,0.19,0.96,0.48,1.36c0.29,0.4,0.69,0.72,1.17,0.92c0.47,0.2,1,0.28,1.51,0.22
	c0.52-0.06,1-0.25,1.41-0.55c0.41-0.3,0.72-0.71,0.89-1.16c0.18-0.46,0.22-0.95,0.11-1.43s-0.34-0.92-0.7-1.27
	c-0.35-0.36-0.8-0.61-1.3-0.75l-0.76,2.54L188.3,405.33z"/>
<ellipse class="st4" cx="191.18" cy="405.09" rx="1.21" ry="1.13"/>
<ellipse class="st5" cx="190.38" cy="404.71" rx="0.6" ry="0.57"/>
<path class="st6" d="M193.2,405.09c0,1.04-0.9,1.89-2.01,1.89s-2.01-0.84-2.01-1.89c0-1.04,0.9-1.89,2.01-1.89
	S193.2,404.05,193.2,405.09z M189.97,405.09c0,0.63,0.54,1.14,1.22,1.14c0.67,0,1.22-0.51,1.22-1.14c0-0.63-0.54-1.14-1.22-1.14
	C190.51,403.95,189.97,404.46,189.97,405.09z"/>
<path class="st7" d="M189.57,408.71c-0.51,5.38-1.64,5.9-3.64,5.9c-2,0-3.43-0.99-3.6-5.9c0-4.15,1.6-5.32,3.6-5.32
	C187.94,403.39,189.57,404.57,189.57,408.71z"/>
<path class="st8" d="M188.57,413.11c0,0.89-1.2,1.51-2.62,1.51c-1.42,0-2.62-0.62-2.62-1.51c0-1.23,1.2-1.79,2.62-1.79
	C187.37,411.32,188.57,411.79,188.57,413.11z"/>
<path class="st9" d="M188.57,413.23c0,0.74-1.13,1.39-2.52,1.39c-1.39,0-2.71-0.65-2.71-1.39s1.33-1.34,2.71-1.34
	C187.44,411.88,188.57,412.48,188.57,413.23z"/>
<path d="M185.47,416.62c0.37,0.62,0.91,1.13,1.57,1.49c0.66,0.36,1.4,0.54,2.16,0.53s1.49-0.21,2.13-0.58
	c0.64-0.37,1.19-0.81,1.59-1.47l-0.6-0.38c-0.28,0.52-0.87,0.95-1.39,1.25c-0.52,0.31-1.13,0.47-1.75,0.48
	c-0.62,0.01-1.23-0.14-1.77-0.43c-0.84-0.3-1.22-2.65-1.22-3.31h-0.8L185.47,416.62z"/>
<path d="M185.87,416.85c-0.37,0.62-0.91,1.13-1.57,1.49c-0.66,0.36-1.4,0.54-2.16,0.53c-0.76-0.01-1.49-0.21-2.13-0.58
	s-1.16-0.9-1.5-1.53l0.67-0.32c0.28,0.52,0.7,0.95,1.23,1.25c0.52,0.31,1.13,0.47,1.75,0.48c0.62,0.01,1.23-0.14,1.77-0.43
	c0.84-0.3,1.22-2.65,1.22-3.31h0.8L185.87,416.85z"/>
<path d="M180.92,414.43c0,0.16-0.14,0.28-0.3,0.28c-0.17,0-0.3-0.13-0.3-0.28c0-0.16,0.14-0.28,0.3-0.28
	C180.79,414.15,180.92,414.27,180.92,414.43z"/>
<path d="M181.83,416.32c0,0.16-0.14,0.28-0.3,0.28c-0.17,0-0.3-0.13-0.3-0.28s0.14-0.28,0.3-0.28
	C181.69,416.03,181.83,416.16,181.83,416.32z"/>
<path d="M183.34,415.18c0,0.16-0.14,0.28-0.3,0.28c-0.17,0-0.3-0.13-0.3-0.28c0-0.16,0.14-0.28,0.3-0.28
	C183.2,414.9,183.34,415.03,183.34,415.18z"/>
<path d="M190.38,416.32c0,0.16-0.14,0.28-0.3,0.28c-0.17,0-0.3-0.13-0.3-0.28c0-0.16,0.14-0.28,0.3-0.28
	C190.24,416.03,190.38,416.16,190.38,416.32z"/>
<path d="M191.18,414.81c0,0.16-0.14,0.28-0.3,0.28c-0.17,0-0.3-0.13-0.3-0.28c0-0.16,0.14-0.28,0.3-0.28
	C191.05,414.52,191.18,414.65,191.18,414.81z"/>
<path d="M188.77,415.18c0,0.16-0.14,0.28-0.3,0.28c-0.17,0-0.3-0.13-0.3-0.28c0-0.16,0.14-0.28,0.3-0.28
	C188.64,414.9,188.77,415.03,188.77,415.18z"/>
<path class="st8" d="M189.3,398.9c-0.02,0.26-0.08,0.48-0.16,0.66c-0.55,1.22-2.32,0.49-2.21-0.84l0,0c0.1-1.16-0.67-2.17,0.83-2.06
	C188.71,396.74,189.4,397.74,189.3,398.9z"/>
<path class="st10" d="M182.36,398.07c0.03-0.26,0.09-0.47,0.18-0.66c0.58-1.21,2.33-0.44,2.19,0.89l0,0
	c-0.13,1.16,0.62,2.18-0.89,2.04C182.9,400.24,182.23,399.23,182.36,398.07z"/>
<path class="st0" d="M271.45,426.12c0,11.56-7.34,20.94-16.4,20.94c-9.06,0-16.4-9.37-16.4-20.94c0-11.56,0-17.16,16.4-19.33
	C264.11,406.79,271.45,414.56,271.45,426.12z"/>
<path class="st0" d="M281.82,399.62c2.52,0.42,4.43,0.67,6.02,1.01c6.03,1.28,9.65,8.39,6.45,13.61c-0.78,1.27-1.85,2.41-3.19,3.38
	c-3.98,2.88-10.06,4.01-16.88,3.15c-6.82-0.86-0.12,2.74-5.78-1.36v-1.8c5.25,3.8-0.87,1,5.45,1.8c6.32,0.8,11.51-1.79,15.21-4.46
	c0.65-0.47,1.19-0.93,1.65-1.39c4.19-4.27-0.45-11.1-6.32-12.19c-0.76-0.14-1.62-0.31-2.62-0.52V399.62z"/>
<path class="st1" d="M272.9,400.68l6.21-2.65c1.52-0.65,3.24,0.41,3.36,2.06l0,0c0.12,1.65-1.44,2.91-3.04,2.46L272.9,400.68z"/>
<path class="st11" d="M245.97,452.14c-4.23-5.75-13.85-23.19-11.73-27.62c0-9.52,19.92-26.69,33.7-11.69
	c9.35,8.11-1.51,21.5-9.46,34.52C262.29,454.63,255.43,465.01,245.97,452.14z"/>
<path class="st0" d="M282.72,460.64c0,5.31-0.17,9.62-2.58,9.62c-2.41,0-2.08-5.38-4.06-9.62c-1.81-7.26-2.51-11.32,4.06-9.62
	C282.55,451.02,282.72,451.02,282.72,460.64z"/>
<path class="st11" d="M258.4,463.14c-2.35,6.13-6.12,10.48-8.42,9.7s0.47-7.05,0.44-12.58c1.31-7.45,5.76-10.41,8.06-9.63
	S260.75,457,258.4,463.14z"/>
<path class="st12" d="M282.87,468.49c-0.01,1.09-0.72,2.08-1.85,2.8c-1.13,0.73-2.68,1.18-4.34,1.18c-1.66,0-3.16-0.45-4.24-1.18
	c-1.08-0.73-1.75-1.73-1.75-2.83c0-1.09,0.66-1.86,1.74-2.35c1.08-0.49,2.57-0.71,4.23-0.71c0.92,0.52,1.68,0.79,2.42,1.06
	c0.19,0.07,0.39,0.14,0.58,0.21C280.61,467.03,281.58,467.47,282.87,468.49z"/>
<path class="st12" d="M253.99,470.22c-0.01,1.09-0.67,2.08-1.75,2.8c-1.08,0.73-2.58,1.18-4.24,1.18c-1.66,0-3.16-0.45-4.24-1.18
	c-1.08-0.73-1.75-1.73-1.75-2.83c0-1.1,0.66-2.1,1.75-2.83c1.08-0.73,2.58-1.18,4.24-1.18c0.83,0,1.46,0.13,1.99,0.35
	c0.53,0.22,0.95,0.54,1.34,0.92c0.29,0.29,0.57,0.6,0.87,0.95c0.1,0.12,0.2,0.23,0.31,0.35
	C252.92,469.23,253.39,469.72,253.99,470.22z"/>
<path class="st0" d="M190.78,454.8c0,9.69,0.09,17.54-3.62,17.54s-5.24-7.85-5.24-17.54c0-11.41,1.53-13.3,5.24-13.3
	S190.78,445.11,190.78,454.8z"/>
<path class="st0" d="M206.67,449.04c0,9.69,0.09,17.54-3.62,17.54c-3.19,0-5.51-5.81-6.1-13.61c-0.2-2.61,0.1-5.23,0.63-7.8
	c1.39-6.76,2.3-9.44,5.47-9.44C206.77,435.74,206.67,439.35,206.67,449.04z"/>
<path class="st12" d="M189.12,470.19c-0.01,1.09-0.67,2.08-1.75,2.8c-1.08,0.73-2.58,1.18-4.24,1.18c-1.66,0-3.16-0.45-4.24-1.18
	c-1.08-0.73-1.75-1.73-1.75-2.83c0-1.1,0.66-2.1,1.75-2.83c1.08-0.73,2.58-1.18,4.24-1.18c0.83,0,1.46,0.13,1.99,0.35
	c0.53,0.22,0.94,0.54,1.34,0.92c0.29,0.29,0.57,0.6,0.87,0.95c0.1,0.12,0.2,0.23,0.31,0.35C188.06,469.2,188.52,469.7,189.12,470.19
	z"/>
<path class="st12" d="M204.81,465.1c-0.01,0.88-0.6,1.68-1.57,2.27c-0.97,0.59-2.32,0.96-3.81,0.96c-1.49,0-2.84-0.37-3.81-0.96
	c-0.97-0.59-1.57-1.4-1.57-2.29c0-0.89,0.59-1.7,1.57-2.29c0.97-0.59,2.32-0.96,3.81-0.96c0.75,0,1.32,0.1,1.79,0.29
	c0.47,0.18,0.85,0.44,1.2,0.75c0.26,0.23,0.51,0.49,0.78,0.77c0.09,0.09,0.18,0.19,0.28,0.29
	C203.86,464.3,204.28,464.7,204.81,465.1z"/>
<line class="st13" x1="189.85" y1="401.33" x2="195.27" y2="403.49"/>
<path class="st13" d="M175.97,403.64l5-2"/>
</svg>
