<?xml version="1.0" encoding="utf-8"?>
<!-- Generator: Adobe Illustrator 26.1.0, SVG Export Plug-In . SVG Version: 6.00 Build 0)  -->
<svg version="1.1" id="Layer_1" xmlns="http://www.w3.org/2000/svg" xmlns:xlink="http://www.w3.org/1999/xlink" x="0px" y="0px"
	 viewBox="0 0 612 792" style="enable-background:new 0 0 612 792;" xml:space="preserve">
<style type="text/css">
	.st0{fill:#DD944F;}
	.st1{fill:#BA6A3B;stroke:#000000;stroke-width:0.1;}
	.st2{fill:#302016;}
	.st3{fill:#A53A23;fill-opacity:0.65;}
	.st4{fill:#BD5D2E;}
	.st5{fill:#EDEAE6;}
	.st6{fill:#D38D8D;}
	.st7{fill:none;stroke:#A55657;stroke-width:0.1;}
	.st8{fill:none;stroke:#000000;stroke-width:0.1;}
	.st9{fill:#EEEAE9;}
	.st10{fill:#040504;}
	.st11{fill:#EDEAE9;}
	.st12{fill:#E8B85C;}
	.st13{fill:#CF7D2E;}
	.st14{fill:#0D0C0C;}
</style>
<path class="st0" d="M472.6,375.73c-31.19-0.67-20.82-11.64-44.11-23.73c-23.29-12.09-39.27-27.32-35.67-34.03
	c3.6-6.7,25.39-2.34,48.69,9.75C464.8,339.82,457.59,352.43,472.6,375.73z"/>
<path class="st0" d="M437.9,457.23c21.19-5.96,24.8,3.56,3.1-37.57c-0.34-36.47-0.85-90.46-34.03-72.89
	c-14.7,3.98-32.73,32.62-9.91,58.29C419.88,430.71,423.93,454.93,437.9,457.23z"/>
<path class="st0" d="M148.19,372.41c0-21.77,10.44-42.21,28.07-54.98c15.02-10.88,33.83-15.13,52.07-11.79l14.92,2.74l37.13,8
	c6.79,1.46,13.76,1.97,20.69,1.5l32.5-2.19c25.38-1.71,46.92,18.42,46.92,43.86v35.98c0,20.23-22.71,32.14-39.35,20.64
	c-5.58-3.86-12.48-5.29-19.13-3.97l-109.57,21.67c-27.31,5.4-54.29-10.65-62.58-37.22c-1.09-3.5-1.65-7.15-1.65-10.82V372.41z"/>
<path class="st0" d="M438.86,373.6c-28.87,17.13-23.67,70.85-52.88,70.85c-29.21,0-52.88-31.72-52.88-70.85s0-58.08,52.88-65.42
	C415.19,308.18,438.86,334.47,438.86,373.6z"/>
<path class="st0" d="M364.9,457.43c-15.57-21.06-27.59-72.78-20.76-87.76c0-32.22,38.93-91.81,83.38-41.07
	c30.17,27.45-4.87,72.76-30.5,116.8C409.29,470.04,396.2,499.77,364.9,457.43z"/>
<path class="st0" d="M456.38,477.48c0,16.24-0.54,29.41-8.27,29.41c-4.09,0-5.12-4.62-6.12-10.89c-2.01-12.57-6.37-24.81-8.13-37.42
	c-1.68-12.1-0.21-19.71,14.25-16.16C455.84,442.43,456.38,448.07,456.38,477.48z"/>
<path class="st0" d="M398.55,484.91c-5.11,14-12.58,24.95-20.01,22.33c-7.42-2.62-2.61-17.26-1.58-29.98
	c1.41-17.52,12.67-23.35,20.09-20.73C404.47,459.14,403.66,470.9,398.55,484.91z"/>
<path class="st1" d="M454.92,498.7c-0.03,3.25-1.87,6.2-4.77,8.35c-2.93,2.17-6.93,3.51-11.22,3.51c-8.59,0-15.47-5.38-15.47-11.93
	c0-3.24,2.32-5.44,5.76-6.84c3.43-1.39,7.94-1.96,12.23-1.97c2.16,1.42,3.66,2.18,5,2.86c0.5,0.26,0.98,0.5,1.47,0.76
	C449.7,494.41,451.57,495.65,454.92,498.7z"/>
<path class="st1" d="M386.79,504.44c-0.03,3.07-1.7,5.86-4.49,7.9c-2.82,2.05-6.77,3.33-11.29,3.33s-8.61-1.28-11.57-3.33
	c-2.96-2.05-4.76-4.87-4.76-7.97c0-3.11,1.4-5.45,3.93-7.03c2.54-1.59,6.21-2.4,10.75-2.4c4.53,0,7.24,0.99,9.64,2.67
	c1.21,0.84,2.34,1.86,3.59,3.02c0.22,0.2,0.43,0.4,0.65,0.61C384.29,502.22,385.45,503.3,386.79,504.44z"/>
<path class="st0" d="M177.22,440.09c0,36.89,7.16,66.8-4.88,66.8c-10.8,0-18.53-24.08-20-55.67c-0.35-7.39,0.36-14.81,1.61-22.11
	c4.89-28.48,7.64-39.66,18.39-39.66C184.38,389.46,177.22,403.2,177.22,440.09z"/>
<path class="st1" d="M214.2,502.08c-0.03,2.66-1.52,5.08-4.13,6.85c-2.64,1.79-6.42,2.9-10.96,2.9c-4.54,0-8.65-1.11-11.61-2.91
	c-2.97-1.79-4.77-4.25-4.77-6.93c0-2.71,1.12-4.94,3.36-6.51c2.25-1.57,5.64-2.47,10.19-2.47c4.54,0,7.37,1.06,9.89,2.71
	c1.27,0.83,2.45,1.82,3.75,2.9c0.1,0.09,0.2,0.17,0.31,0.26C211.42,499.89,212.7,500.97,214.2,502.08z"/>
<path class="st0" d="M218.91,434.29c0,40.1,0.26,72.61-10,72.61c-10.25,0-17.25-32.51-17.25-72.61c5.28-39.82,7-55.04,17.25-55.04
	C219.16,379.24,218.91,394.19,218.91,434.29z"/>
<path class="st1" d="M176.57,504.42c-0.03,3.07-1.94,5.86-5.06,7.91c-3.14,2.06-7.49,3.34-12.3,3.34s-9.16-1.28-12.3-3.34
	c-3.14-2.06-5.06-4.89-5.06-7.99c0-3.1,1.92-5.93,5.06-7.99c3.14-2.06,7.49-3.34,12.3-3.34c2.4,0,4.25,0.36,5.77,0.99
	c1.52,0.63,2.74,1.53,3.88,2.6c0.85,0.81,1.66,1.71,2.52,2.68c0.29,0.33,0.59,0.66,0.9,1C173.48,501.62,174.84,503.03,176.57,504.42
	z"/>
<path class="st2" d="M181.11,311.45c-4.62,3.91-9.02,6.32-9.84,5.39c-0.82-0.93,2.26-4.86,6.88-8.77c4.62-3.91,9.02-6.32,9.84-5.39
	C188.8,303.62,185.73,307.54,181.11,311.45z"/>
<path class="st2" d="M31.56,308.68c4.3,4.25,7.06,8.39,6.17,9.27c-0.89,0.87-5.09-1.87-9.39-6.11c-4.3-4.25-7.06-8.39-6.17-9.27
	C23.05,301.69,27.26,304.43,31.56,308.68z"/>
<path class="st0" d="M155.68,393.11c12.01,25.6-23.01,62.97-50.36,62.97c-27.35,0-60.84-34.92-50.36-62.97
	c0-24.88,22.55-32.77,50.36-32.77C133.13,360.35,155.68,368.23,155.68,393.11z"/>
<path class="st0" d="M126.21,357.87c9.67,3.32,11.4,16.53,8.4,26.31c-5.34,17.38-19.79,22.13-29.83,22.13
	c-11.54,0-24.58-7.69-28.9-24.97c-2.06-8.24-1.34-18.74,6.08-22.87c2.45-1.36,5.05-1.52,7.73-1.08c10.28,1.69,19.82,1.27,30.16-0.05
	C121.97,357.05,124.11,357.14,126.21,357.87z"/>
<path class="st3" d="M93.32,375.51c0.08-0.81,0.26-1.52,0.52-2.12c1.76-4.1,7.57-1.55,7.11,2.89c-0.41,3.92,1.99,7.38-2.86,6.89
	C95.04,382.87,92.91,379.44,93.32,375.51z"/>
<path class="st4" d="M115.7,378.32c-0.06,0.81-0.23,1.52-0.47,2.13c-1.66,4.14-7.53,1.73-7.17-2.72c0.31-3.93-2.17-7.33,2.69-6.96
	C113.8,371.01,116.01,374.39,115.7,378.32z"/>
<path class="st2" d="M178.23,308.3c-3.12,2.82-0.91,14.51-2.64,24.58c-1.73,10.07-9.78,36.26-17.99,43.24
	c-8.21,6.98-14.84,7.29-24.73,7.1c-15.13-0.29-12.03-23.8-0.31-33.77l9.73-8.28l20.8-19.15L178.23,308.3z"/>
<path class="st2" d="M31.3,308.87c3.27,2.77,0.98,14.52,2.8,24.57c1.83,10.05,10.31,36.13,18.94,42.97s15.59,7.02,25.96,6.64
	c15.93-0.58,12.53-24.12,0.14-33.94l-10.09-8l-21.85-18.79L31.3,308.87z"/>
<path class="st5" d="M137.35,438.56c0,10.23-22.71,17.81-32.39,17.52c-12.06-0.37-31.84-6.75-31.84-17.52
	c0-10.77,15.46-19.5,33.08-19.5S137.35,428.33,137.35,438.56z"/>
<path class="st5" d="M114.96,433.43c0,0.53-0.44,0.96-0.97,0.96c-0.54,0-0.97-0.43-0.97-0.96c0-0.53,0.44-0.96,0.97-0.96
	C114.53,432.47,114.96,432.9,114.96,433.43z"/>
<path class="st6" d="M111.24,453.38c0,7.29-4.54,11.42-8.45,12.31c-1,0.23-2.07-0.01-2.87-0.65c-3.19-2.58-1.18-6.73-1.18-14.16
	c0-8.28,3.36-12.49,7.49-12.49C110.39,438.39,111.24,445.1,111.24,453.38z"/>
<path class="st7" d="M105.9,433.39l-1.81,12.66c-0.22,1.55-0.33,3.12-0.33,4.69v2.64v2.5"/>
<path d="M105.28,439.07c-1.2,2.1-2.95,3.84-5.07,5.04c-2.12,1.2-4.52,1.82-6.96,1.79c-2.44-0.03-4.81-0.72-6.87-1.98
	c-2.06-1.26-3.73-3.05-4.82-5.18l2.16-1.09c0.9,1.74,2.26,3.21,3.95,4.25c1.69,1.03,3.64,1.59,5.63,1.62c2,0.03,3.97-0.48,5.71-1.47
	c2.7-1.02,3.95-8.95,3.95-11.19h2.6L105.28,439.07z"/>
<path d="M105.2,439.34c1.2,2.1,2.95,3.84,5.07,5.04c2.12,1.2,4.52,1.82,6.96,1.79c2.44-0.03,4.81-0.72,6.87-1.98
	c2.06-1.26,3.84-2.76,5.13-4.99l-1.95-1.28c-0.9,1.74-2.79,3.21-4.48,4.24c-1.69,1.03-3.64,1.59-5.63,1.62
	c-2,0.03-3.97-0.48-5.71-1.47c-2.7-1.02-3.95-8.95-3.95-11.19h-2.6L105.2,439.34z"/>
<path d="M122.42,432.15c0,0.53-0.44,0.96-0.97,0.96c-0.54,0-0.97-0.43-0.97-0.96c0-0.53,0.44-0.96,0.97-0.96
	C121.99,431.19,122.42,431.62,122.42,432.15z"/>
<path d="M119.83,437.25c0,0.53-0.44,0.96-0.97,0.96c-0.54,0-0.97-0.43-0.97-0.96c0-0.53,0.44-0.96,0.97-0.96
	C119.39,436.3,119.83,436.73,119.83,437.25z"/>
<path d="M114.64,433.43c0,0.53-0.44,0.96-0.97,0.96c-0.54,0-0.97-0.43-0.97-0.96c0-0.53,0.44-0.96,0.97-0.96
	C114.2,432.47,114.64,432.9,114.64,433.43z"/>
<path d="M89.33,430.87c0,0.53-0.44,0.96-0.97,0.96s-0.97-0.43-0.97-0.96c0-0.53,0.44-0.96,0.97-0.96S89.33,430.34,89.33,430.87z"/>
<path d="M92.25,437.26c0,0.53-0.44,0.96-0.97,0.96s-0.97-0.43-0.97-0.96c0-0.53,0.44-0.96,0.97-0.96S92.25,436.73,92.25,437.26z"/>
<path d="M97.12,433.43c0,0.53-0.44,0.96-0.97,0.96s-0.97-0.43-0.97-0.96c0-0.53,0.44-0.96,0.97-0.96S97.12,432.9,97.12,433.43z"/>
<path class="st8" d="M125.67,430.27l28.87,6.67 M47.81,436.94l30.64-6.67"/>
<path class="st8" d="M125.67,434.11l28.87,6.67 M47.81,440.78l30.64-6.67"/>
<path class="st9" d="M87.05,390.77c-1.67,0.14-3.27,0.72-4.62,1.69c-1.35,0.97-2.4,2.29-3.04,3.82c-0.64,1.52-0.83,3.19-0.57,4.81
	s0.98,3.15,2.07,4.4c1.09,1.25,2.51,2.18,4.1,2.69c1.59,0.51,3.3,0.57,4.92,0.19c1.63-0.39,3.11-1.21,4.3-2.37
	c1.18-1.16,2.02-2.63,2.41-4.23l-8.83-2.09L87.05,390.77z"/>
<ellipse class="st10" cx="88.04" cy="399.92" rx="3.89" ry="3.83"/>
<ellipse class="st11" cx="86.09" cy="398" rx="1.95" ry="1.91"/>
<path class="st12" d="M94.52,399.92c0,3.52-2.91,6.38-6.49,6.38c-3.58,0-6.49-2.86-6.49-6.38c0-3.52,2.91-6.38,6.49-6.38
	C91.62,393.53,94.52,396.39,94.52,399.92z M84.11,399.92c0,2.13,1.76,3.86,3.92,3.86c2.17,0,3.92-1.73,3.92-3.86
	s-1.76-3.86-3.92-3.86C85.87,396.06,84.11,397.79,84.11,399.92z"/>
<path class="st9" d="M113.11,400.09c0.08,1.64,0.61,3.24,1.55,4.6s2.24,2.45,3.76,3.13c1.52,0.68,3.21,0.94,4.87,0.73
	c1.66-0.2,3.23-0.85,4.54-1.88c1.31-1.03,2.31-2.39,2.88-3.93c0.57-1.55,0.7-3.22,0.37-4.83c-0.33-1.61-1.11-3.11-2.25-4.31
	c-1.14-1.21-2.6-2.08-4.21-2.52l-2.44,8.61L113.11,400.09z"/>
<ellipse class="st10" cx="122.42" cy="399.28" rx="3.89" ry="3.83"/>
<ellipse class="st11" cx="119.83" cy="398" rx="1.95" ry="1.91"/>
<path class="st12" d="M128.91,399.28c0,3.52-2.9,6.38-6.49,6.38s-6.49-2.86-6.49-6.38s2.91-6.38,6.49-6.38
	S128.91,395.75,128.91,399.28z M118.5,399.28c0,2.13,1.76,3.86,3.92,3.86s3.92-1.73,3.92-3.86c0-2.13-1.76-3.86-3.92-3.86
	S118.5,397.15,118.5,399.28z"/>
<path class="st13" d="M117.23,411.53c-1.63,18.21-5.28,19.98-11.73,19.98c-6.45,0-11.05-3.35-11.62-19.98c0-14.04,5.17-18,11.62-18
	C111.95,393.53,117.23,397.49,117.23,411.53z"/>
<path class="st4" d="M113.99,426.4c0,3-3.87,5.11-8.43,5.11c-4.57,0-8.43-2.11-8.43-5.11c0-4.15,3.87-6.06,8.43-6.06
	C110.12,420.34,113.99,421.94,113.99,426.4z"/>
<path class="st14" d="M113.99,426.8c0,2.51-3.65,4.71-8.12,4.71c-4.47,0-8.75-2.2-8.75-4.71c0-2.51,4.27-4.54,8.75-4.54
	C110.34,422.26,113.99,424.29,113.99,426.8z"/>
</svg>
