<?xml version="1.0" encoding="utf-8"?>
<!-- Generator: Adobe Illustrator 25.4.1, SVG Export Plug-In . SVG Version: 6.00 Build 0)  -->
<svg version="1.1" id="Layer_1" xmlns="http://www.w3.org/2000/svg" xmlns:xlink="http://www.w3.org/1999/xlink" x="0px" y="0px"
	 viewBox="0 0 1366 768" style="enable-background:new 0 0 1366 768;" xml:space="preserve">
<style type="text/css">
	.st0{fill:#824106;}
	.st1{fill:#683607;fill-opacity:0.67;}
	.st2{fill:#307B0C;}
	.st3{fill:#34860D;fill-opacity:0.43;}
	.st4{fill:#28670B;}
	.st5{fill:#255C0A;fill-opacity:0.67;}
	.st6{fill:#255C0A;}
	.st7{fill:#32800C;}
	.st8{fill:#32800D;}
</style>
<ellipse class="st0" cx="623.52" cy="369.93" rx="4.27" ry="2.32"/>
<rect x="619.24" y="357.19" class="st0" width="8.55" height="12.74"/>
<path class="st1" d="M624.33,355.65l3.46,5.02v5.41l-0.49-0.37c-1.57-1.17-3.02-2.49-4.33-3.94l-0.47-0.52l-0.44,0.78
	c-0.64,1.12-1.63,2-2.81,2.5v-4.25L624.33,355.65z"/>
<path class="st2" d="M623.31,320.13l18.73,29.16c0.4,0.62,0.97,1.12,1.64,1.44c0.4,0.19,0.83,0.29,1.27,0.29h1.37l-1.63,2.71
	l6.31,6.56l-3.24-0.14c-0.82-0.04-1.63-0.18-2.42-0.43l-0.92-0.29c-0.63-0.2-1.23-0.5-1.77-0.88l0.61,1.54l0.61,1.54l-1.88-0.8
	c-1.44-0.62-2.74-1.53-3.82-2.67c0.27,0.51,0.49,1.05,0.66,1.61l0.56,1.87l-1.56-0.27c-1.83-0.32-3.38-1.52-4.14-3.21l0.13,0.3
	c0.31,0.7,0.48,1.45,0.48,2.21c-1.04-0.25-1.93-0.91-2.47-1.83l-0.17-0.29c0,0.77,0.11,1.53,0.32,2.27l0.29,1.01
	c-1.61-0.64-3.09-1.58-4.35-2.77l-0.13-0.12l0.81,1.93l0.61,1.35l-2.43-0.28c-1.7-0.19-3.25-1.07-4.29-2.43
	c-1.34,1.52-3.03,2.69-4.92,3.41l-0.17,0.06l0.61-3.47c-0.54,0.77-1.19,1.45-1.93,2.04l-0.11,0.09c-0.14-0.64-0.2-1.3-0.2-1.95
	v-0.17c-0.81,1.15-1.82,2.13-3,2.9l-0.87,0.57v-0.33c0-1.06,0.14-2.12,0.41-3.14c-1.74,1.15-3.71,1.91-5.77,2.23l-0.54,0.08
	l1.63-1.93l1.42-1.35c-1.6,1.14-3.47,1.86-5.42,2.08l-3.71,0.43l0.74-0.57c0.84-0.65,1.61-1.38,2.29-2.19
	c-1.98,0.79-4.14,0.99-6.23,0.56l-2.74-0.56l7.45-4.57l-0.89-0.61c-0.42-0.29-0.78-0.64-1.07-1.05l1.42-0.27
	c1.04-0.25,1.94-0.9,2.5-1.82l3-4.94L623.31,320.13z"/>
<path class="st3" d="M626.97,349.01l0.44,0.44c0.69,0.69,1.63,1.06,2.6,1.04l-0.7,1.4c0.81,0.19,1.64,0.29,2.47,0.28l0.18,0
	l-1.78,1.28c1.03,0.16,2.08,0.21,3.12,0.16l0.15-0.01l-2.19,1.73l1.39,0.74l-0.15,0.04c-0.81,0.23-1.66,0.34-2.51,0.3l0,0.02
	c0.25,1.2,0.31,2.43,0.19,3.64l-0.71-0.68c-0.77-0.73-1.2-1.74-1.2-2.77l-2.46,0.38l0.19-0.22c0.59-0.69,1.06-1.48,1.39-2.33
	l-2.03,0.12l2.15-2.03l-1.75-0.09c0.46-0.79,0.8-1.64,1-2.53L626.97,349.01z"/>
<path class="st3" d="M607.67,349.66l-0.03,0.54c-0.05,0.81,0.26,1.59,0.85,2.16l-1.34,0.42c0.35,0.6,0.78,1.15,1.27,1.64l0.1,0.1
	l-1.9-0.3c0.51,0.71,1.09,1.36,1.74,1.95l0.09,0.09l-2.44-0.26l0.33,1.27l-1.08-0.58l-0.6-0.42c-0.38,0.74-1.18,1.2-2.02,1.14
	l-2.27-0.14l0.3-0.17c1.01-0.55,1.93-1.27,2.7-2.1l-1.71-1.24l0.25-0.02c0.82-0.06,1.62-0.25,2.38-0.57l-1.28-1.14l2.62,0.07
	l-0.98-1.1c0.79-0.2,1.56-0.51,2.26-0.92L607.67,349.66z"/>
<path class="st4" d="M622.72,342.91l15.25,0.97l2.65,3.28l1.02,1.54l-4.07-2.7c0,1.02-0.17,2.04-0.51,3l-0.1,0.28l-0.18-0.09
	c-1.76-0.83-3.3-2.06-4.5-3.58c-0.13,0.89-0.12,1.81,0.03,2.7l0.17,0.97l-1.34-0.56c-1.54-0.65-2.95-1.57-4.16-2.72
	c-0.27,1.03-0.63,2.03-1.08,2.99l-0.14,0.29l-0.58-0.32c-1.22-0.68-2.28-1.62-3.08-2.77l-0.34,0.29c-1.25,1.08-2.74,1.84-4.34,2.22
	l-2.24,0.39l0.11-0.94c0.06-0.52,0.02-1.06-0.11-1.57l-2.24,1.74l-2.04,1.54l-0.04-0.33c-0.11-0.81-0.3-1.61-0.57-2.38
	c-0.94,1.41-2.11,2.65-3.45,3.69l-0.22,0.17l-0.41-1.74l-0.41-1.54l-2.44,2.32l2.65-4.63L622.72,342.91z"/>
<path class="st2" d="M623.31,308.16l16.62,28.12c0.84,0.77,1.95,1.2,3.09,1.2h0.19l-1.97,1.4l0.87,1.6
	c0.99,0.51,2.13,0.65,3.21,0.39l1.6-0.39l-3.72,3.6l1.97,4.59l-1.86-0.26c-1.64-0.23-3.19-0.9-4.48-1.94l-2.19-1.8
	c0.56,1.15,0.61,2.47,0.14,3.65l-0.14,0.34l-0.62-0.26c-1.17-0.48-2.17-1.3-2.88-2.34l-1.09-2c-0.56,1.29-0.63,2.73-0.18,4.06
	l0.18,0.53c-2.14-0.78-4.02-2.15-5.43-3.95l-0.04-0.05c-0.14,1.38-0.51,2.74-1.09,3.99l-0.55-0.43c-1.22-0.97-2.23-2.18-2.95-3.56
	c-1.09,2.12-3.17,3.57-5.54,3.87l-1.02,0.13l0.31-1.05c0.22-0.73,0.1-1.51-0.31-2.14l-1.31,1.3l-3.06,2.5c0-1.18-0.3-2.34-0.86-3.37
	l-0.23-0.42c-0.14,1.28-0.77,2.46-1.75,3.29l-1.31,1.1l-0.15-0.31c-0.47-0.96-0.57-2.06-0.29-3.09l-0.25,0.19
	c-0.7,0.53-1.51,0.91-2.36,1.11c-0.87,0.2-1.77,0.21-2.65,0.02l-1.52-0.32c1.16-0.93,2.18-2.02,3.03-3.24l0.25-0.36
	c-0.91,0.12-1.8-0.36-2.21-1.19l-0.2-0.41l0.39,0.04c0.9,0.1,1.81,0.02,2.67-0.24l0.87-1.6l-1.97-1.6c2.23-0.51,4.14-1.93,5.26-3.93
	l6.33-11.25L623.31,308.16z"/>
<path class="st5" d="M622.06,327.85h8.21l8.73,6.56l0.61,1.35l-1.53-0.68c-1.28-0.57-2.48-1.32-3.56-2.21v2.22v2.22l-3.26-4.63
	l-0.6,1.63c-0.54,1.47-1.38,2.82-2.45,3.97l-2.65-4.05l-0.09,0.2c-0.21,0.51-0.47,1-0.76,1.46l-0.17,0.27l-2.04-1.74l-1.42-1.16
	l-1.33,1.26c-0.34,0.32-0.7,0.6-1.09,0.85c-0.83,0.52-1.7,0.98-2.6,1.36l-0.48,0.2l0.61-2.9l-0.38,0.31
	c-1.5,1.21-3.16,2.21-4.92,2.97l-0.8-3.86l-3.46,3.67l0.26-0.39l2.79-5.21L622.06,327.85z"/>
<path class="st2" d="M622.02,299.67l12.57,19.42c0.97,1.49,2.62,2.39,4.4,2.39l-2.24,1.54c1.34,2.62,4.18,4.12,7.11,3.75l0.54-0.07
	c0.04-0.01,0.07,0.03,0.05,0.07l-0.04,0.11c-0.6,1.48-1.78,2.66-3.26,3.27l-0.53,0.21l2.85,4.44h-2.92c-2.75,0-5.32-1.38-6.85-3.67
	v3.67l-2.44-2.84l-1.02,1.49l-2.04,3.67l-2.04-3.67l-1.02-2.32v0.48c0,1.22-0.21,2.43-0.61,3.58l-1.83-1.74l-1.63-1.49
	c-0.66,1.35-1.72,2.46-3.02,3.21l-2.07,1.18l0.26-0.49c0.63-1.2,0.96-2.54,0.96-3.89c-0.8,1.35-1.98,2.42-3.39,3.09l-2.72,1.29
	l-0.41-1.93l-0.41-2.12c-1.4,2.17-3.8,3.47-6.37,3.47h-1.16l0.35-0.83c0.58-1.37,1.35-2.66,2.3-3.81l-4.89-2.77l1.94-0.44
	c1.53-0.35,2.95-1.07,4.14-2.1l-3.03-1.56c2.42,0,4.65-1.28,5.89-3.36L622.02,299.67z"/>
<path class="st6" d="M622.08,310.48h6.38l5.5,7.53l0.81,1.35l-2.26-0.45c-1.69-0.33-3.2-1.27-4.25-2.64
	c0.4,2.05,0.49,4.14,0.24,6.22l-0.04,0.35l-2.56-1.35c-1.92-1.01-3.5-2.55-4.57-4.44l-0.04,0.05c-1.95,2.21-4.2,4.14-6.68,5.74
	l-0.07-0.17c-0.75-1.78-0.94-3.74-0.54-5.62l-3.92,2.7l0.2-0.39l3.11-5.02L622.08,310.48z"/>
<path class="st7" d="M624.94,350.23h0.15c0.25,0,0.46,0.21,0.46,0.46c0,0.21-0.07,0.42-0.2,0.58l-0.41,0.5l-0.31-0.73
	c-0.07-0.16-0.1-0.33-0.1-0.5c0-0.18,0.14-0.32,0.32-0.32H624.94z"/>
<path class="st7" d="M617.26,359.27c-0.11,0.08-0.25,0.1-0.38,0.04l-0.09-0.04c-0.22-0.1-0.34-0.33-0.3-0.57l0.02-0.13
	c0.03-0.16,0.11-0.3,0.23-0.41l0.55-0.49l0.03,0.9c0,0.05,0.01,0.11,0.03,0.16l0.04,0.11C617.45,359,617.4,359.17,617.26,359.27z"/>
<path class="st2" d="M622.53,291.75l4.08,8.22c0.79,1.6,1.76,3.1,2.87,4.49l0.56,0.69c3.28,4.07,7.89,6.84,13.01,7.84l-7.33,1.35
	l1.63,2.12l2.04,2.32l-1.43,0.11c-3.94,0.29-7.76-1.41-10.16-4.55v3.09v3.28l-0.95-0.41c-2.31-0.99-4.26-2.67-5.58-4.81
	c-0.8,1.27-1.89,2.34-3.16,3.13l-3.35,2.08l-0.3-2.06c-0.21-1.44-0.11-2.91,0.3-4.31c-1.96,3.48-5.88,5.37-9.82,4.73l-1.79-0.29
	l5.5-4.44l-6.31-2.12c5.33-0.49,10.22-3.15,13.53-7.36l0.34-0.43c1.07-1.36,1.97-2.86,2.67-4.44L622.53,291.75z"/>
<path class="st3" d="M611.39,336.98l0.05,0.53c0.07,0.82,0.49,1.56,1.15,2.04l-1.26,0.59c0.43,0.55,0.94,1.04,1.5,1.46l0.12,0.09
	l-1.93-0.05c0.6,0.64,1.28,1.21,2,1.71l0.11,0.07l-2.46,0.06l0.51,1.21l-0.13-0.05c-0.68-0.26-1.31-0.62-1.86-1.08
	c-0.5,0.92-1.36,1.62-2.37,1.92l-0.02,0.01l1.12-2.67l-1.87-1l0.25-0.05c0.8-0.17,1.56-0.46,2.27-0.87l-1.43-0.96l2.61-0.28
	l-1.13-0.96c0.76-0.3,1.47-0.71,2.11-1.2L611.39,336.98z"/>
<path class="st3" d="M616.08,350.11l0.06,0.59c0.07,0.66,0.42,1.25,0.97,1.63l-1,0.64c0.36,0.46,0.79,0.86,1.26,1.21l0.08,0.06
	l-1.55,0.11c0.5,0.52,1.06,0.99,1.67,1.39l0.07,0.04l-1.97,0.25l0.44,1.05l-0.08-0.03c-0.56-0.18-1.08-0.46-1.54-0.83l-0.04,0.09
	c-0.36,0.82-1.01,1.48-1.83,1.84l0.83-2.5l-1.53-0.75l0.16-0.05c0.66-0.22,1.28-0.56,1.84-0.98l-1.17-0.75l2.08-0.46l-0.93-0.77
	c0.6-0.33,1.15-0.75,1.63-1.23L616.08,350.11z"/>
<path class="st3" d="M636.58,350.07l0.46,0.34c0.67,0.5,1.53,0.7,2.35,0.56l-0.39,1.28c0.72,0.06,1.44,0.04,2.15-0.06l0.15-0.02
	l-1.34,1.31c0.9,0.01,1.8-0.08,2.68-0.25l0.13-0.02l-1.12,1.49c0.79,0.37,1.44,0.98,1.83,1.73l0.41,0.78l-2.56-1.28l-0.01,0.24
	c-0.01,0.42-0.11,0.83-0.28,1.21l-0.11-0.04c-0.33-0.1-0.62-0.29-0.84-0.54l-1.08,0.97l-0.21-1.32l-2.05,0.63l0.13-0.21
	c0.41-0.67,0.7-1.41,0.86-2.18l-1.71,0.35l1.54-2.01l-1.51,0.14c0.28-0.73,0.44-1.5,0.49-2.28L636.58,350.07z"/>
<path class="st3" d="M622.29,335.64l0.05,0.09c0.65,1.03,1.68,1.77,2.87,2.06l-1.54,0.91c0.88,0.41,1.8,0.73,2.74,0.97l0.31,0.08
	l-2.79,0.47c1.17,0.45,2.37,0.81,3.59,1.08l0.28,0.06l-3.51,0.72l1.3,1.03l-0.27-0.02c-1.05-0.06-2.1-0.24-3.11-0.53
	c-0.29,1.01-1.02,1.84-1.98,2.25l-0.57,0.24l0.37-2.86l-3.17-0.46l0.51-0.18c0.95-0.33,1.86-0.8,2.68-1.38l-2.51-0.54l3.62-0.97
	l-2.07-0.61c0.95-0.49,1.83-1.11,2.61-1.84L622.29,335.64z"/>
<path class="st8" d="M616.9,323.02c0.5,1.19,1.53,2.06,2.79,2.35l0.57,0.13l-3.09,1.1l0.31,0.14c0.9,0.4,1.83,0.73,2.79,0.97
	l-2.88,0.43l0.81,0.31c0.92,0.36,1.82,0.78,2.68,1.27l-3.18,0.31l1.59,1.15l-0.38-0.05c-1.33-0.16-2.65-0.44-3.93-0.84
	c-0.45,0.98-1.32,1.7-2.37,1.96l-1.11,0.28l0.7-2.82l-4.03-0.77l0.77-0.15c1.19-0.23,2.35-0.59,3.46-1.09l-3.18-0.78l4.73-0.6
	l-2.61-0.82c1.26-0.4,2.49-0.9,3.67-1.51L616.9,323.02z"/>
<path class="st8" d="M629.22,323.02c0.52,0.62,1.27,1.01,2.07,1.08l2.57,0.24l-1.76,1.26l0.31,0.05c1,0.15,2,0.24,3.01,0.24l0.76,0
	l-3.43,1.13l2.36,0.24l2.77-0.05l-4.29,1.54l1.86,0.69l-0.38,0.05c-1.33,0.19-2.67,0.27-4.02,0.22c-0.15,1.06-0.78,1.98-1.71,2.5
	l-0.98,0.55l-0.15-2.89l-4.1,0.31l0.69-0.34c1.08-0.53,2.09-1.19,3.01-1.96l-0.05,0.01c-1.06,0.2-2.16,0.23-3.24,0.07l2.85-1.69
	c-0.54-0.38-1-0.87-1.35-1.42l-0.08-0.12l0.05-0.01c0.78-0.12,1.57-0.18,2.36-0.18L629.22,323.02z"/>
<path class="st3" d="M634.5,335.36l0.35,0.44c0.61,0.78,1.52,1.27,2.51,1.36l-0.92,1.29c0.79,0.28,1.61,0.47,2.44,0.56l0.19,0.02
	l-2,1.04c1.02,0.27,2.07,0.45,3.12,0.52l0.17,0.01l-2.48,1.44l3.28,2.17c-1.7,0.02-3.34-0.66-4.55-1.86l-0.8-0.8v0.44
	c0,1.58-1.28,2.84-2.88,2.84l0.99-1.64l-1.83-0.14l0.24-0.21c0.7-0.6,1.29-1.31,1.75-2.11l-2.07-0.12l2.49-1.74l-1.76-0.29
	c0.58-0.72,1.06-1.52,1.41-2.38L634.5,335.36z"/>
<path class="st8" d="M622.62,297.73l1.98,4.5c0.47,1.07,1.05,2.09,1.73,3.04c1.77,2.48,4.18,4.44,6.97,5.68l1.01,0.45l-4.96-0.67
	l0.83,1.22l1.89,1.67h-1.3c-2.19,0-4.23-1.08-5.46-2.89v1.78v1.89l-0.35-0.17c-1.26-0.61-2.3-1.6-2.98-2.83
	c-0.41,0.73-0.99,1.34-1.7,1.79l-1.93,1.21l-0.11-0.41c-0.36-1.33-0.32-2.73,0.11-4.03l-0.04,0.06c-1.35,2.23-3.78,3.58-6.39,3.55
	l2.65-2.83h-3.05l0.6-0.2c2.9-0.95,5.41-2.82,7.16-5.33c0.63-0.91,1.16-1.89,1.56-2.91L622.62,297.73z"/>
<ellipse class="st0" cx="695.91" cy="446.21" rx="5.93" ry="3.04"/>
<rect x="689.99" y="429.52" class="st0" width="11.85" height="16.7"/>
<path class="st1" d="M697.04,427.49l4.8,6.58v7.08l-1.56-1.1c-1.59-1.12-3.06-2.39-4.41-3.8l-1.37-1.43l-0.57,0.95
	c-0.91,1.52-2.3,2.7-3.95,3.36v-5.57L697.04,427.49z"/>
<path class="st2" d="M695.63,380.94l25.92,38.16c0.58,0.85,1.39,1.53,2.33,1.95c0.54,0.24,1.12,0.37,1.71,0.37h1.93l-2.26,3.55
	l8.75,8.6l-4.52-0.18c-1.12-0.04-2.23-0.23-3.31-0.55l-1.31-0.39c-0.86-0.26-1.68-0.64-2.43-1.15l0.85,2.02l0.85,2.02l-2.67-1.08
	c-1.96-0.79-3.74-1.97-5.23-3.48c0.38,0.67,0.68,1.38,0.92,2.12l0.78,2.44l-2.33-0.38c-2.43-0.4-4.51-1.96-5.57-4.17l0.19,0.4
	c0.43,0.9,0.65,1.89,0.65,2.89c-1.44-0.32-2.7-1.21-3.48-2.47l-0.19-0.31c0,1.01,0.15,2.01,0.44,2.97l0.4,1.33
	c-2.24-0.83-4.3-2.08-6.08-3.68l-0.13-0.12l1.13,2.53l0.85,1.77l-3.49-0.38c-2.28-0.25-4.37-1.38-5.82-3.17
	c-1.85,1.99-4.16,3.52-6.72,4.44l-0.33,0.12l0.85-4.55c-0.75,1.01-1.64,1.9-2.64,2.65l-0.18,0.13c-0.19-0.84-0.28-1.7-0.28-2.56
	v-0.22c-1.12,1.51-2.51,2.79-4.1,3.77l-1.26,0.78v-0.43c0-1.39,0.19-2.78,0.56-4.13c-2.42,1.5-5.12,2.49-7.94,2.92l-0.81,0.12
	l2.26-2.53l1.97-1.77c-2.22,1.5-4.78,2.43-7.44,2.72l-5.21,0.57l1.05-0.76c1.15-0.84,2.2-1.79,3.15-2.85
	c-2.75,1.04-5.73,1.3-8.61,0.74l-3.82-0.74l10.33-5.99l-1.24-0.81c-0.57-0.37-1.06-0.83-1.47-1.37l1.97-0.36
	c1.45-0.33,2.71-1.21,3.51-2.45l4.11-6.4L695.63,380.94z"/>
<path class="st3" d="M700.69,418.79l0.57,0.54c0.98,0.93,2.3,1.44,3.65,1.41l-0.96,1.83c1.12,0.25,2.27,0.38,3.4,0.37l0.26,0
	l-2.47,1.67c1.43,0.21,2.87,0.28,4.3,0.21l0.23-0.01l-3.03,2.27l1.92,0.97l-0.22,0.06c-1.12,0.31-2.29,0.44-3.47,0.4
	c0.35,1.59,0.44,3.21,0.26,4.8l-0.98-0.89c-1.06-0.96-1.66-2.28-1.66-3.63l-3.42,0.5l0.28-0.31c0.81-0.9,1.46-1.92,1.91-3.04
	l-2.81,0.16l2.98-2.67l-2.43-0.11c0.63-1.03,1.1-2.16,1.39-3.34L700.69,418.79z"/>
<path class="st3" d="M673.94,419.65l-0.04,0.67c-0.07,1.09,0.36,2.13,1.17,2.87l-1.85,0.55c0.49,0.78,1.08,1.5,1.76,2.14l0.15,0.14
	l-2.63-0.39c0.7,0.93,1.51,1.79,2.4,2.56l0.14,0.12l-3.38-0.35l0.45,1.66l-1.49-0.76l-0.84-0.56c-0.52,0.97-1.62,1.57-2.74,1.5
	l-3.2-0.19l0.44-0.23c1.39-0.72,2.65-1.65,3.73-2.75l-2.37-1.62l0.37-0.03c1.12-0.08,2.22-0.33,3.27-0.74l-1.77-1.49l3.63,0.08
	l-1.36-1.43c1.1-0.26,2.16-0.67,3.15-1.21L673.94,419.65z"/>
<path class="st4" d="M694.81,410.79l21.14,1.27l3.67,4.3l1.41,2.02l-5.64-3.54c0,1.34-0.24,2.67-0.71,3.92l-0.14,0.38l-0.34-0.15
	c-2.38-1.07-4.48-2.66-6.15-4.66c-0.19,1.17-0.17,2.37,0.05,3.54l0.24,1.27l-1.91-0.76c-2.1-0.84-4.03-2.03-5.71-3.54l-0.06,0.21
	c-0.34,1.21-0.79,2.39-1.35,3.51l-0.29,0.58l-0.87-0.45c-1.66-0.87-3.09-2.09-4.21-3.59l-0.41,0.34c-1.77,1.44-3.85,2.45-6.08,2.95
	l-3.1,0.51l0.15-1.23c0.09-0.69,0.03-1.39-0.15-2.05l-3.1,2.28l-2.82,2.02l-0.06-0.42c-0.15-1.07-0.41-2.11-0.79-3.12l-0.1,0.15
	c-1.24,1.75-2.75,3.28-4.48,4.55l-0.5,0.36l-0.56-2.28l-0.56-2.02l-3.39,3.04l3.67-6.07L694.81,410.79z"/>
<path class="st2" d="M695.63,365.25l23.03,36.85c1.17,1.01,2.67,1.57,4.22,1.57h0.33l-2.73,1.83l1.21,2.09
	c1.37,0.68,2.94,0.86,4.43,0.52l2.24-0.52l-5.15,4.71l2.73,6.02l-2.65-0.34c-2.23-0.29-4.35-1.16-6.14-2.54l-3.03-2.36
	c0.77,1.49,0.84,3.25,0.18,4.8l-0.18,0.44l-0.93-0.36c-1.57-0.62-2.93-1.67-3.92-3.04l-1.52-2.62c-0.78,1.68-0.86,3.59-0.24,5.33
	l0.24,0.69l-0.05-0.02c-2.94-1.02-5.54-2.82-7.52-5.22c-0.2,1.82-0.72,3.59-1.52,5.23l-0.82-0.61c-1.66-1.24-3.03-2.81-4.03-4.62
	c-1.52,2.79-4.3,4.67-7.46,5.04l-1.63,0.19l0.43-1.36c0.3-0.96,0.14-2-0.43-2.83l-1.82,1.7l-4.24,3.27c0-1.54-0.41-3.06-1.18-4.39
	l-0.33-0.58c-0.19,1.68-1.04,3.21-2.36,4.26l-1.88,1.5l-0.21-0.42c-0.64-1.25-0.78-2.69-0.39-4.03l-0.31,0.22
	c-1,0.72-2.13,1.22-3.34,1.48c-1.2,0.26-2.43,0.27-3.63,0.03l-2.12-0.42c1.61-1.21,3.03-2.66,4.23-4.28l0.32-0.43
	c-1.27,0.16-2.51-0.5-3.1-1.64l-0.23-0.46l0.54,0.06c1.24,0.13,2.5,0.02,3.7-0.32l1.21-2.09l-2.73-2.09l0.59-0.13
	c2.71-0.59,5.06-2.27,6.48-4.66l8.99-15.1L695.63,365.25z"/>
<path class="st5" d="M693.88,391.06h11.37l12.1,8.6l0.85,1.77l-2.33-0.98c-1.64-0.69-3.17-1.6-4.57-2.69l-0.15-0.12v2.91v2.91
	l-4.51-6.07l-0.81,2.07c-0.77,1.97-1.93,3.76-3.42,5.26l-3.67-5.31l-0.22,0.49c-0.23,0.52-0.51,1.02-0.82,1.49l-0.37,0.56
	l-2.82-2.28l-1.97-1.52l-1.82,1.63c-0.48,0.43-0.99,0.81-1.54,1.14c-1.14,0.68-2.33,1.27-3.57,1.76l-0.69,0.27l0.85-3.8l-0.56,0.43
	c-2.06,1.57-4.32,2.86-6.71,3.84l-0.08,0.03l-1.11-5.06l-4.8,4.81l0.36-0.51l3.87-6.83L693.88,391.06z"/>
<path class="st2" d="M693.84,354.12l17.33,25.33c1.4,2.04,3.71,3.26,6.18,3.26l-3.1,2.02c1.87,3.45,5.66,5.41,9.56,4.95l1.03-0.12
	c0.06-0.01,0.1,0.05,0.08,0.1l-0.06,0.13c-0.83,1.94-2.42,3.47-4.39,4.23l-0.86,0.33l3.95,5.82h-4.28c-3.69,0-7.14-1.79-9.27-4.81
	v4.81l-3.38-3.72l-1.41,1.95l-2.82,4.81l-2.82-4.81l-1.41-3.04v0.61c0,1.61-0.29,3.2-0.85,4.71l-2.54-2.28l-2.26-1.95
	c-0.92,1.76-2.35,3.21-4.1,4.15l-2.95,1.59l0.37-0.67c0.86-1.55,1.32-3.3,1.32-5.07c-1.1,1.76-2.71,3.16-4.61,4.01l-3.86,1.73
	l-0.56-2.53l-0.56-2.78c-1.94,2.85-5.17,4.55-8.61,4.55h-1.82l0.46-1.04c0.81-1.82,1.89-3.52,3.2-5.03l-6.77-3.63l2.76-0.6
	c2.08-0.45,4.02-1.39,5.67-2.73l-4.2-2.05c3.36,0,6.49-1.73,8.27-4.58L693.84,354.12z"/>
<path class="st6" d="M693.92,368.29h8.84l7.62,9.87l1.13,1.77l-3.25-0.61c-2.27-0.42-4.32-1.64-5.78-3.44
	c0.56,2.68,0.67,5.43,0.34,8.15l-0.06,0.45l-3.67-1.83c-2.58-1.29-4.73-3.29-6.21-5.76c-2.75,2.94-5.88,5.49-9.31,7.59l-0.11-0.24
	c-1.03-2.31-1.29-4.88-0.74-7.35l-5.44,3.54l0.28-0.51l4.31-6.58L693.92,368.29z"/>
<path class="st7" d="M697.89,420.39h0.25c0.33,0,0.59,0.27,0.59,0.59c0,0.28-0.1,0.55-0.28,0.77l-0.56,0.66l-0.42-0.95
	c-0.09-0.21-0.14-0.44-0.14-0.67c0-0.23,0.18-0.41,0.41-0.41H697.89z"/>
<path class="st7" d="M687.23,432.25c-0.15,0.1-0.33,0.12-0.49,0.05l-0.13-0.06c-0.31-0.13-0.49-0.46-0.42-0.8l0.02-0.12
	c0.04-0.21,0.15-0.4,0.32-0.55l0.76-0.64l0.04,1.18c0,0.07,0.02,0.14,0.04,0.21l0.05,0.12C687.5,431.87,687.42,432.12,687.23,432.25
	z"/>
<path class="st2" d="M694.55,343.75l5.58,10.61c1.15,2.19,2.55,4.25,4.15,6.14l0.46,0.54c4.69,5.51,11.14,9.23,18.26,10.54
	l-10.16,1.77l2.26,2.78l2.82,3.04l-2.27,0.16c-5.3,0.37-10.44-1.86-13.79-5.98v4.05v4.3l-1.46-0.59c-3.1-1.26-5.75-3.44-7.59-6.24
	c-1.11,1.67-2.59,3.06-4.32,4.07l-4.71,2.76l-0.41-2.69c-0.29-1.89-0.15-3.83,0.41-5.66c-2.73,4.59-7.97,7.06-13.24,6.25l-2.84-0.43
	l7.62-5.82l-8.75-2.78c7.4-0.65,14.24-4.23,19-9.94l0.13-0.16c1.55-1.87,2.86-3.92,3.89-6.12L694.55,343.75z"/>
<path class="st3" d="M679.1,403.02l0.06,0.64c0.1,1.11,0.68,2.1,1.6,2.73l-1.75,0.78c0.6,0.71,1.3,1.35,2.07,1.9l0.18,0.12
	l-2.67-0.06c0.84,0.83,1.76,1.58,2.76,2.23l0.16,0.1l-3.41,0.08l0.71,1.59l-0.18-0.07c-0.93-0.33-1.8-0.81-2.57-1.41
	c-0.7,1.21-1.86,2.11-3.22,2.5l-0.1,0.03l1.55-3.5l-2.6-1.32l0.37-0.07c1.09-0.22,2.14-0.6,3.12-1.14l-1.98-1.26l3.61-0.36
	l-1.56-1.26c1.05-0.39,2.04-0.93,2.94-1.59L679.1,403.02z"/>
<path class="st3" d="M685.6,420.24l0.08,0.72c0.1,0.9,0.59,1.7,1.34,2.19l-1.38,0.83c0.5,0.6,1.09,1.13,1.73,1.57l0.12,0.08
	l-2.14,0.15c0.69,0.69,1.47,1.3,2.3,1.82l0.1,0.07l-2.73,0.33l0.61,1.38l-0.13-0.04c-0.77-0.23-1.49-0.6-2.12-1.08l-0.03,0.07
	c-0.51,1.1-1.43,1.99-2.56,2.47l1.15-3.27l-2.12-0.99l0.24-0.08c0.9-0.29,1.76-0.72,2.52-1.28l-1.63-0.98l2.89-0.6l-1.29-1.01
	c0.83-0.43,1.6-0.98,2.28-1.62L685.6,420.24z"/>
<path class="st3" d="M714.01,420.18l0.6,0.42c0.95,0.66,2.15,0.94,3.29,0.75l-0.54,1.68c0.99,0.08,1.99,0.06,2.97-0.08l0.21-0.03
	l-1.85,1.72c1.25,0.01,2.5-0.1,3.71-0.32l0.18-0.03l-1.56,1.96c1.09,0.48,1.99,1.29,2.54,2.28l0.56,1.01l-3.54-1.67l-0.01,0.3
	c-0.02,0.56-0.15,1.1-0.39,1.6l-0.16-0.05c-0.45-0.13-0.85-0.38-1.16-0.71l-1.5,1.26l-0.29-1.73l-2.84,0.83l0.18-0.28
	c0.56-0.87,0.96-1.83,1.18-2.84l-2.38,0.46l2.14-2.63l-2.09,0.19c0.39-0.96,0.61-1.97,0.68-3.01L714.01,420.18z"/>
<path class="st3" d="M694.21,401.27l0.02,0.04c0.94,1.41,2.38,2.4,4.03,2.77l-2.14,1.19l0.22,0.09c1.08,0.47,2.2,0.85,3.35,1.12
	l0.67,0.16l-3.87,0.62l2.43,0.88l2.93,0.61l-4.87,0.94l1.8,1.35l-0.39-0.02c-1.46-0.08-2.9-0.31-4.31-0.7
	c-0.4,1.32-1.38,2.39-2.66,2.92l-0.87,0.36l0.51-3.75l-4.39-0.6l0.74-0.24c1.31-0.43,2.55-1.04,3.69-1.8l-3.48-0.7l5.02-1.27
	l-2.87-0.81c1.32-0.64,2.54-1.46,3.64-2.44L694.21,401.27z"/>
<path class="st8" d="M686.73,384.74c0.69,1.56,2.08,2.69,3.76,3.06l0.91,0.2l-4.29,1.44l0.78,0.33c1,0.43,2.04,0.77,3.11,1.02
	l0.39,0.09l-4,0.57l1.14,0.41c1.27,0.46,2.51,1.02,3.71,1.66l-4.41,0.4l2.2,1.51l-0.53-0.06c-1.84-0.21-3.66-0.58-5.44-1.1
	c-0.63,1.28-1.8,2.22-3.19,2.54l-1.63,0.39l0.97-3.69l-5.59-1.02l1.08-0.19c1.64-0.29,3.24-0.77,4.78-1.43l-4.41-1.03l6.56-0.79
	l-3.62-1.07l0.21-0.06c1.61-0.48,3.18-1.09,4.7-1.83L686.73,384.74z"/>
<path class="st8" d="M703.81,384.74c0.72,0.81,1.73,1.32,2.8,1.41l3.62,0.32l-2.44,1.65l1.07,0.16c0.96,0.14,1.92,0.21,2.89,0.22
	l1.7,0.01l-4.76,1.49l3.28,0.31l3.84-0.06l-5.94,2.02l2.58,0.91l-0.53,0.07c-1.84,0.25-3.7,0.35-5.57,0.29
	c-0.21,1.39-1.05,2.58-2.29,3.24l-1.44,0.77l-0.21-3.79l-5.68,0.41l0.98-0.45c1.48-0.69,2.88-1.55,4.15-2.56l-0.08,0.01
	c-1.47,0.27-2.98,0.3-4.47,0.09l3.95-2.21c-0.74-0.5-1.38-1.14-1.88-1.88l-0.09-0.14l0.07-0.01c1.08-0.16,2.17-0.24,3.26-0.24
	L703.81,384.74z"/>
<path class="st3" d="M711.13,400.91l0.43,0.52c0.88,1.06,2.16,1.73,3.52,1.84l-1.27,1.69c1.1,0.37,2.23,0.61,3.37,0.73l0.28,0.03
	l-2.77,1.37c1.42,0.36,2.86,0.58,4.31,0.67l0.25,0.02l-3.44,1.89l4.54,2.85c-2.35,0.02-4.66-0.89-6.39-2.53l-1.02-0.96v0.4
	c0,2.18-1.76,3.9-3.99,3.9l1.37-2.15l-2.54-0.18l0.36-0.29c0.95-0.77,1.77-1.7,2.41-2.74l-2.87-0.15l3.46-2.28l-2.44-0.38
	c0.81-0.94,1.47-2,1.96-3.14L711.13,400.91z"/>
<path class="st8" d="M694.66,351.59l2.71,5.82c0.68,1.46,1.51,2.84,2.48,4.12c2.43,3.22,5.67,5.74,9.4,7.29l1.62,0.68l-6.87-0.87
	l1.15,1.6l2.62,2.18h-1.98c-2.93,0-5.68-1.41-7.39-3.79v2.33v2.48l-0.57-0.26c-1.69-0.78-3.11-2.06-4.04-3.67
	c-0.57,0.96-1.36,1.75-2.32,2.32l-2.72,1.61l-0.15-0.53c-0.49-1.74-0.44-3.58,0.15-5.29c-1.91,2.99-5.23,4.78-8.77,4.73l-0.14,0
	l3.67-3.71h-4.23l1.1-0.34c3.85-1.2,7.21-3.59,9.6-6.83c0.91-1.23,1.66-2.57,2.25-3.98L694.66,351.59z"/>
<ellipse class="st0" cx="734.91" cy="473.21" rx="5.93" ry="3.04"/>
<rect x="728.99" y="456.52" class="st0" width="11.85" height="16.7"/>
<path class="st1" d="M736.04,454.49l4.8,6.58v7.08l-1.56-1.1c-1.59-1.12-3.06-2.39-4.41-3.8l-1.37-1.43l-0.57,0.95
	c-0.91,1.52-2.3,2.7-3.95,3.36v-5.57L736.04,454.49z"/>
<path class="st2" d="M734.63,407.94l25.92,38.16c0.58,0.85,1.39,1.53,2.33,1.95c0.54,0.24,1.12,0.37,1.71,0.37h1.93l-2.26,3.55
	l8.75,8.6l-4.52-0.18c-1.12-0.04-2.23-0.23-3.31-0.55l-1.31-0.39c-0.86-0.26-1.68-0.64-2.43-1.15l0.85,2.02l0.85,2.02l-2.67-1.08
	c-1.96-0.79-3.74-1.97-5.23-3.48c0.38,0.67,0.68,1.38,0.92,2.12l0.78,2.44l-2.33-0.38c-2.43-0.4-4.51-1.96-5.57-4.17l0.19,0.4
	c0.43,0.9,0.65,1.89,0.65,2.89c-1.44-0.32-2.7-1.21-3.47-2.47l-0.19-0.31c0,1.01,0.15,2.01,0.44,2.97l0.4,1.33
	c-2.24-0.83-4.3-2.08-6.08-3.68l-0.13-0.12l1.13,2.53l0.85,1.77l-3.49-0.38c-2.28-0.25-4.37-1.38-5.82-3.17
	c-1.85,1.99-4.16,3.52-6.72,4.44l-0.33,0.12l0.85-4.55c-0.75,1.01-1.64,1.9-2.64,2.65l-0.18,0.13c-0.19-0.84-0.28-1.7-0.28-2.56
	v-0.22c-1.12,1.51-2.51,2.79-4.1,3.77l-1.26,0.78v-0.43c0-1.39,0.19-2.78,0.56-4.13c-2.42,1.5-5.12,2.49-7.94,2.92l-0.81,0.12
	l2.26-2.53l1.98-1.77c-2.22,1.5-4.78,2.43-7.44,2.72l-5.21,0.57l1.05-0.76c1.15-0.84,2.2-1.79,3.15-2.85
	c-2.75,1.04-5.73,1.3-8.61,0.74l-3.82-0.74l10.33-5.99l-1.24-0.81c-0.57-0.37-1.06-0.83-1.47-1.37l1.98-0.36
	c1.45-0.33,2.71-1.21,3.51-2.45l4.11-6.4L734.63,407.94z"/>
<path class="st3" d="M739.69,445.79l0.57,0.54c0.98,0.93,2.3,1.44,3.65,1.41l-0.96,1.83c1.12,0.25,2.27,0.38,3.4,0.37l0.26,0
	l-2.47,1.67c1.43,0.21,2.87,0.28,4.3,0.21l0.23-0.01l-3.03,2.27l1.92,0.97l-0.22,0.06c-1.12,0.31-2.29,0.44-3.47,0.4
	c0.35,1.59,0.44,3.21,0.26,4.8l-0.98-0.89c-1.06-0.96-1.66-2.28-1.66-3.63l-3.42,0.5l0.28-0.31c0.81-0.9,1.46-1.92,1.91-3.04
	l-2.81,0.16l2.98-2.67l-2.43-0.11c0.63-1.03,1.1-2.16,1.39-3.34L739.69,445.79z"/>
<path class="st3" d="M712.94,446.65l-0.04,0.67c-0.07,1.09,0.36,2.13,1.17,2.87l-1.86,0.55c0.49,0.78,1.08,1.5,1.76,2.14l0.15,0.14
	l-2.63-0.39c0.7,0.93,1.51,1.79,2.4,2.56l0.14,0.12l-3.38-0.35l0.45,1.66l-1.49-0.76l-0.84-0.56c-0.52,0.97-1.61,1.57-2.74,1.5
	l-3.2-0.19l0.44-0.23c1.39-0.72,2.65-1.65,3.73-2.75l-2.37-1.62l0.37-0.03c1.12-0.08,2.22-0.33,3.27-0.74l-1.77-1.49l3.64,0.08
	l-1.36-1.43c1.1-0.26,2.16-0.67,3.15-1.21L712.94,446.65z"/>
<path class="st4" d="M733.81,437.79l21.14,1.27l3.67,4.3l1.41,2.02l-5.64-3.54c0,1.34-0.24,2.67-0.71,3.92l-0.14,0.38l-0.34-0.15
	c-2.38-1.07-4.48-2.66-6.15-4.66c-0.19,1.17-0.17,2.37,0.05,3.54l0.24,1.27l-1.91-0.76c-2.1-0.84-4.03-2.03-5.71-3.54l-0.06,0.21
	c-0.34,1.21-0.79,2.39-1.35,3.51l-0.29,0.58l-0.87-0.45c-1.65-0.87-3.09-2.09-4.21-3.59l-0.42,0.34c-1.77,1.44-3.85,2.45-6.08,2.95
	l-3.1,0.51l0.15-1.23c0.09-0.69,0.03-1.39-0.15-2.05l-3.1,2.28l-2.82,2.02l-0.06-0.42c-0.15-1.07-0.41-2.11-0.79-3.12l-0.1,0.15
	c-1.24,1.75-2.75,3.28-4.48,4.55l-0.5,0.36l-0.56-2.28l-0.57-2.02l-3.39,3.04l3.67-6.07L733.81,437.79z"/>
<path class="st2" d="M734.63,392.26l23.03,36.85c1.17,1.01,2.67,1.57,4.22,1.57h0.33l-2.73,1.83l1.21,2.09
	c1.37,0.68,2.94,0.86,4.43,0.52l2.24-0.52l-5.15,4.71l2.73,6.02l-2.65-0.34c-2.23-0.29-4.35-1.16-6.14-2.54l-3.03-2.35
	c0.77,1.49,0.84,3.25,0.18,4.8l-0.18,0.44l-0.93-0.36c-1.57-0.62-2.93-1.67-3.92-3.04l-1.52-2.62c-0.78,1.68-0.86,3.59-0.24,5.33
	l0.24,0.69l-0.05-0.02c-2.94-1.01-5.54-2.82-7.52-5.22c-0.2,1.82-0.72,3.59-1.52,5.23l-0.82-0.61c-1.66-1.24-3.03-2.81-4.03-4.62
	c-1.52,2.79-4.3,4.67-7.46,5.04l-1.63,0.19l0.43-1.36c0.3-0.96,0.14-2-0.43-2.83l-1.82,1.7l-4.24,3.27c0-1.54-0.41-3.06-1.18-4.39
	l-0.34-0.58c-0.19,1.68-1.04,3.21-2.36,4.26l-1.88,1.5l-0.22-0.42c-0.64-1.24-0.78-2.69-0.39-4.03l-0.3,0.22
	c-1,0.72-2.13,1.22-3.34,1.48c-1.2,0.26-2.43,0.27-3.64,0.03l-2.12-0.42c1.61-1.21,3.03-2.66,4.23-4.28l0.32-0.43
	c-1.27,0.16-2.51-0.5-3.1-1.64l-0.23-0.46l0.54,0.06c1.24,0.13,2.5,0.02,3.7-0.32l1.21-2.09l-2.73-2.09l0.59-0.13
	c2.71-0.59,5.06-2.28,6.48-4.66l8.99-15.1L734.63,392.26z"/>
<path class="st5" d="M732.88,418.06h11.37l12.1,8.6l0.85,1.77l-2.33-0.98c-1.64-0.69-3.17-1.6-4.57-2.69l-0.15-0.12v2.91v2.91
	l-4.51-6.07l-0.81,2.07c-0.77,1.97-1.93,3.76-3.42,5.26l-3.67-5.31l-0.22,0.49c-0.23,0.52-0.51,1.02-0.82,1.49l-0.37,0.56
	l-2.82-2.28l-1.97-1.52l-1.82,1.63c-0.48,0.43-0.99,0.81-1.54,1.14c-1.14,0.68-2.33,1.27-3.57,1.76l-0.68,0.27l0.85-3.79l-0.56,0.43
	c-2.06,1.57-4.32,2.86-6.71,3.84l-0.08,0.03l-1.11-5.06l-4.8,4.81l0.36-0.51l3.87-6.83L732.88,418.06z"/>
<path class="st2" d="M732.84,381.12l17.33,25.33c1.4,2.04,3.71,3.26,6.18,3.26l-3.1,2.02c1.87,3.45,5.66,5.41,9.56,4.94l1.03-0.12
	c0.06-0.01,0.1,0.05,0.08,0.1l-0.06,0.13c-0.83,1.94-2.42,3.47-4.39,4.23l-0.86,0.33l3.95,5.82h-4.28c-3.69,0-7.14-1.79-9.27-4.81
	v4.81l-3.38-3.72l-1.41,1.95l-2.82,4.81l-2.82-4.81l-1.41-3.04v0.61c0,1.61-0.29,3.2-0.85,4.71l-2.54-2.28l-2.26-1.95
	c-0.92,1.76-2.35,3.21-4.1,4.15l-2.95,1.59l0.37-0.67c0.87-1.55,1.32-3.3,1.32-5.07c-1.1,1.77-2.71,3.16-4.61,4.01l-3.86,1.73
	l-0.56-2.53l-0.57-2.78c-1.94,2.85-5.17,4.55-8.61,4.55h-1.83l0.46-1.04c0.81-1.83,1.89-3.52,3.2-5.03l-6.77-3.63l2.76-0.6
	c2.08-0.45,4.02-1.39,5.67-2.73l-4.2-2.05c3.36,0,6.49-1.73,8.27-4.58L732.84,381.12z"/>
<path class="st6" d="M732.92,395.29h8.84l7.62,9.87l1.13,1.77l-3.25-0.61c-2.27-0.43-4.32-1.65-5.78-3.44
	c0.56,2.68,0.67,5.43,0.34,8.15l-0.06,0.45l-3.67-1.83c-2.58-1.29-4.73-3.29-6.21-5.76c-2.75,2.94-5.88,5.49-9.31,7.59l-0.11-0.24
	c-1.03-2.3-1.29-4.88-0.74-7.35l-5.44,3.54l0.28-0.51l4.31-6.58L732.92,395.29z"/>
<path class="st7" d="M736.89,447.39h0.25c0.33,0,0.59,0.27,0.59,0.59c0,0.28-0.1,0.55-0.28,0.77l-0.56,0.66l-0.42-0.95
	c-0.09-0.21-0.14-0.44-0.14-0.67c0-0.23,0.18-0.41,0.41-0.41H736.89z"/>
<path class="st7" d="M726.23,459.25c-0.15,0.1-0.33,0.12-0.49,0.05l-0.13-0.06c-0.31-0.13-0.49-0.46-0.42-0.8l0.02-0.12
	c0.04-0.21,0.15-0.4,0.32-0.55l0.76-0.64l0.04,1.18c0,0.07,0.02,0.14,0.04,0.21l0.05,0.12C726.5,458.87,726.42,459.12,726.23,459.25
	z"/>
<path class="st2" d="M733.55,370.75l5.58,10.61c1.15,2.19,2.55,4.25,4.15,6.14l0.46,0.54c4.69,5.51,11.14,9.23,18.26,10.54
	l-10.16,1.77l2.26,2.78l2.82,3.04l-2.27,0.16c-5.3,0.38-10.44-1.86-13.79-5.98v4.05v4.3l-1.46-0.6c-3.1-1.26-5.75-3.43-7.59-6.24
	c-1.11,1.66-2.59,3.06-4.32,4.07l-4.71,2.76l-0.41-2.69c-0.29-1.89-0.15-3.83,0.41-5.66c-2.73,4.59-7.97,7.06-13.24,6.25l-2.84-0.43
	l7.62-5.82l-8.75-2.78c7.4-0.65,14.24-4.22,19-9.94l0.13-0.16c1.55-1.87,2.86-3.92,3.89-6.12L733.55,370.75z"/>
<path class="st3" d="M718.1,430.02l0.06,0.64c0.1,1.11,0.68,2.1,1.6,2.73l-1.75,0.78c0.6,0.71,1.3,1.35,2.07,1.9l0.17,0.12
	l-2.67-0.06c0.84,0.83,1.76,1.58,2.76,2.23l0.16,0.1l-3.41,0.07l0.71,1.59l-0.18-0.07c-0.93-0.33-1.8-0.81-2.57-1.41
	c-0.7,1.21-1.86,2.11-3.22,2.5l-0.1,0.03l1.55-3.5l-2.6-1.32l0.37-0.07c1.09-0.22,2.14-0.6,3.12-1.14l-1.98-1.26l3.61-0.36
	l-1.56-1.26c1.05-0.39,2.04-0.93,2.94-1.59L718.1,430.02z"/>
<path class="st3" d="M724.6,447.24l0.08,0.72c0.1,0.9,0.59,1.7,1.34,2.19l-1.38,0.83c0.5,0.6,1.08,1.13,1.73,1.57l0.12,0.08
	l-2.14,0.15c0.7,0.69,1.47,1.3,2.3,1.82l0.1,0.07l-2.73,0.33l0.61,1.38l-0.13-0.04c-0.77-0.23-1.49-0.6-2.12-1.08l-0.03,0.07
	c-0.51,1.1-1.43,1.99-2.56,2.47l1.15-3.27l-2.12-0.99l0.24-0.08c0.9-0.29,1.76-0.72,2.52-1.28l-1.62-0.98l2.89-0.6l-1.29-1.01
	c0.83-0.43,1.6-0.98,2.28-1.62L724.6,447.24z"/>
<path class="st3" d="M753.01,447.18l0.6,0.42c0.95,0.66,2.15,0.94,3.29,0.75l-0.54,1.68c0.99,0.08,1.99,0.06,2.97-0.08l0.21-0.03
	l-1.85,1.72c1.25,0.01,2.5-0.1,3.71-0.32l0.18-0.03l-1.56,1.96c1.09,0.48,1.99,1.29,2.54,2.28l0.56,1.01l-3.54-1.67l-0.01,0.3
	c-0.02,0.56-0.15,1.1-0.39,1.6l-0.16-0.05c-0.45-0.13-0.85-0.38-1.16-0.71l-1.5,1.26l-0.29-1.73l-2.84,0.83l0.18-0.28
	c0.56-0.87,0.96-1.83,1.18-2.84l-2.38,0.46l2.14-2.63l-2.09,0.19c0.39-0.96,0.61-1.97,0.68-3.01L753.01,447.18z"/>
<path class="st3" d="M733.21,428.27l0.02,0.04c0.94,1.41,2.38,2.4,4.03,2.77l-2.14,1.19l0.22,0.09c1.08,0.47,2.2,0.85,3.35,1.12
	l0.67,0.16l-3.87,0.62l2.43,0.88l2.93,0.61l-4.87,0.94l1.8,1.35l-0.39-0.02c-1.46-0.08-2.9-0.31-4.31-0.7
	c-0.4,1.32-1.38,2.39-2.66,2.92l-0.87,0.36l0.51-3.75l-4.39-0.6l0.74-0.24c1.31-0.43,2.55-1.04,3.69-1.8l-3.48-0.7l5.02-1.27
	l-2.87-0.8c1.32-0.65,2.54-1.47,3.64-2.44L733.21,428.27z"/>
<path class="st8" d="M725.73,411.74c0.69,1.56,2.08,2.69,3.76,3.06l0.91,0.2l-4.29,1.44l0.79,0.33c1,0.43,2.04,0.77,3.11,1.02
	l0.39,0.09l-4,0.57l1.14,0.41c1.28,0.46,2.51,1.02,3.71,1.66l-4.41,0.4l2.2,1.51l-0.53-0.06c-1.84-0.21-3.66-0.58-5.44-1.1
	c-0.63,1.28-1.8,2.22-3.19,2.54l-1.63,0.39l0.97-3.69l-5.59-1.02l1.08-0.19c1.64-0.29,3.24-0.77,4.78-1.43l-4.41-1.03l6.56-0.79
	l-3.62-1.07l0.21-0.06c1.61-0.48,3.18-1.09,4.7-1.83L725.73,411.74z"/>
<path class="st8" d="M742.81,411.74c0.72,0.81,1.73,1.32,2.8,1.41l3.62,0.32l-2.44,1.65l1.07,0.16c0.96,0.14,1.92,0.21,2.89,0.22
	l1.7,0.01l-4.76,1.48l3.28,0.31l3.84-0.06l-5.94,2.03l2.58,0.91l-0.53,0.07c-1.84,0.25-3.7,0.35-5.57,0.29
	c-0.21,1.39-1.05,2.58-2.29,3.24l-1.44,0.77l-0.21-3.79l-5.68,0.41l0.98-0.45c1.48-0.69,2.88-1.55,4.15-2.56l-0.08,0.02
	c-1.47,0.27-2.98,0.3-4.47,0.09l3.95-2.21c-0.74-0.5-1.38-1.14-1.88-1.88l-0.09-0.14l0.07-0.01c1.08-0.16,2.17-0.24,3.26-0.24
	L742.81,411.74z"/>
<path class="st3" d="M750.13,427.91l0.43,0.52c0.88,1.06,2.16,1.73,3.52,1.84l-1.27,1.69c1.1,0.37,2.23,0.61,3.37,0.73l0.28,0.03
	l-2.77,1.37c1.42,0.36,2.86,0.58,4.31,0.68l0.25,0.02l-3.44,1.89l4.54,2.85c-2.35,0.02-4.66-0.89-6.39-2.53l-1.02-0.96v0.4
	c0,2.18-1.76,3.9-3.99,3.9l1.37-2.15l-2.54-0.18l0.36-0.29c0.95-0.77,1.77-1.7,2.41-2.74l-2.87-0.15l3.46-2.28l-2.44-0.38
	c0.81-0.94,1.47-2,1.96-3.14L750.13,427.91z"/>
<path class="st8" d="M733.66,378.59l2.71,5.82c0.68,1.46,1.51,2.84,2.48,4.12c2.43,3.22,5.67,5.74,9.4,7.29l1.62,0.68l-6.87-0.87
	l1.15,1.6l2.62,2.18h-1.98c-2.93,0-5.68-1.41-7.39-3.79v2.33v2.48l-0.57-0.26c-1.69-0.78-3.11-2.06-4.04-3.67
	c-0.57,0.96-1.36,1.75-2.32,2.32l-2.72,1.61l-0.15-0.54c-0.49-1.74-0.44-3.58,0.15-5.29c-1.91,2.99-5.23,4.78-8.77,4.73l-0.14,0
	l3.67-3.71h-4.23l1.11-0.34c3.85-1.2,7.21-3.59,9.6-6.83c0.91-1.23,1.66-2.57,2.25-3.98L733.66,378.59z"/>
<ellipse class="st0" cx="623.52" cy="369.93" rx="4.27" ry="2.32"/>
<rect x="619.24" y="357.19" class="st0" width="8.55" height="12.74"/>
<path class="st1" d="M624.33,355.65l3.46,5.02v5.41l-0.49-0.37c-1.57-1.17-3.02-2.49-4.33-3.94l-0.47-0.52l-0.44,0.78
	c-0.64,1.12-1.63,2-2.81,2.5v-4.25L624.33,355.65z"/>
<path class="st2" d="M623.31,320.13l18.73,29.16c0.4,0.62,0.97,1.12,1.64,1.44c0.4,0.19,0.83,0.29,1.27,0.29h1.37l-1.63,2.71
	l6.31,6.56l-3.24-0.14c-0.82-0.04-1.63-0.18-2.42-0.43l-0.92-0.29c-0.63-0.2-1.23-0.5-1.77-0.88l0.61,1.54l0.61,1.54l-1.88-0.8
	c-1.44-0.62-2.74-1.53-3.82-2.67c0.27,0.51,0.49,1.05,0.66,1.61l0.56,1.87l-1.56-0.27c-1.83-0.32-3.38-1.52-4.14-3.21l0.13,0.3
	c0.31,0.7,0.48,1.45,0.48,2.21c-1.04-0.25-1.93-0.91-2.47-1.83l-0.17-0.29c0,0.77,0.11,1.53,0.32,2.27l0.29,1.01
	c-1.61-0.64-3.09-1.58-4.35-2.77l-0.13-0.12l0.81,1.93l0.61,1.35l-2.43-0.28c-1.7-0.19-3.25-1.07-4.29-2.43
	c-1.34,1.52-3.03,2.69-4.92,3.41l-0.17,0.06l0.61-3.47c-0.54,0.77-1.19,1.45-1.93,2.04l-0.11,0.09c-0.14-0.64-0.2-1.3-0.2-1.95
	v-0.17c-0.81,1.15-1.82,2.13-3,2.9l-0.87,0.57v-0.33c0-1.06,0.14-2.12,0.41-3.14c-1.74,1.15-3.71,1.91-5.77,2.23l-0.54,0.08
	l1.63-1.93l1.42-1.35c-1.6,1.14-3.47,1.86-5.42,2.08l-3.71,0.43l0.74-0.57c0.84-0.65,1.61-1.38,2.29-2.19
	c-1.98,0.79-4.14,0.99-6.23,0.56l-2.74-0.56l7.45-4.57l-0.89-0.61c-0.42-0.29-0.78-0.64-1.07-1.05l1.42-0.27
	c1.04-0.25,1.94-0.9,2.5-1.82l3-4.94L623.31,320.13z"/>
<path class="st3" d="M626.97,349.01l0.44,0.44c0.69,0.69,1.63,1.06,2.6,1.04l-0.7,1.4c0.81,0.19,1.64,0.29,2.47,0.28l0.18,0
	l-1.78,1.28c1.03,0.16,2.08,0.21,3.12,0.16l0.15-0.01l-2.19,1.73l1.39,0.74l-0.15,0.04c-0.81,0.23-1.66,0.34-2.51,0.3l0,0.02
	c0.25,1.2,0.31,2.43,0.19,3.64l-0.71-0.68c-0.77-0.73-1.2-1.74-1.2-2.77l-2.46,0.38l0.19-0.22c0.59-0.69,1.06-1.48,1.39-2.33
	l-2.03,0.12l2.15-2.03l-1.75-0.09c0.46-0.79,0.8-1.64,1-2.53L626.97,349.01z"/>
<path class="st3" d="M607.67,349.66l-0.03,0.54c-0.05,0.81,0.26,1.59,0.85,2.16l-1.34,0.42c0.35,0.6,0.78,1.15,1.27,1.64l0.1,0.1
	l-1.9-0.3c0.51,0.71,1.09,1.36,1.74,1.95l0.09,0.09l-2.44-0.26l0.33,1.27l-1.08-0.58l-0.6-0.42c-0.38,0.74-1.18,1.2-2.02,1.14
	l-2.27-0.14l0.3-0.17c1.01-0.55,1.93-1.27,2.7-2.1l-1.71-1.24l0.25-0.02c0.82-0.06,1.62-0.25,2.38-0.57l-1.28-1.14l2.62,0.07
	l-0.98-1.1c0.79-0.2,1.56-0.51,2.26-0.92L607.67,349.66z"/>
<path class="st4" d="M622.72,342.91l15.25,0.97l2.65,3.28l1.02,1.54l-4.07-2.7c0,1.02-0.17,2.04-0.51,3l-0.1,0.28l-0.18-0.09
	c-1.76-0.83-3.3-2.06-4.5-3.58c-0.13,0.89-0.12,1.81,0.03,2.7l0.17,0.97l-1.34-0.56c-1.54-0.65-2.95-1.57-4.16-2.72
	c-0.27,1.03-0.63,2.03-1.08,2.99l-0.14,0.29l-0.58-0.32c-1.22-0.68-2.28-1.62-3.08-2.77l-0.34,0.29c-1.25,1.08-2.74,1.84-4.34,2.22
	l-2.24,0.39l0.11-0.94c0.06-0.52,0.02-1.06-0.11-1.57l-2.24,1.74l-2.04,1.54l-0.04-0.33c-0.11-0.81-0.3-1.61-0.57-2.38
	c-0.94,1.41-2.11,2.65-3.45,3.69l-0.22,0.17l-0.41-1.74l-0.41-1.54l-2.44,2.32l2.65-4.63L622.72,342.91z"/>
<path class="st2" d="M623.31,308.16l16.62,28.12c0.84,0.77,1.95,1.2,3.09,1.2h0.19l-1.97,1.4l0.87,1.6
	c0.99,0.51,2.13,0.65,3.21,0.39l1.6-0.39l-3.72,3.6l1.97,4.59l-1.86-0.26c-1.64-0.23-3.19-0.9-4.48-1.94l-2.19-1.8
	c0.56,1.15,0.61,2.47,0.14,3.65l-0.14,0.34l-0.62-0.26c-1.17-0.48-2.17-1.3-2.88-2.34l-1.09-2c-0.56,1.29-0.63,2.73-0.18,4.06
	l0.18,0.53c-2.14-0.78-4.02-2.15-5.43-3.95l-0.04-0.05c-0.14,1.38-0.51,2.74-1.09,3.99l-0.55-0.43c-1.22-0.97-2.23-2.18-2.95-3.56
	c-1.09,2.12-3.17,3.57-5.54,3.87l-1.02,0.13l0.31-1.05c0.22-0.73,0.1-1.51-0.31-2.14l-1.31,1.3l-3.06,2.5c0-1.18-0.3-2.34-0.86-3.37
	l-0.23-0.42c-0.14,1.28-0.77,2.46-1.75,3.29l-1.31,1.1l-0.15-0.31c-0.47-0.96-0.57-2.06-0.29-3.09l-0.25,0.19
	c-0.7,0.53-1.51,0.91-2.36,1.11c-0.87,0.2-1.77,0.21-2.65,0.02l-1.52-0.32c1.16-0.93,2.18-2.02,3.03-3.24l0.25-0.36
	c-0.91,0.12-1.8-0.36-2.21-1.19l-0.2-0.41l0.39,0.04c0.9,0.1,1.81,0.02,2.67-0.24l0.87-1.6l-1.97-1.6c2.23-0.51,4.14-1.93,5.26-3.93
	l6.33-11.25L623.31,308.16z"/>
<path class="st5" d="M622.06,327.85h8.21l8.73,6.56l0.61,1.35l-1.53-0.68c-1.28-0.57-2.48-1.32-3.56-2.21v2.22v2.22l-3.26-4.63
	l-0.6,1.63c-0.54,1.47-1.38,2.82-2.45,3.97l-2.65-4.05l-0.09,0.2c-0.21,0.51-0.47,1-0.76,1.46l-0.17,0.27l-2.04-1.74l-1.42-1.16
	l-1.33,1.26c-0.34,0.32-0.7,0.6-1.09,0.85c-0.83,0.52-1.7,0.98-2.6,1.36l-0.48,0.2l0.61-2.9l-0.38,0.31
	c-1.5,1.21-3.16,2.21-4.92,2.97l-0.8-3.86l-3.46,3.67l0.26-0.39l2.79-5.21L622.06,327.85z"/>
<path class="st2" d="M622.02,299.67l12.57,19.42c0.97,1.49,2.62,2.39,4.4,2.39l-2.24,1.54c1.34,2.62,4.18,4.12,7.11,3.75l0.54-0.07
	c0.04-0.01,0.07,0.03,0.05,0.07l-0.04,0.11c-0.6,1.48-1.78,2.66-3.26,3.27l-0.53,0.21l2.85,4.44h-2.92c-2.75,0-5.32-1.38-6.85-3.67
	v3.67l-2.44-2.84l-1.02,1.49l-2.04,3.67l-2.04-3.67l-1.02-2.32v0.48c0,1.22-0.21,2.43-0.61,3.58l-1.83-1.74l-1.63-1.49
	c-0.66,1.35-1.72,2.46-3.02,3.21l-2.07,1.18l0.26-0.49c0.63-1.2,0.96-2.54,0.96-3.89c-0.8,1.35-1.98,2.42-3.39,3.09l-2.72,1.29
	l-0.41-1.93l-0.41-2.12c-1.4,2.17-3.8,3.47-6.37,3.47h-1.16l0.35-0.83c0.58-1.37,1.35-2.66,2.3-3.81l-4.89-2.77l1.94-0.44
	c1.53-0.35,2.95-1.07,4.14-2.1l-3.03-1.56c2.42,0,4.65-1.28,5.89-3.36L622.02,299.67z"/>
<path class="st6" d="M622.08,310.48h6.38l5.5,7.53l0.81,1.35l-2.26-0.45c-1.69-0.33-3.2-1.27-4.25-2.64
	c0.4,2.05,0.49,4.14,0.24,6.22l-0.04,0.35l-2.56-1.35c-1.92-1.01-3.5-2.55-4.57-4.44l-0.04,0.05c-1.95,2.21-4.2,4.14-6.68,5.74
	l-0.07-0.17c-0.75-1.78-0.94-3.74-0.54-5.62l-3.92,2.7l0.2-0.39l3.11-5.02L622.08,310.48z"/>
<path class="st7" d="M624.94,350.23h0.15c0.25,0,0.46,0.21,0.46,0.46c0,0.21-0.07,0.42-0.2,0.58l-0.41,0.5l-0.31-0.73
	c-0.07-0.16-0.1-0.33-0.1-0.5c0-0.18,0.14-0.32,0.32-0.32H624.94z"/>
<path class="st7" d="M617.26,359.27c-0.11,0.08-0.25,0.1-0.38,0.04l-0.09-0.04c-0.22-0.1-0.34-0.33-0.3-0.57l0.02-0.13
	c0.03-0.16,0.11-0.3,0.23-0.41l0.55-0.49l0.03,0.9c0,0.05,0.01,0.11,0.03,0.16l0.04,0.11C617.45,359,617.4,359.17,617.26,359.27z"/>
<path class="st2" d="M622.53,291.75l4.08,8.22c0.79,1.6,1.76,3.1,2.87,4.49l0.56,0.69c3.28,4.07,7.89,6.84,13.01,7.84l-7.33,1.35
	l1.63,2.12l2.04,2.32l-1.43,0.11c-3.94,0.29-7.76-1.41-10.16-4.55v3.09v3.28l-0.95-0.41c-2.31-0.99-4.26-2.67-5.58-4.81
	c-0.8,1.27-1.89,2.34-3.16,3.13l-3.35,2.08l-0.3-2.06c-0.21-1.44-0.11-2.91,0.3-4.31c-1.96,3.48-5.88,5.37-9.82,4.73l-1.79-0.29
	l5.5-4.44l-6.31-2.12c5.33-0.49,10.22-3.15,13.53-7.36l0.34-0.43c1.07-1.36,1.97-2.86,2.67-4.44L622.53,291.75z"/>
<path class="st3" d="M611.39,336.98l0.05,0.53c0.07,0.82,0.49,1.56,1.15,2.04l-1.26,0.59c0.43,0.55,0.94,1.04,1.5,1.46l0.12,0.09
	l-1.93-0.05c0.6,0.64,1.28,1.21,2,1.71l0.11,0.07l-2.46,0.06l0.51,1.21l-0.13-0.05c-0.68-0.26-1.31-0.62-1.86-1.08
	c-0.5,0.92-1.36,1.62-2.37,1.92l-0.02,0.01l1.12-2.67l-1.87-1l0.25-0.05c0.8-0.17,1.56-0.46,2.27-0.87l-1.43-0.96l2.61-0.28
	l-1.13-0.96c0.76-0.3,1.47-0.71,2.11-1.2L611.39,336.98z"/>
<path class="st3" d="M616.08,350.11l0.06,0.59c0.07,0.66,0.42,1.25,0.97,1.63l-1,0.64c0.36,0.46,0.79,0.86,1.26,1.21l0.08,0.06
	l-1.55,0.11c0.5,0.52,1.06,0.99,1.67,1.39l0.07,0.04l-1.97,0.25l0.44,1.05l-0.08-0.03c-0.56-0.18-1.08-0.46-1.54-0.83l-0.04,0.09
	c-0.36,0.82-1.01,1.48-1.83,1.84l0.83-2.5l-1.53-0.75l0.16-0.05c0.66-0.22,1.28-0.56,1.84-0.98l-1.17-0.75l2.08-0.46l-0.93-0.77
	c0.6-0.33,1.15-0.75,1.63-1.23L616.08,350.11z"/>
<path class="st3" d="M636.58,350.07l0.46,0.34c0.67,0.5,1.53,0.7,2.35,0.56l-0.39,1.28c0.72,0.06,1.44,0.04,2.15-0.06l0.15-0.02
	l-1.34,1.31c0.9,0.01,1.8-0.08,2.68-0.25l0.13-0.02l-1.12,1.49c0.79,0.37,1.44,0.98,1.83,1.73l0.41,0.78l-2.56-1.28l-0.01,0.24
	c-0.01,0.42-0.11,0.83-0.28,1.21l-0.11-0.04c-0.33-0.1-0.62-0.29-0.84-0.54l-1.08,0.97l-0.21-1.32l-2.05,0.63l0.13-0.21
	c0.41-0.67,0.7-1.41,0.86-2.18l-1.71,0.35l1.54-2.01l-1.51,0.14c0.28-0.73,0.44-1.5,0.49-2.28L636.58,350.07z"/>
<path class="st3" d="M622.29,335.64l0.05,0.09c0.65,1.03,1.68,1.77,2.87,2.06l-1.54,0.91c0.88,0.41,1.8,0.73,2.74,0.97l0.31,0.08
	l-2.79,0.47c1.17,0.45,2.37,0.81,3.59,1.08l0.28,0.06l-3.51,0.72l1.3,1.03l-0.27-0.02c-1.05-0.06-2.1-0.24-3.11-0.53
	c-0.29,1.01-1.02,1.84-1.98,2.25l-0.57,0.24l0.37-2.86l-3.17-0.46l0.51-0.18c0.95-0.33,1.86-0.8,2.68-1.38l-2.51-0.54l3.62-0.97
	l-2.07-0.61c0.95-0.49,1.83-1.11,2.61-1.84L622.29,335.64z"/>
<path class="st8" d="M616.9,323.02c0.5,1.19,1.53,2.06,2.79,2.35l0.57,0.13l-3.09,1.1l0.31,0.14c0.9,0.4,1.83,0.73,2.79,0.97
	l-2.88,0.43l0.81,0.31c0.92,0.36,1.82,0.78,2.68,1.27l-3.18,0.31l1.59,1.15l-0.38-0.05c-1.33-0.16-2.65-0.44-3.93-0.84
	c-0.45,0.98-1.32,1.7-2.37,1.96l-1.11,0.28l0.7-2.82l-4.03-0.77l0.77-0.15c1.19-0.23,2.35-0.59,3.46-1.09l-3.18-0.78l4.73-0.6
	l-2.61-0.82c1.26-0.4,2.49-0.9,3.67-1.51L616.9,323.02z"/>
<path class="st8" d="M629.22,323.02c0.52,0.62,1.27,1.01,2.07,1.08l2.57,0.24l-1.76,1.26l0.31,0.05c1,0.15,2,0.24,3.01,0.24l0.76,0
	l-3.43,1.13l2.36,0.24l2.77-0.05l-4.29,1.54l1.86,0.69l-0.38,0.05c-1.33,0.19-2.67,0.27-4.02,0.22c-0.15,1.06-0.78,1.98-1.71,2.5
	l-0.98,0.55l-0.15-2.89l-4.1,0.31l0.69-0.34c1.08-0.53,2.09-1.19,3.01-1.96l-0.05,0.01c-1.06,0.2-2.16,0.23-3.24,0.07l2.85-1.69
	c-0.54-0.38-1-0.87-1.35-1.42l-0.08-0.12l0.05-0.01c0.78-0.12,1.57-0.18,2.36-0.18L629.22,323.02z"/>
<path class="st3" d="M634.5,335.36l0.35,0.44c0.61,0.78,1.52,1.27,2.51,1.36l-0.92,1.29c0.79,0.28,1.61,0.47,2.44,0.56l0.19,0.02
	l-2,1.04c1.02,0.27,2.07,0.45,3.12,0.52l0.17,0.01l-2.48,1.44l3.28,2.17c-1.7,0.02-3.34-0.66-4.55-1.86l-0.8-0.8v0.44
	c0,1.58-1.28,2.84-2.88,2.84l0.99-1.64l-1.83-0.14l0.24-0.21c0.7-0.6,1.29-1.31,1.75-2.11l-2.07-0.12l2.49-1.74l-1.76-0.29
	c0.58-0.72,1.06-1.52,1.41-2.38L634.5,335.36z"/>
<path class="st8" d="M622.62,297.73l1.98,4.5c0.47,1.07,1.05,2.09,1.73,3.04c1.77,2.48,4.18,4.44,6.97,5.68l1.01,0.45l-4.96-0.67
	l0.83,1.22l1.89,1.67h-1.3c-2.19,0-4.23-1.08-5.46-2.89v1.78v1.89l-0.35-0.17c-1.26-0.61-2.3-1.6-2.98-2.83
	c-0.41,0.73-0.99,1.34-1.7,1.79l-1.93,1.21l-0.11-0.41c-0.36-1.33-0.32-2.73,0.11-4.03l-0.04,0.06c-1.35,2.23-3.78,3.58-6.39,3.55
	l2.65-2.83h-3.05l0.6-0.2c2.9-0.95,5.41-2.82,7.16-5.33c0.63-0.91,1.16-1.89,1.56-2.91L622.62,297.73z"/>
<ellipse class="st0" cx="695.91" cy="446.21" rx="5.93" ry="3.04"/>
<rect x="689.99" y="429.52" class="st0" width="11.85" height="16.7"/>
<path class="st1" d="M697.04,427.49l4.8,6.58v7.08l-1.56-1.1c-1.59-1.12-3.06-2.39-4.41-3.8l-1.37-1.43l-0.57,0.95
	c-0.91,1.52-2.3,2.7-3.95,3.36v-5.57L697.04,427.49z"/>
<path class="st2" d="M695.63,380.94l25.92,38.16c0.58,0.85,1.39,1.53,2.33,1.95c0.54,0.24,1.12,0.37,1.71,0.37h1.93l-2.26,3.55
	l8.75,8.6l-4.52-0.18c-1.12-0.04-2.23-0.23-3.31-0.55l-1.31-0.39c-0.86-0.26-1.68-0.64-2.43-1.15l0.85,2.02l0.85,2.02l-2.67-1.08
	c-1.96-0.79-3.74-1.97-5.23-3.48c0.38,0.67,0.68,1.38,0.92,2.12l0.78,2.44l-2.33-0.38c-2.43-0.4-4.51-1.96-5.57-4.17l0.19,0.4
	c0.43,0.9,0.65,1.89,0.65,2.89c-1.44-0.32-2.7-1.21-3.48-2.47l-0.19-0.31c0,1.01,0.15,2.01,0.44,2.97l0.4,1.33
	c-2.24-0.83-4.3-2.08-6.08-3.68l-0.13-0.12l1.13,2.53l0.85,1.77l-3.49-0.38c-2.28-0.25-4.37-1.38-5.82-3.17
	c-1.85,1.99-4.16,3.52-6.72,4.44l-0.33,0.12l0.85-4.55c-0.75,1.01-1.64,1.9-2.64,2.65l-0.18,0.13c-0.19-0.84-0.28-1.7-0.28-2.56
	v-0.22c-1.12,1.51-2.51,2.79-4.1,3.77l-1.26,0.78v-0.43c0-1.39,0.19-2.78,0.56-4.13c-2.42,1.5-5.12,2.49-7.94,2.92l-0.81,0.12
	l2.26-2.53l1.97-1.77c-2.22,1.5-4.78,2.43-7.44,2.72l-5.21,0.57l1.05-0.76c1.15-0.84,2.2-1.79,3.15-2.85
	c-2.75,1.04-5.73,1.3-8.61,0.74l-3.82-0.74l10.33-5.99l-1.24-0.81c-0.57-0.37-1.06-0.83-1.47-1.37l1.97-0.36
	c1.45-0.33,2.71-1.21,3.51-2.45l4.11-6.4L695.63,380.94z"/>
<path class="st3" d="M700.69,418.79l0.57,0.54c0.98,0.93,2.3,1.44,3.65,1.41l-0.96,1.83c1.12,0.25,2.27,0.38,3.4,0.37l0.26,0
	l-2.47,1.67c1.43,0.21,2.87,0.28,4.3,0.21l0.23-0.01l-3.03,2.27l1.92,0.97l-0.22,0.06c-1.12,0.31-2.29,0.44-3.47,0.4
	c0.35,1.59,0.44,3.21,0.26,4.8l-0.98-0.89c-1.06-0.96-1.66-2.28-1.66-3.63l-3.42,0.5l0.28-0.31c0.81-0.9,1.46-1.92,1.91-3.04
	l-2.81,0.16l2.98-2.67l-2.43-0.11c0.63-1.03,1.1-2.16,1.39-3.34L700.69,418.79z"/>
<path class="st3" d="M673.94,419.65l-0.04,0.67c-0.07,1.09,0.36,2.13,1.17,2.87l-1.85,0.55c0.49,0.78,1.08,1.5,1.76,2.14l0.15,0.14
	l-2.63-0.39c0.7,0.93,1.51,1.79,2.4,2.56l0.14,0.12l-3.38-0.35l0.45,1.66l-1.49-0.76l-0.84-0.56c-0.52,0.97-1.62,1.57-2.74,1.5
	l-3.2-0.19l0.44-0.23c1.39-0.72,2.65-1.65,3.73-2.75l-2.37-1.62l0.37-0.03c1.12-0.08,2.22-0.33,3.27-0.74l-1.77-1.49l3.63,0.08
	l-1.36-1.43c1.1-0.26,2.16-0.67,3.15-1.21L673.94,419.65z"/>
<path class="st4" d="M694.81,410.79l21.14,1.27l3.67,4.3l1.41,2.02l-5.64-3.54c0,1.34-0.24,2.67-0.71,3.92l-0.14,0.38l-0.34-0.15
	c-2.38-1.07-4.48-2.66-6.15-4.66c-0.19,1.17-0.17,2.37,0.05,3.54l0.24,1.27l-1.91-0.76c-2.1-0.84-4.03-2.03-5.71-3.54l-0.06,0.21
	c-0.34,1.21-0.79,2.39-1.35,3.51l-0.29,0.58l-0.87-0.45c-1.66-0.87-3.09-2.09-4.21-3.59l-0.41,0.34c-1.77,1.44-3.85,2.45-6.08,2.95
	l-3.1,0.51l0.15-1.23c0.09-0.69,0.03-1.39-0.15-2.05l-3.1,2.28l-2.82,2.02l-0.06-0.42c-0.15-1.07-0.41-2.11-0.79-3.12l-0.1,0.15
	c-1.24,1.75-2.75,3.28-4.48,4.55l-0.5,0.36l-0.56-2.28l-0.56-2.02l-3.39,3.04l3.67-6.07L694.81,410.79z"/>
<path class="st2" d="M695.63,365.25l23.03,36.85c1.17,1.01,2.67,1.57,4.22,1.57h0.33l-2.73,1.83l1.21,2.09
	c1.37,0.68,2.94,0.86,4.43,0.52l2.24-0.52l-5.15,4.71l2.73,6.02l-2.65-0.34c-2.23-0.29-4.35-1.16-6.14-2.54l-3.03-2.36
	c0.77,1.49,0.84,3.25,0.18,4.8l-0.18,0.44l-0.93-0.36c-1.57-0.62-2.93-1.67-3.92-3.04l-1.52-2.62c-0.78,1.68-0.86,3.59-0.24,5.33
	l0.24,0.69l-0.05-0.02c-2.94-1.02-5.54-2.82-7.52-5.22c-0.2,1.82-0.72,3.59-1.52,5.23l-0.82-0.61c-1.66-1.24-3.03-2.81-4.03-4.62
	c-1.52,2.79-4.3,4.67-7.46,5.04l-1.63,0.19l0.43-1.36c0.3-0.96,0.14-2-0.43-2.83l-1.82,1.7l-4.24,3.27c0-1.54-0.41-3.06-1.18-4.39
	l-0.33-0.58c-0.19,1.68-1.04,3.21-2.36,4.26l-1.88,1.5l-0.21-0.42c-0.64-1.25-0.78-2.69-0.39-4.03l-0.31,0.22
	c-1,0.72-2.13,1.22-3.34,1.48c-1.2,0.26-2.43,0.27-3.63,0.03l-2.12-0.42c1.61-1.21,3.03-2.66,4.23-4.28l0.32-0.43
	c-1.27,0.16-2.51-0.5-3.1-1.64l-0.23-0.46l0.54,0.06c1.24,0.13,2.5,0.02,3.7-0.32l1.21-2.09l-2.73-2.09l0.59-0.13
	c2.71-0.59,5.06-2.27,6.48-4.66l8.99-15.1L695.63,365.25z"/>
<path class="st5" d="M693.88,391.06h11.37l12.1,8.6l0.85,1.77l-2.33-0.98c-1.64-0.69-3.17-1.6-4.57-2.69l-0.15-0.12v2.91v2.91
	l-4.51-6.07l-0.81,2.07c-0.77,1.97-1.93,3.76-3.42,5.26l-3.67-5.31l-0.22,0.49c-0.23,0.52-0.51,1.02-0.82,1.49l-0.37,0.56
	l-2.82-2.28l-1.97-1.52l-1.82,1.63c-0.48,0.43-0.99,0.81-1.54,1.14c-1.14,0.68-2.33,1.27-3.57,1.76l-0.69,0.27l0.85-3.8l-0.56,0.43
	c-2.06,1.57-4.32,2.86-6.71,3.84l-0.08,0.03l-1.11-5.06l-4.8,4.81l0.36-0.51l3.87-6.83L693.88,391.06z"/>
<path class="st2" d="M693.84,354.12l17.33,25.33c1.4,2.04,3.71,3.26,6.18,3.26l-3.1,2.02c1.87,3.45,5.66,5.41,9.56,4.95l1.03-0.12
	c0.06-0.01,0.1,0.05,0.08,0.1l-0.06,0.13c-0.83,1.94-2.42,3.47-4.39,4.23l-0.86,0.33l3.95,5.82h-4.28c-3.69,0-7.14-1.79-9.27-4.81
	v4.81l-3.38-3.72l-1.41,1.95l-2.82,4.81l-2.82-4.81l-1.41-3.04v0.61c0,1.61-0.29,3.2-0.85,4.71l-2.54-2.28l-2.26-1.95
	c-0.92,1.76-2.35,3.21-4.1,4.15l-2.95,1.59l0.37-0.67c0.86-1.55,1.32-3.3,1.32-5.07c-1.1,1.76-2.71,3.16-4.61,4.01l-3.86,1.73
	l-0.56-2.53l-0.56-2.78c-1.94,2.85-5.17,4.55-8.61,4.55h-1.82l0.46-1.04c0.81-1.82,1.89-3.52,3.2-5.03l-6.77-3.63l2.76-0.6
	c2.08-0.45,4.02-1.39,5.67-2.73l-4.2-2.05c3.36,0,6.49-1.73,8.27-4.58L693.84,354.12z"/>
<path class="st6" d="M693.92,368.29h8.84l7.62,9.87l1.13,1.77l-3.25-0.61c-2.27-0.42-4.32-1.64-5.78-3.44
	c0.56,2.68,0.67,5.43,0.34,8.15l-0.06,0.45l-3.67-1.83c-2.58-1.29-4.73-3.29-6.21-5.76c-2.75,2.94-5.88,5.49-9.31,7.59l-0.11-0.24
	c-1.03-2.31-1.29-4.88-0.74-7.35l-5.44,3.54l0.28-0.51l4.31-6.58L693.92,368.29z"/>
<path class="st7" d="M697.89,420.39h0.25c0.33,0,0.59,0.27,0.59,0.59c0,0.28-0.1,0.55-0.28,0.77l-0.56,0.66l-0.42-0.95
	c-0.09-0.21-0.14-0.44-0.14-0.67c0-0.23,0.18-0.41,0.41-0.41H697.89z"/>
<path class="st7" d="M687.23,432.25c-0.15,0.1-0.33,0.12-0.49,0.05l-0.13-0.06c-0.31-0.13-0.49-0.46-0.42-0.8l0.02-0.12
	c0.04-0.21,0.15-0.4,0.32-0.55l0.76-0.64l0.04,1.18c0,0.07,0.02,0.14,0.04,0.21l0.05,0.12C687.5,431.87,687.42,432.12,687.23,432.25
	z"/>
<path class="st2" d="M694.55,343.75l5.58,10.61c1.15,2.19,2.55,4.25,4.15,6.14l0.46,0.54c4.69,5.51,11.14,9.23,18.26,10.54
	l-10.16,1.77l2.26,2.78l2.82,3.04l-2.27,0.16c-5.3,0.37-10.44-1.86-13.79-5.98v4.05v4.3l-1.46-0.59c-3.1-1.26-5.75-3.44-7.59-6.24
	c-1.11,1.67-2.59,3.06-4.32,4.07l-4.71,2.76l-0.41-2.69c-0.29-1.89-0.15-3.83,0.41-5.66c-2.73,4.59-7.97,7.06-13.24,6.25l-2.84-0.43
	l7.62-5.82l-8.75-2.78c7.4-0.65,14.24-4.23,19-9.94l0.13-0.16c1.55-1.87,2.86-3.92,3.89-6.12L694.55,343.75z"/>
<path class="st3" d="M679.1,403.02l0.06,0.64c0.1,1.11,0.68,2.1,1.6,2.73l-1.75,0.78c0.6,0.71,1.3,1.35,2.07,1.9l0.18,0.12
	l-2.67-0.06c0.84,0.83,1.76,1.58,2.76,2.23l0.16,0.1l-3.41,0.08l0.71,1.59l-0.18-0.07c-0.93-0.33-1.8-0.81-2.57-1.41
	c-0.7,1.21-1.86,2.11-3.22,2.5l-0.1,0.03l1.55-3.5l-2.6-1.32l0.37-0.07c1.09-0.22,2.14-0.6,3.12-1.14l-1.98-1.26l3.61-0.36
	l-1.56-1.26c1.05-0.39,2.04-0.93,2.94-1.59L679.1,403.02z"/>
<path class="st3" d="M685.6,420.24l0.08,0.72c0.1,0.9,0.59,1.7,1.34,2.19l-1.38,0.83c0.5,0.6,1.09,1.13,1.73,1.57l0.12,0.08
	l-2.14,0.15c0.69,0.69,1.47,1.3,2.3,1.82l0.1,0.07l-2.73,0.33l0.61,1.38l-0.13-0.04c-0.77-0.23-1.49-0.6-2.12-1.08l-0.03,0.07
	c-0.51,1.1-1.43,1.99-2.56,2.47l1.15-3.27l-2.12-0.99l0.24-0.08c0.9-0.29,1.76-0.72,2.52-1.28l-1.63-0.98l2.89-0.6l-1.29-1.01
	c0.83-0.43,1.6-0.98,2.28-1.62L685.6,420.24z"/>
<path class="st3" d="M714.01,420.18l0.6,0.42c0.95,0.66,2.15,0.94,3.29,0.75l-0.54,1.68c0.99,0.08,1.99,0.06,2.97-0.08l0.21-0.03
	l-1.85,1.72c1.25,0.01,2.5-0.1,3.71-0.32l0.18-0.03l-1.56,1.96c1.09,0.48,1.99,1.29,2.54,2.28l0.56,1.01l-3.54-1.67l-0.01,0.3
	c-0.02,0.56-0.15,1.1-0.39,1.6l-0.16-0.05c-0.45-0.13-0.85-0.38-1.16-0.71l-1.5,1.26l-0.29-1.73l-2.84,0.83l0.18-0.28
	c0.56-0.87,0.96-1.83,1.18-2.84l-2.38,0.46l2.14-2.63l-2.09,0.19c0.39-0.96,0.61-1.97,0.68-3.01L714.01,420.18z"/>
<path class="st3" d="M694.21,401.27l0.02,0.04c0.94,1.41,2.38,2.4,4.03,2.77l-2.14,1.19l0.22,0.09c1.08,0.47,2.2,0.85,3.35,1.12
	l0.67,0.16l-3.87,0.62l2.43,0.88l2.93,0.61l-4.87,0.94l1.8,1.35l-0.39-0.02c-1.46-0.08-2.9-0.31-4.31-0.7
	c-0.4,1.32-1.38,2.39-2.66,2.92l-0.87,0.36l0.51-3.75l-4.39-0.6l0.74-0.24c1.31-0.43,2.55-1.04,3.69-1.8l-3.48-0.7l5.02-1.27
	l-2.87-0.81c1.32-0.64,2.54-1.46,3.64-2.44L694.21,401.27z"/>
<path class="st8" d="M686.73,384.74c0.69,1.56,2.08,2.69,3.76,3.06l0.91,0.2l-4.29,1.44l0.78,0.33c1,0.43,2.04,0.77,3.11,1.02
	l0.39,0.09l-4,0.57l1.14,0.41c1.27,0.46,2.51,1.02,3.71,1.66l-4.41,0.4l2.2,1.51l-0.53-0.06c-1.84-0.21-3.66-0.58-5.44-1.1
	c-0.63,1.28-1.8,2.22-3.19,2.54l-1.63,0.39l0.97-3.69l-5.59-1.02l1.08-0.19c1.64-0.29,3.24-0.77,4.78-1.43l-4.41-1.03l6.56-0.79
	l-3.62-1.07l0.21-0.06c1.61-0.48,3.18-1.09,4.7-1.83L686.73,384.74z"/>
<path class="st8" d="M703.81,384.74c0.72,0.81,1.73,1.32,2.8,1.41l3.62,0.32l-2.44,1.65l1.07,0.16c0.96,0.14,1.92,0.21,2.89,0.22
	l1.7,0.01l-4.76,1.49l3.28,0.31l3.84-0.06l-5.94,2.02l2.58,0.91l-0.53,0.07c-1.84,0.25-3.7,0.35-5.57,0.29
	c-0.21,1.39-1.05,2.58-2.29,3.24l-1.44,0.77l-0.21-3.79l-5.68,0.41l0.98-0.45c1.48-0.69,2.88-1.55,4.15-2.56l-0.08,0.01
	c-1.47,0.27-2.98,0.3-4.47,0.09l3.95-2.21c-0.74-0.5-1.38-1.14-1.88-1.88l-0.09-0.14l0.07-0.01c1.08-0.16,2.17-0.24,3.26-0.24
	L703.81,384.74z"/>
<path class="st3" d="M711.13,400.91l0.43,0.52c0.88,1.06,2.16,1.73,3.52,1.84l-1.27,1.69c1.1,0.37,2.23,0.61,3.37,0.73l0.28,0.03
	l-2.77,1.37c1.42,0.36,2.86,0.58,4.31,0.67l0.25,0.02l-3.44,1.89l4.54,2.85c-2.35,0.02-4.66-0.89-6.39-2.53l-1.02-0.96v0.4
	c0,2.18-1.76,3.9-3.99,3.9l1.37-2.15l-2.54-0.18l0.36-0.29c0.95-0.77,1.77-1.7,2.41-2.74l-2.87-0.15l3.46-2.28l-2.44-0.38
	c0.81-0.94,1.47-2,1.96-3.14L711.13,400.91z"/>
<path class="st8" d="M694.66,351.59l2.71,5.82c0.68,1.46,1.51,2.84,2.48,4.12c2.43,3.22,5.67,5.74,9.4,7.29l1.62,0.68l-6.87-0.87
	l1.15,1.6l2.62,2.18h-1.98c-2.93,0-5.68-1.41-7.39-3.79v2.33v2.48l-0.57-0.26c-1.69-0.78-3.11-2.06-4.04-3.67
	c-0.57,0.96-1.36,1.75-2.32,2.32l-2.72,1.61l-0.15-0.53c-0.49-1.74-0.44-3.58,0.15-5.29c-1.91,2.99-5.23,4.78-8.77,4.73l-0.14,0
	l3.67-3.71h-4.23l1.1-0.34c3.85-1.2,7.21-3.59,9.6-6.83c0.91-1.23,1.66-2.57,2.25-3.98L694.66,351.59z"/>
<ellipse class="st0" cx="734.91" cy="473.21" rx="5.93" ry="3.04"/>
<rect x="728.99" y="456.52" class="st0" width="11.85" height="16.7"/>
<path class="st1" d="M736.04,454.49l4.8,6.58v7.08l-1.56-1.1c-1.59-1.12-3.06-2.39-4.41-3.8l-1.37-1.43l-0.57,0.95
	c-0.91,1.52-2.3,2.7-3.95,3.36v-5.57L736.04,454.49z"/>
<path class="st2" d="M734.63,407.94l25.92,38.16c0.58,0.85,1.39,1.53,2.33,1.95c0.54,0.24,1.12,0.37,1.71,0.37h1.93l-2.26,3.55
	l8.75,8.6l-4.52-0.18c-1.12-0.04-2.23-0.23-3.31-0.55l-1.31-0.39c-0.86-0.26-1.68-0.64-2.43-1.15l0.85,2.02l0.85,2.02l-2.67-1.08
	c-1.96-0.79-3.74-1.97-5.23-3.48c0.38,0.67,0.68,1.38,0.92,2.12l0.78,2.44l-2.33-0.38c-2.43-0.4-4.51-1.96-5.57-4.17l0.19,0.4
	c0.43,0.9,0.65,1.89,0.65,2.89c-1.44-0.32-2.7-1.21-3.47-2.47l-0.19-0.31c0,1.01,0.15,2.01,0.44,2.97l0.4,1.33
	c-2.24-0.83-4.3-2.08-6.08-3.68l-0.13-0.12l1.13,2.53l0.85,1.77l-3.49-0.38c-2.28-0.25-4.37-1.38-5.82-3.17
	c-1.85,1.99-4.16,3.52-6.72,4.44l-0.33,0.12l0.85-4.55c-0.75,1.01-1.64,1.9-2.64,2.65l-0.18,0.13c-0.19-0.84-0.28-1.7-0.28-2.56
	v-0.22c-1.12,1.51-2.51,2.79-4.1,3.77l-1.26,0.78v-0.43c0-1.39,0.19-2.78,0.56-4.13c-2.42,1.5-5.12,2.49-7.94,2.92l-0.81,0.12
	l2.26-2.53l1.98-1.77c-2.22,1.5-4.78,2.43-7.44,2.72l-5.21,0.57l1.05-0.76c1.15-0.84,2.2-1.79,3.15-2.85
	c-2.75,1.04-5.73,1.3-8.61,0.74l-3.82-0.74l10.33-5.99l-1.24-0.81c-0.57-0.37-1.06-0.83-1.47-1.37l1.98-0.36
	c1.45-0.33,2.71-1.21,3.51-2.45l4.11-6.4L734.63,407.94z"/>
<path class="st3" d="M739.69,445.79l0.57,0.54c0.98,0.93,2.3,1.44,3.65,1.41l-0.96,1.83c1.12,0.25,2.27,0.38,3.4,0.37l0.26,0
	l-2.47,1.67c1.43,0.21,2.87,0.28,4.3,0.21l0.23-0.01l-3.03,2.27l1.92,0.97l-0.22,0.06c-1.12,0.31-2.29,0.44-3.47,0.4
	c0.35,1.59,0.44,3.21,0.26,4.8l-0.98-0.89c-1.06-0.96-1.66-2.28-1.66-3.63l-3.42,0.5l0.28-0.31c0.81-0.9,1.46-1.92,1.91-3.04
	l-2.81,0.16l2.98-2.67l-2.43-0.11c0.63-1.03,1.1-2.16,1.39-3.34L739.69,445.79z"/>
<path class="st3" d="M712.94,446.65l-0.04,0.67c-0.07,1.09,0.36,2.13,1.17,2.87l-1.86,0.55c0.49,0.78,1.08,1.5,1.76,2.14l0.15,0.14
	l-2.63-0.39c0.7,0.93,1.51,1.79,2.4,2.56l0.14,0.12l-3.38-0.35l0.45,1.66l-1.49-0.76l-0.84-0.56c-0.52,0.97-1.61,1.57-2.74,1.5
	l-3.2-0.19l0.44-0.23c1.39-0.72,2.65-1.65,3.73-2.75l-2.37-1.62l0.37-0.03c1.12-0.08,2.22-0.33,3.27-0.74l-1.77-1.49l3.64,0.08
	l-1.36-1.43c1.1-0.26,2.16-0.67,3.15-1.21L712.94,446.65z"/>
<path class="st4" d="M733.81,437.79l21.14,1.27l3.67,4.3l1.41,2.02l-5.64-3.54c0,1.34-0.24,2.67-0.71,3.92l-0.14,0.38l-0.34-0.15
	c-2.38-1.07-4.48-2.66-6.15-4.66c-0.19,1.17-0.17,2.37,0.05,3.54l0.24,1.27l-1.91-0.76c-2.1-0.84-4.03-2.03-5.71-3.54l-0.06,0.21
	c-0.34,1.21-0.79,2.39-1.35,3.51l-0.29,0.58l-0.87-0.45c-1.65-0.87-3.09-2.09-4.21-3.59l-0.42,0.34c-1.77,1.44-3.85,2.45-6.08,2.95
	l-3.1,0.51l0.15-1.23c0.09-0.69,0.03-1.39-0.15-2.05l-3.1,2.28l-2.82,2.02l-0.06-0.42c-0.15-1.07-0.41-2.11-0.79-3.12l-0.1,0.15
	c-1.24,1.75-2.75,3.28-4.48,4.55l-0.5,0.36l-0.56-2.28l-0.57-2.02l-3.39,3.04l3.67-6.07L733.81,437.79z"/>
<path class="st2" d="M734.63,392.26l23.03,36.85c1.17,1.01,2.67,1.57,4.22,1.57h0.33l-2.73,1.83l1.21,2.09
	c1.37,0.68,2.94,0.86,4.43,0.52l2.24-0.52l-5.15,4.71l2.73,6.02l-2.65-0.34c-2.23-0.29-4.35-1.16-6.14-2.54l-3.03-2.35
	c0.77,1.49,0.84,3.25,0.18,4.8l-0.18,0.44l-0.93-0.36c-1.57-0.62-2.93-1.67-3.92-3.04l-1.52-2.62c-0.78,1.68-0.86,3.59-0.24,5.33
	l0.24,0.69l-0.05-0.02c-2.94-1.01-5.54-2.82-7.52-5.22c-0.2,1.82-0.72,3.59-1.52,5.23l-0.82-0.61c-1.66-1.24-3.03-2.81-4.03-4.62
	c-1.52,2.79-4.3,4.67-7.46,5.04l-1.63,0.19l0.43-1.36c0.3-0.96,0.14-2-0.43-2.83l-1.82,1.7l-4.24,3.27c0-1.54-0.41-3.06-1.18-4.39
	l-0.34-0.58c-0.19,1.68-1.04,3.21-2.36,4.26l-1.88,1.5l-0.22-0.42c-0.64-1.24-0.78-2.69-0.39-4.03l-0.3,0.22
	c-1,0.72-2.13,1.22-3.34,1.48c-1.2,0.26-2.43,0.27-3.64,0.03l-2.12-0.42c1.61-1.21,3.03-2.66,4.23-4.28l0.32-0.43
	c-1.27,0.16-2.51-0.5-3.1-1.64l-0.23-0.46l0.54,0.06c1.24,0.13,2.5,0.02,3.7-0.32l1.21-2.09l-2.73-2.09l0.59-0.13
	c2.71-0.59,5.06-2.28,6.48-4.66l8.99-15.1L734.63,392.26z"/>
<path class="st5" d="M732.88,418.06h11.37l12.1,8.6l0.85,1.77l-2.33-0.98c-1.64-0.69-3.17-1.6-4.57-2.69l-0.15-0.12v2.91v2.91
	l-4.51-6.07l-0.81,2.07c-0.77,1.97-1.93,3.76-3.42,5.26l-3.67-5.31l-0.22,0.49c-0.23,0.52-0.51,1.02-0.82,1.49l-0.37,0.56
	l-2.82-2.28l-1.97-1.52l-1.82,1.63c-0.48,0.43-0.99,0.81-1.54,1.14c-1.14,0.68-2.33,1.27-3.57,1.76l-0.68,0.27l0.85-3.79l-0.56,0.43
	c-2.06,1.57-4.32,2.86-6.71,3.84l-0.08,0.03l-1.11-5.06l-4.8,4.81l0.36-0.51l3.87-6.83L732.88,418.06z"/>
<path class="st2" d="M732.84,381.12l17.33,25.33c1.4,2.04,3.71,3.26,6.18,3.26l-3.1,2.02c1.87,3.45,5.66,5.41,9.56,4.94l1.03-0.12
	c0.06-0.01,0.1,0.05,0.08,0.1l-0.06,0.13c-0.83,1.94-2.42,3.47-4.39,4.23l-0.86,0.33l3.95,5.82h-4.28c-3.69,0-7.14-1.79-9.27-4.81
	v4.81l-3.38-3.72l-1.41,1.95l-2.82,4.81l-2.82-4.81l-1.41-3.04v0.61c0,1.61-0.29,3.2-0.85,4.71l-2.54-2.28l-2.26-1.95
	c-0.92,1.76-2.35,3.21-4.1,4.15l-2.95,1.59l0.37-0.67c0.87-1.55,1.32-3.3,1.32-5.07c-1.1,1.77-2.71,3.16-4.61,4.01l-3.86,1.73
	l-0.56-2.53l-0.57-2.78c-1.94,2.85-5.17,4.55-8.61,4.55h-1.83l0.46-1.04c0.81-1.83,1.89-3.52,3.2-5.03l-6.77-3.63l2.76-0.6
	c2.08-0.45,4.02-1.39,5.67-2.73l-4.2-2.05c3.36,0,6.49-1.73,8.27-4.58L732.84,381.12z"/>
<path class="st6" d="M732.92,395.29h8.84l7.62,9.87l1.13,1.77l-3.25-0.61c-2.27-0.43-4.32-1.65-5.78-3.44
	c0.56,2.68,0.67,5.43,0.34,8.15l-0.06,0.45l-3.67-1.83c-2.58-1.29-4.73-3.29-6.21-5.76c-2.75,2.94-5.88,5.49-9.31,7.59l-0.11-0.24
	c-1.03-2.3-1.29-4.88-0.74-7.35l-5.44,3.54l0.28-0.51l4.31-6.58L732.92,395.29z"/>
<path class="st7" d="M736.89,447.39h0.25c0.33,0,0.59,0.27,0.59,0.59c0,0.28-0.1,0.55-0.28,0.77l-0.56,0.66l-0.42-0.95
	c-0.09-0.21-0.14-0.44-0.14-0.67c0-0.23,0.18-0.41,0.41-0.41H736.89z"/>
<path class="st7" d="M726.23,459.25c-0.15,0.1-0.33,0.12-0.49,0.05l-0.13-0.06c-0.31-0.13-0.49-0.46-0.42-0.8l0.02-0.12
	c0.04-0.21,0.15-0.4,0.32-0.55l0.76-0.64l0.04,1.18c0,0.07,0.02,0.14,0.04,0.21l0.05,0.12C726.5,458.87,726.42,459.12,726.23,459.25
	z"/>
<path class="st2" d="M733.55,370.75l5.58,10.61c1.15,2.19,2.55,4.25,4.15,6.14l0.46,0.54c4.69,5.51,11.14,9.23,18.26,10.54
	l-10.16,1.77l2.26,2.78l2.82,3.04l-2.27,0.16c-5.3,0.38-10.44-1.86-13.79-5.98v4.05v4.3l-1.46-0.6c-3.1-1.26-5.75-3.43-7.59-6.24
	c-1.11,1.66-2.59,3.06-4.32,4.07l-4.71,2.76l-0.41-2.69c-0.29-1.89-0.15-3.83,0.41-5.66c-2.73,4.59-7.97,7.06-13.24,6.25l-2.84-0.43
	l7.62-5.82l-8.75-2.78c7.4-0.65,14.24-4.22,19-9.94l0.13-0.16c1.55-1.87,2.86-3.92,3.89-6.12L733.55,370.75z"/>
<path class="st3" d="M718.1,430.02l0.06,0.64c0.1,1.11,0.68,2.1,1.6,2.73l-1.75,0.78c0.6,0.71,1.3,1.35,2.07,1.9l0.17,0.12
	l-2.67-0.06c0.84,0.83,1.76,1.58,2.76,2.23l0.16,0.1l-3.41,0.07l0.71,1.59l-0.18-0.07c-0.93-0.33-1.8-0.81-2.57-1.41
	c-0.7,1.21-1.86,2.11-3.22,2.5l-0.1,0.03l1.55-3.5l-2.6-1.32l0.37-0.07c1.09-0.22,2.14-0.6,3.12-1.14l-1.98-1.26l3.61-0.36
	l-1.56-1.26c1.05-0.39,2.04-0.93,2.94-1.59L718.1,430.02z"/>
<path class="st3" d="M724.6,447.24l0.08,0.72c0.1,0.9,0.59,1.7,1.34,2.19l-1.38,0.83c0.5,0.6,1.08,1.13,1.73,1.57l0.12,0.08
	l-2.14,0.15c0.7,0.69,1.47,1.3,2.3,1.82l0.1,0.07l-2.73,0.33l0.61,1.38l-0.13-0.04c-0.77-0.23-1.49-0.6-2.12-1.08l-0.03,0.07
	c-0.51,1.1-1.43,1.99-2.56,2.47l1.15-3.27l-2.12-0.99l0.24-0.08c0.9-0.29,1.76-0.72,2.52-1.28l-1.62-0.98l2.89-0.6l-1.29-1.01
	c0.83-0.43,1.6-0.98,2.28-1.62L724.6,447.24z"/>
<path class="st3" d="M753.01,447.18l0.6,0.42c0.95,0.66,2.15,0.94,3.29,0.75l-0.54,1.68c0.99,0.08,1.99,0.06,2.97-0.08l0.21-0.03
	l-1.85,1.72c1.25,0.01,2.5-0.1,3.71-0.32l0.18-0.03l-1.56,1.96c1.09,0.48,1.99,1.29,2.54,2.28l0.56,1.01l-3.54-1.67l-0.01,0.3
	c-0.02,0.56-0.15,1.1-0.39,1.6l-0.16-0.05c-0.45-0.13-0.85-0.38-1.16-0.71l-1.5,1.26l-0.29-1.73l-2.84,0.83l0.18-0.28
	c0.56-0.87,0.96-1.83,1.18-2.84l-2.38,0.46l2.14-2.63l-2.09,0.19c0.39-0.96,0.61-1.97,0.68-3.01L753.01,447.18z"/>
<path class="st3" d="M733.21,428.27l0.02,0.04c0.94,1.41,2.38,2.4,4.03,2.77l-2.14,1.19l0.22,0.09c1.08,0.47,2.2,0.85,3.35,1.12
	l0.67,0.16l-3.87,0.62l2.43,0.88l2.93,0.61l-4.87,0.94l1.8,1.35l-0.39-0.02c-1.46-0.08-2.9-0.31-4.31-0.7
	c-0.4,1.32-1.38,2.39-2.66,2.92l-0.87,0.36l0.51-3.75l-4.39-0.6l0.74-0.24c1.31-0.43,2.55-1.04,3.69-1.8l-3.48-0.7l5.02-1.27
	l-2.87-0.8c1.32-0.65,2.54-1.47,3.64-2.44L733.21,428.27z"/>
<path class="st8" d="M725.73,411.74c0.69,1.56,2.08,2.69,3.76,3.06l0.91,0.2l-4.29,1.44l0.79,0.33c1,0.43,2.04,0.77,3.11,1.02
	l0.39,0.09l-4,0.57l1.14,0.41c1.28,0.46,2.51,1.02,3.71,1.66l-4.41,0.4l2.2,1.51l-0.53-0.06c-1.84-0.21-3.66-0.58-5.44-1.1
	c-0.63,1.28-1.8,2.22-3.19,2.54l-1.63,0.39l0.97-3.69l-5.59-1.02l1.08-0.19c1.64-0.29,3.24-0.77,4.78-1.43l-4.41-1.03l6.56-0.79
	l-3.62-1.07l0.21-0.06c1.61-0.48,3.18-1.09,4.7-1.83L725.73,411.74z"/>
<path class="st8" d="M742.81,411.74c0.72,0.81,1.73,1.32,2.8,1.41l3.62,0.32l-2.44,1.65l1.07,0.16c0.96,0.14,1.92,0.21,2.89,0.22
	l1.7,0.01l-4.76,1.48l3.28,0.31l3.84-0.06l-5.94,2.03l2.58,0.91l-0.53,0.07c-1.84,0.25-3.7,0.35-5.57,0.29
	c-0.21,1.39-1.05,2.58-2.29,3.24l-1.44,0.77l-0.21-3.79l-5.68,0.41l0.98-0.45c1.48-0.69,2.88-1.55,4.15-2.56l-0.08,0.02
	c-1.47,0.27-2.98,0.3-4.47,0.09l3.95-2.21c-0.74-0.5-1.38-1.14-1.88-1.88l-0.09-0.14l0.07-0.01c1.08-0.16,2.17-0.24,3.26-0.24
	L742.81,411.74z"/>
<path class="st3" d="M750.13,427.91l0.43,0.52c0.88,1.06,2.16,1.73,3.52,1.84l-1.27,1.69c1.1,0.37,2.23,0.61,3.37,0.73l0.28,0.03
	l-2.77,1.37c1.42,0.36,2.86,0.58,4.31,0.68l0.25,0.02l-3.44,1.89l4.54,2.85c-2.35,0.02-4.66-0.89-6.39-2.53l-1.02-0.96v0.4
	c0,2.18-1.76,3.9-3.99,3.9l1.37-2.15l-2.54-0.18l0.36-0.29c0.95-0.77,1.77-1.7,2.41-2.74l-2.87-0.15l3.46-2.28l-2.44-0.38
	c0.81-0.94,1.47-2,1.96-3.14L750.13,427.91z"/>
<path class="st8" d="M733.66,378.59l2.71,5.82c0.68,1.46,1.51,2.84,2.48,4.12c2.43,3.22,5.67,5.74,9.4,7.29l1.62,0.68l-6.87-0.87
	l1.15,1.6l2.62,2.18h-1.98c-2.93,0-5.68-1.41-7.39-3.79v2.33v2.48l-0.57-0.26c-1.69-0.78-3.11-2.06-4.04-3.67
	c-0.57,0.96-1.36,1.75-2.32,2.32l-2.72,1.61l-0.15-0.54c-0.49-1.74-0.44-3.58,0.15-5.29c-1.91,2.99-5.23,4.78-8.77,4.73l-0.14,0
	l3.67-3.71h-4.23l1.11-0.34c3.85-1.2,7.21-3.59,9.6-6.83c0.91-1.23,1.66-2.57,2.25-3.98L733.66,378.59z"/>
<ellipse class="st0" cx="623.52" cy="369.93" rx="4.27" ry="2.32"/>
<rect x="619.24" y="357.19" class="st0" width="8.55" height="12.74"/>
<path class="st1" d="M624.33,355.65l3.46,5.02v5.41l-0.49-0.37c-1.57-1.17-3.02-2.49-4.33-3.94l-0.47-0.52l-0.44,0.78
	c-0.64,1.12-1.63,2-2.81,2.5v-4.25L624.33,355.65z"/>
<path class="st2" d="M623.31,320.13l18.73,29.16c0.4,0.62,0.97,1.12,1.64,1.44c0.4,0.19,0.83,0.29,1.27,0.29h1.37l-1.63,2.71
	l6.31,6.56l-3.24-0.14c-0.82-0.04-1.63-0.18-2.42-0.43l-0.92-0.29c-0.63-0.2-1.23-0.5-1.77-0.88l0.61,1.54l0.61,1.54l-1.88-0.8
	c-1.44-0.62-2.74-1.53-3.82-2.67c0.27,0.51,0.49,1.05,0.66,1.61l0.56,1.87l-1.56-0.27c-1.83-0.32-3.38-1.52-4.14-3.21l0.13,0.3
	c0.31,0.7,0.48,1.45,0.48,2.21c-1.04-0.25-1.93-0.91-2.47-1.83l-0.17-0.29c0,0.77,0.11,1.53,0.32,2.27l0.29,1.01
	c-1.61-0.64-3.09-1.58-4.35-2.77l-0.13-0.12l0.81,1.93l0.61,1.35l-2.43-0.28c-1.7-0.19-3.25-1.07-4.29-2.43
	c-1.34,1.52-3.03,2.69-4.92,3.41l-0.17,0.06l0.61-3.47c-0.54,0.77-1.19,1.45-1.93,2.04l-0.11,0.09c-0.14-0.64-0.2-1.3-0.2-1.95
	v-0.17c-0.81,1.15-1.82,2.13-3,2.9l-0.87,0.57v-0.33c0-1.06,0.14-2.12,0.41-3.14c-1.74,1.15-3.71,1.91-5.77,2.23l-0.54,0.08
	l1.63-1.93l1.42-1.35c-1.6,1.14-3.47,1.86-5.42,2.08l-3.71,0.43l0.74-0.57c0.84-0.65,1.61-1.38,2.29-2.19
	c-1.98,0.79-4.14,0.99-6.23,0.56l-2.74-0.56l7.45-4.57l-0.89-0.61c-0.42-0.29-0.78-0.64-1.07-1.05l1.42-0.27
	c1.04-0.25,1.94-0.9,2.5-1.82l3-4.94L623.31,320.13z"/>
<path class="st3" d="M626.97,349.01l0.44,0.44c0.69,0.69,1.63,1.06,2.6,1.04l-0.7,1.4c0.81,0.19,1.64,0.29,2.47,0.28l0.18,0
	l-1.78,1.28c1.03,0.16,2.08,0.21,3.12,0.16l0.15-0.01l-2.19,1.73l1.39,0.74l-0.15,0.04c-0.81,0.23-1.66,0.34-2.51,0.3l0,0.02
	c0.25,1.2,0.31,2.43,0.19,3.64l-0.71-0.68c-0.77-0.73-1.2-1.74-1.2-2.77l-2.46,0.38l0.19-0.22c0.59-0.69,1.06-1.48,1.39-2.33
	l-2.03,0.12l2.15-2.03l-1.75-0.09c0.46-0.79,0.8-1.64,1-2.53L626.97,349.01z"/>
<path class="st3" d="M607.67,349.66l-0.03,0.54c-0.05,0.81,0.26,1.59,0.85,2.16l-1.34,0.42c0.35,0.6,0.78,1.15,1.27,1.64l0.1,0.1
	l-1.9-0.3c0.51,0.71,1.09,1.36,1.74,1.95l0.09,0.09l-2.44-0.26l0.33,1.27l-1.08-0.58l-0.6-0.42c-0.38,0.74-1.18,1.2-2.02,1.14
	l-2.27-0.14l0.3-0.17c1.01-0.55,1.93-1.27,2.7-2.1l-1.71-1.24l0.25-0.02c0.82-0.06,1.62-0.25,2.38-0.57l-1.28-1.14l2.62,0.07
	l-0.98-1.1c0.79-0.2,1.56-0.51,2.26-0.92L607.67,349.66z"/>
<path class="st4" d="M622.72,342.91l15.25,0.97l2.65,3.28l1.02,1.54l-4.07-2.7c0,1.02-0.17,2.04-0.51,3l-0.1,0.28l-0.18-0.09
	c-1.76-0.83-3.3-2.06-4.5-3.58c-0.13,0.89-0.12,1.81,0.03,2.7l0.17,0.97l-1.34-0.56c-1.54-0.65-2.95-1.57-4.16-2.72
	c-0.27,1.03-0.63,2.03-1.08,2.99l-0.14,0.29l-0.58-0.32c-1.22-0.68-2.28-1.62-3.08-2.77l-0.34,0.29c-1.25,1.08-2.74,1.84-4.34,2.22
	l-2.24,0.39l0.11-0.94c0.06-0.52,0.02-1.06-0.11-1.57l-2.24,1.74l-2.04,1.54l-0.04-0.33c-0.11-0.81-0.3-1.61-0.57-2.38
	c-0.94,1.41-2.11,2.65-3.45,3.69l-0.22,0.17l-0.41-1.74l-0.41-1.54l-2.44,2.32l2.65-4.63L622.72,342.91z"/>
<path class="st2" d="M623.31,308.16l16.62,28.12c0.84,0.77,1.95,1.2,3.09,1.2h0.19l-1.97,1.4l0.87,1.6
	c0.99,0.51,2.13,0.65,3.21,0.39l1.6-0.39l-3.72,3.6l1.97,4.59l-1.86-0.26c-1.64-0.23-3.19-0.9-4.48-1.94l-2.19-1.8
	c0.56,1.15,0.61,2.47,0.14,3.65l-0.14,0.34l-0.62-0.26c-1.17-0.48-2.17-1.3-2.88-2.34l-1.09-2c-0.56,1.29-0.63,2.73-0.18,4.06
	l0.18,0.53c-2.14-0.78-4.02-2.15-5.43-3.95l-0.04-0.05c-0.14,1.38-0.51,2.74-1.09,3.99l-0.55-0.43c-1.22-0.97-2.23-2.18-2.95-3.56
	c-1.09,2.12-3.17,3.57-5.54,3.87l-1.02,0.13l0.31-1.05c0.22-0.73,0.1-1.51-0.31-2.14l-1.31,1.3l-3.06,2.5c0-1.18-0.3-2.34-0.86-3.37
	l-0.23-0.42c-0.14,1.28-0.77,2.46-1.75,3.29l-1.31,1.1l-0.15-0.31c-0.47-0.96-0.57-2.06-0.29-3.09l-0.25,0.19
	c-0.7,0.53-1.51,0.91-2.36,1.11c-0.87,0.2-1.77,0.21-2.65,0.02l-1.52-0.32c1.16-0.93,2.18-2.02,3.03-3.24l0.25-0.36
	c-0.91,0.12-1.8-0.36-2.21-1.19l-0.2-0.41l0.39,0.04c0.9,0.1,1.81,0.02,2.67-0.24l0.87-1.6l-1.97-1.6c2.23-0.51,4.14-1.93,5.26-3.93
	l6.33-11.25L623.31,308.16z"/>
<path class="st5" d="M622.06,327.85h8.21l8.73,6.56l0.61,1.35l-1.53-0.68c-1.28-0.57-2.48-1.32-3.56-2.21v2.22v2.22l-3.26-4.63
	l-0.6,1.63c-0.54,1.47-1.38,2.82-2.45,3.97l-2.65-4.05l-0.09,0.2c-0.21,0.51-0.47,1-0.76,1.46l-0.17,0.27l-2.04-1.74l-1.42-1.16
	l-1.33,1.26c-0.34,0.32-0.7,0.6-1.09,0.85c-0.83,0.52-1.7,0.98-2.6,1.36l-0.48,0.2l0.61-2.9l-0.38,0.31
	c-1.5,1.21-3.16,2.21-4.92,2.97l-0.8-3.86l-3.46,3.67l0.26-0.39l2.79-5.21L622.06,327.85z"/>
<path class="st2" d="M622.02,299.67l12.57,19.42c0.97,1.49,2.62,2.39,4.4,2.39l-2.24,1.54c1.34,2.62,4.18,4.12,7.11,3.75l0.54-0.07
	c0.04-0.01,0.07,0.03,0.05,0.07l-0.04,0.11c-0.6,1.48-1.78,2.66-3.26,3.27l-0.53,0.21l2.85,4.44h-2.92c-2.75,0-5.32-1.38-6.85-3.67
	v3.67l-2.44-2.84l-1.02,1.49l-2.04,3.67l-2.04-3.67l-1.02-2.32v0.48c0,1.22-0.21,2.43-0.61,3.58l-1.83-1.74l-1.63-1.49
	c-0.66,1.35-1.72,2.46-3.02,3.21l-2.07,1.18l0.26-0.49c0.63-1.2,0.96-2.54,0.96-3.89c-0.8,1.35-1.98,2.42-3.39,3.09l-2.72,1.29
	l-0.41-1.93l-0.41-2.12c-1.4,2.17-3.8,3.47-6.37,3.47h-1.16l0.35-0.83c0.58-1.37,1.35-2.66,2.3-3.81l-4.89-2.77l1.94-0.44
	c1.53-0.35,2.95-1.07,4.14-2.1l-3.03-1.56c2.42,0,4.65-1.28,5.89-3.36L622.02,299.67z"/>
<path class="st6" d="M622.08,310.48h6.38l5.5,7.53l0.81,1.35l-2.26-0.45c-1.69-0.33-3.2-1.27-4.25-2.64
	c0.4,2.05,0.49,4.14,0.24,6.22l-0.04,0.35l-2.56-1.35c-1.92-1.01-3.5-2.55-4.57-4.44l-0.04,0.05c-1.95,2.21-4.2,4.14-6.68,5.74
	l-0.07-0.17c-0.75-1.78-0.94-3.74-0.54-5.62l-3.92,2.7l0.2-0.39l3.11-5.02L622.08,310.48z"/>
<path class="st7" d="M624.94,350.23h0.15c0.25,0,0.46,0.21,0.46,0.46c0,0.21-0.07,0.42-0.2,0.58l-0.41,0.5l-0.31-0.73
	c-0.07-0.16-0.1-0.33-0.1-0.5c0-0.18,0.14-0.32,0.32-0.32H624.94z"/>
<path class="st7" d="M617.26,359.27c-0.11,0.08-0.25,0.1-0.38,0.04l-0.09-0.04c-0.22-0.1-0.34-0.33-0.3-0.57l0.02-0.13
	c0.03-0.16,0.11-0.3,0.23-0.41l0.55-0.49l0.03,0.9c0,0.05,0.01,0.11,0.03,0.16l0.04,0.11C617.45,359,617.4,359.17,617.26,359.27z"/>
<path class="st2" d="M622.53,291.75l4.08,8.22c0.79,1.6,1.76,3.1,2.87,4.49l0.56,0.69c3.28,4.07,7.89,6.84,13.01,7.84l-7.33,1.35
	l1.63,2.12l2.04,2.32l-1.43,0.11c-3.94,0.29-7.76-1.41-10.16-4.55v3.09v3.28l-0.95-0.41c-2.31-0.99-4.26-2.67-5.58-4.81
	c-0.8,1.27-1.89,2.34-3.16,3.13l-3.35,2.08l-0.3-2.06c-0.21-1.44-0.11-2.91,0.3-4.31c-1.96,3.48-5.88,5.37-9.82,4.73l-1.79-0.29
	l5.5-4.44l-6.31-2.12c5.33-0.49,10.22-3.15,13.53-7.36l0.34-0.43c1.07-1.36,1.97-2.86,2.67-4.44L622.53,291.75z"/>
<path class="st3" d="M611.39,336.98l0.05,0.53c0.07,0.82,0.49,1.56,1.15,2.04l-1.26,0.59c0.43,0.55,0.94,1.04,1.5,1.46l0.12,0.09
	l-1.93-0.05c0.6,0.64,1.28,1.21,2,1.71l0.11,0.07l-2.46,0.06l0.51,1.21l-0.13-0.05c-0.68-0.26-1.31-0.62-1.86-1.08
	c-0.5,0.92-1.36,1.62-2.37,1.92l-0.02,0.01l1.12-2.67l-1.87-1l0.25-0.05c0.8-0.17,1.56-0.46,2.27-0.87l-1.43-0.96l2.61-0.28
	l-1.13-0.96c0.76-0.3,1.47-0.71,2.11-1.2L611.39,336.98z"/>
<path class="st3" d="M616.08,350.11l0.06,0.59c0.07,0.66,0.42,1.25,0.97,1.63l-1,0.64c0.36,0.46,0.79,0.86,1.26,1.21l0.08,0.06
	l-1.55,0.11c0.5,0.52,1.06,0.99,1.67,1.39l0.07,0.04l-1.97,0.25l0.44,1.05l-0.08-0.03c-0.56-0.18-1.08-0.46-1.54-0.83l-0.04,0.09
	c-0.36,0.82-1.01,1.48-1.83,1.84l0.83-2.5l-1.53-0.75l0.16-0.05c0.66-0.22,1.28-0.56,1.84-0.98l-1.17-0.75l2.08-0.46l-0.93-0.77
	c0.6-0.33,1.15-0.75,1.63-1.23L616.08,350.11z"/>
<path class="st3" d="M636.58,350.07l0.46,0.34c0.67,0.5,1.53,0.7,2.35,0.56l-0.39,1.28c0.72,0.06,1.44,0.04,2.15-0.06l0.15-0.02
	l-1.34,1.31c0.9,0.01,1.8-0.08,2.68-0.25l0.13-0.02l-1.12,1.49c0.79,0.37,1.44,0.98,1.83,1.73l0.41,0.78l-2.56-1.28l-0.01,0.24
	c-0.01,0.42-0.11,0.83-0.28,1.21l-0.11-0.04c-0.33-0.1-0.62-0.29-0.84-0.54l-1.08,0.97l-0.21-1.32l-2.05,0.63l0.13-0.21
	c0.41-0.67,0.7-1.41,0.86-2.18l-1.71,0.35l1.54-2.01l-1.51,0.14c0.28-0.73,0.44-1.5,0.49-2.28L636.58,350.07z"/>
<path class="st3" d="M622.29,335.64l0.05,0.09c0.65,1.03,1.68,1.77,2.87,2.06l-1.54,0.91c0.88,0.41,1.8,0.73,2.74,0.97l0.31,0.08
	l-2.79,0.47c1.17,0.45,2.37,0.81,3.59,1.08l0.28,0.06l-3.51,0.72l1.3,1.03l-0.27-0.02c-1.05-0.06-2.1-0.24-3.11-0.53
	c-0.29,1.01-1.02,1.84-1.98,2.25l-0.57,0.24l0.37-2.86l-3.17-0.46l0.51-0.18c0.95-0.33,1.86-0.8,2.68-1.38l-2.51-0.54l3.62-0.97
	l-2.07-0.61c0.95-0.49,1.83-1.11,2.61-1.84L622.29,335.64z"/>
<path class="st8" d="M616.9,323.02c0.5,1.19,1.53,2.06,2.79,2.35l0.57,0.13l-3.09,1.1l0.31,0.14c0.9,0.4,1.83,0.73,2.79,0.97
	l-2.88,0.43l0.81,0.31c0.92,0.36,1.82,0.78,2.68,1.27l-3.18,0.31l1.59,1.15l-0.38-0.05c-1.33-0.16-2.65-0.44-3.93-0.84
	c-0.45,0.98-1.32,1.7-2.37,1.96l-1.11,0.28l0.7-2.82l-4.03-0.77l0.77-0.15c1.19-0.23,2.35-0.59,3.46-1.09l-3.18-0.78l4.73-0.6
	l-2.61-0.82c1.26-0.4,2.49-0.9,3.67-1.51L616.9,323.02z"/>
<path class="st8" d="M629.22,323.02c0.52,0.62,1.27,1.01,2.07,1.08l2.57,0.24l-1.76,1.26l0.31,0.05c1,0.15,2,0.24,3.01,0.24l0.76,0
	l-3.43,1.13l2.36,0.24l2.77-0.05l-4.29,1.54l1.86,0.69l-0.38,0.05c-1.33,0.19-2.67,0.27-4.02,0.22c-0.15,1.06-0.78,1.98-1.71,2.5
	l-0.98,0.55l-0.15-2.89l-4.1,0.31l0.69-0.34c1.08-0.53,2.09-1.19,3.01-1.96l-0.05,0.01c-1.06,0.2-2.16,0.23-3.24,0.07l2.85-1.69
	c-0.54-0.38-1-0.87-1.35-1.42l-0.08-0.12l0.05-0.01c0.78-0.12,1.57-0.18,2.36-0.18L629.22,323.02z"/>
<path class="st3" d="M634.5,335.36l0.35,0.44c0.61,0.78,1.52,1.27,2.51,1.36l-0.92,1.29c0.79,0.28,1.61,0.47,2.44,0.56l0.19,0.02
	l-2,1.04c1.02,0.27,2.07,0.45,3.12,0.52l0.17,0.01l-2.48,1.44l3.28,2.17c-1.7,0.02-3.34-0.66-4.55-1.86l-0.8-0.8v0.44
	c0,1.58-1.28,2.84-2.88,2.84l0.99-1.64l-1.83-0.14l0.24-0.21c0.7-0.6,1.29-1.31,1.75-2.11l-2.07-0.12l2.49-1.74l-1.76-0.29
	c0.58-0.72,1.06-1.52,1.41-2.38L634.5,335.36z"/>
<path class="st8" d="M622.62,297.73l1.98,4.5c0.47,1.07,1.05,2.09,1.73,3.04c1.77,2.48,4.18,4.44,6.97,5.68l1.01,0.45l-4.96-0.67
	l0.83,1.22l1.89,1.67h-1.3c-2.19,0-4.23-1.08-5.46-2.89v1.78v1.89l-0.35-0.17c-1.26-0.61-2.3-1.6-2.98-2.83
	c-0.41,0.73-0.99,1.34-1.7,1.79l-1.93,1.21l-0.11-0.41c-0.36-1.33-0.32-2.73,0.11-4.03l-0.04,0.06c-1.35,2.23-3.78,3.58-6.39,3.55
	l2.65-2.83h-3.05l0.6-0.2c2.9-0.95,5.41-2.82,7.16-5.33c0.63-0.91,1.16-1.89,1.56-2.91L622.62,297.73z"/>
<ellipse class="st0" cx="695.91" cy="446.21" rx="5.93" ry="3.04"/>
<rect x="689.99" y="429.52" class="st0" width="11.85" height="16.7"/>
<path class="st1" d="M697.04,427.49l4.8,6.58v7.08l-1.56-1.1c-1.59-1.12-3.06-2.39-4.41-3.8l-1.37-1.43l-0.57,0.95
	c-0.91,1.52-2.3,2.7-3.95,3.36v-5.57L697.04,427.49z"/>
<path class="st2" d="M695.63,380.94l25.92,38.16c0.58,0.85,1.39,1.53,2.33,1.95c0.54,0.24,1.12,0.37,1.71,0.37h1.93l-2.26,3.55
	l8.75,8.6l-4.52-0.18c-1.12-0.04-2.23-0.23-3.31-0.55l-1.31-0.39c-0.86-0.26-1.68-0.64-2.43-1.15l0.85,2.02l0.85,2.02l-2.67-1.08
	c-1.96-0.79-3.74-1.97-5.23-3.48c0.38,0.67,0.68,1.38,0.92,2.12l0.78,2.44l-2.33-0.38c-2.43-0.4-4.51-1.96-5.57-4.17l0.19,0.4
	c0.43,0.9,0.65,1.89,0.65,2.89c-1.44-0.32-2.7-1.21-3.48-2.47l-0.19-0.31c0,1.01,0.15,2.01,0.44,2.97l0.4,1.33
	c-2.24-0.83-4.3-2.08-6.08-3.68l-0.13-0.12l1.13,2.53l0.85,1.77l-3.49-0.38c-2.28-0.25-4.37-1.38-5.82-3.17
	c-1.85,1.99-4.16,3.52-6.72,4.44l-0.33,0.12l0.85-4.55c-0.75,1.01-1.64,1.9-2.64,2.65l-0.18,0.13c-0.19-0.84-0.28-1.7-0.28-2.56
	v-0.22c-1.12,1.51-2.51,2.79-4.1,3.77l-1.26,0.78v-0.43c0-1.39,0.19-2.78,0.56-4.13c-2.42,1.5-5.12,2.49-7.94,2.92l-0.81,0.12
	l2.26-2.53l1.97-1.77c-2.22,1.5-4.78,2.43-7.44,2.72l-5.21,0.57l1.05-0.76c1.15-0.84,2.2-1.79,3.15-2.85
	c-2.75,1.04-5.73,1.3-8.61,0.74l-3.82-0.74l10.33-5.99l-1.24-0.81c-0.57-0.37-1.06-0.83-1.47-1.37l1.97-0.36
	c1.45-0.33,2.71-1.21,3.51-2.45l4.11-6.4L695.63,380.94z"/>
<path class="st3" d="M700.69,418.79l0.57,0.54c0.98,0.93,2.3,1.44,3.65,1.41l-0.96,1.83c1.12,0.25,2.27,0.38,3.4,0.37l0.26,0
	l-2.47,1.67c1.43,0.21,2.87,0.28,4.3,0.21l0.23-0.01l-3.03,2.27l1.92,0.97l-0.22,0.06c-1.12,0.31-2.29,0.44-3.47,0.4
	c0.35,1.59,0.44,3.21,0.26,4.8l-0.98-0.89c-1.06-0.96-1.66-2.28-1.66-3.63l-3.42,0.5l0.28-0.31c0.81-0.9,1.46-1.92,1.91-3.04
	l-2.81,0.16l2.98-2.67l-2.43-0.11c0.63-1.03,1.1-2.16,1.39-3.34L700.69,418.79z"/>
<path class="st3" d="M673.94,419.65l-0.04,0.67c-0.07,1.09,0.36,2.13,1.17,2.87l-1.85,0.55c0.49,0.78,1.08,1.5,1.76,2.14l0.15,0.14
	l-2.63-0.39c0.7,0.93,1.51,1.79,2.4,2.56l0.14,0.12l-3.38-0.35l0.45,1.66l-1.49-0.76l-0.84-0.56c-0.52,0.97-1.62,1.57-2.74,1.5
	l-3.2-0.19l0.44-0.23c1.39-0.72,2.65-1.65,3.73-2.75l-2.37-1.62l0.37-0.03c1.12-0.08,2.22-0.33,3.27-0.74l-1.77-1.49l3.63,0.08
	l-1.36-1.43c1.1-0.26,2.16-0.67,3.15-1.21L673.94,419.65z"/>
<path class="st4" d="M694.81,410.79l21.14,1.27l3.67,4.3l1.41,2.02l-5.64-3.54c0,1.34-0.24,2.67-0.71,3.92l-0.14,0.38l-0.34-0.15
	c-2.38-1.07-4.48-2.66-6.15-4.66c-0.19,1.17-0.17,2.37,0.05,3.54l0.24,1.27l-1.91-0.76c-2.1-0.84-4.03-2.03-5.71-3.54l-0.06,0.21
	c-0.34,1.21-0.79,2.39-1.35,3.51l-0.29,0.58l-0.87-0.45c-1.66-0.87-3.09-2.09-4.21-3.59l-0.41,0.34c-1.77,1.44-3.85,2.45-6.08,2.95
	l-3.1,0.51l0.15-1.23c0.09-0.69,0.03-1.39-0.15-2.05l-3.1,2.28l-2.82,2.02l-0.06-0.42c-0.15-1.07-0.41-2.11-0.79-3.12l-0.1,0.15
	c-1.24,1.75-2.75,3.28-4.48,4.55l-0.5,0.36l-0.56-2.28l-0.56-2.02l-3.39,3.04l3.67-6.07L694.81,410.79z"/>
<path class="st2" d="M695.63,365.25l23.03,36.85c1.17,1.01,2.67,1.57,4.22,1.57h0.33l-2.73,1.83l1.21,2.09
	c1.37,0.68,2.94,0.86,4.43,0.52l2.24-0.52l-5.15,4.71l2.73,6.02l-2.65-0.34c-2.23-0.29-4.35-1.16-6.14-2.54l-3.03-2.36
	c0.77,1.49,0.84,3.25,0.18,4.8l-0.18,0.44l-0.93-0.36c-1.57-0.62-2.93-1.67-3.92-3.04l-1.52-2.62c-0.78,1.68-0.86,3.59-0.24,5.33
	l0.24,0.69l-0.05-0.02c-2.94-1.02-5.54-2.82-7.52-5.22c-0.2,1.82-0.72,3.59-1.52,5.23l-0.82-0.61c-1.66-1.24-3.03-2.81-4.03-4.62
	c-1.52,2.79-4.3,4.67-7.46,5.04l-1.63,0.19l0.43-1.36c0.3-0.96,0.14-2-0.43-2.83l-1.82,1.7l-4.24,3.27c0-1.54-0.41-3.06-1.18-4.39
	l-0.33-0.58c-0.19,1.68-1.04,3.21-2.36,4.26l-1.88,1.5l-0.21-0.42c-0.64-1.25-0.78-2.69-0.39-4.03l-0.31,0.22
	c-1,0.72-2.13,1.22-3.34,1.48c-1.2,0.26-2.43,0.27-3.63,0.03l-2.12-0.42c1.61-1.21,3.03-2.66,4.23-4.28l0.32-0.43
	c-1.27,0.16-2.51-0.5-3.1-1.64l-0.23-0.46l0.54,0.06c1.24,0.13,2.5,0.02,3.7-0.32l1.21-2.09l-2.73-2.09l0.59-0.13
	c2.71-0.59,5.06-2.27,6.48-4.66l8.99-15.1L695.63,365.25z"/>
<path class="st5" d="M693.88,391.06h11.37l12.1,8.6l0.85,1.77l-2.33-0.98c-1.64-0.69-3.17-1.6-4.57-2.69l-0.15-0.12v2.91v2.91
	l-4.51-6.07l-0.81,2.07c-0.77,1.97-1.93,3.76-3.42,5.26l-3.67-5.31l-0.22,0.49c-0.23,0.52-0.51,1.02-0.82,1.49l-0.37,0.56
	l-2.82-2.28l-1.97-1.52l-1.82,1.63c-0.48,0.43-0.99,0.81-1.54,1.14c-1.14,0.68-2.33,1.27-3.57,1.76l-0.69,0.27l0.85-3.8l-0.56,0.43
	c-2.06,1.57-4.32,2.86-6.71,3.84l-0.08,0.03l-1.11-5.06l-4.8,4.81l0.36-0.51l3.87-6.83L693.88,391.06z"/>
<path class="st2" d="M693.84,354.12l17.33,25.33c1.4,2.04,3.71,3.26,6.18,3.26l-3.1,2.02c1.87,3.45,5.66,5.41,9.56,4.95l1.03-0.12
	c0.06-0.01,0.1,0.05,0.08,0.1l-0.06,0.13c-0.83,1.94-2.42,3.47-4.39,4.23l-0.86,0.33l3.95,5.82h-4.28c-3.69,0-7.14-1.79-9.27-4.81
	v4.81l-3.38-3.72l-1.41,1.95l-2.82,4.81l-2.82-4.81l-1.41-3.04v0.61c0,1.61-0.29,3.2-0.85,4.71l-2.54-2.28l-2.26-1.95
	c-0.92,1.76-2.35,3.21-4.1,4.15l-2.95,1.59l0.37-0.67c0.86-1.55,1.32-3.3,1.32-5.07c-1.1,1.76-2.71,3.16-4.61,4.01l-3.86,1.73
	l-0.56-2.53l-0.56-2.78c-1.94,2.85-5.17,4.55-8.61,4.55h-1.82l0.46-1.04c0.81-1.82,1.89-3.52,3.2-5.03l-6.77-3.63l2.76-0.6
	c2.08-0.45,4.02-1.39,5.67-2.73l-4.2-2.05c3.36,0,6.49-1.73,8.27-4.58L693.84,354.12z"/>
<path class="st6" d="M693.92,368.29h8.84l7.62,9.87l1.13,1.77l-3.25-0.61c-2.27-0.42-4.32-1.64-5.78-3.44
	c0.56,2.68,0.67,5.43,0.34,8.15l-0.06,0.45l-3.67-1.83c-2.58-1.29-4.73-3.29-6.21-5.76c-2.75,2.94-5.88,5.49-9.31,7.59l-0.11-0.24
	c-1.03-2.31-1.29-4.88-0.74-7.35l-5.44,3.54l0.28-0.51l4.31-6.58L693.92,368.29z"/>
<path class="st7" d="M697.89,420.39h0.25c0.33,0,0.59,0.27,0.59,0.59c0,0.28-0.1,0.55-0.28,0.77l-0.56,0.66l-0.42-0.95
	c-0.09-0.21-0.14-0.44-0.14-0.67c0-0.23,0.18-0.41,0.41-0.41H697.89z"/>
<path class="st7" d="M687.23,432.25c-0.15,0.1-0.33,0.12-0.49,0.05l-0.13-0.06c-0.31-0.13-0.49-0.46-0.42-0.8l0.02-0.12
	c0.04-0.21,0.15-0.4,0.32-0.55l0.76-0.64l0.04,1.18c0,0.07,0.02,0.14,0.04,0.21l0.05,0.12C687.5,431.87,687.42,432.12,687.23,432.25
	z"/>
<path class="st2" d="M694.55,343.75l5.58,10.61c1.15,2.19,2.55,4.25,4.15,6.14l0.46,0.54c4.69,5.51,11.14,9.23,18.26,10.54
	l-10.16,1.77l2.26,2.78l2.82,3.04l-2.27,0.16c-5.3,0.37-10.44-1.86-13.79-5.98v4.05v4.3l-1.46-0.59c-3.1-1.26-5.75-3.44-7.59-6.24
	c-1.11,1.67-2.59,3.06-4.32,4.07l-4.71,2.76l-0.41-2.69c-0.29-1.89-0.15-3.83,0.41-5.66c-2.73,4.59-7.97,7.06-13.24,6.25l-2.84-0.43
	l7.62-5.82l-8.75-2.78c7.4-0.65,14.24-4.23,19-9.94l0.13-0.16c1.55-1.87,2.86-3.92,3.89-6.12L694.55,343.75z"/>
<path class="st3" d="M679.1,403.02l0.06,0.64c0.1,1.11,0.68,2.1,1.6,2.73l-1.75,0.78c0.6,0.71,1.3,1.35,2.07,1.9l0.18,0.12
	l-2.67-0.06c0.84,0.83,1.76,1.58,2.76,2.23l0.16,0.1l-3.41,0.08l0.71,1.59l-0.18-0.07c-0.93-0.33-1.8-0.81-2.57-1.41
	c-0.7,1.21-1.86,2.11-3.22,2.5l-0.1,0.03l1.55-3.5l-2.6-1.32l0.37-0.07c1.09-0.22,2.14-0.6,3.12-1.14l-1.98-1.26l3.61-0.36
	l-1.56-1.26c1.05-0.39,2.04-0.93,2.94-1.59L679.1,403.02z"/>
<path class="st3" d="M685.6,420.24l0.08,0.72c0.1,0.9,0.59,1.7,1.34,2.19l-1.38,0.83c0.5,0.6,1.09,1.13,1.73,1.57l0.12,0.08
	l-2.14,0.15c0.69,0.69,1.47,1.3,2.3,1.82l0.1,0.07l-2.73,0.33l0.61,1.38l-0.13-0.04c-0.77-0.23-1.49-0.6-2.12-1.08l-0.03,0.07
	c-0.51,1.1-1.43,1.99-2.56,2.47l1.15-3.27l-2.12-0.99l0.24-0.08c0.9-0.29,1.76-0.72,2.52-1.28l-1.63-0.98l2.89-0.6l-1.29-1.01
	c0.83-0.43,1.6-0.98,2.28-1.62L685.6,420.24z"/>
<path class="st3" d="M714.01,420.18l0.6,0.42c0.95,0.66,2.15,0.94,3.29,0.75l-0.54,1.68c0.99,0.08,1.99,0.06,2.97-0.08l0.21-0.03
	l-1.85,1.72c1.25,0.01,2.5-0.1,3.71-0.32l0.18-0.03l-1.56,1.96c1.09,0.48,1.99,1.29,2.54,2.28l0.56,1.01l-3.54-1.67l-0.01,0.3
	c-0.02,0.56-0.15,1.1-0.39,1.6l-0.16-0.05c-0.45-0.13-0.85-0.38-1.16-0.71l-1.5,1.26l-0.29-1.73l-2.84,0.83l0.18-0.28
	c0.56-0.87,0.96-1.83,1.18-2.84l-2.38,0.46l2.14-2.63l-2.09,0.19c0.39-0.96,0.61-1.97,0.68-3.01L714.01,420.18z"/>
<path class="st3" d="M694.21,401.27l0.02,0.04c0.94,1.41,2.38,2.4,4.03,2.77l-2.14,1.19l0.22,0.09c1.08,0.47,2.2,0.85,3.35,1.12
	l0.67,0.16l-3.87,0.62l2.43,0.88l2.93,0.61l-4.87,0.94l1.8,1.35l-0.39-0.02c-1.46-0.08-2.9-0.31-4.31-0.7
	c-0.4,1.32-1.38,2.39-2.66,2.92l-0.87,0.36l0.51-3.75l-4.39-0.6l0.74-0.24c1.31-0.43,2.55-1.04,3.69-1.8l-3.48-0.7l5.02-1.27
	l-2.87-0.81c1.32-0.64,2.54-1.46,3.64-2.44L694.21,401.27z"/>
<path class="st8" d="M686.73,384.74c0.69,1.56,2.08,2.69,3.76,3.06l0.91,0.2l-4.29,1.44l0.78,0.33c1,0.43,2.04,0.77,3.11,1.02
	l0.39,0.09l-4,0.57l1.14,0.41c1.27,0.46,2.51,1.02,3.71,1.66l-4.41,0.4l2.2,1.51l-0.53-0.06c-1.84-0.21-3.66-0.58-5.44-1.1
	c-0.63,1.28-1.8,2.22-3.19,2.54l-1.63,0.39l0.97-3.69l-5.59-1.02l1.08-0.19c1.64-0.29,3.24-0.77,4.78-1.43l-4.41-1.03l6.56-0.79
	l-3.62-1.07l0.21-0.06c1.61-0.48,3.18-1.09,4.7-1.83L686.73,384.74z"/>
<path class="st8" d="M703.81,384.74c0.72,0.81,1.73,1.32,2.8,1.41l3.62,0.32l-2.44,1.65l1.07,0.16c0.96,0.14,1.92,0.21,2.89,0.22
	l1.7,0.01l-4.76,1.49l3.28,0.31l3.84-0.06l-5.94,2.02l2.58,0.91l-0.53,0.07c-1.84,0.25-3.7,0.35-5.57,0.29
	c-0.21,1.39-1.05,2.58-2.29,3.24l-1.44,0.77l-0.21-3.79l-5.68,0.41l0.98-0.45c1.48-0.69,2.88-1.55,4.15-2.56l-0.08,0.01
	c-1.47,0.27-2.98,0.3-4.47,0.09l3.95-2.21c-0.74-0.5-1.38-1.14-1.88-1.88l-0.09-0.14l0.07-0.01c1.08-0.16,2.17-0.24,3.26-0.24
	L703.81,384.74z"/>
<path class="st3" d="M711.13,400.91l0.43,0.52c0.88,1.06,2.16,1.73,3.52,1.84l-1.27,1.69c1.1,0.37,2.23,0.61,3.37,0.73l0.28,0.03
	l-2.77,1.37c1.42,0.36,2.86,0.58,4.31,0.67l0.25,0.02l-3.44,1.89l4.54,2.85c-2.35,0.02-4.66-0.89-6.39-2.53l-1.02-0.96v0.4
	c0,2.18-1.76,3.9-3.99,3.9l1.37-2.15l-2.54-0.18l0.36-0.29c0.95-0.77,1.77-1.7,2.41-2.74l-2.87-0.15l3.46-2.28l-2.44-0.38
	c0.81-0.94,1.47-2,1.96-3.14L711.13,400.91z"/>
<path class="st8" d="M694.66,351.59l2.71,5.82c0.68,1.46,1.51,2.84,2.48,4.12c2.43,3.22,5.67,5.74,9.4,7.29l1.62,0.68l-6.87-0.87
	l1.15,1.6l2.62,2.18h-1.98c-2.93,0-5.68-1.41-7.39-3.79v2.33v2.48l-0.57-0.26c-1.69-0.78-3.11-2.06-4.04-3.67
	c-0.57,0.96-1.36,1.75-2.32,2.32l-2.72,1.61l-0.15-0.53c-0.49-1.74-0.44-3.58,0.15-5.29c-1.91,2.99-5.23,4.78-8.77,4.73l-0.14,0
	l3.67-3.71h-4.23l1.1-0.34c3.85-1.2,7.21-3.59,9.6-6.83c0.91-1.23,1.66-2.57,2.25-3.98L694.66,351.59z"/>
<ellipse class="st0" cx="734.91" cy="473.21" rx="5.93" ry="3.04"/>
<rect x="728.99" y="456.52" class="st0" width="11.85" height="16.7"/>
<path class="st1" d="M736.04,454.49l4.8,6.58v7.08l-1.56-1.1c-1.59-1.12-3.06-2.39-4.41-3.8l-1.37-1.43l-0.57,0.95
	c-0.91,1.52-2.3,2.7-3.95,3.36v-5.57L736.04,454.49z"/>
<path class="st2" d="M734.63,407.94l25.92,38.16c0.58,0.85,1.39,1.53,2.33,1.95c0.54,0.24,1.12,0.37,1.71,0.37h1.93l-2.26,3.55
	l8.75,8.6l-4.52-0.18c-1.12-0.04-2.23-0.23-3.31-0.55l-1.31-0.39c-0.86-0.26-1.68-0.64-2.43-1.15l0.85,2.02l0.85,2.02l-2.67-1.08
	c-1.96-0.79-3.74-1.97-5.23-3.48c0.38,0.67,0.68,1.38,0.92,2.12l0.78,2.44l-2.33-0.38c-2.43-0.4-4.51-1.96-5.57-4.17l0.19,0.4
	c0.43,0.9,0.65,1.89,0.65,2.89c-1.44-0.32-2.7-1.21-3.47-2.47l-0.19-0.31c0,1.01,0.15,2.01,0.44,2.97l0.4,1.33
	c-2.24-0.83-4.3-2.08-6.08-3.68l-0.13-0.12l1.13,2.53l0.85,1.77l-3.49-0.38c-2.28-0.25-4.37-1.38-5.82-3.17
	c-1.85,1.99-4.16,3.52-6.72,4.44l-0.33,0.12l0.85-4.55c-0.75,1.01-1.64,1.9-2.64,2.65l-0.18,0.13c-0.19-0.84-0.28-1.7-0.28-2.56
	v-0.22c-1.12,1.51-2.51,2.79-4.1,3.77l-1.26,0.78v-0.43c0-1.39,0.19-2.78,0.56-4.13c-2.42,1.5-5.12,2.49-7.94,2.92l-0.81,0.12
	l2.26-2.53l1.98-1.77c-2.22,1.5-4.78,2.43-7.44,2.72l-5.21,0.57l1.05-0.76c1.15-0.84,2.2-1.79,3.15-2.85
	c-2.75,1.04-5.73,1.3-8.61,0.74l-3.82-0.74l10.33-5.99l-1.24-0.81c-0.57-0.37-1.06-0.83-1.47-1.37l1.98-0.36
	c1.45-0.33,2.71-1.21,3.51-2.45l4.11-6.4L734.63,407.94z"/>
<path class="st3" d="M739.69,445.79l0.57,0.54c0.98,0.93,2.3,1.44,3.65,1.41l-0.96,1.83c1.12,0.25,2.27,0.38,3.4,0.37l0.26,0
	l-2.47,1.67c1.43,0.21,2.87,0.28,4.3,0.21l0.23-0.01l-3.03,2.27l1.92,0.97l-0.22,0.06c-1.12,0.31-2.29,0.44-3.47,0.4
	c0.35,1.59,0.44,3.21,0.26,4.8l-0.98-0.89c-1.06-0.96-1.66-2.28-1.66-3.63l-3.42,0.5l0.28-0.31c0.81-0.9,1.46-1.92,1.91-3.04
	l-2.81,0.16l2.98-2.67l-2.43-0.11c0.63-1.03,1.1-2.16,1.39-3.34L739.69,445.79z"/>
<path class="st3" d="M712.94,446.65l-0.04,0.67c-0.07,1.09,0.36,2.13,1.17,2.87l-1.86,0.55c0.49,0.78,1.08,1.5,1.76,2.14l0.15,0.14
	l-2.63-0.39c0.7,0.93,1.51,1.79,2.4,2.56l0.14,0.12l-3.38-0.35l0.45,1.66l-1.49-0.76l-0.84-0.56c-0.52,0.97-1.61,1.57-2.74,1.5
	l-3.2-0.19l0.44-0.23c1.39-0.72,2.65-1.65,3.73-2.75l-2.37-1.62l0.37-0.03c1.12-0.08,2.22-0.33,3.27-0.74l-1.77-1.49l3.64,0.08
	l-1.36-1.43c1.1-0.26,2.16-0.67,3.15-1.21L712.94,446.65z"/>
<path class="st4" d="M733.81,437.79l21.14,1.27l3.67,4.3l1.41,2.02l-5.64-3.54c0,1.34-0.24,2.67-0.71,3.92l-0.14,0.38l-0.34-0.15
	c-2.38-1.07-4.48-2.66-6.15-4.66c-0.19,1.17-0.17,2.37,0.05,3.54l0.24,1.27l-1.91-0.76c-2.1-0.84-4.03-2.03-5.71-3.54l-0.06,0.21
	c-0.34,1.21-0.79,2.39-1.35,3.51l-0.29,0.58l-0.87-0.45c-1.65-0.87-3.09-2.09-4.21-3.59l-0.42,0.34c-1.77,1.44-3.85,2.45-6.08,2.95
	l-3.1,0.51l0.15-1.23c0.09-0.69,0.03-1.39-0.15-2.05l-3.1,2.28l-2.82,2.02l-0.06-0.42c-0.15-1.07-0.41-2.11-0.79-3.12l-0.1,0.15
	c-1.24,1.75-2.75,3.28-4.48,4.55l-0.5,0.36l-0.56-2.28l-0.57-2.02l-3.39,3.04l3.67-6.07L733.81,437.79z"/>
<path class="st2" d="M734.63,392.26l23.03,36.85c1.17,1.01,2.67,1.57,4.22,1.57h0.33l-2.73,1.83l1.21,2.09
	c1.37,0.68,2.94,0.86,4.43,0.52l2.24-0.52l-5.15,4.71l2.73,6.02l-2.65-0.34c-2.23-0.29-4.35-1.16-6.14-2.54l-3.03-2.35
	c0.77,1.49,0.84,3.25,0.18,4.8l-0.18,0.44l-0.93-0.36c-1.57-0.62-2.93-1.67-3.92-3.04l-1.52-2.62c-0.78,1.68-0.86,3.59-0.24,5.33
	l0.24,0.69l-0.05-0.02c-2.94-1.01-5.54-2.82-7.52-5.22c-0.2,1.82-0.72,3.59-1.52,5.23l-0.82-0.61c-1.66-1.24-3.03-2.81-4.03-4.62
	c-1.52,2.79-4.3,4.67-7.46,5.04l-1.63,0.19l0.43-1.36c0.3-0.96,0.14-2-0.43-2.83l-1.82,1.7l-4.24,3.27c0-1.54-0.41-3.06-1.18-4.39
	l-0.34-0.58c-0.19,1.68-1.04,3.21-2.36,4.26l-1.88,1.5l-0.22-0.42c-0.64-1.24-0.78-2.69-0.39-4.03l-0.3,0.22
	c-1,0.72-2.13,1.22-3.34,1.48c-1.2,0.26-2.43,0.27-3.64,0.03l-2.12-0.42c1.61-1.21,3.03-2.66,4.23-4.28l0.32-0.43
	c-1.27,0.16-2.51-0.5-3.1-1.64l-0.23-0.46l0.54,0.06c1.24,0.13,2.5,0.02,3.7-0.32l1.21-2.09l-2.73-2.09l0.59-0.13
	c2.71-0.59,5.06-2.28,6.48-4.66l8.99-15.1L734.63,392.26z"/>
<path class="st5" d="M732.88,418.06h11.37l12.1,8.6l0.85,1.77l-2.33-0.98c-1.64-0.69-3.17-1.6-4.57-2.69l-0.15-0.12v2.91v2.91
	l-4.51-6.07l-0.81,2.07c-0.77,1.97-1.93,3.76-3.42,5.26l-3.67-5.31l-0.22,0.49c-0.23,0.52-0.51,1.02-0.82,1.49l-0.37,0.56
	l-2.82-2.28l-1.97-1.52l-1.82,1.63c-0.48,0.43-0.99,0.81-1.54,1.14c-1.14,0.68-2.33,1.27-3.57,1.76l-0.68,0.27l0.85-3.79l-0.56,0.43
	c-2.06,1.57-4.32,2.86-6.71,3.84l-0.08,0.03l-1.11-5.06l-4.8,4.81l0.36-0.51l3.87-6.83L732.88,418.06z"/>
<path class="st2" d="M732.84,381.12l17.33,25.33c1.4,2.04,3.71,3.26,6.18,3.26l-3.1,2.02c1.87,3.45,5.66,5.41,9.56,4.94l1.03-0.12
	c0.06-0.01,0.1,0.05,0.08,0.1l-0.06,0.13c-0.83,1.94-2.42,3.47-4.39,4.23l-0.86,0.33l3.95,5.82h-4.28c-3.69,0-7.14-1.79-9.27-4.81
	v4.81l-3.38-3.72l-1.41,1.95l-2.82,4.81l-2.82-4.81l-1.41-3.04v0.61c0,1.61-0.29,3.2-0.85,4.71l-2.54-2.28l-2.26-1.95
	c-0.92,1.76-2.35,3.21-4.1,4.15l-2.95,1.59l0.37-0.67c0.87-1.55,1.32-3.3,1.32-5.07c-1.1,1.77-2.71,3.16-4.61,4.01l-3.86,1.73
	l-0.56-2.53l-0.57-2.78c-1.94,2.85-5.17,4.55-8.61,4.55h-1.83l0.46-1.04c0.81-1.83,1.89-3.52,3.2-5.03l-6.77-3.63l2.76-0.6
	c2.08-0.45,4.02-1.39,5.67-2.73l-4.2-2.05c3.36,0,6.49-1.73,8.27-4.58L732.84,381.12z"/>
<path class="st6" d="M732.92,395.29h8.84l7.62,9.87l1.13,1.77l-3.25-0.61c-2.27-0.43-4.32-1.65-5.78-3.44
	c0.56,2.68,0.67,5.43,0.34,8.15l-0.06,0.45l-3.67-1.83c-2.58-1.29-4.73-3.29-6.21-5.76c-2.75,2.94-5.88,5.49-9.31,7.59l-0.11-0.24
	c-1.03-2.3-1.29-4.88-0.74-7.35l-5.44,3.54l0.28-0.51l4.31-6.58L732.92,395.29z"/>
<path class="st7" d="M736.89,447.39h0.25c0.33,0,0.59,0.27,0.59,0.59c0,0.28-0.1,0.55-0.28,0.77l-0.56,0.66l-0.42-0.95
	c-0.09-0.21-0.14-0.44-0.14-0.67c0-0.23,0.18-0.41,0.41-0.41H736.89z"/>
<path class="st7" d="M726.23,459.25c-0.15,0.1-0.33,0.12-0.49,0.05l-0.13-0.06c-0.31-0.13-0.49-0.46-0.42-0.8l0.02-0.12
	c0.04-0.21,0.15-0.4,0.32-0.55l0.76-0.64l0.04,1.18c0,0.07,0.02,0.14,0.04,0.21l0.05,0.12C726.5,458.87,726.42,459.12,726.23,459.25
	z"/>
<path class="st2" d="M733.55,370.75l5.58,10.61c1.15,2.19,2.55,4.25,4.15,6.14l0.46,0.54c4.69,5.51,11.14,9.23,18.26,10.54
	l-10.16,1.77l2.26,2.78l2.82,3.04l-2.27,0.16c-5.3,0.38-10.44-1.86-13.79-5.98v4.05v4.3l-1.46-0.6c-3.1-1.26-5.75-3.43-7.59-6.24
	c-1.11,1.66-2.59,3.06-4.32,4.07l-4.71,2.76l-0.41-2.69c-0.29-1.89-0.15-3.83,0.41-5.66c-2.73,4.59-7.97,7.06-13.24,6.25l-2.84-0.43
	l7.62-5.82l-8.75-2.78c7.4-0.65,14.24-4.22,19-9.94l0.13-0.16c1.55-1.87,2.86-3.92,3.89-6.12L733.55,370.75z"/>
<path class="st3" d="M718.1,430.02l0.06,0.64c0.1,1.11,0.68,2.1,1.6,2.73l-1.75,0.78c0.6,0.71,1.3,1.35,2.07,1.9l0.17,0.12
	l-2.67-0.06c0.84,0.83,1.76,1.58,2.76,2.23l0.16,0.1l-3.41,0.07l0.71,1.59l-0.18-0.07c-0.93-0.33-1.8-0.81-2.57-1.41
	c-0.7,1.21-1.86,2.11-3.22,2.5l-0.1,0.03l1.55-3.5l-2.6-1.32l0.37-0.07c1.09-0.22,2.14-0.6,3.12-1.14l-1.98-1.26l3.61-0.36
	l-1.56-1.26c1.05-0.39,2.04-0.93,2.94-1.59L718.1,430.02z"/>
<path class="st3" d="M724.6,447.24l0.08,0.72c0.1,0.9,0.59,1.7,1.34,2.19l-1.38,0.83c0.5,0.6,1.08,1.13,1.73,1.57l0.12,0.08
	l-2.14,0.15c0.7,0.69,1.47,1.3,2.3,1.82l0.1,0.07l-2.73,0.33l0.61,1.38l-0.13-0.04c-0.77-0.23-1.49-0.6-2.12-1.08l-0.03,0.07
	c-0.51,1.1-1.43,1.99-2.56,2.47l1.15-3.27l-2.12-0.99l0.24-0.08c0.9-0.29,1.76-0.72,2.52-1.28l-1.62-0.98l2.89-0.6l-1.29-1.01
	c0.83-0.43,1.6-0.98,2.28-1.62L724.6,447.24z"/>
<path class="st3" d="M753.01,447.18l0.6,0.42c0.95,0.66,2.15,0.94,3.29,0.75l-0.54,1.68c0.99,0.08,1.99,0.06,2.97-0.08l0.21-0.03
	l-1.85,1.72c1.25,0.01,2.5-0.1,3.71-0.32l0.18-0.03l-1.56,1.96c1.09,0.48,1.99,1.29,2.54,2.28l0.56,1.01l-3.54-1.67l-0.01,0.3
	c-0.02,0.56-0.15,1.1-0.39,1.6l-0.16-0.05c-0.45-0.13-0.85-0.38-1.16-0.71l-1.5,1.26l-0.29-1.73l-2.84,0.83l0.18-0.28
	c0.56-0.87,0.96-1.83,1.18-2.84l-2.38,0.46l2.14-2.63l-2.09,0.19c0.39-0.96,0.61-1.97,0.68-3.01L753.01,447.18z"/>
<path class="st3" d="M733.21,428.27l0.02,0.04c0.94,1.41,2.38,2.4,4.03,2.77l-2.14,1.19l0.22,0.09c1.08,0.47,2.2,0.85,3.35,1.12
	l0.67,0.16l-3.87,0.62l2.43,0.88l2.93,0.61l-4.87,0.94l1.8,1.35l-0.39-0.02c-1.46-0.08-2.9-0.31-4.31-0.7
	c-0.4,1.32-1.38,2.39-2.66,2.92l-0.87,0.36l0.51-3.75l-4.39-0.6l0.74-0.24c1.31-0.43,2.55-1.04,3.69-1.8l-3.48-0.7l5.02-1.27
	l-2.87-0.8c1.32-0.65,2.54-1.47,3.64-2.44L733.21,428.27z"/>
<path class="st8" d="M725.73,411.74c0.69,1.56,2.08,2.69,3.76,3.06l0.91,0.2l-4.29,1.44l0.79,0.33c1,0.43,2.04,0.77,3.11,1.02
	l0.39,0.09l-4,0.57l1.14,0.41c1.28,0.46,2.51,1.02,3.71,1.66l-4.41,0.4l2.2,1.51l-0.53-0.06c-1.84-0.21-3.66-0.58-5.44-1.1
	c-0.63,1.28-1.8,2.22-3.19,2.54l-1.63,0.39l0.97-3.69l-5.59-1.02l1.08-0.19c1.64-0.29,3.24-0.77,4.78-1.43l-4.41-1.03l6.56-0.79
	l-3.62-1.07l0.21-0.06c1.61-0.48,3.18-1.09,4.7-1.83L725.73,411.74z"/>
<path class="st8" d="M742.81,411.74c0.72,0.81,1.73,1.32,2.8,1.41l3.62,0.32l-2.44,1.65l1.07,0.16c0.96,0.14,1.92,0.21,2.89,0.22
	l1.7,0.01l-4.76,1.48l3.28,0.31l3.84-0.06l-5.94,2.03l2.58,0.91l-0.53,0.07c-1.84,0.25-3.7,0.35-5.57,0.29
	c-0.21,1.39-1.05,2.58-2.29,3.24l-1.44,0.77l-0.21-3.79l-5.68,0.41l0.98-0.45c1.48-0.69,2.88-1.55,4.15-2.56l-0.08,0.02
	c-1.47,0.27-2.98,0.3-4.47,0.09l3.95-2.21c-0.74-0.5-1.38-1.14-1.88-1.88l-0.09-0.14l0.07-0.01c1.08-0.16,2.17-0.24,3.26-0.24
	L742.81,411.74z"/>
<path class="st3" d="M750.13,427.91l0.43,0.52c0.88,1.06,2.16,1.73,3.52,1.84l-1.27,1.69c1.1,0.37,2.23,0.61,3.37,0.73l0.28,0.03
	l-2.77,1.37c1.42,0.36,2.86,0.58,4.31,0.68l0.25,0.02l-3.44,1.89l4.54,2.85c-2.35,0.02-4.66-0.89-6.39-2.53l-1.02-0.96v0.4
	c0,2.18-1.76,3.9-3.99,3.9l1.37-2.15l-2.54-0.18l0.36-0.29c0.95-0.77,1.77-1.7,2.41-2.74l-2.87-0.15l3.46-2.28l-2.44-0.38
	c0.81-0.94,1.47-2,1.96-3.14L750.13,427.91z"/>
<path class="st8" d="M733.66,378.59l2.71,5.82c0.68,1.46,1.51,2.84,2.48,4.12c2.43,3.22,5.67,5.74,9.4,7.29l1.62,0.68l-6.87-0.87
	l1.15,1.6l2.62,2.18h-1.98c-2.93,0-5.68-1.41-7.39-3.79v2.33v2.48l-0.57-0.26c-1.69-0.78-3.11-2.06-4.04-3.67
	c-0.57,0.96-1.36,1.75-2.32,2.32l-2.72,1.61l-0.15-0.54c-0.49-1.74-0.44-3.58,0.15-5.29c-1.91,2.99-5.23,4.78-8.77,4.73l-0.14,0
	l3.67-3.71h-4.23l1.11-0.34c3.85-1.2,7.21-3.59,9.6-6.83c0.91-1.23,1.66-2.57,2.25-3.98L733.66,378.59z"/>
</svg>
