<?xml version="1.0" encoding="utf-8"?>
<!-- Generator: Adobe Illustrator 25.4.1, SVG Export Plug-In . SVG Version: 6.00 Build 0)  -->
<svg version="1.1" id="Layer_1" xmlns="http://www.w3.org/2000/svg" xmlns:xlink="http://www.w3.org/1999/xlink" x="0px" y="0px"
	 viewBox="0 0 1366 768" style="enable-background:new 0 0 1366 768;" xml:space="preserve">
<style type="text/css">
	.st0{fill:#493F35;}
	.st1{fill:#544639;}
	.st2{fill:#605954;}
	.st3{fill:#6D6155;}
	.st4{fill:#585654;}
	.st5{fill:#525251;}
	.st6{fill:#695D51;}
	.st7{fill:#7BB4EA;}
	.st8{fill:hsl(100,75%,37%);}
	.st9{fill:#B7B2B2;}
	.st10{fill:#ABA9A9;}
</style>
<rect x="671.52" y="80.26" class="st0" width="23.92" height="191.03"/>
<rect x="398.81" y="109.2" class="st1" width="36.68" height="233.49"/>
<rect x="398.81" y="109.2" class="st1" width="36.68" height="233.49"/>
<rect x="379.67" y="145.86" class="st1" width="19.14" height="279.8"/>
<rect x="379.67" y="145.86" class="st2" width="19.14" height="279.8"/>
<rect x="290.36" y="292.52" class="st1" width="43.06" height="353.12"/>
<rect x="290.36" y="292.52" class="st2" width="43.06" height="353.12"/>
<rect x="360.53" y="197.96" class="st1" width="19.14" height="312.6"/>
<rect x="360.53" y="197.96" class="st3" width="19.14" height="312.6"/>
<rect x="191.49" y="437.24" class="st1" width="74.95" height="239.28"/>
<rect x="191.49" y="437.24" class="st3" width="74.95" height="239.28"/>
<rect x="333.42" y="232.7" class="st1" width="27.11" height="385.93"/>
<rect x="333.42" y="232.7" class="st1" width="27.11" height="385.93"/>
<rect x="172.35" y="510.57" class="st1" width="27.11" height="256.64"/>
<rect x="172.35" y="510.57" class="st1" width="27.11" height="256.64"/>
<rect x="260.06" y="381.28" class="st1" width="30.3" height="318.39"/>
<rect x="260.06" y="381.28" class="st1" width="30.3" height="318.39"/>
<rect x="878.84" y="508.64" class="st0" width="73.36" height="162.09"/>
<rect x="728.93" y="211.47" class="st4" width="51.03" height="358.91"/>
<rect x="754.44" y="342.69" class="st4" width="82.93" height="358.91"/>
<rect x="764.01" y="271.29" class="st1" width="15.95" height="374.35"/>
<rect x="764.01" y="271.29" class="st1" width="15.95" height="374.35"/>
<rect x="779.96" y="311.81" class="st1" width="15.95" height="358.91"/>
<rect x="779.96" y="311.81" class="st5" width="15.95" height="358.91"/>
<rect x="695.44" y="128.5" class="st6" width="38.27" height="316.46"/>
<rect x="826.21" y="406.37" class="st6" width="52.63" height="275.94"/>
<rect x="433.89" y="109.2" class="st7" width="237.62" height="536.44"/>
<path class="st7" d="M460.25,119.3L635.97,12.18c1.58-0.96,3.51-0.2,4.31,1.71l275.37,659.36c0.8,1.91,0.16,4.24-1.42,5.21
	L738.51,785.58c-1.58,0.96-3.51,0.2-4.31-1.71L458.83,124.51C458.04,122.6,458.67,120.27,460.25,119.3z"/>
<polygon class="st7" points="443.85,73.08 628.89,190.67 358.75,813 173.71,695.41 "/>
<rect x="422.73" y="151.65" class="st7" width="4.78" height="25.09"/>
<path class="st8" d="M670.82,79.41l208.7,143.7l-89.95,108.83L670.82,79.41z"/>
<path class="st8" d="M420.26,110.29L301.5,362.82l-89.95-108.83L420.26,110.29z"/>
<path class="st8" d="M331.2,294.43l-115.1,255l-91.5-106.92L331.2,294.43z"/>
<path class="st8" d="M270.6,427.57l-115.1,255L64,575.65L270.6,427.57z"/>
<path class="st8" d="M772.88,297.46l208.7,143.7l-89.95,108.83L772.88,297.46z"/>
<path class="st8" d="M830.3,420.96l208.7,143.7l-89.95,108.83L830.3,420.96z"/>
<rect x="668.33" y="78.33" class="st9" width="3.19" height="3.86"/>
<rect x="679.49" y="80.26" class="st8" width="15.95" height="17.37"/>
<rect x="398.81" y="111.13" class="st8" width="14.35" height="13.51"/>
<polygon class="st10" points="387.65,108.37 411.44,105.34 411.77,109.18 387.98,112.2 "/>
<path class="st8" d="M676.3,80.26c0,0.51-0.25,1-0.7,1.36c-0.45,0.36-1.06,0.57-1.69,0.57c-0.63,0-1.24-0.2-1.69-0.57
	c-0.45-0.36-0.7-0.85-0.7-1.36h2.39H676.3z"/>
<rect x="674.7" y="80.26" class="st8" width="4.78" height="5.79"/>
<path class="st8" d="M420.8,109.38c-0.09-0.08-0.19-0.13-0.29-0.16c-0.11-0.03-0.21-0.03-0.32-0.01c-0.11,0.02-0.21,0.07-0.3,0.15
	c-0.09,0.07-0.17,0.17-0.22,0.28c-0.06,0.11-0.1,0.23-0.12,0.36c-0.02,0.13-0.01,0.26,0.01,0.39c0.03,0.13,0.07,0.25,0.14,0.35
	c0.07,0.1,0.15,0.19,0.24,0.26l0.4-0.83L420.8,109.38z"/>
<ellipse class="st8" cx="417.95" cy="111.13" rx="1.59" ry="1.93"/>
<polygon class="st8" points="331.52,117.67 411.52,109.2 411.66,111.12 331.66,119.59 "/>
<rect x="411.57" y="109.2" class="st8" width="6.38" height="5.79"/>
<rect x="417.95" y="109.2" class="st8" width="1.59" height="1.93"/>
<path class="st0" d="M671.52,89.9c4.4,0,7.97,4.32,7.97,9.65v9.65h-7.97V89.9z"/>
</svg>
