<?xml version="1.0" encoding="utf-8"?>
<!-- Generator: Adobe Illustrator 26.1.0, SVG Export Plug-In . SVG Version: 6.00 Build 0)  -->
<svg version="1.1" id="Layer_1" xmlns="http://www.w3.org/2000/svg" xmlns:xlink="http://www.w3.org/1999/xlink" x="0px" y="0px"
	 viewBox="0 0 612 792" style="enable-background:new 0 0 612 792;" xml:space="preserve">
<style type="text/css">
	.st0{fill:#B67F4D;}
	.st1{fill:#D87F28;}
	.st2{fill:#D47228;}
	.st3{fill:#45BBC2;}
	.st4{fill:#65C2C8;}
	.st5{fill:#9CD9DE;}
</style>
<ellipse transform="matrix(0.2687 -0.9632 0.9632 0.2687 -322.8661 382.4713)" class="st0" cx="90.46" cy="403.87" rx="42.45" ry="51.48"/>
<ellipse class="st0" cx="287.98" cy="367.05" rx="209.28" ry="73.86"/>
<ellipse transform="matrix(0.8763 -0.4817 0.4817 0.8763 -124.1869 290.5896)" class="st0" cx="503.86" cy="387.16" rx="51.02" ry="43.81"/>
<ellipse transform="matrix(0.8952 -0.4457 0.4457 0.8952 -135.6928 281.3768)" class="st0" cx="530.4" cy="429.19" rx="44.77" ry="24.62"/>
<ellipse transform="matrix(0.0118 -0.9999 0.9999 0.0118 -119.6631 729.0188)" class="st0" cx="309.02" cy="425.05" rx="72.74" ry="243.11"/>
<ellipse class="st1" cx="285.79" cy="353.48" rx="195.06" ry="53.57"/>
<ellipse transform="matrix(0.9795 -0.2014 0.2014 0.9795 -68.7131 104.8916)" class="st1" cx="481.06" cy="390.09" rx="67.93" ry="36.96"/>
<ellipse transform="matrix(0.9617 -0.274 0.274 0.9617 -101.5257 149.6516)" class="st1" cx="484.96" cy="438.27" rx="80.17" ry="26.96"/>
<ellipse class="st1" cx="338.11" cy="422.93" rx="182.36" ry="69.09"/>
<ellipse transform="matrix(0.1444 -0.9895 0.9895 0.1444 -209.6348 606.1375)" class="st1" cx="245.69" cy="424.29" rx="61.34" ry="200.3"/>
<path class="st2" d="M65.96,374.13l2.87-1.19v14.15l-2.87,1.33V374.13z"/>
<path class="st2" d="M58.81,378.89l2.87-1.98v13.89l-2.87,3.97V378.89z"/>
<ellipse transform="matrix(0.527 -0.8499 0.8499 0.527 -86.4677 644.8176)" class="st3" cx="536.05" cy="400.09" rx="5.91" ry="2.73"/>
<path class="st2" d="M310.63,300.55l2.87,0.06l1.2,11.93l-4.64-0.73L310.63,300.55z"/>
<polygon class="st2" points="305.08,300.41 308.05,300.53 307.61,312.09 304.63,311.97 "/>
<path class="st2" d="M217.46,303.36l2.87-0.24l0.96,12.17l-3.83,0V303.36z"/>
<path class="st2" d="M246.87,301.15l2.59-0.14l1.78,11.2l-4.37,0.79V301.15z"/>
<polygon class="st2" points="262.08,300.83 264.95,300.7 265.43,312.08 262.56,312.2 "/>
<path class="st2" d="M225.57,302.45l2.87-0.05l1.51,12.19h-4.19L225.57,302.45z"/>
<polygon class="st2" points="240.05,301.38 242.92,301.18 243.69,313.23 240.82,313.42 "/>
<rect x="278.42" y="299.93" transform="matrix(0.9999 -0.0167 0.0167 0.9999 -5.0592 4.7074)" class="st2" width="2.88" height="11.85"/>
<path class="st2" d="M200.16,305.86l2.71-0.79l0.77,12.3l-2.71,0.79L200.16,305.86z"/>
<path class="st2" d="M536.82,361.43l3.1,2.55l-5.03,14.12l-4.25-4.76L536.82,361.43z"/>
<path class="st2" d="M521.73,354.99l3.87,0.88l-2.32,12.7l-2.88-1.11L521.73,354.99z"/>
<path class="st2" d="M545.72,371.75l1.5,4.88l-6.91,12.98l-1.16-2.64L545.72,371.75z"/>
<path class="st2" d="M535.27,404.47l3.48,0.23l-1.93,10.32h-1.55V404.47z"/>
<path class="st2" d="M544.56,405.49l3.1,1.05l-2.71,10.55l-1.93-0.88L544.56,405.49z"/>
<path class="st2" d="M558.88,411.44l2.32,3.18l-5.03,11.91l-0.81-1.59L558.88,411.44z"/>
<path class="st2" d="M551.91,407.47l2.71,1.19l-2.18,13.1l-2.67-1.98L551.91,407.47z"/>
<rect x="291.58" y="299.93" transform="matrix(0.9999 -0.0169 0.0169 0.9999 -5.1376 5.0062)" class="st2" width="2.88" height="11.84"/>
<path class="st2" d="M50.3,388.02l2.87-3.97v13.1l-2.87,1.59L50.3,388.02z"/>
<path class="st2" d="M83.15,367.69l3.65-1.5v11.54l-2.73,1.56L83.15,367.69z"/>
<path class="st2" d="M74.02,370.79l2.71-1.42l1.08,12.99l-2.62,2.09L74.02,370.79z"/>
<path class="st2" d="M364.62,304.67l3.1,0.4l2.32,13.1l-5.81-1.19L364.62,304.67z"/>
<path class="st2" d="M343.34,302.33l3.48,0.36l0.77,12.15l-4.25-0.64V302.33z"/>
<path class="st2" d="M320.9,300.98l4.26,0.11l0.39,11.91l-3.87-0.4L320.9,300.98z"/>
<path class="st2" d="M271.88,300.34l-2.83,0.01l-0.78,11.26l4.26,0L271.88,300.34z"/>
<ellipse class="st3" cx="292.36" cy="380.26" rx="176.44" ry="43.04"/>
<ellipse transform="matrix(0.9862 -0.1653 0.1653 0.9862 -61.267 83.1597)" class="st3" cx="468.99" cy="409.67" rx="61.2" ry="29.81"/>
<ellipse transform="matrix(0.971 -0.2392 0.2392 0.971 -93.5235 126.0212)" class="st3" cx="472.52" cy="448.38" rx="71.95" ry="21.83"/>
<ellipse class="st3" cx="339.68" cy="436.06" rx="164.95" ry="55.51"/>
<ellipse transform="matrix(0.1258 -0.9921 0.9921 0.1258 -209.8159 636.197)" class="st3" cx="256.08" cy="437.15" rx="49.39" ry="180.79"/>
<ellipse transform="matrix(0.3834 -0.9236 0.9236 0.3834 -319.9135 365.0704)" class="st3" cx="113.47" cy="422.14" rx="33" ry="61.49"/>
<ellipse class="st3" cx="109.62" cy="406.28" rx="46.44" ry="32.55"/>
<ellipse transform="matrix(0.1758 -0.9844 0.9844 0.1758 -263.1227 551.2781)" class="st3" cx="197.66" cy="432.78" rx="47.59" ry="128.55"/>
<rect x="94.91" y="362.62" class="st3" width="42.57" height="21.43"/>
<ellipse transform="matrix(0.9889 -0.1486 0.1486 0.9889 -49.7805 33.1401)" class="st3" cx="196.82" cy="349.6" rx="102.56" ry="30.86"/>
<ellipse class="st3" cx="286.07" cy="334.83" rx="123.05" ry="23.02"/>
<ellipse transform="matrix(0.2185 -0.9758 0.9758 0.2185 -21.5374 661.7177)" class="st3" cx="402.36" cy="344.31" rx="19.43" ry="80.14"/>
<ellipse transform="matrix(0.4316 -0.9021 0.9021 0.4316 -50.7143 621.5461)" class="st3" cx="467.87" cy="351.02" rx="5.14" ry="13.86"/>
<rect x="453.24" y="353.09" class="st3" width="27.86" height="37.31"/>
<ellipse transform="matrix(0.1222 -0.9925 0.9925 0.1222 63.6873 825.59)" class="st3" cx="498.58" cy="376.79" rx="12.7" ry="32.52"/>
<ellipse transform="matrix(0.3706 -0.9288 0.9288 0.3706 -28.4256 717.351)" class="st3" cx="515.06" cy="379.65" rx="13.45" ry="19.02"/>
<ellipse transform="matrix(0.8835 -0.4685 0.4685 0.8835 -119.6202 292.1966)" class="st3" cx="527.56" cy="386.56" rx="10.9" ry="16.58"/>
<rect x="516.7" y="399.93" class="st3" width="18.57" height="27.78"/>
<ellipse transform="matrix(0.376 -0.9266 0.9266 0.376 -55.6604 766.9044)" class="st3" cx="541.57" cy="424.78" rx="8.31" ry="15.9"/>
<ellipse transform="matrix(0.9009 -0.434 0.434 0.9009 -138.4933 275.5667)" class="st3" cx="534.2" cy="441.06" rx="22.94" ry="7.26"/>
<path class="st2" d="M113.87,328.09l2.71-1.19l2.19,13.86l-2.96,1.22L113.87,328.09z"/>
<polygon class="st2" points="91.82,365.17 94.69,365 95.27,375.22 92.4,375.39 "/>
<path class="st2" d="M375.84,306.33l3.48,0.72l0.77,13.1l-3.95-1.09L375.84,306.33z"/>
<path class="st2" d="M389,307.84l3.65,0.79v13.89l-3.65-0.79V307.84z"/>
<path class="st2" d="M431.91,318.25l2.57,1.19l1,13.89l-3.56-1.09V318.25z"/>
<path class="st2" d="M451.3,325.31l1.55,0.79v13.49l-3.14-1.19L451.3,325.31z"/>
<path class="st2" d="M473.7,339.2l2.37,2.78l0.77,8.73l-3.14-2.38V339.2z"/>
<path class="st2" d="M462.86,331.26l3.14,1.98l0.77,11.51l-3.92-1.19V331.26z"/>
<path class="st2" d="M443.18,321.82l1.93,1.11l-0.39,13.5l-3.1-1.19L443.18,321.82z"/>
<path class="st2" d="M417.95,314.19l2.57,0.79l0.61,13.89l-3.17-1.09V314.19z"/>
<path class="st2" d="M401.38,310.62l4.26,0.79v13.89l-4.26-0.77V310.62z"/>
<path class="st2" d="M481.1,352.7l3.36-0.4v11.51l-2.97,0.4L481.1,352.7z"/>
<path class="st2" d="M488.61,351.9l3.36-0.4v11.91H489L488.61,351.9z"/>
<path class="st2" d="M497.74,351.51l2.32,0l1.93,12.7l-4.26-0.79V351.51z"/>
<path class="st2" d="M509.22,352.3l4,0.79l-0.77,12.3h-3.22V352.3z"/>
<path class="st2" d="M182.32,308.16l2.87-0.24l1.05,11.84l-2.92,0.87L182.32,308.16z"/>
<path class="st2" d="M136.65,319.27l2.76-1.11l1.11,13.32l-2.66,0.97L136.65,319.27z"/>
<path class="st2" d="M145.99,316.58l2.71-1.19l1.17,12.86l-2.72,1.04L145.99,316.58z"/>
<path class="st2" d="M157.21,313.4l3.01-0.75l1.38,12.42l-2.84,0.63L157.21,313.4z"/>
<path class="st2" d="M173.96,309.69l2.98-0.66l0.77,12.3l-3.08,0.84L173.96,309.69z"/>
<path class="st2" d="M121.14,324.84l2.79-1.12l1.62,13.14l-2.78,1.54L121.14,324.84z"/>
<path class="st2" d="M96.85,340.39l1.93-1.98l2.32,13.89l-2.32,2.38L96.85,340.39z"/>
<path class="st2" d="M92.2,346.35l1.55-1.98l2.44,15.86l-1.28,2.79L92.2,346.35z"/>
<path class="st2" d="M105.75,332.91l2.71-1.65l2.03,13.54l-3.19,2.33L105.75,332.91z"/>
<ellipse class="st3" cx="58.15" cy="404.3" rx="9.67" ry="6.75"/>
<ellipse transform="matrix(0.7066 -0.7076 0.7076 0.7066 -274.3101 168.267)" class="st3" cx="65.77" cy="414.95" rx="10.32" ry="21.97"/>
<ellipse class="st4" cx="381.26" cy="390.01" rx="75.07" ry="23.42"/>
<ellipse class="st4" cx="265.95" cy="361.43" rx="106.8" ry="25.8"/>
<ellipse class="st4" cx="133.61" cy="388.82" rx="7.74" ry="4.76"/>
<ellipse class="st4" cx="152.18" cy="393.18" rx="4.64" ry="2.78"/>
<ellipse class="st4" cx="282.97" cy="396.36" rx="4.64" ry="2.78"/>
<ellipse class="st4" cx="297.68" cy="405.88" rx="4.64" ry="2.78"/>
<ellipse class="st4" cx="282.97" cy="472.57" rx="4.64" ry="2.78"/>
<ellipse class="st4" cx="260.53" cy="478.92" rx="4.64" ry="2.78"/>
<ellipse class="st4" cx="213.32" cy="432.48" rx="91.32" ry="32.55"/>
<ellipse class="st4" cx="398.29" cy="437.64" rx="75.07" ry="32.15"/>
<ellipse class="st5" cx="431.18" cy="437.24" rx="4.26" ry="3.18"/>
<ellipse class="st5" cx="431.18" cy="437.24" rx="4.26" ry="3.18"/>
<ellipse class="st5" cx="431.18" cy="437.24" rx="4.26" ry="3.18"/>
<ellipse class="st5" cx="324.77" cy="351.51" rx="4.64" ry="2.38"/>
<ellipse class="st5" cx="324.77" cy="351.51" rx="4.64" ry="2.38"/>
<ellipse class="st5" cx="324.77" cy="351.51" rx="4.64" ry="2.38"/>
<ellipse class="st5" cx="419.18" cy="446.37" rx="5.42" ry="3.57"/>
<ellipse class="st5" cx="419.18" cy="446.37" rx="5.42" ry="3.57"/>
<ellipse class="st5" cx="419.18" cy="446.37" rx="5.42" ry="3.57"/>
<ellipse class="st5" cx="361.53" cy="387.23" rx="5.8" ry="3.18"/>
<ellipse class="st5" cx="361.53" cy="387.23" rx="5.8" ry="3.18"/>
<ellipse class="st5" cx="361.53" cy="387.23" rx="5.8" ry="3.18"/>
</svg>
