<?xml version="1.0" encoding="utf-8"?>
<!-- Generator: Adobe Illustrator 25.4.1, SVG Export Plug-In . SVG Version: 6.00 Build 0)  -->
<svg version="1.1" id="Layer_1" xmlns="http://www.w3.org/2000/svg" xmlns:xlink="http://www.w3.org/1999/xlink" x="0px" y="0px"
	 viewBox="0 0 1366 768" style="enable-background:new 0 0 1366 768;" xml:space="preserve">
<style type="text/css">
	.st0{fill:#493F35;}
	.st1{fill:#544639;}
	.st2{fill:#605954;}
	.st3{fill:#6D6155;}
	.st4{fill:#585654;}
	.st5{fill:#525251;}
	.st6{fill:#695D51;}
	.st7{fill:#636363;}
	.st8{fill:#C67D28;}
	.st9{fill:#DE9343;}
	.st10{fill:#E89740;}
	.st11{fill:hsl(100,75%,37%);}
	.st12{fill:#824106;}
	.st13{fill:#7BB4EA;}
</style>
<polyline class="st0" points="699.7,27.2 699.7,261.1 674.8,261.1 674.8,27.2 "/>
<rect x="390.3" y="62.6" class="st1" width="25" height="285.9"/>
<rect x="390.3" y="62.6" class="st1" width="25" height="285.9"/>
<rect x="370.3" y="107.5" class="st1" width="20" height="342.6"/>
<rect x="370.3" y="107.5" class="st2" width="20" height="342.6"/>
<rect x="277.2" y="287.1" class="st1" width="44.9" height="432.3"/>
<rect x="277.2" y="287.1" class="st2" width="44.9" height="432.3"/>
<rect x="350.4" y="171.3" class="st1" width="20" height="382.7"/>
<rect x="350.4" y="171.3" class="st3" width="20" height="382.7"/>
<polyline class="st1" points="174,464.2 252.2,464.2 252.2,757.2 174,757.2 "/>
<polyline class="st3" points="174,464.2 252.2,464.2 252.2,757.2 174,757.2 "/>
<rect x="322.1" y="213.8" class="st1" width="28.3" height="472.5"/>
<rect x="322.1" y="213.8" class="st1" width="28.3" height="472.5"/>
<rect x="245.6" y="395.7" class="st1" width="31.6" height="389.8"/>
<rect x="245.6" y="395.7" class="st1" width="31.6" height="389.8"/>
<rect x="891" y="551.7" class="st0" width="76.5" height="198.4"/>
<rect x="734.7" y="187.8" class="st4" width="53.2" height="439.4"/>
<rect x="761.3" y="348.5" class="st4" width="86.5" height="439.4"/>
<rect x="771.3" y="261.1" class="st5" width="16.6" height="458.3"/>
<rect x="771.3" y="261.1" class="st5" width="16.6" height="458.3"/>
<rect x="787.9" y="310.7" class="st5" width="16.6" height="439.4"/>
<rect x="787.9" y="310.7" class="st6" width="16.6" height="439.4"/>
<rect x="699.7" y="86.3" class="st7" width="39.9" height="387.4"/>
<rect x="836.1" y="426.4" class="st7" width="54.9" height="337.8"/>
<rect x="426.9" y="62.6" class="st8" width="247.9" height="656.8"/>
<path class="st8" d="M597.2,864.3l-142.8-707c-0.5-2.5,0.5-5.1,2.3-5.9l203.2-82.7c1.8-0.7,3.6,0.7,4.1,3.2l142.8,707
	c0.5,2.5-0.5,5.1-2.3,5.8l-203.2,82.7"/>
<polyline class="st8" points="512,872.2 300.5,797.3 427.4,74.4 638.9,149.3 512,872.2 "/>
<polyline class="st9" points="460.2,41.4 460.2,114.6 415.3,114.6 415.3,41.4 "/>
<polyline class="st10" points="674.8,20.1 674.8,114.6 488.5,114.6 488.5,20.1 "/>
<path class="st9" d="M471.8,27.2L528,114H415.6L471.8,27.2"/>
<rect x="415.3" y="114.6" class="st8" width="5" height="30.7"/>
<path class="st11" d="M674.1,26.2l217.7,175.9l-93.8,133.2L674.1,26.2"/>
<path class="st11" d="M195,239.9L412.7,64L288.8,373.1L195,239.9"/>
<path class="st11" d="M104.3,470.7l215.5-181.3L199.7,601.6"/>
<path class="st11" d="M41,633.7l215.5-181.3L136.5,764.6"/>
<path class="st11" d="M780.5,293.1l217.7,175.9l-93.8,133.2L780.5,293.1z"/>
<path class="st11" d="M1058.1,620.3l-93.8,133.2L840.4,444.3L1058.1,620.3"/>
<polyline class="st11" points="699.7,27.2 699.7,48.5 683.1,48.5 683.1,27.2 "/>
<rect x="390.3" y="65" class="st11" width="15" height="16.5"/>
<path class="st9" d="M403.8,62.6"/>
<path class="st11" d="M413.2,62.9c-0.1-0.1-0.2-0.2-0.3-0.2c-0.1,0-0.2,0-0.3,0c-0.1,0-0.2,0.1-0.3,0.2c-0.1,0.1-0.2,0.2-0.2,0.3
	s-0.1,0.3-0.1,0.4c0,0.2,0,0.3,0,0.5c0,0.2,0.1,0.3,0.1,0.4c0.1,0.1,0.1,0.2,0.2,0.3l0.4-1L413.2,62.9z"/>
<ellipse class="st11" cx="410.3" cy="65" rx="1.7" ry="2.4"/>
<line class="st11" x1="403.6" y1="62.6" x2="403.7" y2="65"/>
<rect x="403.6" y="62.6" class="st11" width="6.7" height="7.1"/>
<rect x="410.3" y="62.6" class="st11" width="1.7" height="2.4"/>
<polygon class="st12" points="545.7,99.2 614.1,111.3 582.5,291.9 514,279.8 "/>
<polygon class="st12" points="546.1,109.4 615.4,114.3 602.9,294.1 533.6,289.3 "/>
<polygon class="st12" points="536.6,272.9 604.6,288.1 567.9,464.3 500,449.1 "/>
<polygon class="st12" points="478.6,448.9 547.9,443.8 558.7,623.8 489.4,628.9 "/>
<polygon class="st12" points="547,606 618.9,616.7 588.7,795.4 516.7,784.6 "/>
<polygon class="st12" points="486.6,556.8 581.4,578 534.3,804.5 439.5,783.2 "/>
<polygon class="st12" points="509.4,309.3 600.9,302.6 620.2,623.7 528.7,630.5 "/>
<polygon class="st12" points="514.2,272.9 582.2,288.4 545.5,467.5 477.5,452 "/>
<ellipse class="st8" cx="615.4" cy="463.1" rx="23.5" ry="81.5"/>
<ellipse class="st8" cx="465.4" cy="581.2" rx="23.5" ry="62.6"/>
<ellipse class="st8" cx="489.9" cy="304.8" rx="23.5" ry="81.5"/>
<ellipse class="st12" cx="501.1" cy="465.4" rx="23.5" ry="81.5"/>
<polygon class="st8" points="606.7,320.1 631.6,323.4 616.8,450.7 591.9,447.5 "/>
<ellipse class="st12" cx="587.4" cy="316.6" rx="20.2" ry="81.5"/>
<polygon class="st8" points="594.1,497.1 618.3,490.2 649.8,614.2 625.6,621 "/>
<polygon class="st8" points="494.8,232.7 519.7,235.5 507,363.1 482.1,360.3 "/>
<polygon class="st8" points="469.2,383.8 492.1,394.5 468.1,451.4 445.2,440.7 "/>
<ellipse transform="matrix(0.1646 -0.9864 0.9864 0.1646 262.9807 682.853)" class="st12" cx="534.6" cy="186.2" rx="61.3" ry="9"/>
<polygon class="st8" points="469.6,601.4 492.6,610.7 449.9,728 426.9,718.7 "/>
<polygon class="st13" points="546.6,99.2 607.9,111.3 579.5,291.9 518.2,279.8 "/>
<polygon class="st13" points="547,96.7 609,101.9 597.8,294.1 535.8,288.9 "/>
<polygon class="st13" points="538.5,272.9 599.3,288.1 566.5,464.3 505.6,449.1 "/>
<polygon class="st13" points="486.5,448.9 548.6,443.8 558.3,623.8 496.2,628.9 "/>
<polygon class="st13" points="552.5,603.6 613.4,618.9 580.6,795 519.7,779.8 "/>
<polygon class="st13" points="493.7,556.8 578.6,578 536.4,804.5 451.5,783.2 "/>
<polygon class="st13" points="514.1,309.3 596.1,302.6 613.3,623.7 531.4,630.5 "/>
<polygon class="st13" points="518.4,272.9 579.3,288.1 546.4,464.3 485.6,449.1 "/>
<ellipse class="st13" cx="506.7" cy="465.4" rx="21.1" ry="81.5"/>
<ellipse class="st12" cx="479.3" cy="598.9" rx="20.8" ry="56.7"/>
<ellipse class="st12" cx="479.3" cy="598.9" rx="20.8" ry="56.7"/>
<ellipse class="st12" cx="479.3" cy="598.9" rx="20.8" ry="56.7"/>
<ellipse class="st12" cx="472.7" cy="596.5" rx="20.8" ry="56.7"/>
<ellipse class="st12" cx="472.7" cy="596.5" rx="20.8" ry="56.7"/>
<ellipse class="st8" cx="472.3" cy="596.5" rx="21.1" ry="56.7"/>
<polygon class="st8" points="608.2,320.1 630.5,323.4 617.2,450.7 594.9,447.5 "/>
<ellipse class="st13" cx="583.9" cy="316.6" rx="18.1" ry="81.5"/>
<polygon class="st12" points="589.9,497.1 611.6,490.2 639.8,614.2 618.2,621 "/>
<polygon class="st12" points="498.5,261.1 520,268 496.6,388.5 475.2,381.5 "/>
<polygon class="st12" points="498,261.1 518.9,268.4 496.1,396.2 475.2,388.8 "/>
<ellipse class="st12" cx="604.4" cy="437.1" rx="21.1" ry="81.5"/>
<polygon class="st8" points="596.6,497.1 618.3,490.2 646.5,614.2 624.8,621 "/>
<polygon class="st8" points="604.9,348.5 626.7,355 625,375.7 603.3,369.2 "/>
<polygon class="st8" points="619.9,603.6 641.6,610.2 639.9,630.9 618.2,624.3 "/>
<ellipse class="st8" cx="609.3" cy="437.1" rx="21.1" ry="81.5"/>
<polygon class="st12" points="495.6,254 517.5,261.1 493.6,385.2 471.8,378.1 "/>
<polygon class="st12" points="495.6,254 517.5,261.1 493.6,385.2 471.8,378.1 "/>
<polygon class="st8" points="492.1,248.4 518.3,255.3 492,390.3 465.8,383.4 "/>
<polygon class="st8" points="475.2,365 496.9,369.3 491.8,394.5 470.2,390.2 "/>
<ellipse transform="matrix(0.1472 -0.9891 0.9891 0.1472 273.4853 689.6478)" class="st13" cx="536.7" cy="186.2" rx="61.2" ry="8.1"/>
<polygon class="st12" points="472.4,629.7 493,639.1 464.2,727.4 443.5,718.1 "/>
<polygon class="st8" points="466.6,624.9 486.9,635.4 453.7,727.1 433.4,716.6 "/>
<polygon class="st8" points="461.8,526 482.8,518.6 486.8,565.6 465.8,573 "/>
<path class="st13" d="M543.1,185.7L666.8,54.3c1.1-1.2,2.6-0.6,3.3,1.4l253.5,669.8c0.7,1.9,0.4,4.5-0.7,5.7L799.2,862.6
	c-1.1,1.2-2.6,0.6-3.3-1.4L542.4,191.4C541.7,189.4,542,186.9,543.1,185.7z"/>
<rect x="425.3" y="55.4" class="st13" width="246.1" height="806.2"/>
<polygon class="st13" points="424.8,60.8 569.8,184.4 355.7,832.5 210.7,708.9 "/>
<rect x="347.8" y="512.5" class="st13" width="448.7" height="358.4"/>
</svg>
