<?xml version="1.0" encoding="utf-8"?>
<!-- Generator: Adobe Illustrator 25.4.1, SVG Export Plug-In . SVG Version: 6.00 Build 0)  -->
<svg version="1.1" id="Layer_1" xmlns="http://www.w3.org/2000/svg" xmlns:xlink="http://www.w3.org/1999/xlink" x="0px" y="0px"
	 viewBox="0 0 1366 768" style="enable-background:new 0 0 1366 768;" xml:space="preserve">
<style type="text/css">
	.st0{fill:#9B5E15;}
	.st1{fill:#AC601B;}
	.st2{fill:#B65F10;}
	.st3{fill:#BC600A;}
	.st4{fill:#BD7117;}
	.st5{fill:#AF6610;}
	.st6{fill:#AA5F07;}
	.st7{fill:#AF6917;}
	.st8{fill:#C67D28;}
	.st9{fill:#DE9343;}
	.st10{fill:#E89740;}
	.st11{fill:#D87F1F;}
	.st12{fill:;}
	.st13{fill:#824106;}
	.st14{fill:#7BB4EA;}
</style>
<polyline class="st0" points="699.7,27.2 699.7,261.1 674.8,261.1 674.8,27.2 "/>
<rect x="390.3" y="62.6" class="st1" width="25" height="285.9"/>
<rect x="390.3" y="62.6" class="st1" width="25" height="285.9"/>
<rect x="370.3" y="107.5" class="st1" width="20" height="342.6"/>
<rect x="370.3" y="107.5" class="st2" width="20" height="342.6"/>
<rect x="277.2" y="287.1" class="st1" width="44.9" height="432.3"/>
<rect x="277.2" y="287.1" class="st2" width="44.9" height="432.3"/>
<rect x="350.4" y="171.3" class="st1" width="20" height="382.7"/>
<rect x="350.4" y="171.3" class="st3" width="20" height="382.7"/>
<polyline class="st1" points="174,464.2 252.2,464.2 252.2,757.2 174,757.2 "/>
<polyline class="st3" points="174,464.2 252.2,464.2 252.2,757.2 174,757.2 "/>
<rect x="322.1" y="213.8" class="st1" width="28.3" height="472.5"/>
<rect x="322.1" y="213.8" class="st1" width="28.3" height="472.5"/>
<rect x="245.6" y="395.7" class="st1" width="31.6" height="389.8"/>
<rect x="245.6" y="395.7" class="st1" width="31.6" height="389.8"/>
<rect x="891" y="551.7" class="st0" width="76.5" height="198.4"/>
<rect x="734.7" y="187.8" class="st4" width="53.2" height="439.4"/>
<rect x="761.3" y="348.5" class="st4" width="86.5" height="439.4"/>
<rect x="771.3" y="261.1" class="st5" width="16.6" height="458.3"/>
<rect x="771.3" y="261.1" class="st5" width="16.6" height="458.3"/>
<rect x="787.9" y="310.7" class="st5" width="16.6" height="439.4"/>
<rect x="787.9" y="310.7" class="st6" width="16.6" height="439.4"/>
<rect x="699.7" y="86.3" class="st7" width="39.9" height="387.4"/>
<rect x="836.1" y="426.4" class="st7" width="54.9" height="337.8"/>
<rect x="426.9" y="62.6" class="st8" width="247.9" height="656.8"/>
<path class="st8" d="M597.2,864.3l-142.8-707c-0.5-2.5,0.5-5.1,2.3-5.9l203.2-82.7c1.8-0.7,3.6,0.7,4.1,3.2l142.8,707
	c0.5,2.5-0.5,5.1-2.3,5.8l-203.2,82.7"/>
<polyline class="st8" points="512,872.2 300.5,797.3 427.4,74.4 638.9,149.3 512,872.2 "/>
<polyline class="st9" points="460.2,41.4 460.2,114.6 415.3,114.6 415.3,41.4 "/>
<polyline class="st10" points="674.8,20.1 674.8,114.6 488.5,114.6 488.5,20.1 "/>
<path class="st9" d="M471.8,27.2L528,114H415.6L471.8,27.2"/>
<rect x="415.3" y="114.6" class="st8" width="5" height="30.7"/>
<path class="st11" d="M674.1,26.2l217.7,175.9L798,335.3L674.1,26.2"/>
<path class="st11" d="M195,239.9L412.7,64L288.8,373.1L195,239.9"/>
<path class="st11" d="M104.3,470.7l215.5-181.3L199.7,601.6"/>
<path class="st11" d="M41,633.7l215.5-181.3l-120,312.2"/>
<path class="st11" d="M780.5,293.1L998.2,469l-93.8,133.2L780.5,293.1z"/>
<path class="st11" d="M1058.1,620.3l-93.8,133.2L840.4,444.3L1058.1,620.3"/>
<polyline class="st11" points="699.7,27.2 699.7,48.5 683.1,48.5 683.1,27.2 "/>
<rect x="390.3" y="65" class="st11" width="15" height="16.5"/>
<path class="st9" d="M403.8,62.6"/>
<path class="st11" d="M413.2,62.9c-0.1-0.1-0.2-0.2-0.3-0.2c-0.1,0-0.2,0-0.3,0c-0.1,0-0.2,0.1-0.3,0.2c-0.1,0.1-0.2,0.2-0.2,0.3
	s-0.1,0.3-0.1,0.4c0,0.2,0,0.3,0,0.5c0,0.2,0.1,0.3,0.1,0.4c0.1,0.1,0.1,0.2,0.2,0.3l0.4-1L413.2,62.9z"/>
<ellipse class="st11" cx="410.3" cy="65" rx="1.7" ry="2.4"/>
<line x1="403.6" y1="62.6" x2="403.7" y2="65"/>
<rect x="403.6" y="62.6" class="st11" width="6.7" height="7.1"/>
<rect x="410.3" y="62.6" class="st11" width="1.7" height="2.4"/>
<polygon class="st13" points="545.7,99.2 614.1,111.3 582.5,291.9 514,279.8 "/>
<polygon class="st13" points="546.1,109.4 615.4,114.3 602.9,294.1 533.6,289.3 "/>
<polygon class="st13" points="536.6,272.9 604.6,288.1 567.9,464.3 500,449.1 "/>
<polygon class="st13" points="478.6,448.9 547.9,443.8 558.7,623.8 489.4,628.9 "/>
<polygon class="st13" points="547,606 618.9,616.7 588.7,795.4 516.7,784.6 "/>
<polygon class="st13" points="486.6,556.8 581.4,578 534.3,804.5 439.5,783.2 "/>
<polygon class="st13" points="509.4,309.3 600.9,302.6 620.2,623.7 528.7,630.5 "/>
<polygon class="st13" points="514.2,272.9 582.2,288.4 545.5,467.5 477.5,452 "/>
<ellipse class="st8" cx="615.4" cy="463.1" rx="23.5" ry="81.5"/>
<ellipse class="st8" cx="465.4" cy="581.2" rx="23.5" ry="62.6"/>
<ellipse class="st8" cx="489.9" cy="304.8" rx="23.5" ry="81.5"/>
<ellipse class="st13" cx="501.1" cy="465.4" rx="23.5" ry="81.5"/>
<polygon class="st8" points="606.7,320.1 631.6,323.4 616.8,450.7 591.9,447.5 "/>
<ellipse class="st13" cx="587.4" cy="316.6" rx="20.2" ry="81.5"/>
<polygon class="st8" points="594.1,497.1 618.3,490.2 649.8,614.2 625.6,621 "/>
<polygon class="st8" points="494.8,232.7 519.7,235.5 507,363.1 482.1,360.3 "/>
<polygon class="st8" points="469.2,383.8 492.1,394.5 468.1,451.4 445.2,440.7 "/>
<ellipse transform="matrix(0.1646 -0.9864 0.9864 0.1646 263.0117 682.8812)" class="st13" cx="534.6" cy="186.2" rx="61.3" ry="9"/>
<polygon class="st8" points="469.6,601.4 492.6,610.7 449.9,728 426.9,718.7 "/>
<polygon class="st14" points="560.6,101 591.7,107.2 584,226.3 552.8,220.1 "/>
<polygon class="st14" points="552.8,261.2 579.9,278 546.6,433.9 519.4,417.1 "/>
<polygon class="st14" points="524.8,430.3 546.9,429.6 536.5,546.6 514.4,547.4 "/>
<polygon class="st14" points="500.1,515.8 541,516.2 564.9,661.5 524.1,661.3 "/>
<polygon class="st14" points="511.5,433.6 530.8,440.8 521.2,517.8 502,510.5 "/>
<polygon class="st14" points="554.3,314.6 584.5,335.2 532.4,484.6 502.2,464 "/>
<ellipse class="st14" cx="520.9" cy="500.7" rx="21.2" ry="81.5"/>
<ellipse class="st13" cx="479.3" cy="598.9" rx="20.8" ry="56.7"/>
<ellipse class="st13" cx="479.3" cy="598.9" rx="20.8" ry="56.7"/>
<ellipse class="st13" cx="479.3" cy="598.9" rx="20.8" ry="56.7"/>
<ellipse class="st13" cx="472.7" cy="596.5" rx="20.8" ry="56.7"/>
<ellipse class="st13" cx="472.7" cy="596.5" rx="20.8" ry="56.7"/>
<ellipse class="st8" cx="472.3" cy="596.5" rx="21.1" ry="56.7"/>
<polygon class="st8" points="608.2,320.1 630.5,323.4 617.2,450.7 594.9,447.5 "/>
<ellipse transform="matrix(3.091012e-02 -0.9995 0.9995 3.091012e-02 333.9666 772.1105)" class="st14" cx="565.2" cy="213.8" rx="81.5" ry="18.2"/>
<polygon class="st13" points="589.9,497.1 611.6,490.2 639.8,614.2 618.2,621 "/>
<polygon class="st13" points="498.5,261.1 520,268 496.6,388.5 475.2,381.5 "/>
<polygon class="st13" points="502.5,261.1 527.5,268.4 500.2,396.2 475.2,388.8 "/>
<ellipse class="st13" cx="604.4" cy="437.1" rx="21.1" ry="81.5"/>
<polygon class="st8" points="596.6,497.1 618.3,490.2 646.5,614.2 624.8,621 "/>
<polygon class="st8" points="604.9,348.5 626.7,355 625,375.7 603.3,369.2 "/>
<polygon class="st8" points="619.9,603.6 641.6,610.2 639.9,630.9 618.2,624.3 "/>
<ellipse class="st8" cx="609.3" cy="437.1" rx="21.1" ry="81.5"/>
<polygon class="st13" points="495.6,254 517.5,261.1 493.6,385.2 471.8,378.1 "/>
<polygon class="st13" points="495.6,254 517.5,261.1 493.6,385.2 471.8,378.1 "/>
<polygon class="st8" points="492.1,248.4 518.3,255.3 492,390.3 465.8,383.4 "/>
<polygon class="st8" points="475.2,365 496.9,369.3 491.8,394.5 470.2,390.2 "/>
<ellipse transform="matrix(6.220553e-02 -0.9981 0.9981 6.220553e-02 227.644 861.6774)" class="st14" cx="572.3" cy="309.7" rx="58.2" ry="15.5"/>
<polygon class="st13" points="472.4,629.7 493,639.1 464.2,727.4 443.5,718.1 "/>
<polygon class="st8" points="466.6,624.9 486.9,635.4 453.7,727.1 433.4,716.6 "/>
<polygon class="st8" points="461.8,526 482.8,518.6 486.8,565.6 465.8,573 "/>
<ellipse class="st14" cx="544.1" cy="676.5" rx="21.2" ry="81.5"/>
<polygon class="st14" points="525.5,696.2 563.7,708.1 536.5,818.2 498.3,806.4 "/>
<polygon class="st14" points="552.2,227.9 583,224.1 586.7,291.8 555.9,295.6 "/>
</svg>
