<?xml version="1.0" encoding="utf-8"?>
<!-- Generator: Adobe Illustrator 26.1.0, SVG Export Plug-In . SVG Version: 6.00 Build 0)  -->
<svg version="1.1" id="Layer_1" xmlns="http://www.w3.org/2000/svg" xmlns:xlink="http://www.w3.org/1999/xlink" x="0px" y="0px"
	 viewBox="0 0 612 792" style="enable-background:new 0 0 612 792;" xml:space="preserve">
<style type="text/css">
	.st0{fill:#B67F4D;fill-opacity:0.38;}
	.st1{fill:#9F5E26;fill-opacity:0.85;}
	.st2{fill:#82431D;fill-opacity:0.67;}
	.st3{fill:#BF6C29;}
	.st4{fill:#B67F4D;}
	.st5{fill:#D87F28;}
	.st6{fill:#D47228;}
	.st7{fill:#45BBC2;}
	.st8{fill:#65C2C8;}
	.st9{fill:#9CD9DE;}
</style>
<ellipse transform="matrix(0.2687 -0.9632 0.9632 0.2687 -332.3328 395.7838)" class="st0" cx="94.49" cy="416.76" rx="42.16" ry="51.12"/>
<ellipse class="st0" cx="290.65" cy="380.2" rx="207.83" ry="73.35"/>
<ellipse transform="matrix(0.8763 -0.4817 0.4817 0.8763 -130.3072 292.7642)" class="st0" cx="505.04" cy="400.17" rx="50.66" ry="43.51"/>
<ellipse transform="matrix(0.8952 -0.4457 0.4457 0.8952 -141.2566 283.1517)" class="st0" cx="531.39" cy="441.91" rx="44.46" ry="24.45"/>
<ellipse transform="matrix(0.0118 -0.9999 0.9999 0.0118 -129.9128 744.1336)" class="st0" cx="311.54" cy="437.8" rx="72.24" ry="241.43"/>
<ellipse class="st1" cx="288.48" cy="366.71" rx="193.71" ry="53.2"/>
<ellipse transform="matrix(0.9795 -0.2014 0.2014 0.9795 -71.3013 105.4262)" class="st1" cx="482.39" cy="403.07" rx="67.46" ry="36.71"/>
<ellipse transform="matrix(0.9617 -0.274 0.274 0.9617 -104.9427 150.4936)" class="st1" cx="486.26" cy="450.92" rx="79.62" ry="26.77"/>
<ellipse class="st1" cx="340.43" cy="435.69" rx="181.1" ry="68.61"/>
<ellipse transform="matrix(0.1444 -0.9895 0.9895 0.1444 -219.7178 619.9756)" class="st1" cx="248.65" cy="437.04" rx="60.92" ry="198.92"/>
<path class="st2" d="M70.16,387.23l2.85-1.18v14.05l-2.85,1.32V387.23z"/>
<path class="st2" d="M63.06,391.96l2.85-1.97v13.8l-2.85,3.94V391.96z"/>
<ellipse transform="matrix(0.527 -0.8499 0.8499 0.527 -96.9958 651.7375)" class="st3" cx="537" cy="413.01" rx="5.87" ry="2.71"/>
<path class="st2" d="M313.14,314.16l2.85,0.06l1.19,11.84l-4.61-0.73L313.14,314.16z"/>
<polygon class="st2" points="307.63,314.01 310.58,314.13 310.14,325.61 307.19,325.49 "/>
<path class="st2" d="M220.62,316.94l2.85-0.24l0.95,12.08l-3.8,0V316.94z"/>
<path class="st2" d="M249.82,314.75l2.57-0.13l1.77,11.12l-4.34,0.79V314.75z"/>
<polygon class="st2" points="264.93,314.43 267.78,314.3 268.25,325.6 265.4,325.73 "/>
<path class="st2" d="M228.67,316.04l2.85-0.05l1.5,12.11h-4.16L228.67,316.04z"/>
<polygon class="st2" points="243.05,314.98 245.9,314.78 246.66,326.74 243.81,326.94 "/>
<rect x="281.16" y="313.54" transform="matrix(0.9999 -0.0167 0.0167 0.9999 -5.285 4.7547)" class="st2" width="2.86" height="11.76"/>
<path class="st2" d="M203.44,319.43l2.69-0.79l0.77,12.22l-2.69,0.79L203.44,319.43z"/>
<path class="st2" d="M537.77,374.61l3.07,2.53l-5,14.03l-4.23-4.73L537.77,374.61z"/>
<path class="st2" d="M522.78,368.22l3.84,0.87l-2.3,12.61l-2.86-1.1L522.78,368.22z"/>
<path class="st2" d="M546.61,384.86l1.48,4.85l-6.86,12.89l-1.15-2.62L546.61,384.86z"/>
<path class="st2" d="M536.23,417.35l3.46,0.22l-1.92,10.25h-1.54V417.35z"/>
<path class="st2" d="M545.45,418.37l3.07,1.04l-2.69,10.47l-1.92-0.87L545.45,418.37z"/>
<path class="st2" d="M559.67,424.28l2.3,3.15l-4.99,11.83l-0.8-1.58L559.67,424.28z"/>
<path class="st2" d="M552.75,420.34l2.69,1.18l-2.16,13.01l-2.66-1.97L552.75,420.34z"/>
<rect x="294.23" y="313.54" transform="matrix(0.9999 -0.0169 0.0169 0.9999 -5.367 5.0528)" class="st2" width="2.86" height="11.76"/>
<path class="st2" d="M54.61,401.02l2.85-3.94v13.01l-2.85,1.58L54.61,401.02z"/>
<path class="st2" d="M87.24,380.83l3.62-1.49v11.46l-2.71,1.55L87.24,380.83z"/>
<path class="st2" d="M78.16,383.91l2.69-1.41l1.07,12.9l-2.61,2.07L78.16,383.91z"/>
<path class="st2" d="M366.76,318.25l3.07,0.4l2.31,13.01l-5.77-1.18L366.76,318.25z"/>
<path class="st2" d="M345.63,315.92l3.46,0.35l0.77,12.06l-4.23-0.63V315.92z"/>
<path class="st2" d="M323.34,314.59l4.23,0.11l0.38,11.83l-3.84-0.39L323.34,314.59z"/>
<path class="st2" d="M274.65,313.95l-2.81,0.01l-0.77,11.18l4.23,0L274.65,313.95z"/>
<ellipse class="st3" cx="295" cy="393.31" rx="175.22" ry="42.74"/>
<ellipse transform="matrix(0.9862 -0.1653 0.1653 0.9862 -63.3718 83.5706)" class="st3" cx="470.4" cy="422.52" rx="60.78" ry="29.61"/>
<ellipse transform="matrix(0.971 -0.2392 0.2392 0.971 -96.4922 126.7192)" class="st3" cx="473.91" cy="460.96" rx="71.46" ry="21.68"/>
<ellipse class="st3" cx="341.99" cy="448.73" rx="163.81" ry="55.12"/>
<ellipse transform="matrix(0.1258 -0.9921 0.9921 0.1258 -219.8497 650.1293)" class="st3" cx="258.97" cy="449.81" rx="49.05" ry="179.54"/>
<ellipse transform="matrix(0.3834 -0.9236 0.9236 0.3834 -329.3134 376.5194)" class="st3" cx="117.34" cy="434.9" rx="32.77" ry="61.07"/>
<ellipse class="st3" cx="113.52" cy="419.16" rx="46.11" ry="32.32"/>
<ellipse transform="matrix(0.1758 -0.9844 0.9844 0.1758 -272.9033 564.9803)" class="st3" cx="200.96" cy="445.47" rx="47.27" ry="127.66"/>
<rect x="98.92" y="375.8" class="st3" width="42.27" height="21.29"/>
<ellipse transform="matrix(0.9889 -0.1486 0.1486 0.9889 -51.716 33.7778)" class="st3" cx="200.11" cy="362.87" rx="101.85" ry="30.65"/>
<ellipse class="st3" cx="288.75" cy="348.2" rx="122.2" ry="22.86"/>
<ellipse transform="matrix(0.2185 -0.9758 0.9758 0.2185 -33.0529 673.9465)" class="st3" cx="404.24" cy="357.61" rx="19.29" ry="79.58"/>
<ellipse transform="matrix(0.4316 -0.9021 0.9021 0.4316 -61.8618 630.3646)" class="st3" cx="469.29" cy="364.27" rx="5.1" ry="13.76"/>
<rect x="454.76" y="366.33" class="st3" width="27.67" height="37.05"/>
<ellipse transform="matrix(0.1222 -0.9925 0.9925 0.1222 51.7708 838.2725)" class="st3" cx="499.8" cy="389.87" rx="12.61" ry="32.29"/>
<ellipse transform="matrix(0.3706 -0.9288 0.9288 0.3706 -39.8633 726.59)" class="st3" cx="516.15" cy="392.71" rx="13.36" ry="18.89"/>
<ellipse transform="matrix(0.8835 -0.4685 0.4685 0.8835 -125.5976 294.1864)" class="st3" cx="528.57" cy="399.57" rx="10.82" ry="16.47"/>
<rect x="517.78" y="412.85" class="st3" width="18.45" height="27.59"/>
<ellipse transform="matrix(0.376 -0.9266 0.9266 0.376 -66.9009 775.7057)" class="st3" cx="542.48" cy="437.52" rx="8.25" ry="15.79"/>
<ellipse transform="matrix(0.9009 -0.434 0.434 0.9009 -143.88 277.2375)" class="st3" cx="535.17" cy="453.69" rx="22.78" ry="7.21"/>
<path class="st2" d="M117.74,341.5l2.69-1.18l2.17,13.77l-2.94,1.21L117.74,341.5z"/>
<polygon class="st2" points="95.84,378.33 98.69,378.16 99.27,388.31 96.42,388.48 "/>
<path class="st2" d="M377.91,319.9l3.46,0.72l0.77,13.01l-3.92-1.09L377.91,319.9z"/>
<path class="st2" d="M390.97,321.4l3.62,0.79v13.8l-3.62-0.79V321.4z"/>
<path class="st2" d="M433.58,331.73l2.55,1.18l0.99,13.8l-3.54-1.09V331.73z"/>
<path class="st2" d="M452.84,338.74l1.54,0.79v13.4l-3.12-1.18L452.84,338.74z"/>
<path class="st2" d="M475.08,352.54l2.35,2.76l0.77,8.67l-3.12-2.37V352.54z"/>
<path class="st2" d="M464.32,344.65l3.12,1.97l0.77,11.43l-3.89-1.18V344.65z"/>
<path class="st2" d="M444.77,335.28l1.92,1.1l-0.38,13.4l-3.07-1.18L444.77,335.28z"/>
<path class="st2" d="M419.72,327.71l2.55,0.79l0.6,13.8l-3.15-1.09V327.71z"/>
<path class="st2" d="M403.27,324.16l4.23,0.79v13.8l-4.23-0.76V324.16z"/>
<path class="st2" d="M482.43,365.94l3.33-0.4v11.43l-2.95,0.39L482.43,365.94z"/>
<path class="st2" d="M489.89,365.15l3.33-0.4v11.83h-2.95L489.89,365.15z"/>
<path class="st2" d="M498.95,364.76l2.31,0l1.92,12.61l-4.23-0.79V364.76z"/>
<path class="st2" d="M510.36,365.55l3.97,0.79l-0.77,12.22h-3.2V365.55z"/>
<path class="st2" d="M185.71,321.71l2.85-0.24l1.05,11.76l-2.9,0.86L185.71,321.71z"/>
<path class="st2" d="M140.37,332.75l2.74-1.1l1.11,13.23l-2.64,0.96L140.37,332.75z"/>
<path class="st2" d="M149.64,330.07l2.69-1.18l1.16,12.77l-2.7,1.03L149.64,330.07z"/>
<path class="st2" d="M160.78,326.92l2.99-0.75l1.37,12.34l-2.82,0.63L160.78,326.92z"/>
<path class="st2" d="M177.42,323.23l2.96-0.65l0.77,12.22l-3.06,0.83L177.42,323.23z"/>
<path class="st2" d="M124.96,338.28l2.78-1.11l1.61,13.05l-2.76,1.53L124.96,338.28z"/>
<path class="st2" d="M100.84,353.72l1.92-1.97l2.31,13.8l-2.31,2.37L100.84,353.72z"/>
<path class="st2" d="M96.22,359.63l1.54-1.97l2.42,15.75l-1.27,2.77L96.22,359.63z"/>
<path class="st2" d="M109.67,346.29l2.69-1.64l2.01,13.45l-3.17,2.32L109.67,346.29z"/>
<ellipse class="st3" cx="62.41" cy="417.19" rx="9.61" ry="6.7"/>
<ellipse transform="matrix(0.7066 -0.7076 0.7076 0.7066 -282.1436 175.0014)" class="st3" cx="69.98" cy="427.76" rx="10.25" ry="21.82"/>
<ellipse transform="matrix(0.4803 -0.8771 0.8771 0.4803 -256.6506 382.3069)" class="st4" cx="194.29" cy="407.73" rx="22.2" ry="25"/>
<ellipse class="st4" cx="288.94" cy="388.22" rx="100.29" ry="39.14"/>
<ellipse transform="matrix(0.6517 -0.7585 0.7585 0.6517 -165.8693 436.5328)" class="st4" cx="392.4" cy="398.88" rx="25.43" ry="22.32"/>
<ellipse transform="matrix(0.8555 -0.5178 0.5178 0.8555 -159.5393 270.6501)" class="st4" cx="405.11" cy="421.15" rx="21.96" ry="12.75"/>
<ellipse transform="matrix(0.0134 -0.9999 0.9999 0.0134 -123.896 712.3469)" class="st4" cx="299.03" cy="418.96" rx="38.55" ry="116.5"/>
<ellipse class="st5" cx="285.83" cy="384.14" rx="93.47" ry="28.39"/>
<ellipse transform="matrix(0.97 -0.243 0.243 0.97 -86.7024 104.313)" class="st5" cx="379.4" cy="403.54" rx="32.71" ry="19.49"/>
<ellipse transform="matrix(0.9513 -0.3083 0.3083 0.9513 -113.7113 138.4478)" class="st5" cx="381.27" cy="429.07" rx="38.75" ry="14.17"/>
<ellipse class="st5" cx="310.9" cy="420.94" rx="87.39" ry="36.61"/>
<ellipse transform="matrix(0.163 -0.9866 0.9866 0.163 -192.8619 615.9977)" class="st5" cx="266.61" cy="421.66" rx="32.43" ry="96.21"/>
<path class="st6" d="M180.48,395.08l1.38-0.63v7.5l-1.38,0.71V395.08z"/>
<path class="st6" d="M177.06,397.61l1.38-1.05v7.36l-1.38,2.1V397.61z"/>
<ellipse transform="matrix(0.4702 -0.8826 0.8826 0.4702 -145.8507 574.7269)" class="st7" cx="405.75" cy="408.84" rx="3.05" ry="1.34"/>
<path class="st6" d="M297.73,356.09l1.38,0.03l0.57,6.32l-2.23-0.39L297.73,356.09z"/>
<polygon class="st6" points="295.07,356.02 296.5,356.08 296.28,362.21 294.86,362.14 "/>
<path class="st6" d="M253.08,357.58l1.37-0.13l0.46,6.45h-1.83V357.58z"/>
<path class="st6" d="M267.18,356.41l1.24-0.07l0.85,5.94l-2.1,0.42V356.41z"/>
<polygon class="st6" points="274.47,356.24 275.84,356.17 276.07,362.2 274.69,362.27 "/>
<path class="st6" d="M256.97,357.1l1.38-0.03l0.72,6.46h-2L256.97,357.1z"/>
<polygon class="st6" points="263.91,356.53 265.28,356.43 265.65,362.81 264.28,362.91 "/>
<polygon class="st6" points="282.25,355.77 283.63,355.75 283.72,362.03 282.34,362.05 "/>
<path class="st6" d="M244.8,358.91l1.3-0.42l0.37,6.52l-1.3,0.42L244.8,358.91z"/>
<path class="st6" d="M406.12,388.35l1.48,1.35l-2.41,7.48l-2.04-2.52L406.12,388.35z"/>
<path class="st6" d="M398.89,384.94l1.85,0.46l-1.11,6.73l-1.38-0.59L398.89,384.94z"/>
<path class="st6" d="M410.39,393.82l0.72,2.59l-3.31,6.88l-0.56-1.4L410.39,393.82z"/>
<path class="st6" d="M405.38,411.16l1.67,0.12l-0.93,5.47h-0.74V411.16z"/>
<path class="st6" d="M409.83,411.7l1.48,0.56l-1.3,5.59l-0.93-0.47L409.83,411.7z"/>
<path class="st6" d="M416.69,414.86l1.11,1.68l-2.41,6.31l-0.39-0.84L416.69,414.86z"/>
<path class="st6" d="M413.35,412.75l1.3,0.63l-1.04,6.94l-1.28-1.05L413.35,412.75z"/>
<polygon class="st6" points="288.56,355.78 289.94,355.75 290.03,362.02 288.65,362.05 "/>
<path class="st6" d="M172.98,402.44l1.38-2.1v6.94l-1.38,0.84V402.44z"/>
<path class="st6" d="M188.72,391.67l1.75-0.79v6.11l-1.31,0.83L188.72,391.67z"/>
<path class="st6" d="M184.34,393.31l1.3-0.76l0.52,6.89l-1.26,1.11L184.34,393.31z"/>
<path class="st6" d="M323.6,358.27l1.48,0.21l1.11,6.94l-2.78-0.63L323.6,358.27z"/>
<path class="st6" d="M313.4,357.03l1.67,0.19l0.37,6.44l-2.04-0.34V357.03z"/>
<path class="st6" d="M302.65,356.32l2.04,0.06l0.18,6.31l-1.85-0.21L302.65,356.32z"/>
<path class="st6" d="M279.16,355.98l-1.35,0.01l-0.37,5.97h2.04L279.16,355.98z"/>
<ellipse class="st7" cx="288.98" cy="398.33" rx="84.55" ry="22.81"/>
<ellipse transform="matrix(0.9808 -0.1952 0.1952 0.9808 -73.6092 80.892)" class="st7" cx="373.62" cy="413.92" rx="29.42" ry="15.75"/>
<ellipse transform="matrix(0.9633 -0.2684 0.2684 0.9633 -102.8189 116.6565)" class="st7" cx="375.31" cy="434.43" rx="34.7" ry="11.49"/>
<ellipse class="st7" cx="311.65" cy="427.9" rx="79.04" ry="29.41"/>
<ellipse transform="matrix(0.1414 -0.99 0.99 0.1414 -190.9823 636.7653)" class="st7" cx="271.59" cy="428.48" rx="26.13" ry="86.79"/>
<ellipse transform="matrix(0.4488 -0.8936 0.8936 0.4488 -263.7603 413.4167)" class="st7" cx="203.25" cy="420.52" rx="17.19" ry="29.98"/>
<ellipse class="st7" cx="201.4" cy="412.12" rx="22.25" ry="17.25"/>
<ellipse transform="matrix(0.2005 -0.9797 0.9797 0.2005 -222.7525 579.358)" class="st7" cx="243.6" cy="426.16" rx="25.13" ry="61.82"/>
<rect x="194.36" y="388.98" class="st7" width="20.4" height="11.36"/>
<ellipse transform="matrix(0.9859 -0.1676 0.1676 0.9859 -60.5879 46.1548)" class="st7" cx="243.19" cy="382.08" rx="49.27" ry="16.31"/>
<ellipse class="st7" cx="285.96" cy="374.26" rx="58.97" ry="12.2"/>
<ellipse transform="matrix(0.2435 -0.9699 0.9699 0.2435 -109.3731 618.3278)" class="st7" cx="341.69" cy="379.28" rx="10.24" ry="38.61"/>
<ellipse transform="matrix(0.4803 -0.8771 0.8771 0.4803 -141.9036 526.1603)" class="st7" cx="373.08" cy="382.83" rx="2.67" ry="6.78"/>
<rect x="366.07" y="383.93" class="st7" width="13.35" height="19.77"/>
<ellipse transform="matrix(0.1404 -0.9901 0.9901 0.1404 -59.2192 724.7725)" class="st7" cx="387.8" cy="396.49" rx="6.72" ry="15.61"/>
<ellipse transform="matrix(0.4864 -0.8738 0.8738 0.4864 -144.5196 550.1658)" class="st7" cx="395.69" cy="398.01" rx="7" ry="9.28"/>
<ellipse transform="matrix(0.9227 -0.3854 0.3854 0.9227 -123.7778 185.8519)" class="st7" cx="401.69" cy="401.67" rx="5.32" ry="8.63"/>
<rect x="396.48" y="408.75" class="st7" width="8.9" height="14.72"/>
<ellipse transform="matrix(0.4383 -0.8988 0.8988 0.4383 -149.8472 604.0468)" class="st7" cx="408.39" cy="421.92" rx="4.33" ry="7.75"/>
<ellipse transform="matrix(0.8778 -0.479 0.479 0.8778 -156.7685 246.5479)" class="st7" cx="404.87" cy="430.55" rx="11.22" ry="3.77"/>
<path class="st6" d="M203.44,370.68l1.3-0.63l1.05,7.35l-1.42,0.65L203.44,370.68z"/>
<polygon class="st6" points="192.87,390.33 194.25,390.24 194.53,395.66 193.15,395.75 "/>
<path class="st6" d="M328.98,359.15l1.67,0.38l0.37,6.94l-1.89-0.58L328.98,359.15z"/>
<path class="st6" d="M335.29,359.96l1.75,0.42v7.36l-1.75-0.42V359.96z"/>
<path class="st6" d="M355.85,365.47l1.23,0.63l0.48,7.36l-1.71-0.58V365.47z"/>
<path class="st6" d="M365.14,369.21l0.74,0.42v7.15l-1.5-0.63L365.14,369.21z"/>
<path class="st6" d="M375.87,376.57l1.14,1.47l0.37,4.63l-1.5-1.26V376.57z"/>
<path class="st6" d="M370.68,372.37l1.51,1.05l0.37,6.1l-1.88-0.63V372.37z"/>
<path class="st6" d="M361.25,367.36l0.93,0.59l-0.19,7.15l-1.48-0.63L361.25,367.36z"/>
<path class="st6" d="M349.16,363.32l1.23,0.42l0.29,7.36l-1.52-0.58V363.32z"/>
<path class="st6" d="M341.22,361.43l2.04,0.42v7.36l-2.04-0.41V361.43z"/>
<path class="st6" d="M379.42,383.72l1.61-0.21v6.1l-1.42,0.21L379.42,383.72z"/>
<path class="st6" d="M383.02,383.3l1.61-0.21v6.31h-1.42L383.02,383.3z"/>
<path class="st6" d="M387.39,383.09l1.11,0l0.93,6.73l-2.04-0.42V383.09z"/>
<path class="st6" d="M392.9,383.51l1.91,0.42l-0.37,6.52h-1.54V383.51z"/>
<path class="st6" d="M236.24,360.12l1.37-0.13l0.51,6.27l-1.4,0.46L236.24,360.12z"/>
<path class="st6" d="M214.36,366.01l1.32-0.59l0.53,7.06l-1.28,0.51L214.36,366.01z"/>
<path class="st6" d="M218.84,364.58l1.3-0.63l0.56,6.81l-1.3,0.55L218.84,364.58z"/>
<path class="st6" d="M224.21,362.9l1.44-0.4l0.66,6.58l-1.36,0.33L224.21,362.9z"/>
<path class="st6" d="M232.24,360.94l1.43-0.35l0.37,6.52l-1.48,0.44L232.24,360.94z"/>
<path class="st6" d="M206.93,368.96l1.34-0.59l0.78,6.96l-1.33,0.82L206.93,368.96z"/>
<path class="st6" d="M195.29,377.2l0.93-1.05l1.11,7.36l-1.11,1.26L195.29,377.2z"/>
<path class="st6" d="M193.06,380.36l0.74-1.05l1.17,8.41l-0.61,1.48L193.06,380.36z"/>
<path class="st6" d="M199.55,373.24l1.3-0.87l0.97,7.18l-1.53,1.24L199.55,373.24z"/>
<ellipse class="st7" cx="176.74" cy="411.07" rx="4.64" ry="3.58"/>
<ellipse transform="matrix(0.7598 -0.6501 0.6501 0.7598 -227.5899 217.3648)" class="st7" cx="180.39" cy="416.71" rx="5.18" ry="11.12"/>
<ellipse class="st8" cx="331.58" cy="403.5" rx="35.97" ry="12.41"/>
<ellipse class="st8" cx="276.32" cy="388.35" rx="51.18" ry="13.67"/>
<ellipse class="st8" cx="212.9" cy="402.87" rx="3.71" ry="2.52"/>
<ellipse class="st8" cx="221.8" cy="405.18" rx="2.23" ry="1.47"/>
<ellipse class="st8" cx="284.48" cy="406.86" rx="2.23" ry="1.47"/>
<ellipse class="st8" cx="291.53" cy="411.91" rx="2.23" ry="1.47"/>
<ellipse class="st8" cx="284.48" cy="447.25" rx="2.23" ry="1.47"/>
<ellipse class="st8" cx="273.72" cy="450.61" rx="2.23" ry="1.47"/>
<ellipse class="st8" cx="251.1" cy="426" rx="43.76" ry="17.25"/>
<ellipse class="st8" cx="339.74" cy="428.74" rx="35.97" ry="17.04"/>
<ellipse class="st9" cx="355.5" cy="428.53" rx="2.04" ry="1.68"/>
<ellipse class="st9" cx="355.5" cy="428.53" rx="2.04" ry="1.68"/>
<ellipse class="st9" cx="355.5" cy="428.53" rx="2.04" ry="1.68"/>
<ellipse class="st9" cx="304.5" cy="383.09" rx="2.23" ry="1.26"/>
<ellipse class="st9" cx="304.5" cy="383.09" rx="2.23" ry="1.26"/>
<ellipse class="st9" cx="304.5" cy="383.09" rx="2.23" ry="1.26"/>
<ellipse class="st9" cx="349.75" cy="433.37" rx="2.6" ry="1.89"/>
<ellipse class="st9" cx="349.75" cy="433.37" rx="2.6" ry="1.89"/>
<ellipse class="st9" cx="349.75" cy="433.37" rx="2.6" ry="1.89"/>
<ellipse class="st9" cx="322.12" cy="402.03" rx="2.78" ry="1.68"/>
<ellipse class="st9" cx="322.12" cy="402.03" rx="2.78" ry="1.68"/>
<ellipse class="st9" cx="322.12" cy="402.03" rx="2.78" ry="1.68"/>
</svg>
