<?xml version="1.0" encoding="utf-8"?>
<!-- Generator: Adobe Illustrator 25.4.1, SVG Export Plug-In . SVG Version: 6.00 Build 0)  -->
<svg version="1.1" id="Layer_1" xmlns="http://www.w3.org/2000/svg" xmlns:xlink="http://www.w3.org/1999/xlink" x="0px" y="0px"
	 viewBox="0 0 1366 768" style="enable-background:new 0 0 1366 768;" xml:space="preserve">
<style type="text/css">
	.st0{fill:#824106;}
	.st1{fill:#D87F1F;}
	.st2{fill:#7CAE18;}
	.st3{fill:#91B549;}
</style>
<polygon class="st0" points="799.52,367.78 802.84,367.57 804.36,402.47 801.04,402.68 "/>
<polygon class="st0" points="804.56,360.7 807.29,362.4 802.86,367.68 800.13,365.98 "/>
<polygon class="st0" points="808.84,357.72 810.85,359.52 805.85,363.7 803.84,361.91 "/>
<polygon class="st0" points="814.45,354.79 815.98,356.73 810.24,360.08 808.71,358.14 "/>
<polygon class="st0" points="819.67,353 820.7,354.97 814.4,357.38 813.37,355.41 "/>
<polygon class="st0" points="825.61,351.82 826.24,353.92 819.56,355.31 818.93,353.21 "/>
<polygon class="st1" points="802.25,362.66 804.87,360.32 805.25,360.65 802.62,362.99 "/>
<polygon class="st1" points="808.93,357.4 814.73,354.42 814.99,354.83 809.2,357.81 "/>
<polygon class="st1" points="806.1,359.42 809.02,357.38 809.34,357.75 806.42,359.79 "/>
<polygon class="st0" points="797.48,359.52 795.85,361.22 798.5,366.5 800.13,364.8 "/>
<polygon class="st0" points="794.92,356.54 793.72,358.34 796.71,362.52 797.91,360.73 "/>
<polygon class="st0" points="791.56,353.61 790.65,355.55 794.08,358.9 794.99,356.96 "/>
<polygon class="st0" points="788.44,351.82 787.82,353.79 791.59,356.2 792.21,354.23 "/>
<polygon class="st0" points="784.88,350.64 784.51,352.74 788.5,354.13 788.88,352.03 "/>
<polygon class="st1" points="798.86,361.48 797.29,359.14 797.07,359.47 798.64,361.81 "/>
<polygon class="st1" points="794.86,356.22 791.4,353.24 791.24,353.65 794.7,356.63 "/>
<polygon class="st1" points="796.56,358.24 794.81,356.2 794.62,356.57 796.37,358.61 "/>
<polygon class="st0" points="797.19,350.68 798.25,350.79 795.91,360.08 794.85,359.97 "/>
<polygon class="st0" points="812.64,352.18 813.69,352.29 812.05,358.8 811,358.69 "/>
<polygon class="st0" points="808.24,352.9 808.84,352.78 810.65,359.15 810.05,359.27 "/>
<polygon class="st0" points="800.82,353.97 801.39,354.17 797.39,359.94 796.82,359.74 "/>
<polygon class="st0" points="788.16,354.58 788.64,354.27 797.57,363.23 797.09,363.54 "/>
<rect x="800.11" y="402.2" class="st1" width="5.32" height="1.8"/>
<path class="st0" d="M801.24,371.28l-3.67-6.59l6.74-0.42L801.24,371.28z"/>
<ellipse class="st2" cx="786.76" cy="340.13" rx="9.14" ry="3.66"/>
<ellipse class="st2" cx="773.39" cy="347.69" rx="6.89" ry="3.66"/>
<ellipse class="st2" cx="774.97" cy="342.97" rx="6.89" ry="3.66"/>
<ellipse class="st2" cx="792.19" cy="352.65" rx="8.74" ry="3.66"/>
<ellipse class="st2" cx="779.48" cy="352.41" rx="6.89" ry="3.66"/>
<ellipse class="st2" cx="803.97" cy="351.7" rx="8.08" ry="3.66"/>
<ellipse class="st2" cx="815.89" cy="351.7" rx="8.08" ry="3.66"/>
<ellipse class="st2" cx="828.86" cy="351.47" rx="8.34" ry="3.66"/>
<ellipse class="st2" cx="834.42" cy="346.74" rx="8.08" ry="3.66"/>
<ellipse class="st2" cx="828.07" cy="342.02" rx="8.08" ry="3.66"/>
<ellipse class="st2" cx="818.27" cy="339.66" rx="8.08" ry="3.66"/>
<ellipse class="st2" cx="798.67" cy="339.9" rx="8.08" ry="3.66"/>
<ellipse class="st2" cx="809.8" cy="342.02" rx="8.08" ry="3.66"/>
<ellipse class="st2" cx="777.62" cy="352.17" rx="6.89" ry="3.66"/>
<ellipse class="st3" cx="793.11" cy="346.15" rx="13.37" ry="4.72"/>
<ellipse class="st3" cx="776.83" cy="343.08" rx="7.68" ry="3.07"/>
<ellipse class="st3" cx="798.81" cy="340.01" rx="7.68" ry="3.07"/>
<ellipse class="st3" cx="828.47" cy="351.35" rx="7.68" ry="3.07"/>
<ellipse class="st3" cx="786.63" cy="340.25" rx="7.68" ry="3.07"/>
<ellipse class="st3" cx="803.57" cy="351.35" rx="7.68" ry="3.07"/>
<ellipse class="st3" cx="833.5" cy="346.86" rx="7.68" ry="3.07"/>
<ellipse class="st3" cx="791.92" cy="352.29" rx="7.68" ry="3.07"/>
<ellipse class="st3" cx="809.4" cy="342.38" rx="7.68" ry="3.07"/>
<ellipse class="st3" cx="815.75" cy="351.35" rx="7.68" ry="3.07"/>
<ellipse class="st3" cx="818.14" cy="340.01" rx="7.68" ry="3.07"/>
<ellipse class="st3" cx="775.77" cy="347.81" rx="7.68" ry="3.07"/>
<ellipse class="st3" cx="780.27" cy="352.06" rx="7.68" ry="3.07"/>
<ellipse class="st3" cx="827.67" cy="342.38" rx="7.68" ry="3.07"/>
<ellipse class="st3" cx="816.15" cy="346.63" rx="12.05" ry="4.01"/>
<polygon class="st0" points="562.73,392.06 566.57,391.82 568.34,430.32 564.49,430.55 "/>
<polygon class="st0" points="568.57,384.24 571.73,386.12 566.6,391.94 563.44,390.06 "/>
<polygon class="st0" points="573.52,380.96 575.85,382.94 570.06,387.55 567.73,385.57 "/>
<polygon class="st0" points="580.02,377.73 581.79,379.87 575.14,383.56 573.38,381.42 "/>
<polygon class="st0" points="586.07,375.75 587.26,377.92 579.96,380.58 578.77,378.41 "/>
<polygon class="st0" points="592.94,374.45 593.67,376.76 585.94,378.3 585.21,375.99 "/>
<polygon class="st1" points="565.89,386.4 568.93,383.82 569.36,384.19 566.33,386.77 "/>
<polygon class="st1" points="573.63,380.6 580.34,377.31 580.65,377.76 573.94,381.05 "/>
<polygon class="st1" points="570.35,382.83 573.73,380.58 574.11,380.99 570.73,383.24 "/>
<polygon class="st0" points="560.37,382.94 558.48,384.82 561.55,390.64 563.44,388.76 "/>
<polygon class="st0" points="557.41,379.66 556.01,381.64 559.48,386.25 560.87,384.27 "/>
<polygon class="st0" points="553.52,376.42 552.46,378.56 556.44,382.26 557.49,380.12 "/>
<polygon class="st0" points="549.9,374.45 549.19,376.62 553.55,379.27 554.27,377.1 "/>
<polygon class="st0" points="545.79,373.15 545.35,375.46 549.98,377 550.41,374.68 "/>
<polygon class="st1" points="561.97,385.1 560.16,382.52 559.9,382.89 561.71,385.47 "/>
<polygon class="st1" points="557.34,379.3 553.33,376.01 553.14,376.46 557.16,379.75 "/>
<polygon class="st1" points="559.31,381.52 557.28,379.28 557.06,379.69 559.08,381.94 "/>
<polygon class="st0" points="560.03,373.19 561.26,373.31 558.55,383.56 557.33,383.43 "/>
<polygon class="st0" points="577.92,374.84 579.14,374.97 577.25,382.15 576.02,382.02 "/>
<polygon class="st0" points="572.83,375.64 573.53,375.5 575.62,382.53 574.92,382.66 "/>
<polygon class="st0" points="564.24,376.82 564.89,377.04 560.26,383.4 559.61,383.18 "/>
<polygon class="st0" points="549.58,377.49 550.13,377.15 560.47,387.04 559.92,387.37 "/>
<rect x="563.42" y="430.02" class="st1" width="6.16" height="1.98"/>
<path class="st0" d="M564.73,395.92l-4.25-7.26l7.81-0.47L564.73,395.92z"/>
<ellipse class="st2" cx="547.96" cy="361.56" rx="10.58" ry="4.04"/>
<ellipse class="st2" cx="532.47" cy="369.89" rx="7.97" ry="4.04"/>
<ellipse class="st2" cx="534.31" cy="364.68" rx="7.97" ry="4.04"/>
<ellipse class="st2" cx="554.24" cy="375.36" rx="10.12" ry="4.04"/>
<ellipse class="st2" cx="539.52" cy="375.1" rx="7.97" ry="4.04"/>
<ellipse class="st2" cx="567.89" cy="374.32" rx="9.35" ry="4.04"/>
<ellipse class="st2" cx="581.68" cy="374.32" rx="9.35" ry="4.04"/>
<ellipse class="st2" cx="596.71" cy="374.06" rx="9.66" ry="4.04"/>
<ellipse class="st2" cx="603.15" cy="368.85" rx="9.35" ry="4.04"/>
<ellipse class="st2" cx="595.79" cy="363.64" rx="9.35" ry="4.04"/>
<ellipse class="st2" cx="584.44" cy="361.04" rx="9.35" ry="4.04"/>
<ellipse class="st2" cx="561.75" cy="361.3" rx="9.35" ry="4.04"/>
<ellipse class="st2" cx="574.63" cy="363.64" rx="9.35" ry="4.04"/>
<ellipse class="st2" cx="537.38" cy="374.84" rx="7.97" ry="4.04"/>
<ellipse class="st3" cx="555.32" cy="368.2" rx="15.48" ry="5.21"/>
<ellipse class="st3" cx="536.46" cy="364.81" rx="8.89" ry="3.39"/>
<ellipse class="st3" cx="561.91" cy="361.43" rx="8.89" ry="3.39"/>
<ellipse class="st3" cx="596.25" cy="373.93" rx="8.89" ry="3.39"/>
<ellipse class="st3" cx="547.8" cy="361.69" rx="8.89" ry="3.39"/>
<ellipse class="st3" cx="567.43" cy="373.93" rx="8.89" ry="3.39"/>
<ellipse class="st3" cx="602.08" cy="368.98" rx="8.89" ry="3.39"/>
<ellipse class="st3" cx="553.94" cy="374.97" rx="8.89" ry="3.39"/>
<ellipse class="st3" cx="574.17" cy="364.03" rx="8.89" ry="3.39"/>
<ellipse class="st3" cx="581.53" cy="373.93" rx="8.89" ry="3.39"/>
<ellipse class="st3" cx="584.29" cy="361.43" rx="8.89" ry="3.39"/>
<ellipse class="st3" cx="535.23" cy="370.02" rx="8.89" ry="3.39"/>
<ellipse class="st3" cx="540.44" cy="374.71" rx="8.89" ry="3.39"/>
<ellipse class="st3" cx="595.33" cy="364.03" rx="8.89" ry="3.39"/>
<ellipse class="st3" cx="581.99" cy="368.72" rx="13.95" ry="4.43"/>
</svg>
