<?xml version="1.0" encoding="utf-8"?>
<!-- Generator: Adobe Illustrator 26.1.0, SVG Export Plug-In . SVG Version: 6.00 Build 0)  -->
<svg version="1.1" id="Layer_1" xmlns="http://www.w3.org/2000/svg" xmlns:xlink="http://www.w3.org/1999/xlink" x="0px" y="0px"
	 viewBox="0 0 612 792" style="enable-background:new 0 0 612 792;" xml:space="preserve">
<style type="text/css">
	.st0{fill:#DBB796;}
</style>
<path class="st0" d="M189.47,397.92l-31.22,3.55l-16.57,17.79l6.38-1.18l12.24-11.36l30.16-3.35l61.42,5.46l50.06,27.82l97.73,60.67
	l-3.12-5.13l-91.14-60.68l-52.19-27.43L189.47,397.92z"/>
<path class="st0" d="M201.9,487.27l-30.99,3.7l-20.02-11.14l6.43-0.38l14.39,6.76l29.91-3.64l58.15-17.54l42.14-33.54l80.84-70.73
	l-1.86,4.89L306.42,435l-44.28,33.67L201.9,487.27z"/>
<path class="st0" d="M206.97,499.31l-9.37,30.45l9.37,22.56l1.5-6.41l-5.31-15.94l9.12-29.38l29.65-54.88l45.23-35.33l94.03-66.42
	l-5.88,0.84l-91.4,60.29l-45.73,37.47L206.97,499.31z"/>
<path class="st0" d="M292.53,523.72l-9.13,30.29l-18.1,14.13l2.25-6.13l11.88-10.65l8.76-29.27l7.59-61.1l-13.28-52.67l-31.23-103.6
	l3.66,3.7l32.55,97.12l12.54,54.71L292.53,523.72z"/>
<path class="st0" d="M256.26,346.93l10.72-30.26l20.94-12.41l-2.63,6.08l-13.76,9.57l-10.29,29.25l-9.16,62.39l14.94,56.22
	l35.25,111.22l-4.18-4.28l-36.81-104.67l-14.06-58.25L256.26,346.93z"/>
<path class="st0" d="M339.02,379.83l10.81-29.99l-5.98-22.49l-1.87,6.32l3.11,15.87l-10.51,28.94l-30.45,53.85l-42.04,34.24
	l-86.77,64.21l5.12-0.73l83.94-58.18l42.67-36.34L339.02,379.83z"/>
<path class="st0" d="M346.69,382.4l31.6-2.21l19.62,14.47h-6.54l-14.16-8.93l-30.51,2.21l-59.94,16.6l-44.68,36.51l-86.09,77.54
	l2.18-5.61l79.55-76.35l46.86-36.51L346.69,382.4z"/>
<path class="st0" d="M350.33,472.56l31.39-2.02l17.87-14.61l-6.45,0.8l-13.06,9.28l-30.32,1.88l-60.81-6.63l-47.79-25.3l-92.81-54.8
	l2.72,4.47l86.24,54.6l49.94,25.03L350.33,472.56z"/>
<path class="st0" d="M182.44,444.43l-25.63,18.44l-6.03,23.71l5.02-4.17l5.3-15.95l24.8-17.75l56.35-25.39l57.07-0.24l114.44,5.08
	l-5.17-2.95l-108.68-8.34l-58.74,1.63L182.44,444.43z"/>
<path class="st0" d="M235.89,516.52l-25.35,18.46l-22.83,0.09l5.45-3.49l15.81-1.15l24.45-17.88l42.53-43.91l20.89-50.06
	l37.05-101.61l0.7,5.19l-32.12,97.26l-22.71,51.22L235.89,516.52z"/>
<path class="st0" d="M246.07,524.56l6.31,31.25l18.95,15.14l-1.74-6.34l-12.25-11.34l-6.02-30.2l-0.21-62.59l22.75-53.14
	l50.65-104.32l-4.74,3.62l-51.26,97.66l-22.17,55.26L246.07,524.56z"/>
<path class="st0" d="M332.58,503.89l6.44,31l-9.11,21.26l-0.95-6.47l5.32-15.16l-6.28-29.92l-22.47-57.21l-36.72-39.57l-76.7-75.33
	l4.96,1.44l74.76,69.01l37.04,41.72L332.58,503.89z"/>
<path class="st0" d="M216.6,366.99l-5.04-31.75l12.41-21.15l0.59,6.61l-7.48,15.13l4.94,30.65l21.71,59.1l39.86,41.87l83.85,80.02
	l-5.7-1.69l-82.09-73.52l-40.06-44.07L216.6,366.99z"/>
<path class="st0" d="M304.7,355.14l-4.83-31.56l-15.95-16.75l1.37,6.45l10.28,12.37l4.6,30.49l-0.99,62.08l-20.48,50.62
	l-45.34,98.82l4.14-3.16l45.74-92.16l20.03-52.76L304.7,355.14z"/>
<path class="st0" d="M312.64,353.61l26.6-17.46l24.06,3.03l-5.72,3.21l-16.65-0.86l-25.65,16.93l-44.55,43.97l-21.7,53.9
	l-38.4,110.14l-0.77-5.99l33.24-105.89l23.61-54.97L312.64,353.61z"/>
<path class="st0" d="M358.79,430.73l26.51-17.19l8.68-21.57l-5.26,3.87l-7.01,14.53l-25.64,16.54l-56.37,24.07l-53.88,1.33
	l-107.34-2.37l4.51,2.57l101.5,5.42l55.63-2.62L358.79,430.73z"/>
<path class="st0" d="M201.28,422.68l-27.99,14.49l-9.34,22.57l5.56-3.39l7.52-15.01l27.07-13.92l59.38-16.84l56.5,8.14l112.51,21.84
	l-4.7-3.68l-106.35-24.21l-58.36-7.01L201.28,422.68z"/>
<path class="st0" d="M243.9,501.86l-27.72,14.55l-22.6-3.26l5.89-2.66l15.81,1.18l26.74-14.1l48.34-37.2l27.81-46.46l51.13-95.1
	l-0.05,5.24l-45.64,91.52l-29.77,47.35L243.9,501.86z"/>
<path class="st0" d="M252.83,511.31l1.79,31.85l16.59,17.77l-0.82-6.53l-10.5-13.02l-1.66-30.76l8.71-61.97l30.08-49.24L362,303.62
	l-5.21,2.89l-64.63,89.1l-29.81,51.42L252.83,511.31z"/>
<path class="st0" d="M341.37,503.57l1.96,31.62l-12.04,19.7l-0.02-6.54l7.43-14.22l-1.96-30.52l-14.09-59.91l-30.7-44.55
	l-65.16-85.8l4.71,2.16l64.14,79.26l30.71,46.73L341.37,503.57z"/>
<path class="st0" d="M246.11,351.07l-0.46-32.16l15.29-19.1l-0.36,6.63l-9.56,13.88l0.52,31.05l13.06,61.67l33.48,47.28l71.57,91.49
	l-5.4-2.51l-70.76-84.8l-33.36-49.49L246.11,351.07z"/>
<path class="st0" d="M334.97,352.28l-0.28-31.94l-13.4-18.91l0.44,6.58l8.42,13.75l0.2,30.84l-9.82,61.29l-27.48,47.07l-58.94,91.12
	l4.54-2.52l58.39-84.47l27.33-49.27L334.97,352.28z"/>
<path class="st0" d="M343.05,351.94l28.81-13.37l23.38,6.53l-6.12,2.34l-16.36-3.3l-27.79,12.98l-50.34,36.96l-29.15,50.15
	l-53.69,103.35l0.09-6.04l47.98-99.9l31.19-50.93L343.05,351.94z"/>
<path class="st0" d="M377.72,435.02l28.69-13.11l11.66-20.07l-5.76,3.06l-9.01,13.35l-27.72,12.6l-59.21,15.54l-53.5-6.59
	l-105.88-18.11l4.1,3.21l99.66,20.27l55.42,5.57L377.72,435.02z"/>
<path class="st0" d="M210.83,468.71l-17.6,26.43l2.58,24.35l3.25-5.7l-0.57-16.82l17.05-25.48l43.94-43.91l53.33-20.63l108.88-36.16
	l-5.87-0.92l-104.61,31.05l-54.41,22.53L210.83,468.71z"/>
<path class="st0" d="M285.86,517.07l-17.33,26.35l-21.34,8.25l3.89-5.22l14.4-6.73l16.68-25.48l24.58-56.3l2.19-54.32l-0.57-108.34
	l2.45,4.61l3.66,102.52l-3.49,56.06L285.86,517.07z"/>
<path class="st0" d="M298.18,520.96l16.75,26.99l22.99,7.4l-3.83-5.31l-15.4-6.24l-16.11-26.11l-21.9-58.51l2.86-57.87l11.22-115.75
	l-3.19,5.09l-14.11,109.73l-1.59,59.64L298.18,520.96z"/>
<path class="st0" d="M371.98,470.69l16.78,26.71l-1.15,23.15l-3.14-5.72l-0.27-16.09l-16.26-25.75l-40.87-45.51l-48.1-23.9
	l-97.91-43.08l5.15-0.43l93.91,37.86l49.14,25.81L371.98,470.69z"/>
<path class="st0" d="M215.94,384.02l-15.73-27.92l4.28-24.23l2.85,5.98l-1.75,16.84l15.25,26.92l40.82,47.55l51.83,24.93
	l106.23,44.92l-5.93,0.45l-102.33-39.45l-52.78-26.93L215.94,384.02z"/>
<path class="st0" d="M294.29,341.43l-15.46-27.81l-20.74-9.97l3.52,5.54l13.91,7.9l14.88,26.89l20.61,58.46l-1.62,54.69l-8.16,108.7
	l2.77-4.43l10.85-102.61l0.44-56.54L294.29,341.43z"/>
<path class="st0" d="M301.2,337.17l18.84-25.85l23.57-5.77l-4.24,5.05l-15.88,5.15l-18.14,25.01l-26.45,57.08l-1.62,58.21
	l2.26,116.82l-2.79-5.33l-5.61-110.99l3.03-59.89L301.2,337.17z"/>
<path class="st0" d="M371.14,392.85l18.85-25.57l0.64-23.29l-3.58,5.5l-1.52,16.11l-18.26,24.65l-44.42,42.68l-49.96,20.51
	L171.6,489.61l5.11,0.79l96.88-31.21l51.16-22.35L371.14,392.85z"/>
<path class="st0" d="M171.76,409.91l-29.67,10.5l-12.27,21.07l5.96-2.59l9.45-13.83L173.91,415l61.08-8.51l54.89,15.84l108.56,37.13
	l-4.17-4.3l-102.13-38.63l-56.88-14.98L171.76,409.91z"/>
<path class="st0" d="M203.41,494.23l-29.4,10.59l-21.96-6.34l6.19-1.82l15.51,3.35l28.37-10.29l52.86-30.2l33.76-42.21l63.36-87.18
	l-0.75,5.19L293.9,419.7l-35.82,42.81L203.41,494.23z"/>
<path class="st0" d="M210.99,504.82l-2.48,31.8l14.06,19.89l0.06-6.58l-8.67-14.35l2.47-30.7l16.91-60.2l36.38-44.64l77.17-85.95
	l-5.55,2.14l-75.94,79.38l-36.4,46.84L210.99,504.82z"/>
<path class="st0" d="M299.75,509.34l-2.28,31.59l-14.56,17.86l0.85-6.49l9.26-13.06l2.14-30.51l-5.95-61.29l-24.47-48.36
	l-53.1-93.98l4.37,2.78l52.97,87.36l24.18,50.52L299.75,509.34z"/>
<path class="st0" d="M225.74,345.14l3.84-31.93l17.7-16.82l-1.24,6.52l-11.32,12.43l-3.64,30.84l4.71,62.9l26.86,51.46l58.69,100.5
	l-5.02-3.23l-58.78-93.76l-26.44-53.63L225.74,345.14z"/>
<path class="st0" d="M313.63,358.57l3.99-31.68l-10.75-20.58l-0.44,6.58l6.5,14.78l-3.91,30.58l-17.92,59.37l-33.51,42.86
	l-70.57,82.16l4.84-1.87l69.13-75.65l33.66-45.05L313.63,358.57z"/>
<path class="st0" d="M321.67,359.35l30.33-9.28l22.29,9.69l-6.38,1.47l-15.76-5.52l-29.27,9.03l-54.81,29.69l-35.58,45.67l-66.99,95
	l0.9-5.97l60.88-92.36l37.71-46.16L321.67,359.35z"/>
<path class="st0" d="M344.93,446.44l30.17-9.04l14.23-18.28l-6.11,2.24l-10.71,11.99l-29.15,8.67l-60.74,7.24l-52.13-13.9
	l-102.48-32.52l3.63,3.74l96.03,33.81l54.17,13.15L344.93,446.44z"/>
<path class="st0" d="M175.08,456.84l-20.96,23.76l-0.7,24.48l3.98-5.2l1.68-16.75l20.3-22.89l49.4-37.45l55.59-13.1l112.7-20.83
	l-5.69-1.71L283.58,403.5l-56.92,14.83L175.08,456.84z"/>
<path class="st0" d="M242.95,515.09l-20.69,23.71l-22.24,5.23l4.55-4.63l15.16-4.69l19.93-22.94l31.87-52.4l9.43-53.52l13.91-107.42
	l1.82,4.91l-10.06,102.08l-10.95,55.06L242.95,515.09z"/>
<path class="st0" d="M254.64,520.64l12.99,29.05l21.78,10.5l-3.08-5.79l-14.42-8.3L259.43,518l-13.89-60.98l10.57-56.94
	l26.58-113.13l-3.84,4.6l-28.63,106.77l-9.54,58.87L254.64,520.64z"/>
<path class="st0" d="M334.48,480.99l13.05,28.77l-4.23,22.78l-2.35-6.09l1.88-15.98l-12.66-27.76l-34.42-50.71l-44.46-30.31
	l-91.25-56.16l5.15,0.29l87.98,50.44l45.24,32.34L334.48,480.99z"/>
<path class="st0" d="M191.46,373.64l-11.85-29.83l7.48-23.42l2.02,6.31l-3.98,16.44l11.51,28.78l34.09,52.73l48.02,31.84L378,515.63
	l-5.93-0.37l-96.12-53.18l-48.7-33.95L191.46,373.64z"/>
<path class="st0" d="M274.77,342.23l-11.61-29.69l-19.22-12.73l2.75,5.98l12.73,9.74l11.15,28.69l12.61,60.76l-8.91,53.97
	l-22.61,106.57l3.34-4.01l24.45-100.16l7.99-55.96L274.77,342.23z"/>
<path class="st0" d="M282.18,338.95l22.12-23.02l24.12-2.47l-4.88,4.42l-16.43,2.91l-21.31,22.28l-33.82,52.91l-9.38,57.45
	l-13.36,116.05l-2.06-5.66l9.27-110.74l11.01-58.92L282.18,338.95z"/>
<path class="st0" d="M344.03,403.74l22.09-22.73l3.75-22.98l-4.29,4.96l-3.66,15.75l-21.38,21.91l-49.7,36.17l-52.24,13.44
	l-105.18,21.88l4.96,1.49l100.15-17.59l53.67-15.1L344.03,403.74z"/>
</svg>
