<?xml version="1.0" encoding="utf-8"?>
<!-- Generator: Adobe Illustrator 26.1.0, SVG Export Plug-In . SVG Version: 6.00 Build 0)  -->
<svg version="1.1" id="Layer_1" xmlns="http://www.w3.org/2000/svg" xmlns:xlink="http://www.w3.org/1999/xlink" x="0px" y="0px"
	 viewBox="0 0 612 792" style="enable-background:new 0 0 612 792;" xml:space="preserve">
<style type="text/css">
	.st0{fill:#F6B061;}
	.st1{fill:#82431D;}
	.st2{fill:#9D6227;}
	.st3{fill:#9E5A25;}
	.st4{fill:#74471C;}
	.st5{fill:#643613;}
	.st6{fill:#24150B;}
	.st7{fill:#834F20;}
	.st8{fill:#26160C;}
</style>
<ellipse class="st0" cx="305.53" cy="411.51" rx="262.91" ry="125.12"/>
<path class="st1" d="M280.18,508.68l-48.42-4.52v28.51l24.21,2.26l24.21,0.9V508.68z"/>
<path class="st2" d="M75.87,352.11l14.25-9.5l22.97-13.46l43.55-18.21l22.17-4.75l77.61-7.92l30.09-2.38l24.55-1.58l62.56,5.54
	l60.98,6.34l26.13,6.34l22.97,8.71l19.8,10.29l34.05,20.59l6.34,6.34l-40.39-21.38l-24.55-11.09l-18.21-6.34l-26.13-3.96
	l-60.98-4.75l-62.56-4.75l-50.68,2.38l-83.15,8.71l-38.8,8.71l-45.93,19.8L75.87,352.11z"/>
<path class="st3" d="M62.41,461.4l-11.88-12.67l7.92,15.05l12.27,15.53l24.87,21.27l20.67,13.09l22.17,11.88l28.33,11.32l41.35,7.68
	l42.69,4.83l28.58,2.3h41.18l57.15-4.8l66.03-10.01l28.07-10.53l25.1-13.25l21.44-16.27l19.19-18l17.69-20.59v-9.5l-38.28,33.26
	l-25.34,16.63l-18.21,6.96l-30.88,10.46l-64.8,13.32l-67.75,7.51l-38.51-1.82l-38.8-2.38l-67.62-13.32l-40.08-15.98l-51.68-29.08
	L62.41,461.4z"/>
<path class="st1" d="M308.69,294.33l50.68,4.49v-28.29l-25.34-2.25l-25.34-0.9V294.33z"/>
<path class="st1" d="M359.37,298.82l50.68,4.72l0.79-24.36l-25.34-4.72l-26.13-3.93V298.82z"/>
<path class="st1" d="M410.06,303.53l25.34,3.14l25.34,6.29l0.79-18.86l-25.34-8.65l-25.34-6.29L410.06,303.53z"/>
<path class="st1" d="M460.74,312.97l26.92,11l15.05,7.07l11.09,7.07l14.25,7.86l10.29,7.07l8.71,9.36l7.92,9.5l3.17-1.58l-3.96-7.06
	l-3.96-7.07l-3.96-6.29l-8.71-10.22l-4.75-4.72l-4.75-3.93l-3.96-3.14l-4.75-3.93l-10.29-6.29l-10.29-6.29l-11.88-6.29l-12.67-6.29
	l-12.67-4.72L460.74,312.97z"/>
<path class="st1" d="M308.69,294.31l-51.33,4.04v-27.87l25.66-2.21l25.66-0.88V294.31z"/>
<path class="st1" d="M257.36,298.34l-51.33,4.64l-0.8-24l25.66-4.64l26.47-3.87V298.34z"/>
<path class="st1" d="M206.04,302.99l-25.66,3.1l-25.66,6.19l-0.8-18.58l25.66-8.51l25.66-6.19L206.04,302.99z"/>
<path class="st1" d="M154.71,312.27l-27.27,10.84l-15.24,6.97l-11.23,6.97l-14.44,7.74l-10.43,6.97l-9.62,8.51l-7.22,10.06h-3.2
	l4-8.51l4.01-6.97l4.01-6.19l8.82-10.06l4.81-4.64l4.81-3.87l4.01-3.1l4.81-3.87l10.43-6.19l10.43-6.19l12.03-6.19l12.83-6.19
	l12.83-4.64L154.71,312.27z"/>
<path class="st1" d="M316.61,509.48l50.68-4.52v28.51l-25.34,2.26l-25.34,0.9V509.48z"/>
<path class="st1" d="M367.29,504.95l50.68-4.75l0.79,24.55l-25.34,4.75l-26.13,3.96V504.95z"/>
<path class="st1" d="M417.98,500.2l25.34-3.17l25.34-6.34l0.79,19.01l-25.34,8.71l-25.34,6.34L417.98,500.2z"/>
<path class="st1" d="M468.66,490.7l26.92-11.09l15.05-7.13l11.09-7.13l14.25-7.92l10.29-7.13l9.5-8.71l7.13-10.29h2.38l-3.17,8.71
	l-3.96,7.13l-3.96,6.34l-8.71,10.29l-4.75,4.75l-4.75,3.96l-3.96,3.17l-4.75,3.96l-10.29,6.34l-10.29,6.34l-11.88,6.34l-12.67,6.34
	l-12.67,4.75L468.66,490.7z"/>
<path class="st1" d="M231.76,504.16l-48.42-4.75l-0.76,24.55l24.21,4.75l24.97,3.96V504.16z"/>
<path class="st1" d="M183.34,499.41l-24.21-3.17l-24.21-6.34l-0.76,19.01l24.21,8.71l24.21,6.34L183.34,499.41z"/>
<path class="st1" d="M134.92,489.9l-25.72-11.09l-14.38-7.13l-10.59-7.13l-13.62-7.92l-9.84-7.13l-9.08-8.71l-6.05-10.29h-3.03
	l3.03,8.71l3.78,7.13l3.78,6.34l8.32,10.29l4.54,4.75l4.54,3.96l3.78,3.17l4.54,3.96l9.84,6.34l9.84,6.34l11.35,6.34l12.11,6.34
	l12.11,4.75L134.92,489.9z"/>
<path class="st4" d="M226.25,272.13l46.97,49.83h-93.95L226.25,272.13z"/>
<path class="st5" d="M184.62,321.75h84.09v42.05h-84.09V321.75z"/>
<rect x="214.05" y="328.47" class="st6" width="25.23" height="35.32"/>
<path class="st7" d="M226.25,272.13l36.94,49.83h-73.88L226.25,272.13z"/>
<path class="st4" d="M226.51,272.13l26.68,49.83h-53.36L226.51,272.13z"/>
<path class="st7" d="M226.25,272.13l13.23,49.83h-26.45L226.25,272.13z"/>
<path class="st8" d="M184.62,321.75l4.2-0.42l5.89,0.42l4.2-0.42l5.89,0.42l5.89-0.84l7.99,0.84l7.99-0.42l3.36,0.42l5.47-0.84
	l5.89,0.42l3.36-0.42h3.79l4.2,0.84l10.93-1.26l5.04,1.26v2.52l-5.04-0.42l-10.93,1.26l-4.2-0.84h-3.79l-3.36,0.42l-2.1-0.42h-25.23
	l-3.36-0.42l-5.89,0.84l-5.89-0.42l-4.2,0.84l-5.89-1.26l-4.2,0.42V321.75z"/>
<path class="st4" d="M226.51,272.13l5.7,49.83h-11.4L226.51,272.13z"/>
<path class="st5" d="M422.6,387.12h108.48v54.24H422.6V387.12z"/>
<rect x="460.56" y="395.8" class="st6" width="32.54" height="45.56"/>
<path class="st8" d="M422.6,387.12l5.42-0.54l7.59,0.54l5.42-0.54l7.59,0.54l7.59-1.08l10.31,1.08l10.3-0.54l4.34,0.54l7.05-1.08
	l7.59,0.54l4.34-0.54h4.88l5.42,1.08l14.1-1.63l6.51,1.63v3.25l-6.51-0.54l-14.1,1.63l-5.42-1.08h-4.88l-4.34,0.54l-2.71-0.54
	h-32.54l-4.34-0.54l-7.59,1.08l-7.59-0.54l-5.42,1.08l-7.59-1.63l-5.42,0.54V387.12z"/>
<path class="st4" d="M476.29,323.12l60.59,64.27H415.7L476.29,323.12z"/>
<path class="st7" d="M476.29,323.12l47.65,64.27h-95.31L476.29,323.12z"/>
<path class="st4" d="M476.63,323.12l34.42,64.27h-68.83L476.63,323.12z"/>
<path class="st7" d="M476.29,323.12l17.06,64.27h-34.12L476.29,323.12z"/>
<path class="st4" d="M476.63,323.12l7.35,64.27h-14.71L476.63,323.12z"/>
<path class="st5" d="M87.39,389.29h108.48v54.24H87.39V389.29z"/>
<rect x="125.36" y="397.97" class="st6" width="32.54" height="45.56"/>
<path class="st8" d="M87.39,389.29l5.42-0.54l7.59,0.54l5.42-0.54l7.59,0.54l7.59-1.08l10.31,1.08l10.31-0.54l4.34,0.54l7.05-1.08
	l7.59,0.54l4.34-0.54h4.88l5.42,1.08l14.1-1.63l6.51,1.63v3.25l-6.51-0.54l-14.1,1.63l-5.42-1.08h-4.88l-4.34,0.54l-2.71-0.54
	h-32.54l-4.34-0.54l-7.59,1.08l-7.59-0.54l-5.42,1.08L92.82,392l-5.42,0.54V389.29z"/>
<path class="st4" d="M141.09,325.29l60.59,64.27H80.5L141.09,325.29z"/>
<path class="st7" d="M141.09,325.29l47.65,64.27H93.44L141.09,325.29z"/>
<path class="st4" d="M141.43,325.29l34.42,64.27h-68.83L141.43,325.29z"/>
<path class="st7" d="M141.09,325.29l17.06,64.27h-34.12L141.09,325.29z"/>
<path class="st4" d="M141.43,325.29l7.35,64.27h-14.71L141.43,325.29z"/>
<path class="st5" d="M252.94,422.03h134.55v67.27H252.94V422.03z"/>
<rect x="300.03" y="432.79" class="st6" width="40.36" height="56.51"/>
<path class="st8" d="M252.94,422.03l6.73-0.67l9.42,0.67l6.73-0.67l9.42,0.67l9.42-1.35l12.78,1.35l12.78-0.67l5.38,0.67l8.75-1.35
	l9.42,0.67l5.38-0.67h6.05l6.73,1.35l17.49-2.02l8.07,2.02v4.04l-8.07-0.67l-17.49,2.02l-6.73-1.35h-6.05l-5.38,0.67l-3.36-0.67
	h-40.36l-5.38-0.67l-9.42,1.35l-9.42-0.67l-6.73,1.35l-9.42-2.02l-6.73,0.67V422.03z"/>
<path class="st4" d="M319.54,342.64l75.16,79.72H244.38L319.54,342.64z"/>
<path class="st7" d="M319.54,342.64l59.1,79.72H260.44L319.54,342.64z"/>
<path class="st4" d="M319.96,342.64l42.69,79.72h-85.37L319.96,342.64z"/>
<path class="st7" d="M319.54,342.64l21.16,79.72h-42.32L319.54,342.64z"/>
<path class="st4" d="M319.96,342.64l9.12,79.72h-18.24L319.96,342.64z"/>
</svg>
