<?xml version="1.0" encoding="utf-8"?>
<!-- Generator: Adobe Illustrator 26.1.0, SVG Export Plug-In . SVG Version: 6.00 Build 0)  -->
<svg version="1.1" id="Layer_1" xmlns="http://www.w3.org/2000/svg" xmlns:xlink="http://www.w3.org/1999/xlink" x="0px" y="0px"
	 viewBox="0 0 612 792" style="enable-background:new 0 0 612 792;" xml:space="preserve">
<style type="text/css">
	.st0{fill:#583C2C;}
	.st1{fill:#A3765E;}
	.st2{fill:#A4A3A4;}
	.st3{fill:#C4C4C4;}
	.st4{fill:#727373;}
	.st5{fill:#A8643E;}
	.st6{fill:none;stroke:#000000;}
	.st7{fill:#583C2C;stroke:#000000;}
	.st8{fill:#110D0C;}
	.st9{fill:#6070B5;}
</style>
<rect x="417.43" y="313.27" class="st0" width="59.99" height="10"/>
<rect x="417.43" y="278.28" class="st0" width="10" height="49.99"/>
<rect x="439.93" y="313.27" class="st1" width="25" height="10"/>
<rect x="44.98" y="388.26" class="st2" width="352.45" height="179.98"/>
<ellipse class="st3" cx="221.2" cy="389.51" rx="176.23" ry="48.74"/>
<ellipse class="st4" cx="219.95" cy="390.76" rx="139.98" ry="32.5"/>
<rect x="62.48" y="230.78" class="st5" width="10" height="164.98"/>
<rect x="372.44" y="230.78" class="st5" width="10" height="164.98"/>
<rect x="27.48" y="220.78" class="st5" width="389.95" height="32.5"/>
<rect x="219.96" y="285.77" class="st5" width="4.56" height="41.23"/>
<rect x="62.48" y="278.28" class="st5" width="319.96" height="10"/>
<rect x="382.43" y="278.28" class="st0" width="49.99" height="10"/>
<ellipse class="st2" cx="221.2" cy="559.49" rx="176.23" ry="48.74"/>
<g>
	<path shape-rendering="crispEdges" class="st6" d="M254.33,357.64c0,16.47-14.17,30-31.87,30s-31.87-13.53-31.87-30
		c0-16.47,14.17-30,31.87-30S254.33,341.17,254.33,357.64z"/>
</g>
<path class="st7" d="M254.95,358.26h-64.99l10.34,52.49h45.79L254.95,358.26z"/>
<ellipse class="st8" cx="222.45" cy="358.27" rx="35" ry="12.5"/>
<ellipse class="st9" cx="222.46" cy="363.26" rx="27.5" ry="7.5"/>
</svg>
