<?xml version="1.0" encoding="utf-8"?>
<!-- Generator: Adobe Illustrator 26.1.0, SVG Export Plug-In . SVG Version: 6.00 Build 0)  -->
<svg version="1.1" id="Layer_1" xmlns="http://www.w3.org/2000/svg" xmlns:xlink="http://www.w3.org/1999/xlink" x="0px" y="0px"
	 viewBox="0 0 1280 480" style="enable-background:new 0 0 1280 480;" xml:space="preserve">

<g>
	<path shape-rendering="crispEdges" class="st0" d="M648.69,308.71c-2.22,3.35-4.2,6.57-6.04,9.59c-0.69,1.13-1.37,2.24-2.03,3.31
		c-2.48,4-4.8,7.52-7.36,10.45c-2.55,2.92-5.31,5.23-8.66,6.81c-3.35,1.58-7.35,2.47-12.4,2.47c-10.06,0-16.56-3.51-21.86-9.3
		c-4.6-5.02-8.27-11.72-12.52-19.46c-0.68-1.25-1.38-2.52-2.1-3.82c0.14-20.12,16.49-38.3,36.48-38.3
		C632.18,270.46,648.52,288.61,648.69,308.71z"/>
</g>
<path class="st1" d="M637.22,371.57l11.58-61.77c0.48-2.57-1.49-4.94-4.1-4.94h-13.74h-18.76h-32.59c-2.58,0-4.54,2.32-4.11,4.86
	l10.45,61.85H637.22z"/>
<path class="st2" d="M647.65,309.03c0,6.91-16.56,14.59-34.98,14.59c-18.42,0-35.9-7.68-35.9-14.59c0-6.91,16.68-14.59,35.9-14.59
	C631.09,294.43,647.65,302.12,647.65,309.03z"/>
<path class="st3" d="M639.31,319.45c7.23-3.62-4.35-10.37-14.36-10.71c-2.92-0.1-5.87-0.05-8.76-0.49
	c-17.22-2.69-33.33,1.27-35.26,7.04c4.17,4.17,12.85,8.34,31.27,8.34C624.72,323.62,630.97,323.62,639.31,319.45z"/>
<path class="st4" d="M648.48,309.03c0-1.9-0.86-3.8-2.6-5.63c-1.75-1.84-4.34-3.55-7.64-5.02c-6.6-2.93-15.8-4.78-26.03-4.78
	s-19.43,1.85-26.03,4.78c-3.3,1.47-5.89,3.18-7.64,5.02c-1.74,1.83-2.6,3.73-2.6,5.63c0,1.9,0.86,3.8,2.6,5.63
	c1.75,1.84,4.34,3.55,7.64,5.02c6.6,2.93,15.8,4.78,26.03,4.78s19.43-1.85,26.03-4.78c3.3-1.47,5.89-3.18,7.64-5.02
	C647.62,312.82,648.48,310.92,648.48,309.03z"/>
<rect x="829.02" y="122.09" class="st5" width="66.71" height="11.12"/>
<rect x="854.04" y="122.09" class="st6" width="27.8" height="11.12"/>
<rect x="829.02" y="83.18" class="st5" width="11.12" height="55.59"/>
<path class="st7" d="M416.24,211.04l82.7,42.19l111.19,9.93l101.46-9.93l96.59-42.19v195.97H416.24V211.04z"/>
<ellipse class="st8" cx="610.12" cy="213.13" rx="139.68" ry="43.78"/>
<rect x="434.31" y="30.36" class="st9" width="11.12" height="183.46"/>
<rect x="778.99" y="30.36" class="st9" width="11.12" height="183.46"/>
<rect x="395.39" y="19.25" class="st9" width="433.63" height="36.14"/>
<rect x="434.31" y="83.18" class="st9" width="355.8" height="11.12"/>
<rect x="790.11" y="83.18" class="st5" width="55.59" height="11.12"/>
<ellipse class="st7" cx="612.21" cy="407.01" rx="195.97" ry="54.2"/>
<path class="st10" d="M808.17,213.13c0,31.09-87.74,56.29-195.97,56.29s-195.97-25.2-195.97-56.29s87.74-56.29,195.97-56.29
	S808.17,182.04,808.17,213.13z M478.11,213.13c0,21.27,60.04,38.52,134.1,38.52s134.1-17.24,134.1-38.52s-60.04-38.52-134.1-38.52
	S478.11,191.85,478.11,213.13z"/>
<rect x="609.43" y="91.52" class="st9" width="5.08" height="160.06"/>
</svg>
