<?xml version="1.0" encoding="utf-8"?>
<!-- Generator: Adobe Illustrator 26.1.0, SVG Export Plug-In . SVG Version: 6.00 Build 0)  -->
<svg version="1.1" id="Layer_1" xmlns="http://www.w3.org/2000/svg" xmlns:xlink="http://www.w3.org/1999/xlink" x="0px" y="0px"
	 viewBox="0 0 1280 480" style="enable-background:new 0 0 1280 480;" xml:space="preserve">
<style type="text/css">
	.st0{fill:#824106;}
	.st1{fill:#7CAE18;}
	.st2{fill:#91B549;}
	.st3{fill:#D87F1F;}
</style>
<path class="st0" d="M519.34,174.97h14.06l-7.33,65.59l21.39,61.96h-28.11l-17.11-61.96L519.34,174.97z"/>
<path class="st0" d="M456.4,112.3l38.5,44.92l31.11,19.51l-6.32,7.28l-32.74-19.58l-36.67-47.14L456.4,112.3z"/>
<path class="st0" d="M497.95,101.77h6.72v29.39l-12.22,29.39l-6.11-6.65l11.61-25.51V101.77z"/>
<path class="st0" d="M524.84,98.44h8.56v38.82l-1.83,39.93h-9.78l3.06-39.93V98.44z"/>
<path class="st0" d="M563.95,111.19l7.95,0l-12.83,29.95l-28.48,11.65v-6.76l24.2-9.87L563.95,111.19z"/>
<path class="st0" d="M527.94,174.97l71.46-9.43l33.61-52.13h7.33l-35.44,58.54l-76.96,10.86V174.97z"/>
<path class="st0" d="M594.51,118.4l4.89-1.66l2.44,18.3l-11,32.72h-5.5l12.22-32.72L594.51,118.4z"/>
<path class="st1" d="M539,109.41c0.37,6.83-22.68,16.66-68.75,16.28c-38.34,2.16-63.57-2.65-63.94-9.48s24.25-13.1,62.59-15.26
	C507.24,98.79,538.63,102.58,539,109.41z"/>
<path class="st1" d="M532.47,96.59c0.48,8.87-42.91,32.75-76.25,34.63c-33.34,1.88-44.01-18.95-44.49-27.83
	c-0.48-8.87,26.15-17.59,59.5-19.47C504.57,82.05,531.99,87.72,532.47,96.59z"/>
<path class="st1" d="M507.66,88.88c0.48,8.87-22.83,14.18-34.76,14.85c-11.92,0.67-39.99,0.31-40.48-8.56
	c-0.48-8.87,26.81-22.9,38.73-23.57C483.08,70.93,507.18,80.01,507.66,88.88z"/>
<path class="st1" d="M413.96,129.02c-0.43-6.83,21.46-45.69,56.09-47.93c34.62-2.24,68.87,32.98,69.3,39.81s-27.3,14.18-61.92,16.43
	S414.39,135.85,413.96,129.02z"/>
<path class="st2" d="M528.64,109.53c0.32,6.16-19.33,15.01-58.59,14.67c-32.67,1.95-54.17-2.39-54.49-8.54
	c-0.32-6.16,20.67-11.81,53.34-13.75C501.58,99.96,528.33,103.37,528.64,109.53z"/>
<path class="st2" d="M523.08,97.98c0.41,7.99-36.57,29.51-64.98,31.2s-37.5-17.08-37.91-25.07c-0.41-7.99,22.29-15.85,50.7-17.54
	C499.3,84.88,522.67,89.99,523.08,97.98z"/>
<path class="st2" d="M501.94,91.03c0.41,7.99-19.46,12.78-29.62,13.38c-10.16,0.6-34.08,0.28-34.49-7.71
	c-0.41-7.99,22.85-20.63,33.01-21.24C480.99,74.86,501.53,83.04,501.94,91.03z"/>
<path class="st2" d="M422.09,127.2c-0.36-6.15,18.29-41.17,47.8-43.18c29.51-2.02,58.69,29.72,59.05,35.87
	c0.36,6.15-23.26,12.78-52.77,14.8C446.67,136.7,422.45,133.35,422.09,127.2z"/>
<path class="st1" d="M638.75,92.14c0.53,8.63-32.17,21.04-97.5,20.56c-54.38,2.73-90.15-3.35-90.68-11.97
	c-0.53-8.63,34.39-16.55,88.77-19.27C593.72,78.72,638.23,83.51,638.75,92.14z"/>
<path class="st1" d="M629.49,75.96c0.68,11.2-60.85,41.35-108.13,43.72c-47.28,2.37-62.41-23.93-63.09-35.14
	c-0.68-11.2,37.09-22.21,84.38-24.58C589.93,57.59,628.81,64.75,629.49,75.96z"/>
<path class="st1" d="M594.32,66.22c0.68,11.2-32.39,17.9-49.29,18.75s-56.72,0.39-57.4-10.81c-0.68-11.2,38.02-28.92,54.93-29.76
	C559.46,43.55,593.63,55.01,594.32,66.22z"/>
<path class="st1" d="M461.43,116.9c-0.6-8.62,30.44-57.69,79.54-60.52c49.1-2.83,97.67,41.65,98.28,50.27
	c0.61,8.62-38.71,17.91-87.81,20.74C502.33,130.22,462.04,125.52,461.43,116.9z"/>
<path class="st2" d="M624.07,92.29c0.45,7.77-27.41,18.96-83.09,18.52c-46.34,2.46-76.82-3.01-77.27-10.79
	c-0.45-7.77,29.31-14.91,75.65-17.36C585.69,80.2,623.62,84.52,624.07,92.29z"/>
<path class="st2" d="M616.17,77.71c0.58,10.09-51.86,37.26-92.15,39.39c-40.29,2.14-53.18-21.56-53.76-31.66
	c-0.58-10.09,31.61-20.01,71.9-22.15C582.46,61.16,615.59,67.61,616.17,77.71z"/>
<path class="st2" d="M586.2,68.94c0.58,10.09-27.6,16.13-42,16.9s-48.34,0.36-48.92-9.74c-0.58-10.09,32.4-26.05,46.81-26.82
	C556.49,48.51,585.62,58.84,586.2,68.94z"/>
<path class="st2" d="M472.96,114.6c-0.52-7.77,25.94-51.98,67.78-54.53c41.84-2.55,83.23,37.52,83.75,45.29
	s-32.99,16.14-74.83,18.69C507.81,126.6,473.47,122.37,472.96,114.6z"/>
<path class="st1" d="M679.57,118.28c0.37,6.83-22.47,16.66-68.13,16.28c-37.99,2.16-62.99-2.65-63.36-9.48
	c-0.37-6.83,24.03-13.1,62.03-15.26C648.1,107.66,679.2,111.45,679.57,118.28z"/>
<path class="st1" d="M673.1,105.47c0.48,8.87-42.52,32.75-75.55,34.63c-33.04,1.88-43.61-18.95-44.08-27.83
	c-0.48-8.87,25.92-17.59,58.95-19.47C645.45,90.92,672.62,96.6,673.1,105.47z"/>
<path class="st1" d="M648.52,97.76c0.48,8.87-22.63,14.18-34.44,14.85c-11.81,0.67-39.63,0.31-40.11-8.56
	c-0.48-8.87,26.57-22.9,38.38-23.57C624.16,79.8,648.04,88.88,648.52,97.76z"/>
<path class="st1" d="M555.67,137.89c-0.42-6.83,21.27-45.69,55.58-47.93c34.31-2.24,68.24,32.98,68.67,39.81
	c0.42,6.83-27.05,14.18-61.36,16.43C584.25,148.44,556.09,144.72,555.67,137.89z"/>
<path class="st2" d="M669.3,118.4c0.31,6.16-19.15,15.01-58.05,14.67c-32.38,1.95-53.68-2.39-53.99-8.54s20.48-11.81,52.86-13.75
	C642.49,108.83,668.99,112.25,669.3,118.4z"/>
<path class="st2" d="M663.79,106.86c0.41,7.99-36.23,29.51-64.39,31.2c-28.16,1.69-37.16-17.08-37.57-25.07s22.09-15.85,50.24-17.54
	C640.23,93.75,663.38,98.86,663.79,106.86z"/>
<path class="st2" d="M642.85,99.91c0.41,7.99-19.28,12.78-29.35,13.38c-10.07,0.6-33.77,0.28-34.18-7.71
	c-0.41-7.99,22.64-20.63,32.71-21.24C622.09,83.73,642.44,91.91,642.85,99.91z"/>
<path class="st2" d="M563.72,136.07c-0.36-6.15,18.12-41.17,47.36-43.18c29.24-2.02,58.16,29.72,58.52,35.87
	c0.36,6.15-23.05,12.78-52.29,14.8C588.07,145.58,564.08,142.23,563.72,136.07z"/>
<path class="st0" d="M891.21,213.7h15.63l-8.15,83.66l23.78,79.04h-31.26l-19.03-79.04L891.21,213.7z"/>
<path class="st0" d="M821.22,133.77l42.81,57.3l34.59,24.89l-7.02,9.29l-36.4-24.98l-40.77-60.13L821.22,133.77z"/>
<path class="st0" d="M867.43,120.33h7.47v37.49l-13.59,37.49l-6.8-8.49l12.91-32.54V120.33z"/>
<path class="st0" d="M897.33,116.08h9.51v49.52l-2.04,50.93h-10.87l3.4-50.93V116.08z"/>
<path class="st0" d="M940.82,132.35l8.83,0l-14.27,38.2l-31.67,14.86v-8.63l26.91-12.59L940.82,132.35z"/>
<path class="st0" d="M900.78,213.7l79.45-12.03l37.37-66.49h8.16l-39.41,74.67l-85.57,13.85V213.7z"/>
<path class="st0" d="M974.8,141.55l5.44-2.12l2.72,23.34l-12.23,41.74h-6.12l13.59-41.74L974.8,141.55z"/>
<path class="st1" d="M913.07,130.07c0.41,8.72-25.22,21.26-76.45,20.77c-42.63,2.75-70.68-3.38-71.1-12.1
	c-0.41-8.72,26.97-16.72,69.6-19.47C877.76,116.52,912.66,121.36,913.07,130.07z"/>
<path class="st1" d="M905.81,113.73c0.54,11.32-47.71,41.77-84.78,44.17c-37.07,2.39-48.93-24.18-49.47-35.5
	c-0.54-11.32,29.08-22.44,66.16-24.83C874.79,95.17,905.28,102.41,905.81,113.73z"/>
<path class="st1" d="M878.23,103.89c0.54,11.32-25.39,18.09-38.64,18.94c-13.25,0.86-44.47,0.4-45.01-10.92
	c-0.54-11.32,29.81-29.21,43.07-30.07C850.9,80.99,877.69,92.57,878.23,103.89z"/>
<path class="st1" d="M774.04,155.09c-0.47-8.71,23.87-58.28,62.36-61.14c38.5-2.86,76.58,42.07,77.05,50.78
	s-30.35,18.09-68.85,20.95C806.11,168.55,774.51,163.8,774.04,155.09z"/>
<path class="st2" d="M901.56,130.23c0.35,7.85-21.49,19.15-65.15,18.71c-36.33,2.48-60.23-3.04-60.59-10.9
	c-0.35-7.85,22.98-15.06,59.31-17.54C871.47,118.02,901.21,122.37,901.56,130.23z"/>
<path class="st2" d="M895.37,115.5c0.46,10.2-40.66,37.64-72.25,39.8c-31.59,2.16-41.7-21.78-42.15-31.98
	c-0.46-10.2,24.78-20.21,56.37-22.37C868.93,98.78,894.91,105.3,895.37,115.5z"/>
<path class="st2" d="M871.87,106.63c0.46,10.2-21.64,16.3-32.93,17.07c-11.29,0.77-37.9,0.36-38.36-9.84
	c-0.46-10.2,25.41-26.32,36.7-27.09C848.57,86,871.41,96.44,871.87,106.63z"/>
<path class="st2" d="M783.08,152.77c-0.4-7.85,20.34-52.51,53.15-55.09c32.81-2.58,65.26,37.91,65.66,45.76
	c0.4,7.85-25.86,16.3-58.67,18.88C810.4,164.89,783.48,160.62,783.08,152.77z"/>
<path class="st1" d="M1023.99,108.04c0.58,11.01-35.77,26.84-108.42,26.23c-60.46,3.48-100.24-4.27-100.83-15.27
	c-0.58-11.01,38.24-21.11,98.71-24.58C973.92,90.93,1023.41,97.03,1023.99,108.04z"/>
<path class="st1" d="M1013.7,87.4c0.76,14.29-67.66,52.75-120.24,55.77c-52.58,3.02-69.39-30.53-70.15-44.82
	c-0.76-14.29,41.24-28.33,93.82-31.35C969.7,63.97,1012.94,73.11,1013.7,87.4z"/>
<path class="st1" d="M974.58,74.98c0.76,14.29-36.01,22.84-54.81,23.92c-18.8,1.08-63.07,0.5-63.83-13.79
	c-0.76-14.29,42.28-36.88,61.08-37.97C935.82,46.06,973.82,60.69,974.58,74.98z"/>
<path class="st1" d="M826.82,139.63c-0.67-11,33.84-73.59,88.44-77.2c54.6-3.61,108.61,53.12,109.28,64.12
	c0.67,11-43.04,22.84-97.64,26.45C872.3,156.62,827.49,150.63,826.82,139.63z"/>
<path class="st2" d="M1007.66,108.23c0.5,9.92-30.48,24.18-92.39,23.63c-51.52,3.13-85.42-3.84-85.92-13.76s32.59-19.02,84.11-22.15
	C964.99,92.82,1007.16,98.32,1007.66,108.23z"/>
<path class="st2" d="M998.89,89.64c0.65,12.88-57.66,47.53-102.46,50.25s-59.14-27.51-59.78-40.38
	c-0.65-12.88,35.15-25.52,79.95-28.25C961.39,68.53,998.24,76.76,998.89,89.64z"/>
<path class="st2" d="M965.56,78.45c0.65,12.88-30.69,20.58-46.7,21.55c-16.02,0.97-53.75,0.45-54.39-12.42
	c-0.65-12.88,36.03-33.23,52.05-34.21C932.53,52.39,964.91,65.57,965.56,78.45z"/>
<path class="st2" d="M839.64,136.69c-0.57-9.91,28.84-66.3,75.37-69.56c46.53-3.25,92.55,47.86,93.12,57.78
	c0.57,9.91-36.68,20.58-83.21,23.84C878.39,152,840.21,146.61,839.64,136.69z"/>
<path class="st1" d="M1069.38,141.39c0.41,8.72-24.99,21.26-75.75,20.77c-42.25,2.75-70.04-3.38-70.45-12.1
	c-0.41-8.72,26.72-16.72,68.97-19.47C1034.39,127.84,1068.97,132.68,1069.38,141.39z"/>
<path class="st1" d="M1062.18,125.05c0.53,11.32-47.28,41.77-84.01,44.17c-36.74,2.4-48.49-24.18-49.02-35.5
	c-0.53-11.32,28.82-22.44,65.55-24.83C1031.44,106.49,1061.65,113.73,1062.18,125.05z"/>
<path class="st1" d="M1034.85,115.21c0.53,11.32-25.16,18.09-38.29,18.94c-13.13,0.86-44.07,0.4-44.6-10.92
	c-0.53-11.32,29.54-29.21,42.68-30.07C1007.77,92.31,1034.32,103.89,1034.85,115.21z"/>
<path class="st1" d="M931.61,166.41c-0.47-8.71,23.65-58.28,61.8-61.14c38.15-2.86,75.89,42.07,76.35,50.78
	c0.47,8.71-30.07,18.09-68.22,20.95C963.39,179.87,932.08,175.12,931.61,166.41z"/>
<path class="st2" d="M1057.96,141.55c0.35,7.85-21.3,19.15-64.55,18.71c-36,2.48-59.69-3.04-60.04-10.9
	c-0.35-7.85,22.77-15.06,58.77-17.54C1028.15,129.34,1057.62,133.69,1057.96,141.55z"/>
<path class="st2" d="M1051.83,126.82c0.45,10.2-40.29,37.64-71.59,39.8c-31.31,2.16-41.32-21.78-41.77-31.98
	c-0.45-10.2,24.56-20.21,55.86-22.37C1025.64,110.1,1051.38,116.62,1051.83,126.82z"/>
<path class="st2" d="M1028.55,117.95c0.45,10.2-21.44,16.3-32.63,17.07c-11.19,0.77-37.55,0.36-38.01-9.84
	c-0.45-10.2,25.18-26.32,36.37-27.09C1005.47,97.32,1028.09,107.75,1028.55,117.95z"/>
<path class="st2" d="M940.56,164.08c-0.4-7.85,20.15-52.51,52.66-55.09c32.51-2.58,64.67,37.91,65.07,45.76
	c0.4,7.85-25.63,16.3-58.14,18.88C967.64,176.21,940.96,171.93,940.56,164.08z"/>
<polygon class="st0" points="701.24,275.39 708.05,274.96 711.17,346.59 704.36,347.01 "/>
<polygon class="st0" points="711.59,260.86 717.18,264.35 708.09,275.18 702.49,271.69 "/>
<polygon class="st0" points="720.36,254.75 724.5,258.43 714.24,267.02 710.1,263.33 "/>
<polygon class="st0" points="731.89,248.73 735.01,252.71 723.24,259.58 720.11,255.6 "/>
<polygon class="st0" points="742.6,245.05 744.72,249.09 731.78,254.03 729.67,249.99 "/>
<polygon class="st0" points="754.78,242.63 756.08,246.94 742.38,249.8 741.08,245.49 "/>
<polygon class="st3" points="706.84,264.87 712.22,260.07 712.99,260.76 707.61,265.56 "/>
<polygon class="st3" points="720.56,254.08 732.45,247.96 733,248.8 721.1,254.92 "/>
<polygon class="st3" points="714.73,258.22 720.73,254.05 721.4,254.81 715.4,258.99 "/>
<polygon class="st0" points="697.05,258.43 693.71,261.92 699.15,272.76 702.49,269.26 "/>
<polygon class="st0" points="691.8,252.32 689.33,256.01 695.47,264.59 697.94,260.91 "/>
<polygon class="st0" points="684.91,246.31 683.03,250.29 690.08,257.16 691.95,253.18 "/>
<polygon class="st0" points="678.49,242.63 677.23,246.67 684.97,251.61 686.23,247.57 "/>
<polygon class="st0" points="671.2,240.21 670.43,244.51 678.63,247.37 679.4,243.07 "/>
<polygon class="st3" points="699.89,262.45 696.67,257.65 696.21,258.34 699.43,263.13 "/>
<polygon class="st3" points="691.68,251.66 684.57,245.54 684.24,246.38 691.36,252.5 "/>
<polygon class="st3" points="695.17,255.8 691.58,251.62 691.18,252.39 694.77,256.56 "/>
<polygon class="st0" points="696.46,240.29 698.63,240.52 693.83,259.58 691.66,259.35 "/>
<polygon class="st0" points="728.16,243.36 730.32,243.59 726.96,256.95 724.8,256.72 "/>
<polygon class="st0" points="719.14,244.84 720.37,244.59 724.08,257.67 722.84,257.92 "/>
<polygon class="st0" points="703.91,247.05 705.07,247.46 696.86,259.29 695.7,258.88 "/>
<polygon class="st0" points="677.92,248.29 678.9,247.67 697.23,266.06 696.25,266.68 "/>
<rect x="702.45" y="346.03" class="st3" width="10.91" height="3.69"/>
<path class="st0" d="M704.78,282.57l-7.53-13.52l13.84-0.87L704.78,282.57z"/>
<ellipse class="st1" cx="675.05" cy="218.64" rx="18.75" ry="7.51"/>
<ellipse class="st1" cx="647.6" cy="234.15" rx="14.13" ry="7.51"/>
<ellipse class="st1" cx="650.87" cy="224.46" rx="14.13" ry="7.51"/>
<ellipse class="st1" cx="686.19" cy="244.33" rx="17.93" ry="7.51"/>
<ellipse class="st1" cx="660.11" cy="243.84" rx="14.13" ry="7.51"/>
<ellipse class="st1" cx="710.37" cy="242.39" rx="16.58" ry="7.51"/>
<ellipse class="st1" cx="734.83" cy="242.39" rx="16.58" ry="7.51"/>
<ellipse class="st1" cx="761.46" cy="241.9" rx="17.12" ry="7.51"/>
<ellipse class="st1" cx="772.87" cy="232.21" rx="16.58" ry="7.51"/>
<ellipse class="st1" cx="759.83" cy="222.52" rx="16.58" ry="7.51"/>
<ellipse class="st1" cx="739.72" cy="217.67" rx="16.58" ry="7.51"/>
<ellipse class="st1" cx="699.51" cy="218.16" rx="16.58" ry="7.51"/>
<ellipse class="st1" cx="722.33" cy="222.52" rx="16.58" ry="7.51"/>
<ellipse class="st1" cx="656.3" cy="243.36" rx="14.13" ry="7.51"/>
<ellipse class="st2" cx="688.09" cy="231" rx="27.44" ry="9.69"/>
<ellipse class="st2" cx="654.67" cy="224.7" rx="15.76" ry="6.3"/>
<ellipse class="st2" cx="699.78" cy="218.4" rx="15.76" ry="6.3"/>
<ellipse class="st2" cx="760.64" cy="241.66" rx="15.76" ry="6.3"/>
<ellipse class="st2" cx="674.78" cy="218.89" rx="15.76" ry="6.3"/>
<ellipse class="st2" cx="709.56" cy="241.66" rx="15.76" ry="6.3"/>
<ellipse class="st2" cx="770.97" cy="232.45" rx="15.76" ry="6.3"/>
<ellipse class="st2" cx="685.65" cy="243.6" rx="15.76" ry="6.3"/>
<ellipse class="st2" cx="721.52" cy="223.25" rx="15.76" ry="6.3"/>
<ellipse class="st2" cx="734.56" cy="241.66" rx="15.76" ry="6.3"/>
<ellipse class="st2" cx="739.45" cy="218.4" rx="15.76" ry="6.3"/>
<ellipse class="st2" cx="652.5" cy="234.39" rx="15.76" ry="6.3"/>
<ellipse class="st2" cx="661.73" cy="243.12" rx="15.76" ry="6.3"/>
<ellipse class="st2" cx="759.02" cy="223.25" rx="15.76" ry="6.3"/>
<ellipse class="st2" cx="735.37" cy="231.97" rx="24.73" ry="8.24"/>
<polygon class="st0" points="215.28,325.2 223.17,324.73 226.78,403.73 218.9,404.2 "/>
<polygon class="st0" points="227.27,309.17 233.75,313.02 223.22,324.97 216.74,321.12 "/>
<polygon class="st0" points="237.43,302.43 242.22,306.5 230.33,315.97 225.55,311.9 "/>
<polygon class="st0" points="250.77,295.8 254.39,300.19 240.76,307.77 237.14,303.38 "/>
<polygon class="st0" points="263.18,291.74 265.63,296.2 250.65,301.65 248.2,297.19 "/>
<polygon class="st0" points="277.28,289.07 278.78,293.82 262.92,296.98 261.42,292.23 "/>
<polygon class="st3" points="221.77,313.6 228,308.31 228.89,309.07 222.66,314.36 "/>
<polygon class="st3" points="237.66,301.7 251.43,294.95 252.06,295.88 238.29,302.63 "/>
<polygon class="st3" points="230.91,306.27 237.86,301.66 238.63,302.5 231.69,307.11 "/>
<polygon class="st0" points="210.44,306.5 206.56,310.35 212.86,322.3 216.74,318.45 "/>
<polygon class="st0" points="204.36,299.76 201.5,303.82 208.61,313.29 211.47,309.23 "/>
<polygon class="st0" points="196.37,293.13 194.21,297.52 202.37,305.09 204.53,300.7 "/>
<polygon class="st0" points="188.95,289.07 187.48,293.53 196.45,298.97 197.91,294.52 "/>
<polygon class="st0" points="180.51,286.4 179.61,291.15 189.11,294.3 190,289.55 "/>
<polygon class="st3" points="213.73,310.93 210,305.64 209.47,306.39 213.19,311.68 "/>
<polygon class="st3" points="204.22,299.03 195.98,292.28 195.61,293.2 203.84,299.95 "/>
<polygon class="st3" points="208.26,303.59 204.1,298.99 203.64,299.83 207.79,304.44 "/>
<polygon class="st0" points="209.75,286.49 212.26,286.74 206.71,307.77 204.2,307.51 "/>
<polygon class="st0" points="246.45,289.88 248.96,290.13 245.07,304.87 242.56,304.61 "/>
<polygon class="st0" points="236.01,291.51 237.44,291.23 241.73,305.65 240.3,305.93 "/>
<polygon class="st0" points="218.38,293.95 219.72,294.4 210.22,307.44 208.88,306.99 "/>
<polygon class="st0" points="188.29,295.31 189.42,294.62 210.64,314.91 209.51,315.6 "/>
<rect x="216.69" y="403.12" class="st3" width="12.63" height="4.07"/>
<path class="st0" d="M219.38,333.13l-8.72-14.91l16.02-0.96L219.38,333.13z"/>
<ellipse class="st1" cx="184.96" cy="262.61" rx="21.71" ry="8.28"/>
<ellipse class="st1" cx="153.18" cy="279.72" rx="16.36" ry="8.28"/>
<ellipse class="st1" cx="156.96" cy="269.03" rx="16.36" ry="8.28"/>
<ellipse class="st1" cx="197.86" cy="290.94" rx="20.77" ry="8.28"/>
<ellipse class="st1" cx="167.66" cy="290.41" rx="16.36" ry="8.28"/>
<ellipse class="st1" cx="225.86" cy="288.8" rx="19.19" ry="8.28"/>
<ellipse class="st1" cx="254.18" cy="288.8" rx="19.19" ry="8.28"/>
<ellipse class="st1" cx="285.02" cy="288.27" rx="19.82" ry="8.28"/>
<ellipse class="st1" cx="298.23" cy="277.58" rx="19.19" ry="8.28"/>
<ellipse class="st1" cx="283.13" cy="266.89" rx="19.19" ry="8.28"/>
<ellipse class="st1" cx="259.84" cy="261.54" rx="19.19" ry="8.28"/>
<ellipse class="st1" cx="213.28" cy="262.08" rx="19.19" ry="8.28"/>
<ellipse class="st1" cx="239.71" cy="266.89" rx="19.19" ry="8.28"/>
<ellipse class="st1" cx="163.25" cy="289.87" rx="16.36" ry="8.28"/>
<ellipse class="st2" cx="200.06" cy="276.24" rx="31.78" ry="10.69"/>
<ellipse class="st2" cx="161.36" cy="269.3" rx="18.25" ry="6.95"/>
<ellipse class="st2" cx="213.59" cy="262.35" rx="18.25" ry="6.95"/>
<ellipse class="st2" cx="284.07" cy="288" rx="18.25" ry="6.95"/>
<ellipse class="st2" cx="184.65" cy="262.88" rx="18.25" ry="6.95"/>
<ellipse class="st2" cx="224.92" cy="288" rx="18.25" ry="6.95"/>
<ellipse class="st2" cx="296.03" cy="277.85" rx="18.25" ry="6.95"/>
<ellipse class="st2" cx="197.23" cy="290.14" rx="18.25" ry="6.95"/>
<ellipse class="st2" cx="238.76" cy="267.69" rx="18.25" ry="6.95"/>
<ellipse class="st2" cx="253.87" cy="288" rx="18.25" ry="6.95"/>
<ellipse class="st2" cx="259.53" cy="262.35" rx="18.25" ry="6.95"/>
<ellipse class="st2" cx="158.85" cy="279.99" rx="18.25" ry="6.95"/>
<ellipse class="st2" cx="169.54" cy="289.61" rx="18.25" ry="6.95"/>
<ellipse class="st2" cx="282.18" cy="267.69" rx="18.25" ry="6.95"/>
<ellipse class="st2" cx="254.81" cy="277.31" rx="28.63" ry="9.09"/>
</svg>
