<?xml version="1.0" encoding="utf-8"?>
<!-- Generator: Adobe Illustrator 26.1.0, SVG Export Plug-In . SVG Version: 6.00 Build 0)  -->
<svg version="1.1" id="Layer_1" xmlns="http://www.w3.org/2000/svg" xmlns:xlink="http://www.w3.org/1999/xlink" x="0px" y="0px"
	 viewBox="0 0 1280 480" style="enable-background:new 0 0 1280 480;" xml:space="preserve">
<style type="text/css">
	.st0{fill:#824106;}
	.st1{fill:#D87F1F;}
	.st2{fill:#7CAE18;}
	.st3{fill:#91B549;}
</style>
<polygon class="st0" points="243.93,70.22 246.33,70.02 247.43,102.86 245.03,103.06 "/>
<polygon class="st0" points="247.57,63.55 249.54,65.15 246.34,70.12 244.38,68.52 "/>
<polygon class="st0" points="250.66,60.75 252.11,62.44 248.51,66.38 247.05,64.69 "/>
<polygon class="st0" points="254.71,57.99 255.81,59.82 251.67,62.97 250.57,61.14 "/>
<polygon class="st0" points="258.48,56.31 259.22,58.16 254.67,60.42 253.93,58.57 "/>
<polygon class="st0" points="262.76,55.2 263.22,57.17 258.4,58.48 257.94,56.51 "/>
<polygon class="st1" points="245.91,65.39 247.8,63.19 248.07,63.51 246.18,65.71 "/>
<polygon class="st1" points="250.73,60.45 254.91,57.64 255.1,58.03 250.92,60.83 "/>
<polygon class="st1" points="248.68,62.35 250.79,60.43 251.02,60.78 248.92,62.7 "/>
<polygon class="st0" points="242.46,62.44 241.29,64.04 243.2,69.01 244.38,67.41 "/>
<polygon class="st0" points="240.62,59.64 239.75,61.33 241.91,65.27 242.78,63.58 "/>
<polygon class="st0" points="238.19,56.88 237.53,58.71 240.01,61.86 240.67,60.03 "/>
<polygon class="st0" points="235.94,55.2 235.49,57.05 238.21,59.31 238.66,57.46 "/>
<polygon class="st0" points="233.37,54.09 233.1,56.06 235.99,57.37 236.26,55.4 "/>
<polygon class="st1" points="243.46,64.28 242.33,62.08 242.17,62.4 243.3,64.6 "/>
<polygon class="st1" points="240.58,59.34 238.07,56.53 237.96,56.91 240.46,59.72 "/>
<polygon class="st1" points="241.8,61.23 240.54,59.32 240.4,59.67 241.66,61.58 "/>
<polygon class="st0" points="242.25,54.12 243.02,54.23 241.33,62.97 240.57,62.86 "/>
<polygon class="st0" points="253.4,55.53 254.16,55.64 252.98,61.76 252.22,61.66 "/>
<polygon class="st0" points="250.23,56.21 250.66,56.1 251.97,62.09 251.53,62.21 "/>
<polygon class="st0" points="244.87,57.22 245.28,57.41 242.4,62.83 241.99,62.65 "/>
<polygon class="st0" points="235.74,57.79 236.08,57.51 242.53,65.94 242.18,66.22 "/>
<rect x="244.36" y="102.6" class="st1" width="3.84" height="1.69"/>
<path class="st0" d="M245.18,73.51l-2.65-6.2l4.87-0.4L245.18,73.51z"/>
<ellipse class="st2" cx="234.73" cy="44.2" rx="6.59" ry="3.44"/>
<ellipse class="st2" cx="225.08" cy="51.31" rx="4.97" ry="3.44"/>
<ellipse class="st2" cx="226.22" cy="46.86" rx="4.97" ry="3.44"/>
<ellipse class="st2" cx="238.64" cy="55.97" rx="6.31" ry="3.44"/>
<ellipse class="st2" cx="229.47" cy="55.75" rx="4.97" ry="3.44"/>
<ellipse class="st2" cx="247.15" cy="55.09" rx="5.83" ry="3.44"/>
<ellipse class="st2" cx="255.75" cy="55.09" rx="5.83" ry="3.44"/>
<ellipse class="st2" cx="265.11" cy="54.86" rx="6.02" ry="3.44"/>
<ellipse class="st2" cx="269.12" cy="50.42" rx="5.83" ry="3.44"/>
<ellipse class="st2" cx="264.54" cy="45.98" rx="5.83" ry="3.44"/>
<ellipse class="st2" cx="257.47" cy="43.75" rx="5.83" ry="3.44"/>
<ellipse class="st2" cx="243.33" cy="43.98" rx="5.83" ry="3.44"/>
<ellipse class="st2" cx="251.35" cy="45.98" rx="5.83" ry="3.44"/>
<ellipse class="st2" cx="228.13" cy="55.53" rx="4.97" ry="3.44"/>
<ellipse class="st3" cx="239.31" cy="49.86" rx="9.65" ry="4.44"/>
<ellipse class="st3" cx="227.56" cy="46.98" rx="5.54" ry="2.89"/>
<ellipse class="st3" cx="243.42" cy="44.09" rx="5.54" ry="2.89"/>
<ellipse class="st3" cx="264.82" cy="54.75" rx="5.54" ry="2.89"/>
<ellipse class="st3" cx="234.63" cy="44.31" rx="5.54" ry="2.89"/>
<ellipse class="st3" cx="246.86" cy="54.75" rx="5.54" ry="2.89"/>
<ellipse class="st3" cx="268.45" cy="50.53" rx="5.54" ry="2.89"/>
<ellipse class="st3" cx="238.45" cy="55.64" rx="5.54" ry="2.89"/>
<ellipse class="st3" cx="251.07" cy="46.31" rx="5.54" ry="2.89"/>
<ellipse class="st3" cx="255.65" cy="54.75" rx="5.54" ry="2.89"/>
<ellipse class="st3" cx="257.37" cy="44.09" rx="5.54" ry="2.89"/>
<ellipse class="st3" cx="226.8" cy="51.42" rx="5.54" ry="2.89"/>
<ellipse class="st3" cx="230.04" cy="55.42" rx="5.54" ry="2.89"/>
<ellipse class="st3" cx="264.25" cy="46.31" rx="5.54" ry="2.89"/>
<ellipse class="st3" cx="255.94" cy="50.31" rx="8.69" ry="3.78"/>
<polygon class="st0" points="927.9,314.68 937.94,314.05 942.55,419.6 932.5,420.23 "/>
<polygon class="st0" points="943.17,293.26 951.42,298.4 938,314.37 929.76,309.22 "/>
<polygon class="st0" points="956.11,284.25 962.2,289.68 947.07,302.34 940.98,296.91 "/>
<polygon class="st0" points="973.11,275.39 977.72,281.26 960.35,291.38 955.74,285.51 "/>
<polygon class="st0" points="988.91,269.97 992.03,275.92 972.95,283.2 969.83,277.25 "/>
<polygon class="st0" points="1006.87,266.4 1008.78,272.74 988.57,276.96 986.66,270.62 "/>
<polygon class="st1" points="936.17,299.18 944.1,292.11 945.24,293.12 937.3,300.19 "/>
<polygon class="st1" points="956.4,283.28 973.94,274.25 974.74,275.49 957.2,284.51 "/>
<polygon class="st1" points="947.81,289.38 956.65,283.22 957.64,284.35 948.8,290.5 "/>
<polygon class="st0" points="921.73,289.69 916.79,294.83 924.82,310.8 929.75,305.65 "/>
<polygon class="st0" points="913.98,280.68 910.34,286.11 919.39,298.77 923.04,293.34 "/>
<polygon class="st0" points="903.81,271.82 901.05,277.69 911.45,287.81 914.21,281.94 "/>
<polygon class="st0" points="894.36,266.4 892.49,272.35 903.91,279.63 905.77,273.68 "/>
<polygon class="st0" points="883.61,262.83 882.47,269.17 894.56,273.39 895.7,267.05 "/>
<polygon class="st1" points="925.92,295.6 921.17,288.54 920.49,289.55 925.24,296.61 "/>
<polygon class="st1" points="913.81,279.7 903.31,270.68 902.83,271.92 913.33,280.94 "/>
<polygon class="st1" points="918.95,285.81 913.66,279.65 913.07,280.78 918.36,286.93 "/>
<polygon class="st0" points="920.85,262.95 924.05,263.29 916.98,291.38 913.78,291.04 "/>
<polygon class="st0" points="967.6,267.48 970.8,267.82 965.84,287.51 962.65,287.17 "/>
<polygon class="st0" points="954.3,269.66 956.12,269.29 961.59,288.56 959.77,288.93 "/>
<polygon class="st0" points="931.84,272.91 933.55,273.52 921.45,290.95 919.74,290.34 "/>
<polygon class="st0" points="893.52,274.74 894.96,273.82 921.99,300.92 920.55,301.84 "/>
<rect x="929.69" y="418.78" class="st1" width="16.09" height="5.44"/>
<path class="st0" d="M933.12,325.27l-11.1-19.92l20.41-1.28L933.12,325.27z"/>
<ellipse class="st2" cx="889.28" cy="231.05" rx="27.65" ry="11.07"/>
<ellipse class="st2" cx="848.8" cy="253.9" rx="20.84" ry="11.07"/>
<ellipse class="st2" cx="853.61" cy="239.62" rx="20.84" ry="11.07"/>
<ellipse class="st2" cx="905.71" cy="268.9" rx="26.45" ry="11.07"/>
<ellipse class="st2" cx="867.23" cy="268.18" rx="20.84" ry="11.07"/>
<ellipse class="st2" cx="941.38" cy="266.04" rx="24.45" ry="11.07"/>
<ellipse class="st2" cx="977.45" cy="266.04" rx="24.45" ry="11.07"/>
<ellipse class="st2" cx="1016.72" cy="265.33" rx="25.25" ry="11.07"/>
<ellipse class="st2" cx="1033.55" cy="251.05" rx="24.45" ry="11.07"/>
<ellipse class="st2" cx="1014.32" cy="236.76" rx="24.45" ry="11.07"/>
<ellipse class="st2" cx="984.66" cy="229.62" rx="24.45" ry="11.07"/>
<ellipse class="st2" cx="925.35" cy="230.34" rx="24.45" ry="11.07"/>
<ellipse class="st2" cx="959.01" cy="236.76" rx="24.45" ry="11.07"/>
<ellipse class="st2" cx="861.63" cy="267.47" rx="20.84" ry="11.07"/>
<ellipse class="st3" cx="908.51" cy="249.26" rx="40.48" ry="14.28"/>
<ellipse class="st3" cx="859.22" cy="239.98" rx="23.24" ry="9.28"/>
<ellipse class="st3" cx="925.75" cy="230.69" rx="23.24" ry="9.28"/>
<ellipse class="st3" cx="1015.52" cy="264.97" rx="23.24" ry="9.28"/>
<ellipse class="st3" cx="888.88" cy="231.41" rx="23.24" ry="9.28"/>
<ellipse class="st3" cx="940.18" cy="264.97" rx="23.24" ry="9.28"/>
<ellipse class="st3" cx="1030.75" cy="251.4" rx="23.24" ry="9.28"/>
<ellipse class="st3" cx="904.91" cy="267.83" rx="23.24" ry="9.28"/>
<ellipse class="st3" cx="957.81" cy="237.83" rx="23.24" ry="9.28"/>
<ellipse class="st3" cx="977.05" cy="264.97" rx="23.24" ry="9.28"/>
<ellipse class="st3" cx="984.26" cy="230.69" rx="23.24" ry="9.28"/>
<ellipse class="st3" cx="856.01" cy="254.26" rx="23.24" ry="9.28"/>
<ellipse class="st3" cx="869.64" cy="267.11" rx="23.24" ry="9.28"/>
<ellipse class="st3" cx="1013.11" cy="237.83" rx="23.24" ry="9.28"/>
<ellipse class="st3" cx="978.25" cy="250.69" rx="36.47" ry="12.14"/>
<polygon class="st0" points="452.23,86.5 456.43,86.18 458.35,138.57 454.16,138.88 "/>
<polygon class="st0" points="458.6,75.86 462.05,78.42 456.45,86.34 453.01,83.79 "/>
<polygon class="st0" points="464,71.39 466.55,74.09 460.23,80.37 457.69,77.67 "/>
<polygon class="st0" points="471.1,67 473.02,69.91 465.77,74.93 463.85,72.02 "/>
<polygon class="st0" points="477.69,64.31 478.99,67.26 471.03,70.87 469.73,67.92 "/>
<polygon class="st0" points="485.18,62.53 485.98,65.68 477.55,67.78 476.75,64.63 "/>
<polygon class="st1" points="455.68,78.8 458.99,75.29 459.47,75.79 456.16,79.3 "/>
<polygon class="st1" points="464.13,70.91 471.44,66.43 471.78,67.05 464.46,71.52 "/>
<polygon class="st1" points="460.54,73.94 464.23,70.88 464.64,71.44 460.95,74.5 "/>
<polygon class="st0" points="449.66,74.09 447.6,76.65 450.95,84.57 453.01,82.01 "/>
<polygon class="st0" points="446.43,69.62 444.91,72.32 448.69,78.6 450.21,75.9 "/>
<polygon class="st0" points="442.18,65.22 441.03,68.14 445.37,73.16 446.52,70.25 "/>
<polygon class="st0" points="438.24,62.53 437.46,65.49 442.22,69.1 443,66.15 "/>
<polygon class="st0" points="433.76,60.76 433.28,63.91 438.32,66 438.8,62.85 "/>
<polygon class="st1" points="451.41,77.03 449.43,73.52 449.14,74.02 451.12,77.53 "/>
<polygon class="st1" points="446.36,69.14 441.98,64.66 441.78,65.27 446.16,69.75 "/>
<polygon class="st1" points="448.5,72.17 446.29,69.11 446.05,69.67 448.25,72.72 "/>
<polygon class="st0" points="449.29,60.82 450.63,60.99 447.68,74.93 446.34,74.76 "/>
<polygon class="st0" points="468.8,63.07 470.13,63.24 468.06,73.01 466.73,72.84 "/>
<polygon class="st0" points="463.25,64.15 464.01,63.97 466.29,73.53 465.53,73.71 "/>
<polygon class="st0" points="453.88,65.77 454.59,66.07 449.54,74.72 448.83,74.42 "/>
<polygon class="st0" points="437.89,66.67 438.49,66.22 449.77,79.67 449.17,80.12 "/>
<rect x="452.98" y="138.16" class="st1" width="6.71" height="2.7"/>
<path class="st0" d="M454.41,91.75l-4.63-9.89l8.52-0.64L454.41,91.75z"/>
<ellipse class="st2" cx="436.12" cy="44.99" rx="11.54" ry="5.49"/>
<ellipse class="st2" cx="419.23" cy="56.33" rx="8.69" ry="5.49"/>
<ellipse class="st2" cx="421.24" cy="49.24" rx="8.69" ry="5.49"/>
<ellipse class="st2" cx="442.98" cy="63.77" rx="11.04" ry="5.49"/>
<ellipse class="st2" cx="426.92" cy="63.42" rx="8.69" ry="5.49"/>
<ellipse class="st2" cx="457.86" cy="62.36" rx="10.2" ry="5.49"/>
<ellipse class="st2" cx="472.91" cy="62.36" rx="10.2" ry="5.49"/>
<ellipse class="st2" cx="489.29" cy="62" rx="10.53" ry="5.49"/>
<ellipse class="st2" cx="496.32" cy="54.91" rx="10.2" ry="5.49"/>
<ellipse class="st2" cx="488.29" cy="47.83" rx="10.2" ry="5.49"/>
<ellipse class="st2" cx="475.92" cy="44.28" rx="10.2" ry="5.49"/>
<ellipse class="st2" cx="451.17" cy="44.64" rx="10.2" ry="5.49"/>
<ellipse class="st2" cx="465.21" cy="47.83" rx="10.2" ry="5.49"/>
<ellipse class="st2" cx="424.58" cy="63.06" rx="8.69" ry="5.49"/>
<ellipse class="st3" cx="444.15" cy="54.03" rx="16.89" ry="7.09"/>
<ellipse class="st3" cx="423.58" cy="49.42" rx="9.7" ry="4.61"/>
<ellipse class="st3" cx="451.34" cy="44.81" rx="9.7" ry="4.61"/>
<ellipse class="st3" cx="488.79" cy="61.82" rx="9.7" ry="4.61"/>
<ellipse class="st3" cx="435.95" cy="45.17" rx="9.7" ry="4.61"/>
<ellipse class="st3" cx="457.36" cy="61.82" rx="9.7" ry="4.61"/>
<ellipse class="st3" cx="495.15" cy="55.09" rx="9.7" ry="4.61"/>
<ellipse class="st3" cx="442.64" cy="63.24" rx="9.7" ry="4.61"/>
<ellipse class="st3" cx="464.71" cy="48.36" rx="9.7" ry="4.61"/>
<ellipse class="st3" cx="472.74" cy="61.82" rx="9.7" ry="4.61"/>
<ellipse class="st3" cx="475.75" cy="44.81" rx="9.7" ry="4.61"/>
<ellipse class="st3" cx="422.24" cy="56.51" rx="9.7" ry="4.61"/>
<ellipse class="st3" cx="427.93" cy="62.89" rx="9.7" ry="4.61"/>
<ellipse class="st3" cx="487.79" cy="48.36" rx="9.7" ry="4.61"/>
<ellipse class="st3" cx="473.24" cy="54.74" rx="15.22" ry="6.02"/>
<polygon class="st0" points="566.84,302.49 576.89,301.86 581.49,407.41 571.45,408.05 "/>
<polygon class="st0" points="582.11,281.07 590.36,286.22 576.95,302.18 568.7,297.04 "/>
<polygon class="st0" points="595.06,272.06 601.15,277.49 586.02,290.15 579.92,284.72 "/>
<polygon class="st0" points="612.05,263.2 616.66,269.07 599.29,279.19 594.68,273.32 "/>
<polygon class="st0" points="627.86,257.78 630.97,263.74 611.89,271.02 608.78,265.06 "/>
<polygon class="st0" points="645.82,254.21 647.72,260.56 627.52,264.77 625.61,258.43 "/>
<polygon class="st1" points="575.11,286.99 583.05,279.92 584.18,280.93 576.25,288 "/>
<polygon class="st1" points="595.35,271.09 612.88,262.07 613.69,263.3 596.15,272.32 "/>
<polygon class="st1" points="586.75,277.19 595.6,271.04 596.58,272.16 587.74,278.32 "/>
<polygon class="st0" points="560.67,277.5 555.74,282.65 563.76,298.61 568.7,293.47 "/>
<polygon class="st0" points="552.93,268.49 549.28,273.92 558.34,286.58 561.98,281.15 "/>
<polygon class="st0" points="542.76,259.63 540,265.5 550.39,275.62 553.15,269.75 "/>
<polygon class="st0" points="533.3,254.21 531.44,260.17 542.85,267.45 544.72,261.49 "/>
<polygon class="st0" points="522.55,250.64 521.41,256.99 533.5,261.2 534.65,254.86 "/>
<polygon class="st1" points="564.86,283.42 560.11,276.35 559.44,277.36 564.18,284.43 "/>
<polygon class="st1" points="552.75,267.52 542.26,258.5 541.78,259.73 552.27,268.75 "/>
<polygon class="st1" points="557.9,273.62 552.6,267.46 552.01,268.59 557.31,274.75 "/>
<polygon class="st0" points="559.8,250.76 562.99,251.1 555.92,279.19 552.72,278.85 "/>
<polygon class="st0" points="606.55,255.29 609.75,255.63 604.79,275.32 601.59,274.98 "/>
<polygon class="st0" points="593.25,257.47 595.07,257.1 600.53,276.37 598.71,276.74 "/>
<polygon class="st0" points="570.79,260.73 572.5,261.33 560.39,278.76 558.68,278.16 "/>
<polygon class="st0" points="532.46,262.55 533.9,261.63 560.94,288.74 559.49,289.66 "/>
<rect x="568.64" y="406.59" class="st1" width="16.09" height="5.44"/>
<path class="st0" d="M572.06,313.08l-11.1-19.92l20.41-1.28L572.06,313.08z"/>
<ellipse class="st2" cx="528.22" cy="218.86" rx="27.65" ry="11.07"/>
<ellipse class="st2" cx="487.74" cy="241.71" rx="20.84" ry="11.07"/>
<ellipse class="st2" cx="492.55" cy="227.43" rx="20.84" ry="11.07"/>
<ellipse class="st2" cx="544.65" cy="256.71" rx="26.45" ry="11.07"/>
<ellipse class="st2" cx="506.18" cy="256" rx="20.84" ry="11.07"/>
<ellipse class="st2" cx="580.32" cy="253.85" rx="24.45" ry="11.07"/>
<ellipse class="st2" cx="616.39" cy="253.85" rx="24.45" ry="11.07"/>
<ellipse class="st2" cx="655.67" cy="253.14" rx="25.25" ry="11.07"/>
<ellipse class="st2" cx="672.5" cy="238.86" rx="24.45" ry="11.07"/>
<ellipse class="st2" cx="653.26" cy="224.58" rx="24.45" ry="11.07"/>
<ellipse class="st2" cx="623.6" cy="217.44" rx="24.45" ry="11.07"/>
<ellipse class="st2" cx="564.29" cy="218.15" rx="24.45" ry="11.07"/>
<ellipse class="st2" cx="597.96" cy="224.58" rx="24.45" ry="11.07"/>
<ellipse class="st2" cx="500.57" cy="255.28" rx="20.84" ry="11.07"/>
<ellipse class="st3" cx="547.46" cy="237.07" rx="40.48" ry="14.28"/>
<ellipse class="st3" cx="498.16" cy="227.79" rx="23.24" ry="9.28"/>
<ellipse class="st3" cx="564.69" cy="218.51" rx="23.24" ry="9.28"/>
<ellipse class="st3" cx="654.46" cy="252.78" rx="23.24" ry="9.28"/>
<ellipse class="st3" cx="527.82" cy="219.22" rx="23.24" ry="9.28"/>
<ellipse class="st3" cx="579.12" cy="252.78" rx="23.24" ry="9.28"/>
<ellipse class="st3" cx="669.69" cy="239.21" rx="23.24" ry="9.28"/>
<ellipse class="st3" cx="543.85" cy="255.64" rx="23.24" ry="9.28"/>
<ellipse class="st3" cx="596.75" cy="225.65" rx="23.24" ry="9.28"/>
<ellipse class="st3" cx="615.99" cy="252.78" rx="23.24" ry="9.28"/>
<ellipse class="st3" cx="623.2" cy="218.51" rx="23.24" ry="9.28"/>
<ellipse class="st3" cx="494.96" cy="242.07" rx="23.24" ry="9.28"/>
<ellipse class="st3" cx="508.59" cy="254.93" rx="23.24" ry="9.28"/>
<ellipse class="st3" cx="652.06" cy="225.65" rx="23.24" ry="9.28"/>
<ellipse class="st3" cx="617.19" cy="238.5" rx="36.47" ry="12.14"/>
<polygon class="st0" points="348.89,204.48 344.22,203.87 342.08,305.51 346.75,306.12 "/>
<polygon class="st0" points="341.8,183.85 337.96,188.81 344.19,204.18 348.03,199.23 "/>
<polygon class="st0" points="335.78,175.18 332.95,180.41 339.98,192.59 342.81,187.36 "/>
<polygon class="st0" points="327.89,166.64 325.75,172.29 333.82,182.04 335.96,176.39 "/>
<polygon class="st0" points="320.55,161.42 319.1,167.16 327.96,174.17 329.41,168.44 "/>
<polygon class="st0" points="312.21,157.99 311.32,164.1 320.71,168.16 321.59,162.05 "/>
<polygon class="st1" points="345.05,189.55 341.36,182.74 340.84,183.71 344.52,190.52 "/>
<polygon class="st1" points="335.65,174.24 327.5,165.55 327.13,166.74 335.28,175.43 "/>
<polygon class="st1" points="339.64,180.11 335.53,174.19 335.07,175.27 339.18,181.2 "/>
<polygon class="st0" points="351.75,180.41 354.05,185.37 350.32,200.74 348.03,195.79 "/>
<polygon class="st0" points="355.35,171.74 357.04,176.97 352.84,189.15 351.14,183.93 "/>
<polygon class="st0" points="360.07,163.21 361.36,168.86 356.53,178.6 355.25,172.95 "/>
<polygon class="st0" points="364.47,157.99 365.33,163.72 360.03,170.73 359.16,165 "/>
<polygon class="st0" points="369.46,154.55 369.99,160.66 364.37,164.72 363.84,158.61 "/>
<polygon class="st1" points="349.81,186.11 352.01,179.3 352.33,180.28 350.12,187.08 "/>
<polygon class="st1" points="355.43,170.8 360.3,162.11 360.53,163.3 355.65,171.99 "/>
<polygon class="st1" points="353.04,176.68 355.5,170.75 355.78,171.83 353.32,177.76 "/>
<polygon class="st0" points="352.16,154.66 350.68,154.99 353.96,182.04 355.45,181.71 "/>
<polygon class="st0" points="330.45,159.03 328.96,159.35 331.26,178.31 332.75,177.98 "/>
<polygon class="st0" points="336.62,161.13 335.78,160.77 333.24,179.32 334.09,179.68 "/>
<polygon class="st0" points="347.05,164.26 346.26,164.84 351.88,181.63 352.68,181.04 "/>
<polygon class="st0" points="364.86,166.02 364.19,165.13 351.63,191.23 352.3,192.12 "/>
<rect x="340.58" y="304.73" class="st1" width="7.47" height="5.23"/>
<path class="st0" d="M346.46,214.67l5.16-19.18l-9.48-1.24L346.46,214.67z"/>
<ellipse class="st2" cx="366.82" cy="123.95" rx="12.84" ry="10.66"/>
<ellipse class="st2" cx="385.63" cy="145.95" rx="9.68" ry="10.66"/>
<ellipse class="st2" cx="383.39" cy="132.2" rx="9.68" ry="10.66"/>
<ellipse class="st2" cx="359.19" cy="160.39" rx="12.28" ry="10.66"/>
<ellipse class="st2" cx="377.06" cy="159.71" rx="9.68" ry="10.66"/>
<ellipse class="st2" cx="342.63" cy="157.64" rx="11.35" ry="10.66"/>
<ellipse class="st2" cx="325.88" cy="157.64" rx="11.35" ry="10.66"/>
<ellipse class="st2" cx="307.63" cy="156.95" rx="11.73" ry="10.66"/>
<ellipse class="st2" cx="299.82" cy="143.2" rx="11.35" ry="10.66"/>
<ellipse class="st2" cx="308.75" cy="129.45" rx="11.35" ry="10.66"/>
<ellipse class="st2" cx="322.52" cy="122.57" rx="11.35" ry="10.66"/>
<ellipse class="st2" cx="350.07" cy="123.26" rx="11.35" ry="10.66"/>
<ellipse class="st2" cx="334.44" cy="129.45" rx="11.35" ry="10.66"/>
<ellipse class="st2" cx="379.67" cy="159.02" rx="9.68" ry="10.66"/>
<ellipse class="st3" cx="357.89" cy="141.48" rx="18.8" ry="13.75"/>
<ellipse class="st3" cx="380.79" cy="132.54" rx="10.8" ry="8.94"/>
<ellipse class="st3" cx="349.89" cy="123.6" rx="10.8" ry="8.94"/>
<ellipse class="st3" cx="308.19" cy="156.61" rx="10.8" ry="8.94"/>
<ellipse class="st3" cx="367.01" cy="124.29" rx="10.8" ry="8.94"/>
<ellipse class="st3" cx="343.19" cy="156.61" rx="10.8" ry="8.94"/>
<ellipse class="st3" cx="301.12" cy="143.55" rx="10.8" ry="8.94"/>
<ellipse class="st3" cx="359.57" cy="159.36" rx="10.8" ry="8.94"/>
<ellipse class="st3" cx="335" cy="130.48" rx="10.8" ry="8.94"/>
<ellipse class="st3" cx="326.06" cy="156.61" rx="10.8" ry="8.94"/>
<ellipse class="st3" cx="322.71" cy="123.6" rx="10.8" ry="8.94"/>
<ellipse class="st3" cx="382.27" cy="146.3" rx="10.8" ry="8.94"/>
<ellipse class="st3" cx="375.95" cy="158.67" rx="10.8" ry="8.94"/>
<ellipse class="st3" cx="309.31" cy="130.48" rx="10.8" ry="8.94"/>
<ellipse class="st3" cx="325.5" cy="142.86" rx="16.94" ry="11.69"/>
<polygon class="st0" points="184.26,75.22 186.32,74.92 187.27,124.96 185.2,125.26 "/>
<polygon class="st0" points="187.39,65.06 189.09,67.5 186.33,75.07 184.64,72.63 "/>
<polygon class="st0" points="190.05,60.79 191.3,63.37 188.19,69.37 186.94,66.79 "/>
<polygon class="st0" points="193.54,56.59 194.49,59.37 190.92,64.17 189.97,61.39 "/>
<polygon class="st0" points="196.78,54.02 197.42,56.84 193.51,60.3 192.87,57.47 "/>
<polygon class="st0" points="200.47,52.33 200.86,55.34 196.71,57.34 196.32,54.33 "/>
<polygon class="st1" points="185.96,67.87 187.58,64.52 187.82,65 186.19,68.35 "/>
<polygon class="st1" points="190.11,60.33 193.71,56.05 193.87,56.64 190.27,60.92 "/>
<polygon class="st1" points="188.35,63.22 190.16,60.31 190.36,60.84 188.55,63.76 "/>
<polygon class="st0" points="182.99,63.37 181.98,65.81 183.63,73.38 184.64,70.94 "/>
<polygon class="st0" points="181.4,59.1 180.65,61.67 182.51,67.67 183.26,65.1 "/>
<polygon class="st0" points="179.31,54.9 178.75,57.68 180.88,62.48 181.45,59.7 "/>
<polygon class="st0" points="177.37,52.33 176.99,55.15 179.33,58.6 179.72,55.78 "/>
<polygon class="st0" points="175.16,50.64 174.93,53.64 177.41,55.64 177.65,52.64 "/>
<polygon class="st1" points="183.85,66.18 182.88,62.82 182.74,63.3 183.71,66.65 "/>
<polygon class="st1" points="181.37,58.64 179.21,54.36 179.11,54.95 181.27,59.22 "/>
<polygon class="st1" points="182.42,61.53 181.33,58.61 181.21,59.15 182.3,62.06 "/>
<polygon class="st0" points="182.81,50.69 183.47,50.86 182.02,64.17 181.36,64.01 "/>
<polygon class="st0" points="192.41,52.84 193.07,53 192.05,62.34 191.39,62.17 "/>
<polygon class="st0" points="189.68,53.88 190.05,53.7 191.17,62.83 190.8,63.01 "/>
<polygon class="st0" points="185.07,55.42 185.42,55.71 182.93,63.97 182.58,63.68 "/>
<polygon class="st0" points="177.2,56.28 177.5,55.85 183.04,68.7 182.75,69.13 "/>
<rect x="184.63" y="124.57" class="st1" width="3.3" height="2.58"/>
<path class="st0" d="M185.33,80.24l-2.28-9.44l4.19-0.61L185.33,80.24z"/>
<ellipse class="st2" cx="176.33" cy="35.57" rx="5.68" ry="5.25"/>
<ellipse class="st2" cx="168.02" cy="46.4" rx="4.28" ry="5.25"/>
<ellipse class="st2" cx="169.01" cy="39.63" rx="4.28" ry="5.25"/>
<ellipse class="st2" cx="179.7" cy="53.51" rx="5.43" ry="5.25"/>
<ellipse class="st2" cx="171.8" cy="53.18" rx="4.28" ry="5.25"/>
<ellipse class="st2" cx="187.02" cy="52.16" rx="5.02" ry="5.25"/>
<ellipse class="st2" cx="194.43" cy="52.16" rx="5.02" ry="5.25"/>
<ellipse class="st2" cx="202.49" cy="51.82" rx="5.18" ry="5.25"/>
<ellipse class="st2" cx="205.95" cy="45.05" rx="5.02" ry="5.25"/>
<ellipse class="st2" cx="202" cy="38.28" rx="5.02" ry="5.25"/>
<ellipse class="st2" cx="195.91" cy="34.89" rx="5.02" ry="5.25"/>
<ellipse class="st2" cx="183.73" cy="35.23" rx="5.02" ry="5.25"/>
<ellipse class="st2" cx="190.65" cy="38.28" rx="5.02" ry="5.25"/>
<ellipse class="st2" cx="170.65" cy="52.84" rx="4.28" ry="5.25"/>
<ellipse class="st3" cx="180.28" cy="44.2" rx="8.31" ry="6.77"/>
<ellipse class="st3" cx="170.16" cy="39.8" rx="4.77" ry="4.4"/>
<ellipse class="st3" cx="183.82" cy="35.4" rx="4.77" ry="4.4"/>
<ellipse class="st3" cx="202.25" cy="51.65" rx="4.77" ry="4.4"/>
<ellipse class="st3" cx="176.25" cy="35.74" rx="4.77" ry="4.4"/>
<ellipse class="st3" cx="186.78" cy="51.65" rx="4.77" ry="4.4"/>
<ellipse class="st3" cx="205.37" cy="45.22" rx="4.77" ry="4.4"/>
<ellipse class="st3" cx="179.54" cy="53.01" rx="4.77" ry="4.4"/>
<ellipse class="st3" cx="190.4" cy="38.79" rx="4.77" ry="4.4"/>
<ellipse class="st3" cx="194.35" cy="51.65" rx="4.77" ry="4.4"/>
<ellipse class="st3" cx="195.83" cy="35.4" rx="4.77" ry="4.4"/>
<ellipse class="st3" cx="169.5" cy="46.57" rx="4.77" ry="4.4"/>
<ellipse class="st3" cx="172.3" cy="52.67" rx="4.77" ry="4.4"/>
<ellipse class="st3" cx="201.75" cy="38.79" rx="4.77" ry="4.4"/>
<ellipse class="st3" cx="194.59" cy="44.88" rx="7.49" ry="5.76"/>
</svg>
